<svg width="192" height="17" viewBox="0 0 192 17" fill="none" xmlns="http://www.w3.org/2000/svg">
<path d="M11.1855 13.4429H0.943359V15.9248C0.943359 16.4115 0.782389 16.6548 0.460449 16.6548C0.153483 16.6548 0 16.4002 0 15.8911V13.2744C0 12.96 0.0336914 12.7541 0.101074 12.6567C0.175944 12.5519 0.318197 12.492 0.527832 12.4771C1.03695 12.4471 1.56478 12.1963 2.11133 11.7246C2.66536 11.2529 3.05469 10.6802 3.2793 10.0063C3.51139 9.33252 3.62744 8.32926 3.62744 6.99658V1.24658H2.33594C1.81185 1.24658 1.5498 1.08936 1.5498 0.774902C1.5498 0.460449 1.81185 0.303223 2.33594 0.303223H11.3315C11.8631 0.303223 12.1289 0.460449 12.1289 0.774902C12.1289 1.08936 11.8631 1.24658 11.3315 1.24658H10.3545V12.4995H11.3315C11.6685 12.4995 11.8856 12.5369 11.9829 12.6118C12.0802 12.6792 12.1289 12.9001 12.1289 13.2744V15.8911C12.1289 16.4002 11.9754 16.6548 11.6685 16.6548C11.3465 16.6548 11.1855 16.4115 11.1855 15.9248V13.4429ZM4.5708 1.24658V6.99658C4.5708 9.72184 3.93066 11.5562 2.65039 12.4995H9.3999V1.24658H4.5708Z" fill="white"/>
<path d="M24.9878 8.80469H15.3745C15.5392 10.0251 16.0483 11.0096 16.9019 11.7583C17.7629 12.4995 18.826 12.8701 20.0913 12.8701C20.7951 12.8701 21.5326 12.7541 22.3037 12.522C23.0749 12.2899 23.7038 11.9829 24.1904 11.6011C24.3327 11.4888 24.4562 11.4326 24.561 11.4326C24.6808 11.4326 24.7856 11.4813 24.8755 11.5786C24.9653 11.6685 25.0103 11.777 25.0103 11.9043C25.0103 12.0316 24.9504 12.1551 24.8306 12.2749C24.4712 12.6493 23.8311 13.0011 22.9102 13.3306C21.9967 13.6525 21.0571 13.8135 20.0913 13.8135C18.4741 13.8135 17.1227 13.2856 16.0371 12.23C14.959 11.1668 14.4199 9.88281 14.4199 8.37793C14.4199 7.00781 14.9253 5.83236 15.936 4.85156C16.9543 3.87077 18.2121 3.38037 19.7095 3.38037C21.2518 3.38037 22.5208 3.88574 23.5166 4.89648C24.5124 5.89974 25.0028 7.20247 24.9878 8.80469ZM24.0332 7.8501C23.846 6.80941 23.3519 5.96338 22.5508 5.31201C21.7572 4.66064 20.8101 4.33496 19.7095 4.33496C18.6089 4.33496 17.6618 4.6569 16.8682 5.30078C16.0745 5.94466 15.5804 6.79443 15.3857 7.8501H24.0332Z" fill="white"/>
<path d="M37.8579 4.67188V12.4995H38.8013C39.3254 12.4995 39.5874 12.6567 39.5874 12.9712C39.5874 13.2856 39.3254 13.4429 38.8013 13.4429H35.9824C35.4583 13.4429 35.1963 13.2856 35.1963 12.9712C35.1963 12.6567 35.4583 12.4995 35.9824 12.4995H36.9146V4.67188H32.2764V10.0962C32.2764 11.4064 31.9919 12.3535 31.4229 12.9375C30.8538 13.5215 30.1164 13.8135 29.2104 13.8135C28.8361 13.8135 28.4692 13.7686 28.1099 13.6787C27.7505 13.5889 27.5371 13.4953 27.4697 13.3979C27.4023 13.2931 27.3687 13.0872 27.3687 12.7803V11.8481C27.3687 11.3765 27.5371 11.1406 27.874 11.1406C28.166 11.1406 28.312 11.3577 28.312 11.792V12.7129C28.6564 12.7952 28.9634 12.8364 29.2329 12.8364C30.6255 12.8364 31.3218 11.923 31.3218 10.0962V4.67188H30.0864C29.5623 4.67188 29.3003 4.51465 29.3003 4.2002C29.3003 3.87826 29.5623 3.71729 30.0864 3.71729H38.8013C39.3254 3.71729 39.5874 3.87826 39.5874 4.2002C39.5874 4.51465 39.3254 4.67188 38.8013 4.67188H37.8579Z" fill="white"/>
<path d="M52.7832 8.60254C52.7832 10.04 52.2666 11.2679 51.2334 12.2861C50.2077 13.3044 48.9686 13.8135 47.5161 13.8135C46.0487 13.8135 44.8021 13.3044 43.7764 12.2861C42.7507 11.2604 42.2378 10.0326 42.2378 8.60254C42.2378 7.16504 42.7507 5.93717 43.7764 4.91895C44.8021 3.89323 46.0487 3.38037 47.5161 3.38037C48.9686 3.38037 50.2077 3.88949 51.2334 4.90771C52.2666 5.92594 52.7832 7.15755 52.7832 8.60254ZM51.8286 8.60254C51.8286 7.4196 51.4056 6.4126 50.5596 5.58154C49.721 4.75049 48.7028 4.33496 47.5049 4.33496C46.307 4.33496 45.285 4.75423 44.439 5.59277C43.6004 6.42383 43.1812 7.42708 43.1812 8.60254C43.1812 9.77051 43.6004 10.7738 44.439 11.6123C45.285 12.4508 46.307 12.8701 47.5049 12.8701C48.7028 12.8701 49.721 12.4546 50.5596 11.6235C51.4056 10.785 51.8286 9.778 51.8286 8.60254Z" fill="white"/>
<path d="M61.1274 3.71729H61.5317C61.951 3.71729 62.3104 3.86702 62.6099 4.1665C62.9093 4.46598 63.0591 4.82161 63.0591 5.2334C63.0591 5.67513 62.9056 6.04199 62.5986 6.33398C62.2992 6.62598 61.9435 6.77197 61.5317 6.77197H61.1274C60.7082 6.77197 60.3488 6.62223 60.0493 6.32275C59.7498 6.02327 59.6001 5.66764 59.6001 5.25586C59.6001 4.81413 59.7498 4.44727 60.0493 4.15527C60.3563 3.86328 60.7157 3.71729 61.1274 3.71729ZM61.1274 10.7363H61.5317C61.951 10.7363 62.3104 10.8861 62.6099 11.1855C62.9093 11.4775 63.0591 11.8332 63.0591 12.2524C63.0591 12.6867 62.9056 13.0498 62.5986 13.3418C62.2992 13.6338 61.9435 13.7798 61.5317 13.7798H61.1274C60.7082 13.7798 60.3488 13.6338 60.0493 13.3418C59.7498 13.0423 59.6001 12.6829 59.6001 12.2637C59.6001 11.8294 59.7498 11.4663 60.0493 11.1743C60.3563 10.8823 60.7157 10.7363 61.1274 10.7363Z" fill="white"/>
<path d="M93.1006 1.59473V0.932129C93.1006 0.70752 93.1418 0.546549 93.2241 0.449219C93.314 0.351888 93.43 0.303223 93.5723 0.303223C93.7145 0.303223 93.8268 0.351888 93.9092 0.449219C93.999 0.546549 94.0439 0.70752 94.0439 0.932129V3.54883C94.0439 3.78092 93.999 3.94564 93.9092 4.04297C93.8268 4.1403 93.7145 4.18896 93.5723 4.18896C93.445 4.18896 93.3364 4.14404 93.2466 4.0542C93.1642 3.96436 93.1156 3.81836 93.1006 3.61621C93.0631 2.9873 92.7225 2.42952 92.0786 1.94287C91.2101 1.27653 90.2218 0.943359 89.1138 0.943359C88.3875 0.943359 87.7025 1.10433 87.0586 1.42627C86.5794 1.65837 86.1976 1.94287 85.9131 2.27979C85.4189 2.86377 85.0259 3.51139 84.7339 4.22266C84.5243 4.74674 84.4194 5.33822 84.4194 5.99707V7.64795C84.4194 9.0555 84.9286 10.2796 85.9468 11.3203C86.965 12.3535 88.1479 12.8701 89.4956 12.8701C90.3042 12.8701 91.0267 12.6942 91.6631 12.3423C92.307 11.9904 92.9284 11.4588 93.5273 10.7476C93.6546 10.5903 93.7969 10.5117 93.9541 10.5117C94.0889 10.5117 94.1974 10.5529 94.2798 10.6353C94.3621 10.7176 94.4033 10.8224 94.4033 10.9497C94.4033 11.1219 94.2423 11.384 93.9204 11.7358C93.3065 12.4246 92.6139 12.945 91.8428 13.2969C91.0791 13.6413 90.3042 13.8135 89.5181 13.8135C88.8368 13.8135 88.1442 13.6825 87.4404 13.4204C86.9014 13.2183 86.4559 12.9824 86.104 12.7129C85.7521 12.4434 85.3179 11.9904 84.8013 11.354C84.2922 10.7101 83.944 10.1187 83.7568 9.57959C83.5697 9.03304 83.4761 8.43408 83.4761 7.78271V5.8623C83.4761 4.93392 83.7231 3.98682 84.2173 3.021C84.7189 2.04769 85.4002 1.30273 86.2612 0.786133C87.1297 0.262044 88.0693 0 89.0801 0C90.6374 0 91.9775 0.531576 93.1006 1.59473Z" fill="white"/>
<path d="M99.6929 7.09766V12.4995H106.948V9.71436C106.948 9.48975 106.989 9.32878 107.071 9.23145C107.161 9.13411 107.277 9.08545 107.419 9.08545C107.562 9.08545 107.674 9.13411 107.756 9.23145C107.846 9.32878 107.891 9.48975 107.891 9.71436V13.4429H97.4805C97.2559 13.4429 97.0949 13.3979 96.9976 13.3081C96.9002 13.2183 96.8516 13.106 96.8516 12.9712C96.8516 12.8289 96.9002 12.7166 96.9976 12.6343C97.0949 12.5444 97.2559 12.4995 97.4805 12.4995H98.7495V1.24658H97.4805C97.2559 1.24658 97.0949 1.2054 96.9976 1.12305C96.9002 1.0332 96.8516 0.917155 96.8516 0.774902C96.8516 0.63265 96.9002 0.520345 96.9976 0.437988C97.0949 0.348145 97.2559 0.303223 97.4805 0.303223H107.397V3.54883C107.397 3.77344 107.352 3.93441 107.262 4.03174C107.18 4.12907 107.068 4.17773 106.925 4.17773C106.783 4.17773 106.667 4.12907 106.577 4.03174C106.495 3.93441 106.454 3.77344 106.454 3.54883V1.24658H99.6929V6.1543H103.073V5.0874C103.073 4.86279 103.118 4.70182 103.208 4.60449C103.298 4.50716 103.414 4.4585 103.556 4.4585C103.691 4.4585 103.803 4.50716 103.893 4.60449C103.983 4.70182 104.028 4.86279 104.028 5.0874V8.16455C104.028 8.38916 103.983 8.55013 103.893 8.64746C103.803 8.74479 103.691 8.79346 103.556 8.79346C103.414 8.79346 103.298 8.74479 103.208 8.64746C103.118 8.55013 103.073 8.38916 103.073 8.16455V7.09766H99.6929Z" fill="white"/>
<path d="M121.368 1.21289C120.836 1.21289 120.421 1.3252 120.121 1.5498C119.829 1.76693 119.357 2.43327 118.706 3.54883C117.74 5.21094 117.081 6.12061 116.729 6.27783C117.665 6.65218 118.53 7.62549 119.324 9.19775L120.997 12.4995H122.39C122.914 12.4995 123.176 12.6567 123.176 12.9712C123.176 13.2856 122.914 13.4429 122.39 13.4429H121.031C120.731 13.4429 120.544 13.4204 120.469 13.3755C120.394 13.3306 120.286 13.1733 120.144 12.9038L118.459 9.60205C117.882 8.47152 117.325 7.73405 116.786 7.38965C116.254 7.04525 115.55 6.87305 114.674 6.87305H113.956V12.4995H115.18C115.711 12.4995 115.977 12.6567 115.977 12.9712C115.977 13.2856 115.711 13.4429 115.18 13.4429H111.799C111.275 13.4429 111.013 13.2856 111.013 12.9712C111.013 12.6567 111.275 12.4995 111.799 12.4995H113.001V1.24658H111.799C111.275 1.24658 111.013 1.08936 111.013 0.774902C111.013 0.460449 111.275 0.303223 111.799 0.303223H115.18C115.711 0.303223 115.977 0.460449 115.977 0.774902C115.977 1.08936 115.711 1.24658 115.18 1.24658H113.956V5.90723H114.674C115.356 5.90723 115.868 5.75749 116.213 5.45801C116.565 5.15104 117.115 4.36117 117.864 3.08838C118.56 1.91292 119.103 1.15299 119.492 0.808594C119.889 0.464193 120.529 0.291992 121.413 0.291992C121.839 0.291992 122.098 0.340658 122.188 0.437988C122.277 0.535319 122.322 0.752441 122.322 1.08936V2.33594C122.322 2.85254 122.165 3.11084 121.851 3.11084C121.529 3.11084 121.368 2.86751 121.368 2.38086V1.21289Z" fill="white"/>
<path d="M128.342 8.05225V12.4995H131.576C131.801 12.4995 131.962 12.5444 132.059 12.6343C132.156 12.7166 132.205 12.8289 132.205 12.9712C132.205 13.106 132.156 13.2183 132.059 13.3081C131.962 13.3979 131.801 13.4429 131.576 13.4429H126.129C125.905 13.4429 125.744 13.3979 125.646 13.3081C125.549 13.2183 125.5 13.106 125.5 12.9712C125.5 12.8289 125.549 12.7166 125.646 12.6343C125.744 12.5444 125.905 12.4995 126.129 12.4995H127.398V1.24658H126.129C125.905 1.24658 125.744 1.2054 125.646 1.12305C125.549 1.0332 125.5 0.917155 125.5 0.774902C125.5 0.63265 125.549 0.520345 125.646 0.437988C125.744 0.348145 125.905 0.303223 126.129 0.303223H131.61C132.905 0.303223 133.961 0.685059 134.777 1.44873C135.6 2.2124 136.012 3.1071 136.012 4.13281C136.012 4.73926 135.877 5.28581 135.608 5.77246C135.346 6.25911 135.028 6.64095 134.653 6.91797C134.092 7.33724 133.512 7.64421 132.913 7.83887C132.478 7.98112 131.939 8.05225 131.295 8.05225H128.342ZM128.342 7.10889H131.352C132.048 7.10889 132.699 6.9554 133.306 6.64844C133.92 6.33398 134.365 5.95215 134.642 5.50293C134.927 5.05371 135.069 4.59701 135.069 4.13281C135.069 3.3916 134.751 2.72526 134.114 2.13379C133.478 1.54232 132.673 1.24658 131.7 1.24658H128.342V7.10889Z" fill="white"/>
<path d="M141.133 7.09766V12.4995H148.388V9.71436C148.388 9.48975 148.429 9.32878 148.512 9.23145C148.602 9.13411 148.718 9.08545 148.86 9.08545C149.002 9.08545 149.114 9.13411 149.197 9.23145C149.287 9.32878 149.332 9.48975 149.332 9.71436V13.4429H138.921C138.696 13.4429 138.535 13.3979 138.438 13.3081C138.341 13.2183 138.292 13.106 138.292 12.9712C138.292 12.8289 138.341 12.7166 138.438 12.6343C138.535 12.5444 138.696 12.4995 138.921 12.4995H140.19V1.24658H138.921C138.696 1.24658 138.535 1.2054 138.438 1.12305C138.341 1.0332 138.292 0.917155 138.292 0.774902C138.292 0.63265 138.341 0.520345 138.438 0.437988C138.535 0.348145 138.696 0.303223 138.921 0.303223H148.837V3.54883C148.837 3.77344 148.792 3.93441 148.703 4.03174C148.62 4.12907 148.508 4.17773 148.366 4.17773C148.223 4.17773 148.107 4.12907 148.018 4.03174C147.935 3.93441 147.894 3.77344 147.894 3.54883V1.24658H141.133V6.1543H144.514V5.0874C144.514 4.86279 144.559 4.70182 144.648 4.60449C144.738 4.50716 144.854 4.4585 144.997 4.4585C145.131 4.4585 145.244 4.50716 145.333 4.60449C145.423 4.70182 145.468 4.86279 145.468 5.0874V8.16455C145.468 8.38916 145.423 8.55013 145.333 8.64746C145.244 8.74479 145.131 8.79346 144.997 8.79346C144.854 8.79346 144.738 8.74479 144.648 8.64746C144.559 8.55013 144.514 8.38916 144.514 8.16455V7.09766H141.133Z" fill="white"/>
<path d="M158.484 1.24658V12.4995H160.933C161.157 12.4995 161.318 12.5444 161.416 12.6343C161.513 12.7166 161.562 12.8289 161.562 12.9712C161.562 13.106 161.513 13.2183 161.416 13.3081C161.318 13.3979 161.157 13.4429 160.933 13.4429H155.082C154.857 13.4429 154.696 13.3979 154.599 13.3081C154.501 13.2183 154.453 13.106 154.453 12.9712C154.453 12.8289 154.501 12.7166 154.599 12.6343C154.696 12.5444 154.857 12.4995 155.082 12.4995H157.53V1.24658H153.667V4.51465C153.667 4.74674 153.622 4.91146 153.532 5.00879C153.449 5.10612 153.337 5.15479 153.195 5.15479C153.06 5.15479 152.948 5.10612 152.858 5.00879C152.768 4.91146 152.723 4.74674 152.723 4.51465V0.303223H163.291V4.51465C163.291 4.74674 163.246 4.91146 163.156 5.00879C163.074 5.10612 162.962 5.15479 162.819 5.15479C162.677 5.15479 162.561 5.10612 162.471 5.00879C162.389 4.91146 162.348 4.74674 162.348 4.51465V1.24658H158.484Z" fill="white"/>
<path d="M175.027 7.08643H168.771V12.4995H170.041C170.265 12.4995 170.426 12.5444 170.523 12.6343C170.621 12.7166 170.669 12.8289 170.669 12.9712C170.669 13.106 170.621 13.2183 170.523 13.3081C170.426 13.3979 170.265 13.4429 170.041 13.4429H166.761C166.537 13.4429 166.376 13.3979 166.278 13.3081C166.181 13.2183 166.132 13.106 166.132 12.9712C166.132 12.8289 166.181 12.7166 166.278 12.6343C166.376 12.5444 166.537 12.4995 166.761 12.4995H167.828V1.24658H167.244C167.012 1.24658 166.847 1.2054 166.75 1.12305C166.653 1.0332 166.604 0.917155 166.604 0.774902C166.604 0.63265 166.653 0.520345 166.75 0.437988C166.847 0.348145 167.012 0.303223 167.244 0.303223H170.041C170.265 0.303223 170.426 0.348145 170.523 0.437988C170.621 0.520345 170.669 0.63265 170.669 0.774902C170.669 0.917155 170.621 1.0332 170.523 1.12305C170.426 1.2054 170.265 1.24658 170.041 1.24658H168.771V6.14307H175.027V1.24658H173.769C173.544 1.24658 173.383 1.2054 173.286 1.12305C173.189 1.0332 173.14 0.917155 173.14 0.774902C173.14 0.63265 173.185 0.520345 173.275 0.437988C173.372 0.348145 173.537 0.303223 173.769 0.303223H176.565C176.798 0.303223 176.962 0.348145 177.06 0.437988C177.157 0.520345 177.206 0.63265 177.206 0.774902C177.206 0.917155 177.157 1.0332 177.06 1.12305C176.962 1.2054 176.798 1.24658 176.565 1.24658H175.981V12.4995H177.048C177.273 12.4995 177.434 12.5444 177.531 12.6343C177.629 12.7166 177.677 12.8289 177.677 12.9712C177.677 13.106 177.629 13.2183 177.531 13.3081C177.434 13.3979 177.273 13.4429 177.048 13.4429H173.769C173.544 13.4429 173.383 13.3979 173.286 13.3081C173.189 13.2183 173.14 13.106 173.14 12.9712C173.14 12.8289 173.185 12.7166 173.275 12.6343C173.372 12.5444 173.537 12.4995 173.769 12.4995H175.027V7.08643Z" fill="white"/>
<path d="M191.412 6.90674C191.412 8.16455 191.158 9.33252 190.648 10.4106C190.139 11.4813 189.436 12.3161 188.537 12.915C187.646 13.514 186.688 13.8135 185.662 13.8135C184.142 13.8135 182.802 13.1696 181.642 11.8818C180.489 10.5866 179.912 8.92822 179.912 6.90674C179.912 4.87777 180.489 3.2194 181.642 1.93164C182.802 0.64388 184.142 0 185.662 0C186.688 0 187.646 0.299479 188.537 0.898438C189.428 1.4974 190.128 2.33219 190.637 3.40283C191.154 4.47347 191.412 5.64144 191.412 6.90674ZM190.458 6.90674C190.458 5.37191 190.012 3.9943 189.121 2.77393C188.23 1.55355 187.077 0.943359 185.662 0.943359C184.337 0.943359 183.203 1.52734 182.259 2.69531C181.323 3.85579 180.855 5.2596 180.855 6.90674C180.855 8.65869 181.346 10.0924 182.327 11.208C183.315 12.3161 184.427 12.8701 185.662 12.8701C187.077 12.8701 188.23 12.2637 189.121 11.0508C190.012 9.8304 190.458 8.44906 190.458 6.90674Z" fill="white"/>
</svg>
