<svg width="192" height="17" viewBox="0 0 192 17" fill="none" xmlns="http://www.w3.org/2000/svg">
<path d="M11.32 13.44C9 13 7 13 5.11 13.44H0.94V15.92C0.94 16.41 0.78 16.65 0.46 16.65C0.14 16.65 0 16.4 0 15.89V13.27C0 12.96 0.02 12.75 0.06 12.65C0 10.99 2 11.99 3.26 10.01C3.34 9.81 3.4 9.6 3.45 9.36C3.54 8.88 3.6 8.31 3.62 7.63C3.62 7.42 3.63 7.21 3.66 6.98C4 6 4 5 3.63 4.11V1.25H2.34C1.82 1.25 1.55 1.09 1.55 0.78C1.55 0.47 1.81 0.31 2.34 0.31H11.34C11.87 0.31 12.14 0.47 12.14 0.78C12.14 1.09 11.87 1.25 11.34 1.25H10.36V4.17C10.24 4.45 10.39 4.75 10.58 5.05C10.67 5.2 10.78 5.36 10.95 5.51C13.44 5.92 16.55 7.31 19.24 7.29C19.45 7.29 19.65 7.28 19.85 7.26C20.02 7.02 21.02 7.02 21.01 7.02C20.77 7.02 20.52 7.02 20.28 7C16.64 6.9 13.79 6.15 10.42 8.16C10.38 8.3 10.38 8.44 10.38 8.57V9.72C10.28 9.87 10.22 10.02 10.14 10.16C10.0667 10.7267 10.1333 11.3667 10.34 12.08C10.38 12.35 10.38 12.51 10.38 12.51H11.36C11.7 12.51 11.91 12.55 12.01 12.62C12.11 12.69 12.16 12.91 12.26 13.28C13.03 13.01 13.03 14.01 12.57 15.2C12.39 15.41 12.29 15.58 12.16 15.71V15.9C12.16 16.41 12.01 16.66 11.7 16.66C11.38 16.66 11.22 16.42 11.22 15.93C11.22 15.93 11.27 15.65 11.6 15.26C12.03 15.01 12.03 14.01 12 14.05C11.56 13.72 11.36 13.46 11.36 13.46L11.32 13.44ZM4.57 1.25V4.13C4.57 4.27 4.57 4.42 4.64 4.56C4.84 4.68 5 4.79 5.12 4.89C5.25 4.99 5.35 5.09 5.42 5.17C7 6.01 4 6.01 4.56 7.4C4.56 7.59 4.55 7.77 4.54 7.95C4.51 8.49 4.44 8.98 4.35 9.44C4.28 9.64 4.21 9.84 4.1 10.03C4 11 3 12 2 12C2.66667 12 3 12.3333 3 13C3.66667 13 4 12.6667 4 12L5 13C5 12 6 12 7.01 12.5H8.35C8.48 12.5 8.59 12.5 8.7 12.5C9.13 12.5 9.4 12.5 9.4 12.5C9.4 12.5 9.4 12.34 9.25 12.08C9 11 9 10 9.4 9.27V8.81C9.4 8.65 9.4 8.49 9.42 8.33C12.6 6.26 16.11 6.83 19.67 6.98C19.89 6.98 20.11 7 20.34 7.15C20.13 7.19 19.92 7.22 19.71 7.24C16.33 7.59 13.56 5.96 9.95 5.52C9.87 5.36 9.85 5.21 9.81 5.05C9.74 4.75 9.6 4.45 9.4 4.17V1.25H4.57ZM24.17 8.9C23 9 21 9 19.62 8.88C19.5 8.85 19.33 8.83 19.14 8.81C18.99 8.81 18.82 8.81 18.66 8.81H15.37C15.79 9.61 15.04 10.32 15.21 10.81C15.25 10.93 15.36 11.05 15.59 11.18C22.01 14 28.01 10 34.01 11C29.01 11 25.01 11 20.01 13C25.01 12 29.01 11 34.01 11C30.01 11 27.01 13 22.92 13.33C22.69 13.41 22.46 13.48 22.23 13.54C22 13.6 21.77 13.65 21.53 13.69C21.37 13.72 21.22 13.74 21.06 13.76C20.8 13.79 20.56 13.79 20.34 13.76C20.12 13.73 19.9 13.67 19.73 13.6C20.02 14.01 19.02 13.01 19.02 13.01C24.02 12.01 29.02 11.01 34.02 11.01H28.02H33.02C27.02 10.01 21.02 14.01 15.36 11.13C15.18 11.07 14.98 11.04 14.75 11.03C14.52 11.02 14.27 11.02 14.02 11.02C14.02 10.3533 14.1833 9.84333 14.51 9.49C14.51 9.31 14.48 9.13 14.46 8.95C14.44 8.77 14.43 8.58 14.46 8.4C15.88 8.05 18.52 6.34 20.49 6.83C20.67 6.88 20.84 6.94 21 7.03C20.81 7.03 20.61 7.03 20.41 7.03C20.21 7.03 20.01 7.03 19.81 7.02C18.22 6.97 16.65 6.71 15.21 5.42C15.4 5.32 15.6 5.22 15.79 5.11C17.54 4.14 19.35 2.79 21.18 3.18C21.36 3.22 21.55 3.28 21.73 3.35C22 5.02 24 4.02 24.32 5.87C24.43 5.89 24.56 5.94 24.68 6.01C24.78 6.07 24.89 6.14 25 6.22C25.1 6.3 25.21 6.4 25.31 6.5C25.01 9.02 21.01 7.02 20.01 9.02C21.01 9.02 22.01 9.02 23.01 8.02C23.01 8.02 24.01 9.02 23.94 8.62C24.14 8.72 24.2 8.82 24.19 8.91L24.17 8.9ZM20.17 8.6C21 7 23 9 24.2 6.58C24.19 6.43 24.07 6.3 23.93 6.19C22.01 7 23.01 4 21.07 4.24C20.89 4.21 20.7 4.21 20.52 4.23C19.54 4.32 18.48 4.94 17.38 5.22C17.22 5.26 17.07 5.29 16.91 5.31C17.74 6.58 18.51 6.9 19.69 6.98C19.89 6.99 20.09 7 20.31 7C20.53 7 20.76 7 21 7C20.81 6.9 20.61 6.83 20.41 6.78C18.61 6.38 16.81 8 15.01 8C16.21 8 17.41 8 18.7 7.99C18.92 7.99 19.13 7.99 19.35 7.99C19.7833 8.00333 20.0267 8.19333 20.08 8.56L20.17 8.61V8.6ZM37.27 5.32C32 8 26 8 21 8C27 9 32 6 38.42 8.98C38.56 9 38.75 9 39 9C39.33 9.33 39.22 9.56 38.96 9.75C38.83 9.85 38.66 9.94 38.42 10.03C38 11 37 11 36 11L38 13C38 12.3333 38.3333 12 39 12C39 12.6667 39.1833 12.99 39.55 12.97C39.58 13.13 39.52 13.25 39.39 13.33C39.26 13.41 39.06 13.45 38.8 13.45H35.98C35.46 13.45 35.19 13.29 35.19 12.98C35.19 12.82 35.25 12.7 35.38 12.63C35.51 12.56 35.71 12.51 35.98 12.51H36.91C36.91 12.51 36.91 12.42 36.85 12.25C36.95 11.4233 36.6667 11.01 36 11.01C37 11.01 38 11.01 37.78 9.97C37.89 9.82 37.94 9.67 37.97 9.51C38 9.35 38 9.18 37.99 9C31.99 6.01 26.99 9.01 20.99 8.01C25.99 8.01 30.99 7.01 35.81 5.79C35.89 5.65 35.94 5.52 35.99 5.38C35.99 5.26 35.99 5.13 35.99 5.01H37C36 5.01 34 5.01 33.35 5.01C33.27 5.01 33.14 5.01 33 5.01C32.86 5.01 32.7 5.03 32.55 5.06C32.25 5.11 32.01 5.22 32.02 5.43C32.02 5.55 32.02 5.66 32.02 5.76C29.01 8.01 25.01 8.01 21.01 8.01C25.01 9.01 29.01 6.01 31.92 8.86C31.84 8.94 31.74 8.97 31.6 8.99C31.46 9.01 31.27 9.01 31.02 9.01C30.85 9.18 30.8 9.32 30.82 9.43C30.84 9.54 30.93 9.65 31.07 9.74C32.02 10.01 34.02 10.01 33.02 12.01C32.3533 12.01 31.8967 12.2167 31.65 12.63C31.61 12.75 31.53 12.85 31.44 12.95C30.87 13.53 30.13 13.83 29.23 13.83C28.86 13.83 28.49 13.79 28.13 13.7C27.77 13.61 27.56 13.52 27.49 13.42C27.42 13.32 27.39 13.11 27.39 12.8C27.39 12.8 27.41 12.57 27.58 12.36C30.02 12.02 32.02 10.02 34.02 11.02C32.02 11.02 30.02 12.02 27.64 9.85C27.64 9.7 27.7 9.58 27.75 9.51C27.85 9.38 27.96 9.45 28.09 9.86C30.03 11.01 31.03 11.01 33.03 11.01C31.03 11.01 29.03 12.01 28.35 12.72C28.51 12.76 28.67 12.79 28.83 12.81C28.99 12.83 29.13 12.84 29.26 12.84C29.61 12.84 29.91 12.78 30.17 12.67C30.3 12.61 30.43 12.54 30.54 12.45C32.02 13.01 33.02 11.01 34.02 11.01C32.02 11.01 31.02 11.01 29.82 9.58C29.84 9.48 29.91 9.39 30.01 9.31C30.11 9.23 30.24 9.15 30.39 9.07C30.53 8.99 30.69 8.92 30.84 8.84C28.03 7.01 25.03 9.01 22.03 8.01C22.03 9.01 21.03 9.01 20.03 9.01C23.03 7.01 28.03 9.01 30.61 6.03C30.46 6.01 30.28 6.01 30.03 6.01C30.53 6.01 30.78 6.01 30.91 5.89C30.97 5.83 31 5.73 31.02 5.59C31.36 5.4 31.25 5.27 30.98 5.15C30.04 5.02 29.04 5.02 29.04 4.02H39.04C39.04 4.68667 38.72 4.91333 38.08 4.7C37.95 4.7 37.78 4.7 37.63 4.79C37.48 4.88 37.36 5.03 37.31 5.34L37.27 5.32ZM53.25 9.11C53.32 9.27 53.37 9.43 53.39 9.57C53.43 9.86 53.38 10.12 53.27 10.33C53.2 10.47 53.1 10.6 52.98 10.7C52.3267 10.9 51.6667 11 51 11C51 12 49 13 48.56 13.72C48.39 13.75 48.22 13.78 48.05 13.79C47.88 13.81 47.7 13.81 47.52 13.81C46.6 13.81 45.77 13.61 45.03 13.21C44.88 13.13 44.73 13.04 44.55 12.95C43.01 13.99 44.01 10.99 42.01 10.99C42.01 10.99 43.01 10.99 42.52 10.51C42.62 10.35 42.67 10.18 42.72 10.02C42.94 9.38 43.47 8.85 42.4 8.59C42.33 8.46 42.29 8.32 42.25 8.19C42.28 7.8 42.34 7.42 42.45 7.06C42.5 6.9 42.55 6.74 42.61 6.59C42.87 6.19 43 5.65667 43 4.99C44 5.99 45 2.99 45.96 3.59C46.12 3.54 46.29 3.5 46.46 3.47C46.8 3.41 47.15 3.37 47.52 3.37C47.89 3.37 48.23 3.4 48.57 3.47C48.74 3.5 48.9 3.54 49.05 3.59C50.77 3.94 50.21 5.52 51.49 6C51.67 6.07 51.89 6.12 52.16 6.13C51.01 7.98 49.01 7.98 47.01 7.98C49.01 8.98 51.01 6.98 52.16 8.5C52.32 8.54 52.46 8.59 53.26 9.08L53.25 9.11ZM50.43 8.42C49 8 48 8 47 8C49 8 50 8 50.92 6.22C50.81 6.14 50.69 6.07 50.58 5.99C47.71 4.13 45.78 5 43 5C43 5.66667 43.3333 6 44 6C44 6 43 7 43.49 6.97C43.42 7.14 43.36 7.31 43.32 7.49C43.27 7.67 43.24 7.85 43.22 8.03C43.11 8.52 43.56 9.01 43.91 9.53C44.03 9.7 44.14 9.88 44.21 10.06C45 11.01 42 11.01 43 12.01C46 13.01 48 13.01 50.85 11.2C50.95 11 50.99 10.84 51.05 10.7C51.34 10.01 52.17 10.01 53 10.01C53 10.01 52.75 9.76 52.56 9.53C53 8.01 50 10.01 50.86 8.49C50.73 8.47 50.6 8.45 50.43 8.43V8.42ZM61.13 3.72H61.53C61.95 3.72 62.31 3.87 62.61 4.17C62.91 4.47 63.06 4.83 63.06 5.24C63.06 5.68 62.91 6.05 62.6 6.34C62.3 6.63 61.94 6.78 61.53 6.78H61.13C60.71 6.78 60.35 6.63 60.05 6.33C59.75 6.03 59.6 5.67 59.6 5.26C59.6 4.82 59.75 4.45 60.05 4.16C60.36 3.87 60.72 3.72 61.13 3.72ZM61.13 10.74H61.53C61.95 10.74 62.31 10.89 62.61 11.19C62.91 11.48 63.06 11.84 63.06 12.26C63.06 12.68 62.91 13.06 62.6 13.35C62.3 13.64 61.94 13.79 61.53 13.79H61.13C60.71 13.79 60.35 13.64 60.05 13.35C59.75 13.05 59.6 12.69 59.6 12.27C59.6 11.85 59.75 11.47 60.05 11.18C60.36 10.89 60.72 10.74 61.13 10.74ZM93.11 1.59V0.93C93.1 0.71 93.14 0.54 93.22 0.45C93.31 0.35 93.43 0.3 93.57 0.3C93.71 0.3 93.82 0.35 93.91 0.45C94 0.55 94.04 0.71 94.04 0.93C94.04 0.93 94.04 1.22 94.12 1.61C94.0333 2.53667 94.0433 3.18333 94.15 3.55C94.06 3.78 93.99 3.95 93.9 4.04C93.82 4.14 93.71 4.19 93.56 4.19C92.99 4 93.99 1 91.62 1.64C91.47 1.55 91.31 1.46 91.16 1.39C90.53 1.09 89.84 0.95 89.1 0.95C88.56 0.95 88.03 1.04 87.54 1.22C87.37 1.28 87.21 1.35 87.05 1.43C86.92 1.5 86.82 1.6 86.77 1.71C88 3 89 3 91 3C89 5 87 4 84.83 4.23C84.7 4.36 84.64 4.49 84.59 4.63C84.47 5.05 84.41 5.5 84.41 6C84.41 6 84.41 6.41 84.33 6.81C84.11 7.61 84.1567 8.23 84.47 8.67C84.54 8.84 84.58 9 84.63 9.16C84.83 9.82 85.17 10.43 85.64 11C85.74 11.11 85.84 11.22 85.95 11.33C86.15 11.4 86.36 11.48 86.6 11.57C90 11.01 93 13.01 96 13.01C95 12.01 94 12.01 93.15 11.56C93.15 11.41 93.18 11.25 93.22 11.1C93.32 10.99 93.42 10.88 93.52 10.76C93.65 10.6 93.79 10.52 93.95 10.52C94.08 10.52 94.19 10.56 94.28 10.64C94.36 10.72 94.4 10.83 94.4 10.95C94.4 11.04 94.36 11.14 94.29 11.28C94.22 11.46 94.18 11.6 94.23 11.71C95.01 12.01 96.01 12.01 96.01 13.01C94.01 14.01 91.01 14.01 89.01 14.01C91.01 12.01 93.01 13.01 95.01 13.01C92.01 12.01 89.01 15.01 85.88 12.4C85.75 12.35 85.63 12.29 85.47 12.27C85.23 12.01 85.01 11.71 84.81 11.36C84.56 11.04 84.34 10.73 84.17 10.43C84 10.13 83.86 9.85 83.77 9.58C83.72 9.44 83.68 9.3 83.65 9.16C83.5 8.99 83.39 8.83 83.24 8.65C83.0867 8.21667 82.6767 8 82.01 8C82.01 8 83.01 7 83.13 6.75C83.3 6.55 83.39 6.33 83.48 6.17V5.87C83.48 5.56 83.51 5.25 83.56 4.94C83.59 4.78 83.62 4.63 83.66 4.47C86 4.01 89 4.01 91 3.01C89 4.01 87 2.01 85.33 1.74C85.33 1.61 85.38 1.5 85.46 1.39C85.58 1.28 85.71 1.17 85.85 1.07C85.98 0.97 86.12 0.88 86.27 0.79C87.14 0.27 88.08 0 89.09 0C90.45 0 91.65 0.41 92.68 1.22C92.83 1.34 92.97 1.46 93.12 1.59H93.11ZM92.07 7.95C94.01 8 97.01 8 99.17 8.26C99.24 8.35 99.31 8.45 99.4 8.57C99.48 8.69 99.58 8.83 99.7 8.99V12.09C100.01 13.99 102.01 11.99 103.01 12.99C103.01 12.99 103.01 11.99 103.33 12.49H104.39C105.01 11.99 106.01 11.99 106.96 12.49C106.96 12.49 106.96 12.18 106.96 11.77V9.71C106.96 9.49 107 9.32 107.08 9.23C107.17 9.13 107.29 9.08 107.43 9.08C107.57 9.08 107.68 9.13 107.77 9.23C107.86 9.33 107.91 9.49 107.91 9.71V13.44H106.95C106.02 13 105.02 13 104.15 13.44H103.67C103.51 13.44 103.35 13.44 103.2 13.44C103.05 13.44 102.91 13.44 102.79 13.44C102.277 13.14 101.68 13.14 101 13.44C100.75 13.44 100.54 13.44 100.37 13.44C100.2 13.44 100.06 13.44 99.93 13.44H99.32C98.4467 13.1467 97.6767 13 97.01 13C98.01 12 99.01 12 100.01 12C100.01 12 99.01 11 98.76 10.76V8.97C98.74 8.83 98.72 8.69 98.66 8.54C96.01 6.99 92.01 8.99 89.01 7.99C89.01 8.99 88.01 8.99 87.01 8.99C90.01 6.99 94.01 6.99 97.01 6.99C96.01 4.99 100.01 6.99 98.74 5.04C98.76 4.86 98.76 4.72 98.76 4.58V4.16C98.9267 3.38667 99.3433 3 100.01 3C101.01 2 98.01 2 99.01 1C98.3433 1 97.6767 1.04 97.01 1.12C96.91 1.03 96.86 0.91 96.86 0.77C96.86 0.63 96.91 0.52 97.01 0.43C97.11 0.34 97.27 0.3 97.49 0.3H107.41V0.54C107.45 0.69 107.51 0.9 107.69 1.14C107.91 1.28 108.04 1.43 108.1 1.58C106.02 2 108.02 4 107.02 4C106.02 4 106.02 4 106.02 3C106.687 3 107.017 2.53 107.01 1.59C107.01 1.43 107.01 1.25 107.01 1H100.01C100.01 2 100.01 3 99.7 3.7V4.6C99.7 4.82 99.7 5.02 99.79 5.26C100.01 6.99 99.01 4.99 98.01 5.99C99.01 5.99 101.01 5.99 102.51 5.96C102.76 5.89 103.01 5.8 103 5.61C103.08 5.34 103.08 5.08 103.08 5.08C103.08 4.86 103.12 4.69 103.22 4.6C103.31 4.5 103.43 4.45 103.57 4.45C103.71 4.45 103.82 4.5 103.91 4.6C104 4.7 104.05 4.86 104.05 5.08V5.88C104.03 6.62 104.027 7.38 104.04 8.16C104.05 8.38 104.01 8.55 103.92 8.64C103.83 8.74 103.72 8.79 103.58 8.79C103.44 8.79 103.32 8.74 103.23 8.64C103.49 8.42 103.34 8.28 103.05 8.15C102.91 8.08 102.73 8.02 102.54 7.95C97.02 4.99 92.02 7.99 86.02 8.99C89.02 7.99 92.02 7.99 95.02 7.99C94.3533 7.99 93.7233 7.93667 93.13 7.83C92.53 7.89 92.09 7.94 92.09 7.94L92.07 7.95ZM121.37 1.21C120.84 1.21 120.42 1.32 120.12 1.55C120.02 1.62 119.91 1.74 119.76 1.92C119 1 119 4 118 3C118 3.5 118 3.75 118 3.95C118 4.15 118 4.31 118 4.63C117.83 4.86 117.75 5.07 117.71 5.28C117.67 5.49 117.69 5.68 117.8 5.86C119.98 6.99 121.98 6.99 123.98 6.99C121.98 6.99 119.98 6.99 117.98 7.99C117.98 7.99 118.98 7.99 118.96 8.08C118.94 8.18 118.96 8.35 118.95 8.63C119.11 8.81 119.21 8.99 119.3 9.19C118.99 9.99 119.99 10.99 120.57 11.26C120.75 11.4 120.92 11.53 121.13 11.66C121.99 11.99 122.99 13.99 123.99 12.99C122.99 11.99 120.99 13.99 119.78 12.04C119.57 11.79 119.43 11.52 119.29 11.24C119.18 11.03 119.08 10.83 118.98 10.63C118.88 10.44 118.79 10.26 118.71 10.1L118.45 9.58C118.35 9.39 118.26 9.21 118.16 9.05C118.06 8.89 117.95 8.73 117.79 8.58C118.99 4.98 121.99 8.98 123.99 5.98C121.99 6.98 119.99 4.98 118.99 6.98H122.99H116.99H121.99C118.99 5.98 116.99 7.98 113.97 8.44C113.95 8.65 113.95 8.87 113.95 9.09V11.08C113.99 11.98 113.99 12.98 114.99 12.98C114.99 12.98 114.99 11.98 114.56 12.48H115.17C115.44 12.48 115.63 12.52 115.77 13.31C115.64 13.39 115.44 13.43 115.17 13.43H114.29C113.99 12.99 112.99 12.99 113.05 13.44C112.68 13.44 112.37 13.44 112.04 13.43H111.79C111.27 13.43 111 13.27 111 12.96C111 12.8 111.07 12.68 111.2 12.61C111.33 12.54 111.53 12.49 112.01 12.5C113 12.99 114 12.99 115 12.99C116 10.99 113 12.99 113.48 11.35C113 10.98 113 10.56 113 10.09V8.97C116 4.98 121 8.98 124 5.98C121 6.98 117 7.98 113.96 5.97C113.75 5.81 113.68 5.65 113.72 5.48C113.75 5.32 113.84 5.15 114 4.98C113.333 4.98 112.993 4.77 112.98 4.35C112.96 4.23 112.93 4.14 112.87 4.09C112.75 3.98 112.49 3.98 111.99 3.98C111.99 2.98 111.99 1.98 112.96 1.98C112.99 1.84 112.99 1.7 112.99 1.61C112.99 1.36 112.99 1.22 112.99 1.22C112.99 1.22 112.69 1.22 112.4 1.22C111.99 0.97 110.99 0.97 111 0.75C111 0.59 111.07 0.47 111.2 0.4C111.33 0.33 111.53 0.28 111.79 0.28H115.17C115.7 0.28 115.97 0.44 115.97 0.75C115.97 1.06 115.7 1.22 115.17 1.22H113.95C113.95 1.22 113.95 1.42 113.9 1.75C112.99 1.97 112.99 2.97 112.99 3.97C112.99 3.97 113.99 3.97 113.88 4.4C113.91 4.54 113.93 4.67 113.97 4.79C114.14 4.99 114.31 5.15 114.48 5.29C114.65 5.43 114.82 5.54 114.99 5.62C115.657 5.85333 116.33 5.96667 117.01 5.96C116.99 5.72 116.99 5.53 116.99 5.38C116.99 4.92 116.98 4.79 116.93 4.26C116.95 4.14 116.97 4 117.01 3.86C117.15 3.31 117.47 2.65 118.45 2.02C118.59 1.87 118.7 1.73 118.79 1.61C119.06 1.23 119.29 0.95 119.49 0.78C119.89 0.44 120.53 0.26 121.41 0.26C121.84 0.26 122.09 0.31 122.18 0.41C122.27 0.51 122.31 0.72 122.31 1.06V2.31C122.31 2.57 122.27 2.76 122.18 2.89C121.387 2.94333 121.113 2.57 121.36 1.77V1.19L121.37 1.21ZM128.55 8.1C127 8 128 10 128.25 10.82C128.34 11.05 128.35 11.27 128.35 11.47V12.5H130.75C131.59 12.1667 132.083 12.3233 132.23 12.97C132.22 13.1 132.17 13.22 132.07 13.31C131.97 13.4 131.81 13.44 131.59 13.44H128.06C127.54 13.44 127.12 13.44 126.94 13.45C127.01 13 126.01 13 126.01 13H128.01C127.343 13 127.16 12.7067 127.46 12.12C127.44 12 127.43 11.84 127.42 11.67C127.41 11.5 127.41 11.3 127.36 11.08C127.01 11 126.01 10 126.01 10C128.01 10 126.01 7 127.94 7.98C128.04 7.86 128.06 7.7 128.04 7.53C128.02 7.35 127.96 7.16 127.89 6.96C127.963 6.32667 127.903 5.80667 127.71 5.4C127.76 5.25 127.81 5.1 127.83 4.95C127.86 4.8 127.87 4.64 127.86 4.47C127.85 4.3 127.84 4.14 127.8 3.97C127 3 129 1 126.78 1.24C126.44 1.24 126.12 1.24 126.12 1.24C125.9 1.24 125.73 1.2 125.64 1.12C125.54 1.03 125.49 0.91 125.49 0.77C125.49 0.63 125.54 0.52 125.64 0.43C125.74 0.34 125.9 0.3 126.12 0.3H131.6C132.25 0.3 132.84 0.4 133.36 0.59C133.54 0.65 133.71 0.73 133.9 0.82C134.17 0.86 134.44 1.02 134.7 1.23C134.83 1.34 134.96 1.46 135.07 1.58C133.98 2.99 132.98 2.99 130.98 2.99C131.98 3.99 134.98 2.99 136.02 4.56C136.02 4.68 136.04 4.82 136.05 4.99C135.85 5.26 135.72 5.52 135.58 5.76C135.32 6.25 135 6.63 134.62 6.91C134.06 7.33 133.48 7.64 132.88 7.83C132.66 7.9 132.42 7.95 132.15 7.99C131.88 8.03 131.61 8.06 131.37 8.11C130.44 8.03 130.13 8.01 129.68 8.03C129.46 8.04 129.2 8.06 128.8 8.1C128.63 8.1 128.52 8.1 128.52 8.1H128.55ZM129.49 7.39C129.83 7.13 130.487 7.06 131.46 7.18C131.71 7.12 132.04 7.08 132.36 7C132.68 6.92 133 6.81 133.3 6.65C133.76 6.41 134.13 6.14 134.4 5.83C134.49 5.73 134.57 5.62 134.65 5.51C134.83 5.26 135.16 4.88 135.58 4.57C135.72 4.47 135.85 4.37 135.92 4.29C136 4.01 137 4.01 137 4.01C135 4.01 133 4.01 131 3.01C132 2.01 134 4.01 134.07 1.74C133.89 1.65 133.72 1.57 133.54 1.49C132.11 0.85 130.72 0.44 129 1.01C129 1.67667 129.333 2.01 130 2.01C129 2.01 129 3.01 128.96 3.67C128.96 3.84 128.98 4.05 128.99 4.28C129 4.51 128.99 4.76 128.99 5.01C128.99 5.01 128.74 5.26 128.53 5.49C126.99 6.01 129.99 6.01 129.35 7.19C129.45 7.33 129.47 7.39 129.47 7.39H129.49ZM141.13 7.1V8.27C141.1 8.38 141.07 8.5 141.04 8.63C141.01 8.76 140.96 8.88 140.91 9.01C141 11.01 143 9.01 143 10.01C143 11.01 142 12.01 141.13 12.18V12.51H144.31C144.46 12.51 144.61 12.51 144.76 12.51C144.91 12.51 145.06 12.51 145.21 12.51H146.09C146.29 12.51 146.46 12.51 146.63 12.51C148 13 149 13 149 12C149 11 148 10 147.01 10C147.01 9.83 147.03 9.69 147.08 9.58C147.33 9 148.17 9 149 9C149 9.5 149 9.75 149.03 9.96C149.04 10.07 149.07 10.16 149.16 10.28C149.727 10.7533 150.343 11.3233 151.01 11.99C150.343 11.99 149.847 12.2867 149.52 12.88C149.34 13.2 149.34 13.43 149.34 13.43H138.93C138.71 13.43 138.54 13.38 138.45 13.3C138.36 13.22 138.3 13.1 138.3 12.96C138.3 12.82 138.35 12.71 138.45 12.62C138.55 12.53 138.71 12.49 138.93 12.49H140.2C140.2 12.49 140.2 12.41 140.22 12.27C140.753 12.09 141.353 12 142.02 12C141.02 10 144.02 12 144.02 10C143.02 10 141.02 11 140.22 9.45C140.14 9.28 140.16 9.04 140.21 8.72V5.94C140.21 5.79 140.21 5.63 140.23 5.48C140.25 5.33 140.29 5.17 140.37 5.02C137.02 3 134.02 3 131.02 3C134.02 2 137.02 5 140.46 2C140.37 1.83 140.25 1.67 140.17 1.5C140.08 1.33 140.03 1.17 140.03 1C139.363 1 138.847 1.04333 138.48 1.13C138.37 1.04 138.32 0.92 138.32 0.78C138.32 0.64 138.37 0.53 138.47 0.44C138.57 0.35 138.73 0.31 138.95 0.31H148.87V1.15C148.977 1.72333 148.697 2.01 148.03 2.01C148.03 3.01 148.03 4.01 148.84 3.96C148.87 4.1 148.88 4.23 148.88 4.35C148.64 4.59 148.52 4.81 148.28 5C148.03 6.02 148.03 7.02 148.56 6.58C148.64 6.77 148.67 6.94 148.69 7.07C148.58 7.59 148.45 7.61 148.34 7.12C148.29 7 148.25 6.85 148.13 6.65C147.03 7.02 147.03 6.02 147.03 5.02C147.03 5.02 147.28 4.77 147.53 4.54C147.78 4.31 148.03 4.09 148.03 4.16C148.03 3.40667 147.697 3.03 147.03 3.03C148.03 3.03 148.03 2.03 148.03 1.03C148.03 1.03 147.03 1.03 146.87 1.28H144.12C143.03 1.03 142.03 1.03 141.03 1.03C141.2 1.2 141.34 1.36 141.45 1.53C141.56 1.7 141.66 1.86 141.73 2.02C139.02 4.03 135.02 2.03 131.02 3.03C135.02 3.03 139.02 2.03 141.8 4.79C141.82 5.02 141.65 5.23 141.51 5.41C141.15 5.89 141.15 6.19 141.15 6.19H142.84C143.12 6.19 143.37 6.2 143.53 6.23C143.02 5.04 146.02 5.04 145.02 4.04C145.02 5.04 145.02 6.04 145.42 6.7C145.48 6.93 145.49 7.18 145.49 7.41V8.21C145.49 8.43 145.45 8.6 145.36 8.69C145.27 8.79 145.16 8.84 145.02 8.84C144.88 8.84 144.76 8.79 144.67 8.69C144.58 8.59 144.54 8.43 144.54 8.21V7.68C144.54 7.41 144.54 7.15 144.54 7.15C144.54 7.15 144.16 7.15 143.66 7.15H141.16L141.13 7.1ZM158.18 1.34C158 2 158 3 157 3C158 3 159 3 158.79 3.7C158.95 3.91 159.09 4.06 159.26 4.25C159.44 4.44 159.66 4.66 159.99 5C158.99 6 157.99 4 158.45 5.92C158.45 6.06 158.46 6.19 158.47 6.32V8.26C158.6 8.19 158.7 8.21 158.77 8.28C158.88 8.36 158.96 8.5 159.07 8.68C162.99 10.99 165.99 9.99 169.99 10.99C165.99 10.99 161.99 9.99 158.27 11.3C158.32 11.43 158.39 11.55 158.47 11.66C158.47 11.83 158.47 11.98 158.47 12.11V12.5H160.92C161.14 12.5 161.3 12.54 161.4 12.63C161.5 12.71 161.55 12.82 161.55 12.97C161.55 13.1 161.5 13.22 161.4 13.31C161.3 13.4 161.14 13.44 160.92 13.44H156.33C149.99 13 149.99 12 156.38 12.46C156.5 12.49 156.7 12.49 156.88 12.49H157.51V11.66C157.46 11.49 157.41 11.29 157.28 11.07C157.18 10.71 157.34 10.36 157.57 10.03C157.8 9.7 158.11 9.4 158.11 9.11C158.11 8.82 158.01 8.56 157.53 8.34C157.51 8.21 157.51 8.08 157.51 7.95V6.39C157.47 6.2 157.45 6.03 157.42 5.83C157.98 5.98 157.98 4.98 157.98 3.98C157.98 3.98 157.73 3.73 157.48 3.44C157.147 2.46667 156.95 1.73 156.89 1.23C156.59 1.15 156.28 1.09 155.96 1.06C155.32 0.99 154.66 0.99 153.99 0.99C152.99 0.99 152.99 1.99 152.99 2.99C152.99 2.99 153.99 2.99 153.82 3.44C153.9 3.58 153.91 3.72 153.85 3.85C153.99 4.99 152.99 4.99 151.99 4.99C151.99 2.99 152.99 4.99 153.99 3.99C153.99 3.99 153.74 3.99 153.54 3.97C153.34 3.95 153.19 3.91 153.39 3.83C153.99 2.99 150.99 2.99 152.31 1.66C152.51 1.47 152.6 1.28 152.71 1.11V0.3H160.39C160.54 0.3 160.68 0.3 160.82 0.3C160.99 0 161.99 0 161.62 0.3C161.87 0.3 162.1 0.3 162.3 0.3C162.5 0.3 162.66 0.3 162.79 0.3C161.99 3 157.99 1 156.99 3C158.99 4 159.99 1 161.99 2C161.99 2.66667 162.203 2.97667 162.63 2.93C162.79 2.97 162.9 3.23 162.98 3.53C163.06 3.83 163.13 4.16 163.28 4.33C163.28 4.46 163.26 4.6 163.26 4.73C163.22 5.44 163.16 6.05 163.1 6.56C163.08 6.73 163.06 6.89 163.03 7.04C163.83 7.84 161.88 7.97 161.78 8.58C161.76 8.7 161.82 8.84 162.03 9.01C161.99 8.75 161.99 8.57 161.99 8.41C162 7.94 162.05 7.74 162.26 6.93C162.26 6.76 162.26 6.58 162.26 6.38C162.26 5.8 162.28 5.09 162.33 4.28C162.28 4.12 162.24 3.98 162.21 3.86C162.15 3.65 162.1 3.49 162.04 3.37C161.98 3.25 161.92 3.17 161.84 3.12C160.99 3.01 159.99 3.01 158.99 3.01C158.99 2.01 159.99 2.01 160.99 2.01H158.99C159.99 1.01 160.99 3.01 160.99 1.01C159.99 1.01 158.99 1.01 158.29 1.46C158.25 1.38 158.16 1.35 158.16 1.35L158.18 1.34ZM174.72 7.22C174 7 173 7 172.09 7.09H169.43C169.03 7.09 168.8 7.09 168.8 7.09C168.8 7.09 168.8 7.31 168.58 7.66C168.2 7.88667 168.01 8.33333 168.01 9C168.01 9 168.39 9.29 168.86 9.6C169.01 10 170.01 11 169.64 11.05C169.64 11.02 169.75 11 170 11C169.67 11 169.56 11.15 169.4 11.33C169.24 11.51 169.08 11.74 169.04 12.04C169 12.34 169 12.67 169 13C169.667 13 170.223 12.99 170.67 12.97C170.67 13.1 170.62 13.22 170.52 13.31C170.42 13.4 170.26 13.44 170.04 13.44H166.76C166.54 13.44 166.38 13.39 166.28 13.31C166.18 13.22 166.13 13.11 166.13 12.97C166.13 12.83 166.18 12.72 166.28 12.63C166.38 12.54 166.54 12.5 166.76 12.5H167.83C167.86 12.25 167.88 12.04 167.95 11.88C169 12 169 11 170 11C170 9 167 11 167.03 8.97C167.02 8.82 167.01 8.66 167.01 8.5C167.01 8.34 167.01 8.17 167.01 8C167.677 8 167.993 7.7 167.96 7.1C167.96 6.92 167.97 6.75 167.97 6.6C167.97 6.45 167.97 6.29 167.95 6.16C167.93 5.89 167.89 5.66 167.83 5.48C167 5 167 4 167 3C167.5 3 167.75 3 167.85 2.92C167.95 2.84 167.91 2.68 167.72 2.38C163.99 2 160.99 1 156.99 3C161 1 166 0 170 0C166 2 162 1 158 2C162 3 166 0 168.75 2.79C168.46 2.83 168.27 2.88 168.16 2.96C167.59 3.34 168.84 4.17 168 5C168.667 5 168.923 5.31 168.77 5.93V6.15H173.67C176 6.01 176 4.01 175.5 3.48C175.38 3.34 175.26 3.2 175.18 3.08C175.1 2.96 175.05 2.86 175.06 2.81C175.04 2.66 175.03 2.52 175.02 2.39V1.25H173.76C173.53 1.25 173.37 1.21 173.13 0.78C173.13 0.64 173.17 0.53 173.26 0.44C173.36 0.35 173.52 0.31 173.75 0.31H176.55C176.78 0.31 176.95 0.35 177.05 0.44C177.15 0.52 177.2 0.63 177.2 0.78C177.2 0.93 177.15 1.04 177.05 1.13C176.95 1.21 176.79 1.25 176.55 1.25H175.97V2.67C176.14 2.73 176.28 2.8 176.39 2.9C176.79 2.93 176.97 3.01 177.02 3.13C177.07 3.25 177 3.4 176.9 3.56C175.99 4.01 174.99 5.01 174.99 6.01C174.99 6.01 175.24 6.01 175.48 6.06C175.72 6.11 175.96 6.21 175.94 6.42C175.973 6.81333 175.657 7.34333 174.99 8.01C173.99 9.01 176.99 9.01 175.96 9.84C175.96 9.97 175.97 10.09 175.97 10.21C175.99 10.34 176.01 10.47 176.06 10.62C175.99 12.01 176.99 13.01 177.99 13.01C177.323 13.01 176.76 13.0967 176.3 13.27C176.17 13.32 176 13.38 175.81 13.46H173.76C173.53 13.46 173.37 13.41 173.28 13.33C173.19 13.25 173.14 13.13 173.17 12.99C173.05 11.68 173.9 12.13 174.78 12.28C175 12.32 175.22 12.34 175.41 12.3C175.803 12.1133 175.987 11.6233 175.96 10.83C175.85 10.73 175.69 10.68 175.53 10.63C175.06 10.49 174.62 10.46 175.24 9.89C175.17 9.74 175.09 9.59 175 9.43C174.333 9.15667 174 8.68667 174 8.02C174 8.02 175 7.02 174.58 7.41C174.67 7.3 174.72 7.23 174.72 7.23V7.22ZM191.3 6.92C191 7 191 8 191.33 8.14C191.3 8.34 191.27 8.54 191.3 8.73C191 10 191 11 190.38 10.93C190.28 11.1 190.18 11.25 190.08 11.41C189.98 11.57 189.86 11.71 189.74 11.85C189.59 11.98 189.44 12.1 189.25 12.21C187.01 15.01 184.01 13.01 181.01 13.01C181.01 12.3433 180.993 11.66 180.96 10.96C180.89 10.85 180.83 10.74 180.77 10.63C180.69 10.48 180.61 10.32 180.55 10.17C180.46 9.98 180.41 9.79 180.39 9.61C180.01 9.02 180.01 8.02 179.01 8.02C179.01 8.02 180.01 7.02 179.85 6.93C179.91 6.73 179.93 6.53 179.85 6.33C178 6.02 180 5.02 179 4.02C179.667 4.02 180.067 3.83 180.2 3.45C180.22 3.33 180.16 3.19 180 3.02C180.17 3.02 180.33 2.96 180.5 2.87C181.32 2.41 182.09 1.03 182.55 1.1C182.71 0.98 182.87 0.87 183.03 0.77C183.84 0.27 184.72 0.02 185.67 0.02C186.18 0.02 186.68 0.09 187.16 0.24C187.32 0.29 187.48 0.35 187.63 0.41C187.883 0.81 188.01 1.34333 188.01 2.01C188.34 1.68 188.68 1.68 189 1.84C189.16 1.92 189.32 2.04 189.47 2.19C189.02 3.01 191.02 4.01 191.03 4.93C191.14 5.09 191.21 5.24 191.29 5.39C191.33 5.64 191.36 5.89 191.35 6.15C191.34 6.41 191.32 6.67 191.31 6.93L191.3 6.92ZM189.66 6.99C190 6.99 190 6 190.31 5.5C190.26 5.42 190.22 5.29 190.17 5.14C189.98 4.5 189.79 3.4 188.9 2.87C188.72 2.76 188.51 2.68 188.24 2.63C188.09 2.48 187.95 2.32 187.8 2.17C187.69 2.05 187.57 1.94 187.45 1.83C186.59 1.06 185.56 0.48 183.99 1.01C183.3 1.01 182.6 1.97 181.91 2.56C181.77 2.68 181.63 2.78 181.48 2.87C181 5.01 179 3.01 179 4.01C178 6.01 181 4.01 180.84 5.8C180.87 6.02 180.88 6.24 180.87 6.46C180.957 6.82667 180.667 7.01 180 7.01C180 8.01 181 9.01 181.99 9.41C181.91 9.56 181.76 9.7 181.51 9.84C181.51 10 181.58 10.16 181.68 10.32C181.77 10.48 181.87 10.63 181.98 10.78C182.09 10.93 182.2 11.07 182.32 11.21C182.99 11 182.99 12 182.99 13C184.99 13 186.99 13 188.74 11.47C188.88 11.34 189 11.2 189.11 11.05C189.99 11 190.99 10 190.99 9C190.99 9 190.74 9 190.54 8.95C190.34 8.9 190.2 8.8 190.42 8.59C189.98 9 189.98 8 189.91 7.53C189.75 7.36 189.63 7.18 189.64 6.99H189.66Z" fill="white"/>
</svg>
