<svg width="257" height="274" viewBox="0 0 257 274" fill="none" xmlns="http://www.w3.org/2000/svg">
<rect width="257" height="273" fill="white"/>
<path d="M0 272.017V273.017H257V272.017H0Z" fill="black"/>
<path d="M0 265.517V267.517H257V265.517H0Z" fill="black"/>
<path d="M0 260.517V262.517H257V260.517H0Z" fill="black"/>
<path d="M0 254.017V257.017H257V254.017H0Z" fill="black"/>
<path d="M0 248.667V250.367H257V248.667H0Z" fill="black"/>
<path d="M0 242.533V244.5H257V242.533H0Z" fill="black"/>
<path d="M0 236.517V238.517H257V236.517H0Z" fill="black"/>
<path d="M0 229.517V233.517H257V229.517H0Z" fill="black"/>
<path d="M0 224.05V226.983H257V224.05H0Z" fill="black"/>
<path d="M0 218.617V220.417H257V218.617H0Z" fill="black"/>
<path d="M0 216.317V216.817H257V216.317H0Z" fill="black"/>
<path d="M0 221.983V222.483H257V221.983H0Z" fill="black"/>
<path d="M0 41.125V41.625H257V41.125H0Z" fill="black"/>
<path d="M0 165.517V166.017H257V165.517H0Z" fill="black"/>
<path d="M0 183V183.5H257V183H0Z" fill="black"/>
<path d="M0 212.517V214.517H257V212.517H0Z" fill="black"/>
<path d="M0 205.417V209.617H257V205.417H0Z" fill="black"/>
<path d="M0 198.017V199.017H257V198.017H0Z" fill="black"/>
<path d="M0 190.683V194.35H257V190.683H0Z" fill="black"/>
<path d="M0 184.9V188.133H257V184.9H0Z" fill="black"/>
<path d="M0 179.433V181.6H257V179.433H0Z" fill="black"/>
<path d="M0 172.55V176.483H257V172.55H0Z" fill="black"/>
<path d="M0 168.017V169.017H257V168.017H0Z" fill="black"/>
<path d="M0 161.517V163.517H257V161.517H0Z" fill="black"/>
<path d="M0 154.917V158.117H257V154.917H0Z" fill="black"/>
<path d="M0 150.017V151.017H257V150.017H0Z" fill="black"/>
<path d="M0 152.467V153.467H257V152.467H0Z" fill="black"/>
<path d="M0 147.767V148.767H257V147.767H0Z" fill="black"/>
<path d="M0 142.517V146.517H257V142.517H0Z" fill="black"/>
<path d="M0 137.5V139.533H257V137.5H0Z" fill="black"/>
<path d="M0 131.333V133.7H257V131.333H0Z" fill="black"/>
<path d="M0 125.95V127.083H257V125.95H0Z" fill="black"/>
<path d="M0 117.583V123.45H257V117.583H0Z" fill="black"/>
<path d="M0 113.517V115.517H257V113.517H0Z" fill="black"/>
<path d="M0 106.4V110.633H257V106.4H0Z" fill="black"/>
<path d="M0 101.467V103.567H257V101.467H0Z" fill="black"/>
<path d="M0 95.3171V97.7171H257V95.3171H0Z" fill="black"/>
<path d="M0 89.5171V91.5171H257V89.5171H0Z" fill="black"/>
<path d="M0 82.367V86.667H257V82.367H0Z" fill="black"/>
<path d="M0 76.95V80.083H257V76.95H0Z" fill="black"/>
<path d="M0 71.867V73.167H257V71.867H0Z" fill="black"/>
<path d="M0 64.783V68.25H257V64.783H0Z" fill="black"/>
<path d="M0 58.8171V62.2171H257V58.8171H0Z" fill="black"/>
<path d="M0 54.0671V54.9671H257V54.0671H0Z" fill="black"/>
<path d="M0 240.075V240.975H257V240.075H0Z" fill="black"/>
<path d="M0 246.133V247.033H257V246.133H0Z" fill="black"/>
<path d="M0 252.192V253.092H257V252.192H0Z" fill="black"/>
<path d="M0 195.733V196.633H257V195.733H0Z" fill="black"/>
<path d="M0 74.6081V75.5081H257V74.6081H0Z" fill="black"/>
<path d="M0 51.0922V51.9922H257V51.0922H0Z" fill="black"/>
<path d="M0 48.0171V49.0171H257V48.0171H0Z" fill="black"/>
<path d="M0 43.5171V45.5171H257V43.5171H0Z" fill="black"/>
<path d="M0 33.8002V39.2332H257V33.8002H0Z" fill="black"/>
<path d="M0 29.6332V31.4002H257V29.6332H0Z" fill="black"/>
<path d="M0 23.25V25.783H257V23.25H0Z" fill="black"/>
<path d="M0 17.4172V19.6172H257V17.4172H0Z" fill="black"/>
<path d="M0 5.98309V7.05008H257V5.98309H0Z" fill="black"/>
<path d="M0 8.52505V9.59207H257V8.52505H0Z" fill="black"/>
<path d="M0 11.0661V12.1331H257V11.0661H0Z" fill="black"/>
<path d="M0 13.6081V14.6751H257V13.6081H0Z" fill="black"/>
<path d="M0 0V1.03299H257V0H0Z" fill="black"/>
<path d="M0 2.99219V4.02518H257V2.99219H0Z" fill="black"/>
</svg>
