<svg width="303" height="14" viewBox="0 0 303 14" fill="none" xmlns="http://www.w3.org/2000/svg">
<path d="M9.81543 9.05176H3.61621L2.34717 12.4995H4.15527C4.37988 12.4995 4.54085 12.5444 4.63818 12.6343C4.73551 12.7166 4.78418 12.8289 4.78418 12.9712C4.78418 13.106 4.73551 13.2183 4.63818 13.3081C4.54085 13.3979 4.37988 13.4429 4.15527 13.4429H0.628906C0.404297 13.4429 0.243327 13.3979 0.145996 13.3081C0.0486654 13.2183 0 13.106 0 12.9712C0 12.8289 0.0486654 12.7166 0.145996 12.6343C0.243327 12.5444 0.404297 12.4995 0.628906 12.4995H1.35889L5.52539 1.24658H2.74023C2.51562 1.24658 2.35465 1.2054 2.25732 1.12305C2.15999 1.0332 2.11133 0.917155 2.11133 0.774902C2.11133 0.63265 2.15999 0.520345 2.25732 0.437988C2.35465 0.348145 2.51562 0.303223 2.74023 0.303223H7.49072L12.0952 12.4995H12.8252C13.0498 12.4995 13.2108 12.5444 13.3081 12.6343C13.4054 12.7166 13.4541 12.8289 13.4541 12.9712C13.4541 13.106 13.4054 13.2183 13.3081 13.3081C13.2108 13.3979 13.0498 13.4429 12.8252 13.4429H9.31006C9.07796 13.4429 8.91325 13.3979 8.81592 13.3081C8.71859 13.2183 8.66992 13.106 8.66992 12.9712C8.66992 12.8289 8.71859 12.7166 8.81592 12.6343C8.91325 12.5444 9.07796 12.4995 9.31006 12.4995H11.1069L9.81543 9.05176ZM9.45605 8.1084L6.85059 1.24658H6.50244L3.97559 8.1084H9.45605Z" fill="white"/>
<path d="M18.4741 8.05225V12.4995H21.7085C21.9331 12.4995 22.0941 12.5444 22.1914 12.6343C22.2887 12.7166 22.3374 12.8289 22.3374 12.9712C22.3374 13.106 22.2887 13.2183 22.1914 13.3081C22.0941 13.3979 21.9331 13.4429 21.7085 13.4429H16.2617C16.0371 13.4429 15.8761 13.3979 15.7788 13.3081C15.6815 13.2183 15.6328 13.106 15.6328 12.9712C15.6328 12.8289 15.6815 12.7166 15.7788 12.6343C15.8761 12.5444 16.0371 12.4995 16.2617 12.4995H17.5308V1.24658H16.2617C16.0371 1.24658 15.8761 1.2054 15.7788 1.12305C15.6815 1.0332 15.6328 0.917155 15.6328 0.774902C15.6328 0.63265 15.6815 0.520345 15.7788 0.437988C15.8761 0.348145 16.0371 0.303223 16.2617 0.303223H21.7422C23.0374 0.303223 24.0931 0.685059 24.9092 1.44873C25.7327 2.2124 26.1445 3.1071 26.1445 4.13281C26.1445 4.73926 26.0098 5.28581 25.7402 5.77246C25.4782 6.25911 25.16 6.64095 24.7856 6.91797C24.2241 7.33724 23.6439 7.64421 23.0449 7.83887C22.6107 7.98112 22.0716 8.05225 21.4277 8.05225H18.4741ZM18.4741 7.10889H21.4839C22.1802 7.10889 22.8315 6.9554 23.438 6.64844C24.0519 6.33398 24.4974 5.95215 24.7744 5.50293C25.0589 5.05371 25.2012 4.59701 25.2012 4.13281C25.2012 3.3916 24.883 2.72526 24.2466 2.13379C23.6102 1.54232 22.8053 1.24658 21.832 1.24658H18.4741V7.10889Z" fill="white"/>
<path d="M34.9043 6.71582L39.3853 12.4995H39.7446C39.9692 12.4995 40.1302 12.5444 40.2275 12.6343C40.3249 12.7166 40.3735 12.8289 40.3735 12.9712C40.3735 13.106 40.3249 13.2183 40.2275 13.3081C40.1302 13.3979 39.9692 13.4429 39.7446 13.4429H36.7124C36.4878 13.4429 36.3268 13.3979 36.2295 13.3081C36.1322 13.2183 36.0835 13.106 36.0835 12.9712C36.0835 12.8289 36.1322 12.7166 36.2295 12.6343C36.3268 12.5444 36.4878 12.4995 36.7124 12.4995H38.2173L34.3203 7.49072L30.4683 12.4995H31.9731C32.1978 12.4995 32.3587 12.5444 32.4561 12.6343C32.5534 12.7166 32.6021 12.8289 32.6021 12.9712C32.6021 13.106 32.5534 13.2183 32.4561 13.3081C32.3587 13.3979 32.1978 13.4429 31.9731 13.4429H28.9634C28.7388 13.4429 28.5778 13.3979 28.4805 13.3081C28.3831 13.2183 28.3345 13.106 28.3345 12.9712C28.3345 12.8664 28.3644 12.7728 28.4243 12.6904C28.4842 12.6081 28.5516 12.5557 28.6265 12.5332C28.7013 12.5107 28.9297 12.4995 29.3115 12.4995L33.7363 6.71582L29.5137 1.24658H29.1655C28.9409 1.24658 28.7799 1.2054 28.6826 1.12305C28.5853 1.0332 28.5366 0.917155 28.5366 0.774902C28.5366 0.63265 28.5853 0.520345 28.6826 0.437988C28.7799 0.348145 28.9409 0.303223 29.1655 0.303223H31.7373C31.9694 0.303223 32.1341 0.348145 32.2314 0.437988C32.3288 0.520345 32.3774 0.63265 32.3774 0.774902C32.3774 0.917155 32.3288 1.0332 32.2314 1.12305C32.1341 1.2054 31.9694 1.24658 31.7373 1.24658H30.6816L34.3203 5.95215L37.9365 1.24658H36.8809C36.6488 1.24658 36.484 1.2054 36.3867 1.12305C36.2894 1.0332 36.2407 0.917155 36.2407 0.774902C36.2407 0.63265 36.2894 0.520345 36.3867 0.437988C36.484 0.348145 36.6488 0.303223 36.8809 0.303223H39.4639C39.6885 0.303223 39.8494 0.348145 39.9468 0.437988C40.0441 0.520345 40.0928 0.63265 40.0928 0.774902C40.0928 0.917155 40.0441 1.0332 39.9468 1.12305C39.8494 1.2054 39.6885 1.24658 39.4639 1.24658H39.1045L34.9043 6.71582Z" fill="white"/>
<path d="M43.5967 12.4995V1.24658H42.3276C41.9084 1.24658 41.6987 1.08936 41.6987 0.774902C41.6987 0.460449 41.9084 0.303223 42.3276 0.303223H46.2808C46.7075 0.303223 46.9209 0.460449 46.9209 0.774902C46.9209 1.08936 46.7075 1.24658 46.2808 1.24658H44.54V12.084L51.5029 0.303223H53.9736C54.3929 0.303223 54.6025 0.460449 54.6025 0.774902C54.6025 1.08936 54.3929 1.24658 53.9736 1.24658H52.7046V12.4995H53.9736C54.3929 12.4995 54.6025 12.6567 54.6025 12.9712C54.6025 13.2856 54.3929 13.4429 53.9736 13.4429H50.4922C50.0729 13.4429 49.8633 13.2856 49.8633 12.9712C49.8633 12.6567 50.0729 12.4995 50.4922 12.4995H51.7612V1.68457L44.8096 13.4429H42.3276C41.9084 13.4429 41.6987 13.2856 41.6987 12.9712C41.6987 12.6567 41.9084 12.4995 42.3276 12.4995H43.5967Z" fill="white"/>
<path d="M57.938 12.4995V1.24658H56.6689C56.4443 1.24658 56.2834 1.2054 56.186 1.12305C56.0887 1.0332 56.04 0.917155 56.04 0.774902C56.04 0.63265 56.0887 0.520345 56.186 0.437988C56.2834 0.348145 56.4443 0.303223 56.6689 0.303223H62.5986C63.7741 0.303223 64.7287 0.64388 65.4624 1.3252C66.2036 1.99902 66.5742 2.79264 66.5742 3.70605C66.5742 4.85905 65.9565 5.79118 64.7212 6.50244C65.702 6.85433 66.4207 7.32227 66.8774 7.90625C67.3341 8.49023 67.5625 9.13411 67.5625 9.83789C67.5625 10.4668 67.4128 11.0433 67.1133 11.5674C66.8138 12.084 66.3534 12.5257 65.7319 12.8926C65.118 13.2594 64.4479 13.4429 63.7217 13.4429H56.6689C56.4443 13.4429 56.2834 13.3979 56.186 13.3081C56.0887 13.2183 56.04 13.106 56.04 12.9712C56.04 12.8289 56.0887 12.7166 56.186 12.6343C56.2834 12.5444 56.4443 12.4995 56.6689 12.4995H57.938ZM58.8813 6.14307H62.2168C62.9281 6.14307 63.5794 6.01204 64.1709 5.75C64.6276 5.54036 64.9832 5.23714 65.2378 4.84033C65.4924 4.44352 65.6196 4.03923 65.6196 3.62744C65.6196 3.03597 65.3426 2.49316 64.7886 1.99902C64.2345 1.4974 63.512 1.24658 62.6211 1.24658H58.8813V6.14307ZM58.8813 12.4995H63.6543C64.2607 12.4995 64.7886 12.3647 65.2378 12.0952C65.687 11.8257 66.0277 11.4925 66.2598 11.0957C66.4919 10.6989 66.6079 10.2871 66.6079 9.86035C66.6079 9.38118 66.4395 8.91699 66.1025 8.46777C65.7731 8.01855 65.3127 7.6779 64.7212 7.4458C64.1297 7.2137 63.3136 7.09766 62.2729 7.09766H58.8813V12.4995Z" fill="white"/>
<path d="M78.9727 7.08643H72.7173V12.4995H73.9863C74.2109 12.4995 74.3719 12.5444 74.4692 12.6343C74.5666 12.7166 74.6152 12.8289 74.6152 12.9712C74.6152 13.106 74.5666 13.2183 74.4692 13.3081C74.3719 13.3979 74.2109 13.4429 73.9863 13.4429H70.707C70.4824 13.4429 70.3215 13.3979 70.2241 13.3081C70.1268 13.2183 70.0781 13.106 70.0781 12.9712C70.0781 12.8289 70.1268 12.7166 70.2241 12.6343C70.3215 12.5444 70.4824 12.4995 70.707 12.4995H71.7739V1.24658H71.1899C70.9578 1.24658 70.7931 1.2054 70.6958 1.12305C70.5985 1.0332 70.5498 0.917155 70.5498 0.774902C70.5498 0.63265 70.5985 0.520345 70.6958 0.437988C70.7931 0.348145 70.9578 0.303223 71.1899 0.303223H73.9863C74.2109 0.303223 74.3719 0.348145 74.4692 0.437988C74.5666 0.520345 74.6152 0.63265 74.6152 0.774902C74.6152 0.917155 74.5666 1.0332 74.4692 1.12305C74.3719 1.2054 74.2109 1.24658 73.9863 1.24658H72.7173V6.14307H78.9727V1.24658H77.7148C77.4902 1.24658 77.3293 1.2054 77.2319 1.12305C77.1346 1.0332 77.0859 0.917155 77.0859 0.774902C77.0859 0.63265 77.1309 0.520345 77.2207 0.437988C77.318 0.348145 77.4827 0.303223 77.7148 0.303223H80.5112C80.7433 0.303223 80.908 0.348145 81.0054 0.437988C81.1027 0.520345 81.1514 0.63265 81.1514 0.774902C81.1514 0.917155 81.1027 1.0332 81.0054 1.12305C80.908 1.2054 80.7433 1.24658 80.5112 1.24658H79.9272V12.4995H80.9941C81.2188 12.4995 81.3797 12.5444 81.4771 12.6343C81.5744 12.7166 81.623 12.8289 81.623 12.9712C81.623 13.106 81.5744 13.2183 81.4771 13.3081C81.3797 13.3979 81.2188 13.4429 80.9941 13.4429H77.7148C77.4902 13.4429 77.3293 13.3979 77.2319 13.3081C77.1346 13.2183 77.0859 13.106 77.0859 12.9712C77.0859 12.8289 77.1309 12.7166 77.2207 12.6343C77.318 12.5444 77.4827 12.4995 77.7148 12.4995H78.9727V7.08643Z" fill="white"/>
<path d="M92.6963 9.05176H86.4971L85.228 12.4995H87.0361C87.2607 12.4995 87.4217 12.5444 87.519 12.6343C87.6164 12.7166 87.665 12.8289 87.665 12.9712C87.665 13.106 87.6164 13.2183 87.519 13.3081C87.4217 13.3979 87.2607 13.4429 87.0361 13.4429H83.5098C83.2852 13.4429 83.1242 13.3979 83.0269 13.3081C82.9295 13.2183 82.8809 13.106 82.8809 12.9712C82.8809 12.8289 82.9295 12.7166 83.0269 12.6343C83.1242 12.5444 83.2852 12.4995 83.5098 12.4995H84.2397L88.4062 1.24658H85.6211C85.3965 1.24658 85.2355 1.2054 85.1382 1.12305C85.0409 1.0332 84.9922 0.917155 84.9922 0.774902C84.9922 0.63265 85.0409 0.520345 85.1382 0.437988C85.2355 0.348145 85.3965 0.303223 85.6211 0.303223H90.3716L94.9761 12.4995H95.7061C95.9307 12.4995 96.0916 12.5444 96.189 12.6343C96.2863 12.7166 96.335 12.8289 96.335 12.9712C96.335 13.106 96.2863 13.2183 96.189 13.3081C96.0916 13.3979 95.9307 13.4429 95.7061 13.4429H92.1909C91.9588 13.4429 91.7941 13.3979 91.6968 13.3081C91.5994 13.2183 91.5508 13.106 91.5508 12.9712C91.5508 12.8289 91.5994 12.7166 91.6968 12.6343C91.7941 12.5444 91.9588 12.4995 92.1909 12.4995H93.9878L92.6963 9.05176ZM92.3369 8.1084L89.7314 1.24658H89.3833L86.8564 8.1084H92.3369Z" fill="white"/>
<path d="M106.476 7.58057H103.478C102.646 7.97738 101.909 8.53141 101.265 9.24268C100.629 9.95394 99.7266 11.354 98.5586 13.4429H97.3008C97.0762 13.4429 96.9152 13.3979 96.8179 13.3081C96.7205 13.2183 96.6719 13.106 96.6719 12.9712C96.6719 12.8289 96.7205 12.7166 96.8179 12.6343C96.9152 12.5444 97.0762 12.4995 97.3008 12.4995H98.0195C99.0752 10.6877 99.8426 9.48975 100.322 8.90576C100.801 8.32178 101.377 7.79769 102.051 7.3335C100.883 6.93669 100.049 6.44255 99.5469 5.85107C99.0527 5.25212 98.8057 4.61572 98.8057 3.94189C98.8057 3.00602 99.2062 2.16748 100.007 1.42627C100.816 0.677572 101.808 0.303223 102.983 0.303223H108.688C108.913 0.303223 109.074 0.348145 109.171 0.437988C109.269 0.520345 109.317 0.63265 109.317 0.774902C109.317 0.917155 109.269 1.0332 109.171 1.12305C109.074 1.2054 108.913 1.24658 108.688 1.24658H107.419V12.4995H108.688C108.913 12.4995 109.074 12.5444 109.171 12.6343C109.269 12.7166 109.317 12.8289 109.317 12.9712C109.317 13.106 109.269 13.2183 109.171 13.3081C109.074 13.3979 108.913 13.4429 108.688 13.4429H104.735C104.503 13.4429 104.339 13.3979 104.241 13.3081C104.144 13.2183 104.095 13.106 104.095 12.9712C104.095 12.8289 104.144 12.7166 104.241 12.6343C104.339 12.5444 104.503 12.4995 104.735 12.4995H106.476V7.58057ZM106.476 6.63721V1.24658H103.006C102.1 1.24658 101.329 1.53109 100.692 2.1001C100.063 2.66911 99.749 3.26807 99.749 3.89697C99.749 4.31624 99.8988 4.72803 100.198 5.13232C100.505 5.53662 100.992 5.88851 101.658 6.18799C102.332 6.48747 103.081 6.63721 103.904 6.63721H106.476Z" fill="white"/>
<path d="M133.407 6.61475C135.413 7.08643 136.417 8.18327 136.417 9.90527C136.417 10.9684 135.99 11.8856 135.136 12.6567C134.283 13.4279 132.916 13.8135 131.037 13.8135C129.532 13.8135 128.218 13.5664 127.095 13.0723C125.972 12.5781 125.411 12.1701 125.411 11.8481C125.411 11.6834 125.467 11.5524 125.579 11.4551C125.691 11.3577 125.796 11.3091 125.894 11.3091C126.006 11.3091 126.144 11.3577 126.309 11.4551C127.26 12.0016 128.05 12.376 128.679 12.5781C129.308 12.7728 130.135 12.8701 131.161 12.8701C132.561 12.8701 133.613 12.5894 134.316 12.0278C135.02 11.4588 135.372 10.7438 135.372 9.88281C135.372 9.26139 135.144 8.72607 134.687 8.27686C134.238 7.82015 133.665 7.52816 132.969 7.40088C132.28 7.26611 131.288 7.19873 129.993 7.19873H129.341C128.81 7.19873 128.544 7.0415 128.544 6.72705C128.544 6.40511 128.81 6.24414 129.341 6.24414H129.993C133.242 6.24414 134.867 5.33822 134.867 3.52637C134.867 2.71029 134.515 2.07764 133.811 1.62842C133.107 1.17171 132.228 0.943359 131.172 0.943359C129.937 0.943359 128.967 1.26904 128.263 1.92041C127.567 2.57178 127.121 3.39535 126.927 4.39111C126.867 4.71305 126.721 4.87402 126.489 4.87402C126.197 4.87402 126.051 4.72803 126.051 4.43604C126.051 4.24137 126.084 3.89697 126.152 3.40283C126.182 3.11084 126.197 2.87126 126.197 2.68408C126.197 2.63167 126.186 2.26107 126.163 1.57227C126.133 0.920898 126.118 0.591471 126.118 0.583984C126.118 0.291992 126.26 0.145996 126.545 0.145996C126.792 0.145996 126.949 0.363118 127.017 0.797363C127.091 1.25407 127.234 1.48242 127.443 1.48242C127.518 1.48242 127.623 1.42627 127.758 1.31396C128.813 0.437988 129.985 0 131.273 0C132.755 0 133.897 0.333171 134.698 0.999512C135.507 1.66585 135.911 2.49691 135.911 3.49268C135.911 4.96012 135.076 6.00081 133.407 6.61475Z" fill="white"/>
<path d="M147.95 9.05176H141.751L140.482 12.4995H142.29C142.515 12.4995 142.676 12.5444 142.773 12.6343C142.87 12.7166 142.919 12.8289 142.919 12.9712C142.919 13.106 142.87 13.2183 142.773 13.3081C142.676 13.3979 142.515 13.4429 142.29 13.4429H138.764C138.539 13.4429 138.378 13.3979 138.281 13.3081C138.183 13.2183 138.135 13.106 138.135 12.9712C138.135 12.8289 138.183 12.7166 138.281 12.6343C138.378 12.5444 138.539 12.4995 138.764 12.4995H139.494L143.66 1.24658H140.875C140.65 1.24658 140.489 1.2054 140.392 1.12305C140.295 1.0332 140.246 0.917155 140.246 0.774902C140.246 0.63265 140.295 0.520345 140.392 0.437988C140.489 0.348145 140.65 0.303223 140.875 0.303223H145.625L150.23 12.4995H150.96C151.185 12.4995 151.346 12.5444 151.443 12.6343C151.54 12.7166 151.589 12.8289 151.589 12.9712C151.589 13.106 151.54 13.2183 151.443 13.3081C151.346 13.3979 151.185 13.4429 150.96 13.4429H147.445C147.213 13.4429 147.048 13.3979 146.951 13.3081C146.853 13.2183 146.805 13.106 146.805 12.9712C146.805 12.8289 146.853 12.7166 146.951 12.6343C147.048 12.5444 147.213 12.4995 147.445 12.4995H149.242L147.95 9.05176ZM147.591 8.1084L144.985 1.24658H144.637L142.11 8.1084H147.591Z" fill="white"/>
<path d="M161.775 1.24658H155.52V12.4995H156.789C157.208 12.4995 157.417 12.6567 157.417 12.9712C157.417 13.2856 157.208 13.4429 156.789 13.4429H153.509C153.09 13.4429 152.88 13.2856 152.88 12.9712C152.88 12.6567 153.09 12.4995 153.509 12.4995H154.576V1.24658H153.509C153.09 1.24658 152.88 1.08936 152.88 0.774902C152.88 0.460449 153.09 0.303223 153.509 0.303223H163.796C164.216 0.303223 164.425 0.460449 164.425 0.774902C164.425 1.08936 164.216 1.24658 163.796 1.24658H162.729V12.4995H163.796C164.216 12.4995 164.425 12.6567 164.425 12.9712C164.425 13.2856 164.216 13.4429 163.796 13.4429H160.517C160.098 13.4429 159.888 13.2856 159.888 12.9712C159.888 12.6567 160.098 12.4995 160.517 12.4995H161.775V1.24658Z" fill="white"/>
<path d="M167.918 12.4995V1.24658H166.649C166.23 1.24658 166.02 1.08936 166.02 0.774902C166.02 0.460449 166.23 0.303223 166.649 0.303223H170.602C171.029 0.303223 171.242 0.460449 171.242 0.774902C171.242 1.08936 171.029 1.24658 170.602 1.24658H168.861V12.084L175.824 0.303223H178.295C178.714 0.303223 178.924 0.460449 178.924 0.774902C178.924 1.08936 178.714 1.24658 178.295 1.24658H177.026V12.4995H178.295C178.714 12.4995 178.924 12.6567 178.924 12.9712C178.924 13.2856 178.714 13.4429 178.295 13.4429H174.813C174.394 13.4429 174.185 13.2856 174.185 12.9712C174.185 12.6567 174.394 12.4995 174.813 12.4995H176.083V1.68457L169.131 13.4429H166.649C166.23 13.4429 166.02 13.2856 166.02 12.9712C166.02 12.6567 166.23 12.4995 166.649 12.4995H167.918Z" fill="white"/>
<path d="M190.435 1.59473V0.932129C190.435 0.70752 190.476 0.546549 190.559 0.449219C190.648 0.351888 190.764 0.303223 190.907 0.303223C191.049 0.303223 191.161 0.351888 191.244 0.449219C191.333 0.546549 191.378 0.70752 191.378 0.932129V3.54883C191.378 3.78092 191.333 3.94564 191.244 4.04297C191.161 4.1403 191.049 4.18896 190.907 4.18896C190.779 4.18896 190.671 4.14404 190.581 4.0542C190.499 3.96436 190.45 3.81836 190.435 3.61621C190.398 2.9873 190.057 2.42952 189.413 1.94287C188.545 1.27653 187.556 0.943359 186.448 0.943359C185.722 0.943359 185.037 1.10433 184.393 1.42627C183.914 1.65837 183.532 1.94287 183.248 2.27979C182.753 2.86377 182.36 3.51139 182.068 4.22266C181.859 4.74674 181.754 5.33822 181.754 5.99707V7.64795C181.754 9.0555 182.263 10.2796 183.281 11.3203C184.299 12.3535 185.482 12.8701 186.83 12.8701C187.639 12.8701 188.361 12.6942 188.998 12.3423C189.641 11.9904 190.263 11.4588 190.862 10.7476C190.989 10.5903 191.131 10.5117 191.289 10.5117C191.423 10.5117 191.532 10.5529 191.614 10.6353C191.697 10.7176 191.738 10.8224 191.738 10.9497C191.738 11.1219 191.577 11.384 191.255 11.7358C190.641 12.4246 189.948 12.945 189.177 13.2969C188.414 13.6413 187.639 13.8135 186.853 13.8135C186.171 13.8135 185.479 13.6825 184.775 13.4204C184.236 13.2183 183.79 12.9824 183.438 12.7129C183.087 12.4434 182.652 11.9904 182.136 11.354C181.627 10.7101 181.278 10.1187 181.091 9.57959C180.904 9.03304 180.811 8.43408 180.811 7.78271V5.8623C180.811 4.93392 181.058 3.98682 181.552 3.021C182.053 2.04769 182.735 1.30273 183.596 0.786133C184.464 0.262044 185.404 0 186.415 0C187.972 0 189.312 0.531576 190.435 1.59473Z" fill="white"/>
<path d="M197.016 1.24658V6.14307H200.486C202.126 6.14307 203.403 6.46126 204.316 7.09766C205.237 7.72656 205.697 8.625 205.697 9.79297C205.697 10.8561 205.315 11.7321 204.552 12.4209C203.788 13.1022 202.89 13.4429 201.856 13.4429H194.804C194.384 13.4429 194.175 13.2856 194.175 12.9712C194.175 12.6567 194.384 12.4995 194.804 12.4995H196.073V1.24658H194.804C194.384 1.24658 194.175 1.08936 194.175 0.774902C194.175 0.460449 194.384 0.303223 194.804 0.303223H198.285C198.704 0.303223 198.914 0.460449 198.914 0.774902C198.914 1.08936 198.704 1.24658 198.285 1.24658H197.016ZM197.016 12.4995H201.789C202.665 12.4995 203.376 12.23 203.923 11.6909C204.469 11.1519 204.743 10.5267 204.743 9.81543C204.743 9.13411 204.421 8.5127 203.777 7.95117C203.133 7.38216 202.01 7.09766 200.408 7.09766H197.016V12.4995Z" fill="white"/>
<path d="M222.745 1.24658H222.161C221.637 1.24658 221.375 1.08936 221.375 0.774902C221.375 0.460449 221.637 0.303223 222.161 0.303223H223.385C223.692 0.303223 223.887 0.329427 223.969 0.381836C224.052 0.434245 224.149 0.606445 224.261 0.898438L228.428 11.6685V1.24658H227.271C226.747 1.24658 226.485 1.08936 226.485 0.774902C226.485 0.460449 226.747 0.303223 227.271 0.303223H229.966C230.49 0.303223 230.752 0.460449 230.752 0.774902C230.752 1.08936 230.49 1.24658 229.966 1.24658H229.371V12.2412C229.371 12.6979 229.319 13.0124 229.214 13.1846C229.109 13.3568 228.922 13.4429 228.652 13.4429C228.443 13.4429 228.285 13.3867 228.181 13.2744C228.076 13.1621 227.952 12.915 227.81 12.5332L223.7 1.90918V12.4995H224.845C225.377 12.4995 225.643 12.6567 225.643 12.9712C225.643 13.2856 225.377 13.4429 224.845 13.4429H222.161C221.637 13.4429 221.375 13.2856 221.375 12.9712C221.375 12.6567 221.637 12.4995 222.161 12.4995H222.745V1.24658ZM233.987 3.29053V5.88477C233.987 6.96289 233.504 7.50195 232.538 7.50195C232.179 7.50195 231.861 7.40088 231.583 7.19873C231.314 6.9891 231.16 6.757 231.123 6.50244C231.086 6.24788 231.067 5.22591 231.067 3.43652C231.067 2.9349 231.213 2.5306 231.505 2.22363C231.797 1.90918 232.13 1.75195 232.504 1.75195C232.931 1.75195 233.283 1.90169 233.56 2.20117C233.845 2.50065 233.987 2.86377 233.987 3.29053ZM232.021 5.88477C232.021 6.31901 232.19 6.53613 232.527 6.53613C232.871 6.53613 233.043 6.31901 233.043 5.88477V3.29053C233.043 2.90869 232.875 2.71777 232.538 2.71777C232.194 2.71777 232.021 2.90869 232.021 3.29053V5.88477ZM232.954 10.1074H232.089C231.55 10.1074 231.28 9.94645 231.28 9.62451C231.28 9.30257 231.479 9.1416 231.875 9.1416C232.849 9.1416 233.407 9.16406 233.549 9.20898C233.691 9.25391 233.762 9.39242 233.762 9.62451C233.762 9.94645 233.493 10.1074 232.954 10.1074Z" fill="white"/>
<path d="M255.92 6.71582L260.401 12.4995H260.76C260.985 12.4995 261.146 12.5444 261.243 12.6343C261.34 12.7166 261.389 12.8289 261.389 12.9712C261.389 13.106 261.34 13.2183 261.243 13.3081C261.146 13.3979 260.985 13.4429 260.76 13.4429H257.728C257.503 13.4429 257.342 13.3979 257.245 13.3081C257.148 13.2183 257.099 13.106 257.099 12.9712C257.099 12.8289 257.148 12.7166 257.245 12.6343C257.342 12.5444 257.503 12.4995 257.728 12.4995H259.233L255.336 7.49072L251.484 12.4995H252.989C253.213 12.4995 253.374 12.5444 253.472 12.6343C253.569 12.7166 253.618 12.8289 253.618 12.9712C253.618 13.106 253.569 13.2183 253.472 13.3081C253.374 13.3979 253.213 13.4429 252.989 13.4429H249.979C249.754 13.4429 249.593 13.3979 249.496 13.3081C249.399 13.2183 249.35 13.106 249.35 12.9712C249.35 12.8664 249.38 12.7728 249.44 12.6904C249.5 12.6081 249.567 12.5557 249.642 12.5332C249.717 12.5107 249.945 12.4995 250.327 12.4995L254.752 6.71582L250.529 1.24658H250.181C249.957 1.24658 249.796 1.2054 249.698 1.12305C249.601 1.0332 249.552 0.917155 249.552 0.774902C249.552 0.63265 249.601 0.520345 249.698 0.437988C249.796 0.348145 249.957 0.303223 250.181 0.303223H252.753C252.985 0.303223 253.15 0.348145 253.247 0.437988C253.344 0.520345 253.393 0.63265 253.393 0.774902C253.393 0.917155 253.344 1.0332 253.247 1.12305C253.15 1.2054 252.985 1.24658 252.753 1.24658H251.697L255.336 5.95215L258.952 1.24658H257.896C257.664 1.24658 257.5 1.2054 257.402 1.12305C257.305 1.0332 257.256 0.917155 257.256 0.774902C257.256 0.63265 257.305 0.520345 257.402 0.437988C257.5 0.348145 257.664 0.303223 257.896 0.303223H260.479C260.704 0.303223 260.865 0.348145 260.962 0.437988C261.06 0.520345 261.108 0.63265 261.108 0.774902C261.108 0.917155 261.06 1.0332 260.962 1.12305C260.865 1.2054 260.704 1.24658 260.479 1.24658H260.12L255.92 6.71582Z" fill="white"/>
<path d="M269.733 6.71582L274.214 12.4995H274.574C274.798 12.4995 274.959 12.5444 275.057 12.6343C275.154 12.7166 275.203 12.8289 275.203 12.9712C275.203 13.106 275.154 13.2183 275.057 13.3081C274.959 13.3979 274.798 13.4429 274.574 13.4429H271.542C271.317 13.4429 271.156 13.3979 271.059 13.3081C270.961 13.2183 270.913 13.106 270.913 12.9712C270.913 12.8289 270.961 12.7166 271.059 12.6343C271.156 12.5444 271.317 12.4995 271.542 12.4995H273.046L269.149 7.49072L265.297 12.4995H266.802C267.027 12.4995 267.188 12.5444 267.285 12.6343C267.382 12.7166 267.431 12.8289 267.431 12.9712C267.431 13.106 267.382 13.2183 267.285 13.3081C267.188 13.3979 267.027 13.4429 266.802 13.4429H263.792C263.568 13.4429 263.407 13.3979 263.31 13.3081C263.212 13.2183 263.164 13.106 263.164 12.9712C263.164 12.8664 263.194 12.7728 263.253 12.6904C263.313 12.6081 263.381 12.5557 263.456 12.5332C263.53 12.5107 263.759 12.4995 264.141 12.4995L268.565 6.71582L264.343 1.24658H263.995C263.77 1.24658 263.609 1.2054 263.512 1.12305C263.414 1.0332 263.366 0.917155 263.366 0.774902C263.366 0.63265 263.414 0.520345 263.512 0.437988C263.609 0.348145 263.77 0.303223 263.995 0.303223H266.566C266.799 0.303223 266.963 0.348145 267.061 0.437988C267.158 0.520345 267.207 0.63265 267.207 0.774902C267.207 0.917155 267.158 1.0332 267.061 1.12305C266.963 1.2054 266.799 1.24658 266.566 1.24658H265.511L269.149 5.95215L272.766 1.24658H271.71C271.478 1.24658 271.313 1.2054 271.216 1.12305C271.118 1.0332 271.07 0.917155 271.07 0.774902C271.07 0.63265 271.118 0.520345 271.216 0.437988C271.313 0.348145 271.478 0.303223 271.71 0.303223H274.293C274.518 0.303223 274.679 0.348145 274.776 0.437988C274.873 0.520345 274.922 0.63265 274.922 0.774902C274.922 0.917155 274.873 1.0332 274.776 1.12305C274.679 1.2054 274.518 1.24658 274.293 1.24658H273.934L269.733 6.71582Z" fill="white"/>
<path d="M283.547 6.71582L288.028 12.4995H288.387C288.612 12.4995 288.773 12.5444 288.87 12.6343C288.967 12.7166 289.016 12.8289 289.016 12.9712C289.016 13.106 288.967 13.2183 288.87 13.3081C288.773 13.3979 288.612 13.4429 288.387 13.4429H285.355C285.13 13.4429 284.969 13.3979 284.872 13.3081C284.775 13.2183 284.726 13.106 284.726 12.9712C284.726 12.8289 284.775 12.7166 284.872 12.6343C284.969 12.5444 285.13 12.4995 285.355 12.4995H286.86L282.963 7.49072L279.111 12.4995H280.616C280.84 12.4995 281.001 12.5444 281.099 12.6343C281.196 12.7166 281.245 12.8289 281.245 12.9712C281.245 13.106 281.196 13.2183 281.099 13.3081C281.001 13.3979 280.84 13.4429 280.616 13.4429H277.606C277.381 13.4429 277.22 13.3979 277.123 13.3081C277.026 13.2183 276.977 13.106 276.977 12.9712C276.977 12.8664 277.007 12.7728 277.067 12.6904C277.127 12.6081 277.194 12.5557 277.269 12.5332C277.344 12.5107 277.572 12.4995 277.954 12.4995L282.379 6.71582L278.156 1.24658H277.808C277.583 1.24658 277.423 1.2054 277.325 1.12305C277.228 1.0332 277.179 0.917155 277.179 0.774902C277.179 0.63265 277.228 0.520345 277.325 0.437988C277.423 0.348145 277.583 0.303223 277.808 0.303223H280.38C280.612 0.303223 280.777 0.348145 280.874 0.437988C280.971 0.520345 281.02 0.63265 281.02 0.774902C281.02 0.917155 280.971 1.0332 280.874 1.12305C280.777 1.2054 280.612 1.24658 280.38 1.24658H279.324L282.963 5.95215L286.579 1.24658H285.523C285.291 1.24658 285.127 1.2054 285.029 1.12305C284.932 1.0332 284.883 0.917155 284.883 0.774902C284.883 0.63265 284.932 0.520345 285.029 0.437988C285.127 0.348145 285.291 0.303223 285.523 0.303223H288.106C288.331 0.303223 288.492 0.348145 288.589 0.437988C288.687 0.520345 288.735 0.63265 288.735 0.774902C288.735 0.917155 288.687 1.0332 288.589 1.12305C288.492 1.2054 288.331 1.24658 288.106 1.24658H287.747L283.547 6.71582Z" fill="white"/>
<path d="M297.36 6.71582L301.841 12.4995H302.201C302.425 12.4995 302.586 12.5444 302.684 12.6343C302.781 12.7166 302.83 12.8289 302.83 12.9712C302.83 13.106 302.781 13.2183 302.684 13.3081C302.586 13.3979 302.425 13.4429 302.201 13.4429H299.168C298.944 13.4429 298.783 13.3979 298.686 13.3081C298.588 13.2183 298.54 13.106 298.54 12.9712C298.54 12.8289 298.588 12.7166 298.686 12.6343C298.783 12.5444 298.944 12.4995 299.168 12.4995H300.673L296.776 7.49072L292.924 12.4995H294.429C294.654 12.4995 294.815 12.5444 294.912 12.6343C295.009 12.7166 295.058 12.8289 295.058 12.9712C295.058 13.106 295.009 13.2183 294.912 13.3081C294.815 13.3979 294.654 13.4429 294.429 13.4429H291.419C291.195 13.4429 291.034 13.3979 290.937 13.3081C290.839 13.2183 290.791 13.106 290.791 12.9712C290.791 12.8664 290.82 12.7728 290.88 12.6904C290.94 12.6081 291.008 12.5557 291.083 12.5332C291.157 12.5107 291.386 12.4995 291.768 12.4995L296.192 6.71582L291.97 1.24658H291.622C291.397 1.24658 291.236 1.2054 291.139 1.12305C291.041 1.0332 290.993 0.917155 290.993 0.774902C290.993 0.63265 291.041 0.520345 291.139 0.437988C291.236 0.348145 291.397 0.303223 291.622 0.303223H294.193C294.425 0.303223 294.59 0.348145 294.688 0.437988C294.785 0.520345 294.833 0.63265 294.833 0.774902C294.833 0.917155 294.785 1.0332 294.688 1.12305C294.59 1.2054 294.425 1.24658 294.193 1.24658H293.138L296.776 5.95215L300.393 1.24658H299.337C299.105 1.24658 298.94 1.2054 298.843 1.12305C298.745 1.0332 298.697 0.917155 298.697 0.774902C298.697 0.63265 298.745 0.520345 298.843 0.437988C298.94 0.348145 299.105 0.303223 299.337 0.303223H301.92C302.145 0.303223 302.306 0.348145 302.403 0.437988C302.5 0.520345 302.549 0.63265 302.549 0.774902C302.549 0.917155 302.5 1.0332 302.403 1.12305C302.306 1.2054 302.145 1.24658 301.92 1.24658H301.561L297.36 6.71582Z" fill="white"/>
</svg>
