<svg width="303" height="14" viewBox="0 0 303 14" fill="none" xmlns="http://www.w3.org/2000/svg">
<path d="M9.45 9.03C8 9.03 7 9.03 6.26 9.08H3.62L2.35 12.53H4.16C4.38 12.53 4.55 12.57 4.64 12.66C4.74 12.74 4.79 12.85 4.79 13C4.79 13.13 4.74 13.25 4.64 13.34C4.54 13.43 4.38 13.47 4.16 13.47H0.63C0.41 13.47 0.24 13.42 0.15 13.34C0.05 13.25 0 13.14 0 13C0 12.86 0.05 12.75 0.15 12.66C0.25 12.57 0.41 12.53 0.63 12.53H1.36L5.53 1.28H2.74C2.52 1.28 2.35 1.24 2.26 1.16C2.16 1.07 2.11 0.95 2.11 0.81C2.11 0.67 2.16 0.56 2.26 0.47C2.36 0.38 2.52 0.34 2.74 0.34H7.49L8.08 1.91C8.17 2.01 8.25 2.11 8.39 2.21C9 3.03 10 1.03 10 3.03C15 3.03 19 4.03 24 2.03C19 5.03 13 1.03 9.19 4.61C9.17 4.78 9.22 4.92 9.28 5.07L9.77 6.37C9.83 6.52 9.87 6.66 9.77 6.81C9.99 8.02 6.99 5.02 7.99 8.02C7.99 9.02 9.99 9.02 10.85 9.33C10.92 9.46 10.97 9.58 11.02 9.71L12.08 12.52H12.81C13.03 12.52 13.2 12.56 13.29 12.65C13.39 12.73 13.44 12.84 13.44 12.99C13.44 13.12 13.39 13.24 13.29 13.33C13.19 13.42 13.03 13.46 12.81 13.46H9.29C9.06 13.46 8.89 13.41 8.8 13.33C8.71 13.25 8.65 13.13 8.65 12.99C8.65 12.85 8.7 12.74 8.8 12.65C8.9 12.56 9.06 12.52 9.29 12.52H11.09L10.13 9.97C10.03 9.71 9.95 9.49 9.81 9.32C9.59 9.14 9.42 9.03 9.42 9.03H9.45ZM6.66 7.98C7 7.03 8 7.03 8.87 6.61L8.74 6.27L8.31 5.14C8.25 4.98 8.19 4.83 8.21 4.68C13 2.04 18 3.04 23 3.04C18 2.04 12 4.04 7.04 1.79L6.85 1.28H6.5L3.97 8.14H5.88C6 8.03 7 8.03 6.66 8C6.64 7.96 6.66 7.98 6.66 7.98ZM6.76 7.93C10 8.03 14 8.03 16.67 8.84C16.87 8.89 17.05 8.94 18.47 8.94V12.53H21.7C21.92 12.53 22.09 12.57 22.18 12.66C22.28 12.74 22.33 12.85 22.33 13C22.33 13.13 22.28 13.25 22.18 13.34C22.08 13.43 21.92 13.47 21.7 13.47H16.25C16.03 13.47 15.86 13.42 15.77 13.34C15.67 13.25 15.62 13.14 15.62 13C15.62 12.86 15.67 12.75 15.77 12.66C15.87 12.57 16.03 12.53 16.25 12.53H17.52V9.01C17.2 8.74 17.08 8.46 17.04 8.17C16.99 7.04 16.99 6.04 17.52 6.36V4.62C17.59 4.48 17.66 4.33 17.79 4.2C17.99 4.04 18.99 3.04 18.99 3.04C18.99 3.04 17.99 2.04 17.52 1.67V1.28H16.25C16.03 1.28 15.86 1.24 15.77 1.16C15.67 1.07 15.62 0.95 15.62 0.81C15.62 0.67 15.67 0.56 15.77 0.47C15.87 0.38 16.03 0.34 16.25 0.34H21.73C23.03 0.34 24.08 0.72 24.9 1.49C25.72 2.25 26.14 3.15 26.14 4.17C26.14 4.78 26.01 5.32 25.74 5.81C25.48 6.3 25.16 6.68 24.79 6.96C24.65 7.06 24.51 7.16 24.37 7.25C24.23 7.34 24.08 7.42 23.94 7.5C18.01 10.04 13.01 7.04 7.01 8.04H20.01C16.01 8.04 11.01 8.04 6.97 7.95C6.78 7.95 6.77 7.95 6.77 7.95L6.76 7.93ZM17.6 7.18C18 7.03 19 7.03 18.98 7.15C19.43 7.15 19.73 7.14 19.93 7.14H20.3C20.7667 7.06667 21.5 7.02667 22.5 7.02C22.83 6.94 23.14 6.83 23.44 6.67C24.05 6.36 24.5 5.97 24.78 5.52C25.06 5.07 25.21 4.61 25.21 4.15C25.21 3.41 24.89 2.74 24.26 2.15C23.63 1.56 22.82 1.26 21.85 1.26H18.49C18.49 1.26 18.49 1.49 18.87 1.87C20.02 3.01 21.02 3.01 22.02 3.01C20.02 3.01 20.02 5.01 18.49 5.06V5.47C18.49 5.94 18.49 6.35 18.27 6.66C18.05 6.97 17.62 7.16 17.62 7.16L17.6 7.18ZM41.22 6.17C40.11 6.6 39.06 6.81 38.15 6.99C37.97 7.03 37.8 7.06 37.64 7.1C37.2133 7.05333 37 7.36333 37 8.03C39 8.03 41 10.03 43 9.03C41 10.03 39 8.03 37.4 9.93C37.52 10.12 37.67 10.31 37.81 10.49L39.39 12.53H39.75C39.97 12.53 40.14 12.57 40.23 12.66C40.33 12.74 40.38 12.85 40.38 13C40.38 13.13 40.33 13.25 40.23 13.34C40.13 13.43 39.97 13.47 39.75 13.47H36.72C36.5 13.47 36.33 13.42 36.24 13.34C36.15 13.26 36.09 13.14 36.09 13C36.09 12.86 36.14 12.75 36.24 12.66C36.34 12.57 36.5 12.53 36.72 12.53H38.22L36.38 10.17L36.12 9.84C38 8.03 41 10.03 43 9.03C40 9.03 36 9.03 32.79 9.51L32.54 9.84L30.47 12.53H31.97C32.19 12.53 32.36 12.57 32.45 12.66C32.55 12.74 32.6 12.85 32.6 13C32.6 13.13 32.55 13.25 32.45 13.34C32.35 13.43 32.19 13.47 31.97 13.47H28.96C28.74 13.47 28.57 13.42 28.48 13.34C28.38 13.25 28.33 13.14 28.33 13C28.33 12.9 28.36 12.8 28.42 12.72C28.48 12.64 28.55 12.59 28.62 12.56C28.69 12.54 28.92 12.53 29.31 12.53L31.73 9.37C31.81 9.27 31.89 9.17 31.96 9.06C34.99 7.03 38.99 10.03 42.99 9.03C39.99 9.03 37.99 9.03 35.96 6.78C36.18 6.72 36.4 6.67 36.63 6.61C37.99 6.28 39.49 6.03 40.99 6.03C37.99 6.03 35.99 6.03 32.49 5C32.31 4.91 32.22 4.8 32.14 4.69L31.22 3.5L30.78 2.93C29.99 2.03 28.99 1.03 26.99 1.03C28 -0.97 30 1.03 31 0.03C30 2.03 28 0.03 27 1.03C28 1.03 29 3.03 31.39 2.45C31.56 2.53 31.66 2.62 31.78 2.71L33.29 4.66C33.37 4.77 33.46 4.88 33.58 5.03C36 8.03 39 5.03 42 6.03C40 5.03 37 7.03 35.2 5.1C35.24 4.96 35.3 4.82 35.34 4.66C35.47 4.49 35.61 4.3 35.76 4.12C35 4.04 34 2.04 33 2.04C35 2.04 36 2.04 37.57 1.6C37.84 1.41 37.93 1.29 37.93 1.29H37.4C36.99 1.04 35.99 1.04 36.38 1.17C36.28 1.07 36.23 0.96 36.23 0.82C36.23 0.68 36.28 0.57 36.38 0.48C36.48 0.39 36.64 0.35 36.87 0.35H39.45C39.67 0.35 39.84 0.39 39.93 0.48C40.03 0.56 40.08 0.67 40.08 0.82C40.08 0.97 40.03 1.08 39.93 1.17C39.83 1.25 39.67 1.29 39.45 1.29H39.09L38.85 1.61C36.99 2.05 34.99 2.05 32.99 2.05C34.99 2.05 34.99 4.05 36.66 4.03C36.73 4.3 36.62 4.51 36.47 4.7C36.38 4.81 36.3 4.92 36.22 5.03C36.98 7.04 38.98 5.04 40.75 5.91C41.98 5.95 41.2 6.19 41.2 6.19L41.22 6.17ZM43.6 12.53V7.84C43.6 7.53 43.61 7.23 43.65 6.93C43.8833 6.33 43.8733 5.71333 43.62 5.08C43.62 4.77 43.6 4.48 43.6 4.2V1.28H42.33C41.91 1.28 41.7 1.12 41.7 0.81C41.7 0.5 41.91 0.34 42.33 0.34H46.28C46.71 0.34 46.92 0.5 46.92 0.81C46.92 1.12 46.71 1.28 46.28 1.28H44.54V4.24C44.58 4.43 44.59 4.6 44.61 4.78C46 7.03 49 7.03 51 8.03C50 7.03 48 9.03 48 7.03C47 8.03 45 6.03 44.6 7.73C44.57 7.89 44.55 8.05 44.54 8.2V12.11L46.5 8.79C46.58 8.66 46.66 8.52 46.77 8.39C49 8.03 52 8.03 54 8.03C52 8.03 50 7.03 48.28 5.78L48.54 5.34L51.5 0.33H53.97C54.39 0.33 54.6 0.49 54.6 0.8C54.6 1.11 54.39 1.27 53.97 1.27H52.7V2.1C52.7 2.27 52.7 2.47 52.62 2.69C52.2067 2.91 52 3.35333 52 4.02C52 4.02 53 5.02 52.59 5.05C52.7 5.35 52.7 5.65 52.7 5.96C52.7 6.27 52.7 6.58 52.86 6.9C53 7.02 54 8.02 54 8.02C53 8.02 53 9.02 52.78 9.6C52.7 9.88 52.7 10.14 52.7 10.39V12.51H53.97C54.39 12.51 54.6 12.67 54.6 12.98C54.6 13.29 54.39 13.45 53.97 13.45H50.49C50.07 13.45 49.86 13.29 49.86 12.98C49.86 12.67 50.07 12.51 50.49 12.51H51.76V9.63C51.76 9.5 51.76 9.38 51.86 9.26C53 9.01 54 9.01 54 8.01C55 6.01 51 8.01 51.76 6.34V5.11C51.76 4.48 51.75 3.88 51.76 3.38C51.77 2.88 51.76 2.45 51.76 2.15V1.69L49.56 5.41L49.31 5.83C50 7.01 52 8.01 54 8.01C52 8.01 50 8.01 47.88 8.46C47.7 8.6 47.59 8.75 47.51 8.89L44.81 13.46H42.33C41.91 13.46 41.7 13.3 41.7 12.99C41.7 12.68 41.91 12.52 42.33 12.52H43.6V12.53ZM57.94 12.53V5.97C57 6.03 56 4.03 55 4.03C56 5.03 57 2.03 57.94 2.7V1.28H56.67C56.45 1.28 56.28 1.24 56.19 1.16C56.09 1.07 56.04 0.95 56.04 0.81C56.04 0.67 56.09 0.56 56.19 0.47C56.29 0.38 56.45 0.34 56.67 0.34H62.6C63.78 0.34 64.73 0.68 65.46 1.36C66.2 2.03 66.57 2.83 66.57 3.74C66.57 3.93 66.55 4.12 66.52 4.3C66.43 4.53 66.34 4.73 66.22 4.94C66 7.03 64 5.03 64 6.03C64 6.03 65 7.03 65.11 6.68C65.34 6.78 65.48 6.85 65.61 6.92C66.15 7.21 66.57 7.54 66.87 7.93C67.33 8.51 67.55 9.16 67.55 9.86C67.55 10.49 67.4 11.07 67.1 11.59C66.8 12.11 66.34 12.55 65.72 12.92C65.11 13.29 64.44 13.47 63.71 13.47H56.66C56.44 13.47 56.27 13.42 56.18 13.34C56.08 13.25 56.03 13.14 56.03 13C56.03 12.86 56.08 12.75 56.18 12.66C56.28 12.57 56.44 12.53 56.66 12.53H57.93H57.94ZM58.88 6.17H59.13C59.28 6.17 59.5 6.17 59.75 6.17C59.87 6.17 60.01 6.17 60.14 6.17H60.97C61.6633 6.07667 62.3433 6.03 63.01 6.03C59.01 5.03 56.01 4.03 52.01 4.03C55.01 5.03 58.01 2.03 60.01 5.03C62.01 4.03 64.01 6.03 65.51 3.76C65.63 3.36 65.56 3.08 65.42 2.81C65.28 2.54 65.07 2.28 64.8 2.03C64.25 1.53 63.52 1.28 62.63 1.28H58.89V3.5C58.25 3.47 58.12 3.52 57.96 3.57C57.01 4.03 56.01 4.03 55.01 4.03C56.01 3.03 57.01 6.03 58.05 5.27C58.34 5.43 58.53 5.57 58.89 5.72V6.17H58.88ZM58.88 12.53H63.65C64.26 12.53 64.78 12.4 65.23 12.13C65.68 11.86 66.02 11.53 66.25 11.13C66.48 10.73 66.6 10.32 66.6 9.89C66.6 9.41 66.43 8.95 66.09 8.5C65.76 8.05 65.3 7.71 64.71 7.48C64.51 7.4 64.29 7.34 64.04 7.29C63.79 7.24 63.52 7.2 63.22 7.17C62.92 7.14 62.6 7.13 62.25 7.13H58.86V12.53H58.88ZM78.96 7.11C78.96 7.11 78.72 7.12 78.32 7.12H72.72V9.03C75 11.04 78 9.03 80 10.04C78 12.04 75 9.04 72.74 11.98C72.72 12.33 72.72 12.54 72.72 12.54H73.99C74.21 12.54 74.38 12.58 74.47 12.67C74.57 12.75 74.62 12.86 74.62 13.01C74.62 13.14 74.57 13.26 74.47 13.35C74.37 13.44 74.21 13.48 73.99 13.48H70.71C70.49 13.48 70.32 13.43 70.23 13.35C70.13 13.26 70.08 13.15 70.08 13.01C70.08 12.87 70.13 12.76 70.23 12.67C70.33 12.58 70.49 12.54 70.71 12.54H71.78V12.15C74.01 9.04 78.01 13.04 80.01 10.04C77.01 9.04 74.01 12.04 71.85 9.2C71.81 9.06 71.79 8.91 71.78 8.76V1.28H71.2C70.97 1.28 70.8 1.24 70.71 1.16C70.61 1.07 70.56 0.95 70.56 0.81C70.56 0.67 70.61 0.56 70.71 0.47C70.81 0.38 70.97 0.34 71.2 0.34H74C74.22 0.34 74.39 0.38 74.48 0.47C74.58 0.55 74.63 0.66 74.63 0.81C74.63 0.96 74.58 1.07 74.48 1.16C74.38 1.24 74.22 1.28 74 1.28H72.73V6.18H78.99V5.41C79.02 4.03 80.02 4.03 81.02 4.03C82.02 2.03 79.02 4.03 78.99 2.04V1.27H77.73C77.51 1.27 77.34 1.23 77.25 1.15C77.15 1.06 77.1 0.94 77.1 0.8C77.1 0.66 77.14 0.55 77.23 0.46C77.33 0.37 77.49 0.33 77.72 0.33H80.52C80.75 0.33 80.92 0.37 81.01 0.46C81.11 0.54 81.16 0.65 81.16 0.8C81.16 0.95 81.11 1.06 81.01 1.15C80.91 1.23 80.75 1.27 80.52 1.27H79.94V1.66C79.94 1.78 79.94 1.93 79.96 2.11C82.02 3.03 85.02 4.03 88.02 4.03C85.02 4.03 83.02 4.03 80.06 5.08C80 5.22 79.97 5.37 79.94 5.51V6.32C79.9867 6.79333 79.6767 7.03 79.01 7.03C79.01 7.7 79.01 8.36 79.28 8.88C79.35 9.01 79.43 9.13 79.54 9.23C80 10.03 80 11.03 79.93 11.88V12.53H81C81.22 12.53 81.39 12.57 81.48 12.66C81.58 12.74 81.63 12.85 81.63 13C81.63 13.13 81.58 13.25 81.48 13.34C81.38 13.43 81.22 13.47 81 13.47H77.72C77.5 13.47 77.33 13.42 77.24 13.34C77.14 13.25 77.09 13.14 77.09 13C77.09 12.86 77.13 12.75 77.22 12.66C77.32 12.57 77.48 12.53 77.71 12.53H78.97C78.97 12.53 78.97 12.31 79.05 11.93C79 11.03 79 10.03 80 10.03C79.3333 10.03 78.99 9.69333 78.97 9.02C78.95 8.88 78.93 8.74 78.92 8.6C78.87 8.19 78.82 7.83 78.86 7.6C78.91 7.29 78.96 7.11 78.96 7.11ZM92.4 9.03C90 10.03 88 8.03 86.16 9.98L85.85 10.81L85.22 12.53H87.03C87.25 12.53 87.42 12.57 87.51 12.66C87.61 12.74 87.66 12.85 87.66 13C87.66 13.13 87.61 13.25 87.51 13.34C87.41 13.43 87.25 13.47 87.03 13.47H83.5C83.28 13.47 83.11 13.42 83.02 13.34C82.92 13.25 82.87 13.14 82.87 13C82.87 12.86 82.92 12.75 83.02 12.66C83.12 12.57 83.28 12.53 83.5 12.53H84.23L85.26 9.75C85.34 9.52 85.43 9.29 85.51 9.04C84 9.03 86 8.03 85.46 7.49C85.69 7.37 85.85 7.24 86.24 7.14L86.67 5.97C86.73 5.82 86.78 5.66 86.86 5.51C89 5.03 87 4.03 87.88 2.7L88.1 2.11L88.41 1.28H85.62C85.4 1.28 85.23 1.24 85.14 1.16C85.04 1.07 84.99 0.95 84.99 0.81C84.99 0.67 85.04 0.56 85.14 0.47C85.24 0.38 85.4 0.34 85.62 0.34H90.37L92.5 5.98L92.67 6.44C92.89 6.84 93.0533 7.43 93.16 8.21C93.26 8.36 93.35 8.52 93.52 8.68C93.62 8.95 93.66 9.24 93.52 9.61C94 10.04 88 11.04 94.44 11.46C94.6 11.59 94.67 11.75 94.72 11.88L94.97 12.54H95.7C95.92 12.54 96.09 12.58 96.18 12.67C96.28 12.75 96.33 12.86 96.33 13.01C96.33 13.14 96.28 13.26 96.18 13.35C96.08 13.44 95.92 13.48 95.7 13.48H92.18C91.95 13.48 91.78 13.43 91.69 13.35C91.59 13.26 91.54 13.15 91.54 13.01C91.54 12.87 91.59 12.76 91.69 12.67C91.79 12.58 91.95 12.54 92.18 12.54H93.98L93.33 10.82L93.02 9.99C92.92 9.73 92.76 9.5 92.63 9.32C92.5 9.14 92.39 9.04 92.39 9.04L92.4 9.03ZM78.97 7.12C83 8.03 89 9.03 91.66 6.36L91.51 5.97L89.73 1.28H89.38L88.72 3.06C88.63 3.31 88.57 3.58 88.58 3.86C88 4.03 88 5.03 87.84 5.56C87.7 5.84 87.61 6.11 87.51 6.36C87.46 6.49 87.42 6.61 87.37 6.73C85.99 8.03 84.99 6.03 84.99 8.03C82.99 8.03 80.99 8.03 78.99 7.03C79.99 8.03 80.99 8.03 81.99 8.03C80.99 9.03 79.99 6.03 79.08 7.21C78.92 7.13 78.96 7.11 78.96 7.11L78.97 7.12ZM106.48 7.61H103.48C102.93 7.87 102.41 8.21 101.94 8.61C101.82 8.71 101.71 8.82 101.56 8.92C100 9.03 99 11.03 97 10.03C98 9.03 99 11.03 99.67 11.41C99.64 11.61 99.52 11.81 99.39 12.03C99.13 12.47 98.86 12.95 98.56 13.47H97.3C97.08 13.47 96.91 13.42 96.82 13.34C96.72 13.25 96.67 13.14 96.67 13C96.67 12.86 96.72 12.75 96.82 12.66C96.92 12.57 97.08 12.53 97.3 12.53H98.02C98.15 12.3 98.28 12.09 98.4 11.88C98.52 11.67 98.64 11.48 98.64 11.29C98 11.03 97 11.03 96 10.03C96 11.03 95 11.03 94 11.03C96 9.03 98 10.03 100.26 8.94C100.4 8.84 100.49 8.75 100.57 8.65C101 8.18 101.49 7.75 102.05 7.36C100.88 6.96 100.05 6.47 99.55 5.88C99.06 5.28 98.81 4.64 98.81 3.97C98.81 3.81 98.82 3.66 98.84 3.51C98.86 3.36 98.9 3.21 98.94 3.07C99 2.03 100 2.03 101 2.03C102 4.03 104 2.03 106 3.03C105 1.03 102 3.03 101.32 1.07C101.17 0.85 101.24 0.72 101.36 0.61C101.86 0.42 102.4 0.33 102.99 0.33H108.7C108.92 0.33 109.09 0.37 109.18 0.46C109.28 0.54 109.33 0.65 109.33 0.8C109.33 0.95 109.28 1.06 109.18 1.15C109.08 1.23 108.92 1.27 108.7 1.27H107.43V8.74C107.43 8.89 107.43 9.04 107.43 9.18C103.01 12.02 98.01 9.02 94.01 10.02H101.01C102.01 13.02 106.01 9.02 107.43 12.13V12.52H108.7C108.92 12.52 109.09 12.56 109.18 12.65C109.28 12.73 109.33 12.84 109.33 12.99C109.33 13.12 109.28 13.24 109.18 13.33C109.08 13.42 108.92 13.46 108.7 13.46H104.75C104.52 13.46 104.35 13.41 104.26 13.33C104.16 13.24 104.11 13.13 104.11 12.99C104.11 12.85 104.16 12.74 104.26 12.65C104.36 12.56 104.52 12.52 104.75 12.52H106.49V12.31C106.49 12.18 106.49 11.98 106.34 11.73C103.01 10.02 99.01 10.02 96.01 10.02C95.01 11.02 94.01 11.02 93.01 11.02C97.01 9.02 102.01 12.02 106.41 9.16C106.47 9.02 106.49 8.88 106.49 8.74V7.6L106.48 7.61ZM106.48 6.67V4.77C106.48 4.25 106.48 3.69 106.5 3.17C106.52 2.65 106.5 2.18 106.5 1.83C106.5 1.48 106.49 1.27 106.49 1.27H105.62C105.01 2.02 103.01 0.02 102.01 2.02C103.01 3.02 105.01 1.02 106.01 3.02C104.01 3.02 102.01 3.02 99.82 3.45C99.78 3.6 99.76 3.76 99.76 3.92C99.76 4.34 99.91 4.75 100.21 5.16C100.52 5.56 101 5.92 101.67 6.22C102.34 6.52 103.09 6.67 103.92 6.67H106.49H106.48ZM133.41 6.64C134.66 6.93 135.53 7.47 136 8.26C135.97 8.45 135.92 8.66 135.73 8.91C135.01 10.03 134.01 10.03 132.01 10.03C133.01 12.03 135.01 10.03 135.59 11.15C135.86 11.22 135.97 11.33 136.1 11.42C135.89 11.88 135.57 12.3 135.14 12.69C134.29 13.46 132.92 13.85 131.04 13.85C129.53 13.85 128.22 13.6 127.1 13.11C125.98 12.62 125.42 12.21 125.42 11.89C125.42 11.73 125.48 11.59 125.59 11.5C125.7 11.4 125.81 11.35 125.9 11.35C126.01 11.35 126.15 11.4 126.32 11.5C127.27 12.05 128.06 12.42 128.69 12.62C129.32 12.81 130.15 12.91 131.17 12.91C132.34 12.91 133.26 12.72 133.94 12.33C134.08 12.25 134.2 12.17 134.32 12.07C136.01 12.04 133.01 10.04 135.21 9.06C135.15 8.93 135.08 8.8 135 8.67C134.92 8.54 134.81 8.43 134.7 8.32C134.25 7.86 133.68 7.57 132.98 7.44C132.29 7.31 131.3 7.24 130 7.24H129.35C128.82 7.24 128.55 7.08 128.55 6.77C128.55 6.46 128.82 6.29 129.35 6.29H130C130.98 6.29 131.8 6.21 132.49 6.05C132.72 6 132.93 5.93 133.12 5.86C138.01 4.05 142.01 6.05 147.01 6.05C143.01 6.05 139.01 4.05 135.21 3.6C134.88 3.3 134.84 3.05 134.76 2.82C134.6 2.36 134.29 1.98 133.82 1.68C133.12 1.22 132.24 0.99 131.18 0.99C130.12 0.99 129.31 1.22 128.65 1.67C128.52 1.76 128.39 1.86 128.31 1.98C128.02 3.05 128.02 4.05 129.02 4.05C128.02 3.05 127.02 5.05 126.02 5.05C128.02 3.05 130.02 4.05 132.02 4.05C138.02 6.05 143.02 6.05 149.02 6.05C141.02 6.05 133.02 5.05 126.29 2.08C126.2 1.95 126.19 1.8 126.19 1.63C126.16 0.98 126.14 0.65 126.14 0.64C126.14 0.35 126.28 0.2 126.57 0.2C126.82 0.2 126.97 0.42 127.04 0.85C127.12 1.31 127.26 1.54 127.47 1.54C127.54 1.54 127.65 1.48 127.78 1.37C128.84 0.49 130.01 0.06 131.29 0.06C132.77 0.06 133.91 0.39 134.72 1.06C135.53 1.73 135.93 2.56 135.93 3.55C135.93 3.92 135.88 4.26 135.82 4.57C136.02 5.05 135.02 6.05 134.6 6.13C134.21 6.33 133.84 6.51 133.43 6.66L133.41 6.64ZM147.95 9.08H141.75L141.49 9.79C140.95 9.85 140.8 9.91 140.62 9.98C139 10.03 137 9.03 135 11.03C137 10.03 139 12.03 140.5 12.27C140.51 12.43 140.48 12.53 140.48 12.53H142.29C142.5 12.53 142.66 12.57 142.77 12.66C142.87 12.74 142.92 12.85 142.92 13C142.92 13.13 142.87 13.25 142.77 13.34C142.67 13.43 142.51 13.47 142.29 13.47H138.76C138.54 13.47 138.38 13.42 138.28 13.34C138.18 13.25 138.13 13.14 138.13 13C138.13 12.86 138.18 12.75 138.28 12.66C138.38 12.57 138.54 12.53 138.76 12.53H139.49L139.71 11.94C139.76 11.82 139.8 11.67 139.74 11.52C134 11.04 134 10.04 140.29 9.76C140.44 9.65 140.55 9.53 140.65 9.41L141.92 5.98C141.98 5.83 142.04 5.67 142.29 5.07C142.33 4.92 142.37 4.77 142.42 4.63L143.66 1.29H140.87C140.64 1.29 140.48 1.25 140.39 1.17C140.29 1.08 140.24 0.96 140.24 0.82C140.24 0.68 140.29 0.57 140.39 0.48C140.49 0.39 140.65 0.35 140.87 0.35H145.62L146.61 2.98C146.8 3.49 147.02 4.05 147.6 4.64C148.18 5.23 148.92 5.84 148.54 6.45C148.16 7.06 148.38 7.67 148.6 8.26L149.08 9.53L149.23 9.92C144 13.05 138 9.05 133 10.05C132 12.05 130 10.05 129 11.05C131 10.05 134 12.05 136 10.05C141 11.05 147 11.05 152 13.05C151.333 13.05 150.667 13.13 150 13.29C149.87 13.31 149.74 13.33 149.64 13.5H147.45C147.22 13.5 147.05 13.45 146.96 13.37C146.86 13.28 146.81 13.17 146.81 13.03C146.81 12.89 146.86 12.78 146.91 12.69C147 11.06 148 13.06 149 12.06C143 12.06 138 9.06 133 11.06C134 10.06 135 12.06 135 10.06C139 10.06 144 13.06 148.27 10.01C148.19 9.75 148.11 9.53 148.05 9.37L147.95 9.11V9.08ZM147.59 8.14L147.4 7.63C147.4 7.31 148.12 6.87 148.49 6.36C148.86 5.85 147.35 5.28 146.29 4.71L145.66 3.06L144.98 1.28H144.63L143.97 3.06C143.78 3.57 143.57 4.14 144.52 4.8C145.47 5.46 145.43 6.05 144.01 6.46C142.59 6.87 142.4 7.32 142.29 7.63L142.1 8.14H147.58H147.59ZM161.77 1.28H155.51V1.67C155.51 1.79 155.51 1.94 155.51 2.12C158.99 5.04 162.99 1.04 165.99 4.04C162.99 5.04 158.99 3.04 155.53 5.07C155.51 5.22 155.51 5.37 155.51 5.52V6.74C155.51 6.88 155.51 7.01 155.45 7.16C156.99 9.04 151.99 7.04 153.99 9.04C153.99 9.04 154.99 10.04 155.09 9.6C155.32 9.68 155.4 9.78 155.51 9.88V12.54H156.78C157.2 12.54 157.41 12.7 157.41 13.01C157.41 13.32 157.2 13.48 156.78 13.48H153.5C153.08 13.48 152.87 13.32 152.87 13.01C152.87 12.7 153.08 12.54 153.5 12.54H154.57V10.23C152.99 10.04 154.99 9.04 153.99 8.04C153.99 8.04 154.99 7.04 154.57 7.15V5.52C154.56 5.37 154.55 5.22 154.57 5.07C157.99 3.04 161.99 5.04 165.99 4.04C162.99 2.04 157.99 4.04 154.55 2.12C154.57 1.95 154.57 1.8 154.57 1.67V1.28H153.5C153.08 1.28 152.87 1.12 152.87 0.81C152.87 0.5 153.08 0.34 153.5 0.34H163.79C164.21 0.34 164.42 0.5 164.42 0.81C164.42 1.12 164.21 1.28 163.79 1.28H162.72V2.11C162.93 2.28 163.11 2.48 163.65 2.7C169.99 3.03 169.99 4.03 164.44 4.2C163.41 4.48 163.13 4.77 162.72 5.06V6.32C162.53 6.46 162.46 6.61 162.38 6.75C162 8.03 161 8.03 160 8.03C162 8.03 162 9.03 162.73 10.02V12.53H163.8C164.22 12.53 164.43 12.69 164.43 13C164.43 13.31 164.22 13.47 163.8 13.47H160.52C160.1 13.47 159.89 13.31 159.89 13C159.89 12.69 160.1 12.53 160.52 12.53H161.78V9.61C161.267 9.22333 160.677 8.69667 160.01 8.03C161.01 9.03 161.01 6.03 161.7 6.9C161.73 6.74 161.75 6.59 161.78 6.43V5.96C161.78 5.65 161.78 5.35 161.78 5.05C162 4.02 162 3.02 163 3.02C163 3.02 162 3.02 161.91 2.69C161.79 2.47 161.78 2.28 161.78 2.1V1.27L161.77 1.28ZM167.92 12.53V10.02C167.89 9.89 167.86 9.75 167.81 9.61C167.01 9.03 166.01 8.03 164.01 8.03C166.01 8.03 167.01 8.03 167.72 6.9C167.83 6.74 167.88 6.59 167.93 6.43V1.28H166.66C166.24 1.28 166.03 1.12 166.03 0.81C166.03 0.5 166.24 0.34 166.66 0.34H170.61C171.04 0.34 171.25 0.5 171.25 0.81C171.25 1.12 171.04 1.28 170.61 1.28H168.87V6.7C168.01 8.03 167.01 8.03 165.01 8.03C166.51 8.03 167.45 8.59 168.13 9.11C168.36 9.28 168.56 9.45 168.92 10.03C168.87 10.63 168.87 11.16 168.87 11.53V12.11L169.23 11.5C169.34 11.38 169.46 11.24 169.63 11.1C173.01 11.02 176.01 13.02 179.01 12.02C175.01 13.02 172.01 10.02 169.11 9.02C168.97 8.97 168.84 8.93 168.66 8.87C163.77 7.22 158.49 8.12 154.01 9.01C160.01 6.01 168.01 11.01 172.36 6.24C172.44 6.06 172.52 5.9 172.61 5.76L173.58 4.12C173.66 3.99 173.73 3.86 173.81 3.73C174.01 3.01 174.01 2.01 173.01 2.01C173.01 0.00999999 176.01 2.01 176.46 0.32C176.84 0.32 177.3 0.32 177.66 0.32H178.3C178.72 0.32 178.93 0.48 178.93 0.79C178.93 1.1 178.72 1.26 178.3 1.26H177.67C176.01 1.01 175.01 3.01 173.01 2.01C175.01 3.01 177.01 3.01 177.03 4.6V10.69C177.1 10.91 177.16 11.11 177.29 11.3C183 11.01 189 13.01 195 12.01C190 12.01 186 13.01 181 12.01C180 14.01 178 13.01 175.72 13.45H174.82C174.61 13.45 174.45 13.41 174.35 13.33C174.25 13.25 174.19 13.13 174.19 12.98C175.01 13.01 176.01 13.01 176.01 13.01C176.01 13.01 176.01 12.01 176.09 11.18V4.65C176.09 4.48 176.09 4.31 176.09 4.12C176.01 2.01 174.01 2.01 173.01 2.01C174.01 2.01 175.01 2.01 174.95 3.44C174.93 3.59 174.87 3.73 174.8 3.87L173.64 5.83C173.56 5.97 173.47 6.11 173.39 6.28C174.01 7 171.01 7 172.01 8C166.01 8 159.01 7 153.01 9C158.49 8.09 163.97 7.17 169.7 9.1C170.22 9.29 170.37 9.35 170.53 9.42C172 11.01 175 10.01 176 12.01C178 12.01 179 12.01 181 11.01C184 13.01 188 11.01 191 12.01C184 12.01 177 12.01 170.32 11.45L169.99 12.01L169.14 13.45H166.66C166.24 13.45 166.03 13.29 166.03 12.98C166.03 12.67 166.24 12.51 166.66 12.51H167.93L167.92 12.53ZM190.44 1.62V0.96C190.44 0.74 190.48 0.57 190.56 0.48C190.65 0.38 190.77 0.33 190.91 0.33C191.05 0.33 191.16 0.38 191.25 0.48C191.34 0.58 191.39 0.74 191.39 0.96V2.9C191.39 3.29 191.39 3.58 191.39 3.58C191.39 3.81 191.35 3.98 191.26 4.07C191.18 4.17 191.07 4.22 190.92 4.22C190.79 4.22 190.68 4.18 190.59 4.09C190.51 4 190.46 3.85 190.44 3.65C190.4 3.02 190.06 2.46 189.42 1.98C188.55 1.31 187.56 0.98 186.46 0.98C185.73 0.98 185.05 1.14 184.41 1.46C183.93 1.69 183.55 1.98 183.26 2.31C183.18 2.41 183.1 2.51 183.02 2.61C182.94 2.71 182.87 2.81 182.8 2.92C180.01 4.04 176.01 2.04 173.01 2.04C176.01 3.04 179.01 4.04 181.66 5.53C181.76 5.71 181.76 5.87 181.76 6.03V7.68C181.76 8.21 181.83 8.71 181.98 9.19C182.03 9.35 182.08 9.5 182.15 9.66C183.01 10.04 184.01 11.04 184.01 12.04C187.01 13.04 190.01 10.04 192.01 13.04C191.01 11.04 189.01 12.04 188.01 12.04C190.01 13.04 192.01 11.04 194.01 13.04C193.01 11.04 191.01 12.04 190.01 12.04C190.01 14.04 189.01 12.04 188.01 13.04C189.01 12.04 190.01 12.04 192.01 12.04C192.01 12.04 191.01 11.04 190.87 10.79C191 10.63 191.14 10.55 191.3 10.55C191.44 10.55 191.54 10.59 191.63 10.67C191.71 10.75 191.75 10.86 191.75 10.98C192.01 13.03 193.01 11.03 194.01 12.03C193.01 15.03 191.01 12.03 189.2 13.33C189.06 13.39 188.94 13.44 188.81 13.49C188.68 13.54 188.55 13.58 188.43 13.62C188.31 13.66 188.17 13.69 188.09 13.71C187.383 13.9233 186.693 13.9233 186.02 13.71C185.7 13.71 185.51 13.67 185.37 13.63C185.23 13.59 185.1 13.55 185.02 13.51C184.367 13.1833 183.707 13.02 183.04 13.02C187.04 13.02 191.04 12.02 195.04 12.02C191.04 12.02 186.04 12.02 182.14 10.65C181.95 10.53 181.79 10.42 181.41 10.23C181.29 10.01 181.2 9.8 181.13 9.6C180.94 9.05 180.85 8.45 180.85 7.8V5.88C180.85 5.73 180.85 5.57 180.87 5.41C180.89 5.25 180.89 5.09 180.75 4.88C180.04 5.01 179.04 4.01 179.04 3.01C179.707 3.01 180.53 3.01 181.51 3.01C181.67 2.86 181.77 2.71 181.86 2.56C182.33 1.81 182.92 1.22 183.64 0.79C184.51 0.27 185.45 0 186.46 0C188.02 0 189.36 0.53 190.48 1.59L190.44 1.62ZM197.02 1.28V1.49C197.02 1.62 197.02 1.82 196.98 2.04C196.01 2.03 196.01 3.03 196.01 4.03C196.677 4.03 196.983 4.22667 196.93 4.62C196.97 4.76 197 4.9 197.02 5.04V6.18H200.49C202.13 6.18 203.41 6.5 204.32 7.13C205.24 7.76 205.7 8.66 205.7 9.83C205.7 10.18 205.66 10.52 205.57 10.83C205.53 10.99 205.47 11.14 205.4 11.27C204 12.03 207 12.03 206 13.03C204 13.03 201 13.03 199.24 13.48C199.06 13.48 198.91 13.48 198.77 13.48H198.33C198 13.04 197 13.04 196.98 13.38C196.78 13.4 196.6 13.41 196.25 13.48H194.8C194.38 13.48 194.17 13.32 194.17 13.01C194.17 12.7 194.38 12.54 194.8 12.54H195.43C195.803 12.2067 196.323 12.04 196.99 12.04C196.99 12.04 195.99 11.04 196.06 11.17V4.41C195.37 4.34 195.23 4.27 195.06 4.2C193.99 3.04 191.99 5.04 191.99 3.04C193.99 3.04 194.99 3.04 196.06 1.67V1.28H194.79C194.37 1.28 194.16 1.12 194.16 0.81C194.16 0.5 194.37 0.34 194.79 0.34H198.27C198.69 0.34 198.9 0.5 198.9 0.81C198.9 1.12 198.69 1.28 198.27 1.28H197H197.02ZM206.58 12.52C207 13.03 206 13.03 205 13.03C204 11.03 202 12.03 201 12.03C201 12.6967 200.667 13.03 200 13.03C201 13.03 201 12.03 202 12.03C203 12.03 204 14.03 205 13.03C206 12.03 206 12.03 207 12.03C206 13.03 205 13.03 204 13.03H206C208 11.03 204 12.03 204.71 10.39C204.72 10.2 204.74 10.02 204.74 9.85C204.74 9.17 204.42 8.55 203.77 7.99C203.13 7.42 202 7.14 200.4 7.14H197.01V10.64C199.99 13.04 202.99 12.04 206.4 12.48C206.56 12.51 206.58 12.53 206.58 12.53V12.52ZM222.75 1.28H222.17C221.65 1.28 221.38 1.12 221.38 0.81C221.38 0.5 221.64 0.34 222.17 0.34H223.39C223.7 0.34 223.89 0.37 223.97 0.42C224.05 0.47 224.15 0.64 224.26 0.94L224.79 2.3C224.87 2.51 224.96 2.73 225.13 2.96C227 4.04 229 2.04 230 4.04C228 3.04 227 5.04 226.12 5.41C226.06 5.58 226.12 5.73 226.17 5.88L226.98 7.99C227.03 8.13 227.08 8.26 227.11 8.39C223.99 11.05 219.99 8.05 216.99 9.05C219.99 12.05 224.99 8.05 228.29 11.38L228.42 11.71V11.34C224.99 9.04 220.99 11.04 216.99 10.04C219.99 7.04 223.99 10.04 228.3 8.55C228.4 8.41 228.42 8.28 228.42 8.14V5.53C228.47 5.2 228.52 4.88 228.97 4.52C235 4.04 229 3.04 228.86 2.86C228.51 2.66 228.45 2.44 228.42 2.25V1.29H227.26C226.74 1.29 226.47 1.13 226.47 0.82C226.47 0.51 226.73 0.35 227.26 0.35H229.96C230.48 0.35 230.75 0.51 230.75 0.82C230.75 1.13 230.49 1.29 229.96 1.29H229.36V2.64C230.32 2.64 230.58 2.75 230.92 2.85C231.633 2.98333 231.99 3.38333 231.99 4.05C230.99 4.05 229.99 4.05 230.28 4.67C230.13 4.8 230 4.92 229.36 5.1V8.38C224.99 11.05 220.99 8.05 216.99 9.05C219.99 12.05 223.99 9.05 227.99 10.05C228.99 10.05 228.99 11.05 229.36 11.61V12.29C229.36 12.75 229.31 13.06 229.2 13.23C229.1 13.4 228.91 13.49 228.64 13.49C228.43 13.49 228.27 13.43 228.17 13.32C228.07 13.21 227.94 12.96 227.8 12.58L227.39 11.53C227.33 11.37 227.24 11.19 227.05 10.97C223.98 9.05 219.98 11.05 216.98 10.05C218.98 7.05 223.98 11.05 226.04 8.26C226.06 8.13 226.02 8.01 225.97 7.88L225.23 5.96L225.07 5.53C226.99 4.05 227.99 4.05 229.99 4.05C227.99 2.05 225.99 4.05 224.05 2.75C223.93 2.59 223.88 2.44 223.83 2.33L223.69 1.97V2.43C223.69 2.57 223.69 2.75 223.91 2.95C226.99 3.07 230.99 3.07 233.99 3.07C230.99 3.07 226.99 5.07 224.3 5.29C224.04 5.45 223.89 5.62 223.68 5.8V8.14C222.98 10.07 220.98 9.07 219.98 9.07C220.98 11.07 222.98 9.07 223.68 10.95V12.57H224.83C225.36 12.57 225.63 12.73 225.63 13.04C225.63 13.35 225.36 13.51 224.83 13.51H222.15C221.63 13.51 221.36 13.35 221.36 13.04C221.36 12.73 221.62 12.57 222.15 12.57H222.73V11.28C221.99 10.07 220.99 10.07 218.99 10.07C218.99 7.07 221.99 11.07 222.38 8.25C222.47 8.11 222.53 7.96 222.73 7.81V6.01C224.99 3.07 228.99 5.07 230.99 3.07C227.99 3.07 225.99 5.07 223.34 3.37C223.07 3.27 222.92 3.17 222.73 3.08V1.32L222.75 1.28ZM235.48 3.16C235 3.03 234 4.03 234.33 3.92C234.17 4.15 234.09 4.38 233.99 4.62V5.92C233.99 7 233.51 7.54 232.54 7.54C232.18 7.54 231.86 7.44 231.58 7.24C231.31 7.03 231.16 6.8 231.12 6.54C231.09 6.37 231.08 5.86 231.07 5.01C231.07 4.58 231.16 4.07 231.31 3.48C231 3.04 232 2.04 231.99 1.91C232.14 1.83 232.32 1.79 232.51 1.79C232.72 1.79 232.92 1.83 233.12 1.9C234.01 2.04 235.01 2.04 234.79 2.62C235.22 2.78 235.45 2.97 235.48 3.17V3.16ZM232.02 5.91C232.02 6.34 232.19 6.56 232.53 6.56C232.87 6.56 233.05 6.34 233.05 5.91V5.24C233.05 5.05 233.05 4.83 233.29 4.57C233.01 3.03 236.01 5.03 235.01 3.03C237.01 2.03 239.01 4.03 240.01 2.03H235.01C235.677 2.03 236.343 2.36333 237.01 3.03C238.01 4.03 238.01 3.03 238.01 2.03C239.01 2.03 240.01 2.03 240.01 3.03C237.01 3.03 234.01 3.03 232.18 4.62C232.08 4.84 232.03 5.05 232.03 5.24V5.91H232.02ZM232.62 9.96C228 9.03 222 12.03 217 9.03C222 9.03 228 9.03 232.97 9.16C233.3 9.2 233.48 9.22 233.55 9.24C233.69 9.28 233.76 9.42 233.76 9.66C233.76 9.82 233.69 9.94 233.54 10.01C233.47 10.05 233.35 10.06 233.2 10.05C233.05 10.04 232.86 10.01 232.61 9.96H232.62ZM255.92 6.75L260.4 12.53H260.76C260.98 12.53 261.14 12.57 261.24 12.66C261.34 12.74 261.39 12.85 261.39 13C261.39 13.13 261.34 13.25 261.24 13.34C261.14 13.43 260.98 13.47 260.76 13.47H257.73C257.5 13.47 257.34 13.42 257.25 13.34C257.15 13.25 257.1 13.14 257.1 13C257.1 12.86 257.15 12.75 257.25 12.66C257.35 12.57 257.51 12.53 257.73 12.53H259.23L255.33 7.52L254.24 8.93L253.97 9.28C253.99 11.03 250.99 10.03 251.87 12L251.47 12.52H252.98C253.2 12.52 253.37 12.56 253.46 12.65C253.56 12.73 253.61 12.84 253.61 12.99C253.61 13.12 253.56 13.24 253.46 13.33C253.36 13.42 253.2 13.46 252.98 13.46H249.97C249.74 13.46 249.58 13.41 249.49 13.33C249.39 13.24 249.34 13.13 249.34 12.99C249.34 12.89 249.37 12.79 249.43 12.71C249.49 12.63 249.56 12.58 249.63 12.55C249.7 12.53 249.93 12.52 250.31 12.52L250.64 12.09C250.74 11.96 250.87 11.8 250.96 11.6C251.98 11.02 248.98 11.02 249.98 10.02H246.98C248.98 10.02 250.98 10.02 253.04 8.95L253.33 8.57L254.73 6.74L254.07 5.89C253.94 5.72 253.79 5.53 253.67 5.33C258.97 3.03 262.97 4.03 267.97 3.03C262.97 3.03 256.97 3.03 251.7 2.69C251.57 2.59 251.46 2.49 251.36 2.4L250.49 1.28H250.14C249.91 1.28 249.75 1.24 249.66 1.16C249.56 1.07 249.51 0.95 249.51 0.81C249.51 0.67 249.56 0.56 249.66 0.47C249.76 0.38 249.92 0.34 250.14 0.34H252.71C252.94 0.34 253.11 0.38 253.2 0.47C253.3 0.55 253.35 0.66 253.35 0.81C253.35 0.96 253.3 1.07 253.2 1.16C253.1 1.24 252.94 1.28 252.71 1.28H251.66L252.45 2.3C252.53 2.4 252.61 2.5 252.74 2.61C258.97 3.04 263.97 3.04 269.97 3.04C264.97 3.04 259.97 3.04 254.58 4.97C254.68 5.17 254.81 5.35 254.92 5.5L255.3 5.99L255.68 5.5C256.97 4.04 257.97 4.04 258.28 2.28C258.28 2.1 258.42 1.92 258.54 1.77L258.92 1.28H257.86C257.63 1.28 257.46 1.24 257.37 1.16C257.27 1.07 257.22 0.95 257.22 0.81C257.22 0.67 257.27 0.56 257.37 0.47C257.47 0.38 257.63 0.34 257.86 0.34H260.44C260.67 0.34 260.83 0.38 260.92 0.47C261.02 0.55 261.07 0.66 261.07 0.81C261.07 0.96 261.02 1.07 260.92 1.16C260.82 1.24 260.66 1.28 260.44 1.28H260.08L259.42 2.13C259.29 2.3 259.18 2.49 259.53 2.64C261.96 3.03 264.96 3.03 266.96 3.03C263.96 4.03 260.96 3.03 257.68 4.66C257.49 4.78 257.35 4.9 257.21 5.01L255.88 6.74L255.92 6.75ZM269.24 6.55C269.24 6.55 269.56 6.76 269.9 7.04C270.07 7.18 270.17 7.31 270.28 7.45L270.65 7.93C270.73 8.03 270.8 8.13 270.82 8.24C271 10.02 268 8.02 268 10.02C270 10.02 271 10.02 272.98 11C273.1 11.12 273.2 11.23 273.29 11.33C273.42 11.51 273.55 11.67 273.67 11.81C273.79 11.95 273.88 12.08 273.96 12.18L274.22 12.51H274.58C274.81 12.51 274.97 12.55 275.06 12.64C275.16 12.72 275.21 12.83 275.21 12.98C275.21 13.11 275.16 13.23 275.06 13.32C274.96 13.41 274.8 13.45 274.58 13.45H271.55C271.33 13.45 271.16 13.4 271.07 13.32C270.97 13.23 270.92 13.12 270.92 12.98C270.92 12.84 270.97 12.73 271.07 12.64C271.17 12.55 271.33 12.51 271.55 12.51H273.06L271.96 11.1C271.86 10.99 271.77 10.87 271.59 10.75C271.01 10.01 270.01 10.01 268.01 10.01C267.01 8.01 271.01 10.01 269.56 8.02L269.15 7.5L265.3 12.51H266.81C267.03 12.51 267.2 12.55 267.29 12.64C267.39 12.72 267.44 12.83 267.44 12.98C267.44 13.11 267.39 13.23 267.29 13.32C267.19 13.41 267.03 13.45 266.81 13.45H263.8C263.57 13.45 263.41 13.4 263.32 13.32C263.22 13.23 263.17 13.12 263.17 12.98C263.17 12.88 263.2 12.78 263.26 12.7C263.32 12.62 263.39 12.57 263.46 12.54C263.54 12.52 263.76 12.51 264.15 12.51L267.88 7.63L268.24 7.15C267 5.01 265 7.01 263 6.01C264 4.01 267 6.01 268.48 4.3C268.67 4.26 268.83 4.18 269 4.01C268 3.01 267 3.01 265.79 2.67C265.54 2.57 265.37 2.47 265.21 2.38L264.34 1.26H263.99C263.77 1.26 263.61 1.22 263.51 1.14C263.41 1.05 263.36 0.93 263.36 0.79C263.36 0.65 263.41 0.54 263.51 0.45C263.61 0.36 263.77 0.32 263.99 0.32H266.56C266.79 0.32 266.96 0.36 267.05 0.45C267.15 0.53 267.2 0.64 267.2 0.79C267.2 0.94 267.15 1.05 267.05 1.14C266.95 1.22 266.79 1.26 266.56 1.26H265.5L265.88 1.75C266.99 2.01 268.99 2.01 268.99 4.01C268.99 4.01 268.74 4.01 268.48 4.05C266.99 6.01 263.99 5.01 262.99 6.01C265.99 6.01 267.99 5.01 271.3 4C271.52 3.99 271.7 3.99 271.83 3.94C272.09 3.85 272.14 3.61 271.72 2.91C271.69 2.68 271.82 2.47 271.98 2.27L272.76 1.25H271.7C271.47 1.25 271.3 1.21 271.21 1.13C271.11 1.04 271.06 0.92 271.06 0.78C271.06 0.64 271.11 0.53 271.21 0.44C271.31 0.35 271.47 0.31 271.7 0.31H274.28C274.51 0.31 274.67 0.35 274.76 0.44C274.86 0.52 274.91 0.63 274.91 0.78C274.91 0.93 274.86 1.04 274.76 1.13C274.66 1.21 274.5 1.25 274.28 1.25H273.92L272.34 3.31C272.17 3.53 271.99 3.76 271.82 3.99C271.73 4.1 271.61 4.23 271.39 4.4C268.99 6.01 265.99 5.01 263.99 6.01C265.99 6.01 266.99 6.01 269.02 6.12C269.3 6.36 269.23 6.53 269.23 6.53L269.24 6.55ZM283.55 6.75L284.97 8.58C285.06 8.69 285.15 8.81 285.24 8.93C281.01 11.04 277.01 9.04 273.01 11.04C274.01 11.04 276.01 12.04 277.01 10.04C279.63 10.04 283.03 10.04 285.98 11.11C286.4 11.26 286.82 11.44 287.22 11.64C287.43 11.82 287.6 11.98 287.71 12.11L288.04 12.54H288.4C288.62 12.54 288.79 12.58 288.88 12.67C288.98 12.75 289.03 12.86 289.03 13.01C289.03 13.14 288.98 13.26 288.88 13.35C288.78 13.44 288.62 13.48 288.4 13.48H285.37C285.15 13.48 284.98 13.43 284.89 13.35C284.79 13.26 284.74 13.15 284.74 13.01C284.74 12.87 284.79 12.76 284.89 12.67C284.99 12.58 285.15 12.54 285.37 12.54H286.88L286.47 12.02C286.41 11.94 286.33 11.85 286.24 11.76C282.01 9.04 277.01 12.04 273.01 11.04C276.01 9.04 281.01 11.04 284.06 8.94C283.98 8.83 283.89 8.72 283.81 8.61L282.97 7.53L282.14 8.61C282.06 8.72 281.97 8.83 281.85 8.93C281.01 9.04 280.01 11.04 278.01 10.04C278.01 12.04 281.01 10.04 279.52 12.02L279.12 12.54H280.63C280.86 12.54 281.02 12.58 281.11 12.67C281.21 12.75 281.26 12.86 281.26 13.01C281.26 13.14 281.21 13.26 281.11 13.35C281.01 13.44 280.85 13.48 280.63 13.48H277.62C277.4 13.48 277.23 13.43 277.14 13.35C277.04 13.26 276.99 13.15 276.99 13.01C276.99 12.91 277.02 12.81 277.08 12.73C277.14 12.65 277.21 12.6 277.28 12.57C277.35 12.55 277.58 12.54 277.96 12.54L278.29 12.11C278.39 11.98 278.52 11.82 278.63 11.63C277.01 10.03 275.01 11.03 273.01 11.03C276.01 11.03 278.01 10.03 280.78 8.85C280.94 8.65 281.08 8.46 281.21 8.29L282.39 6.75L282.08 6.34C281.98 6.21 281.88 6.06 281.79 5.87C281.91 5.77 282.02 5.67 282.12 5.58C282.01 3.03 285.01 7.03 285.01 4.03C287.01 3.03 287.01 6.03 289.01 5.03C286.01 3.03 282.01 5.03 279.01 4.03H288.01C287.343 4.03 287.01 3.69667 287.01 3.03C285.01 4.03 284.01 4.03 282.01 4.03H285.01C283.01 5.03 281.01 3.03 280.01 5.03C279.01 4.03 281.01 3.03 279.47 3.03C279.32 2.76 279.14 2.53 278.98 2.33L278.17 1.28H277.82C277.59 1.28 277.43 1.24 277.34 1.16C277.24 1.07 277.19 0.95 277.19 0.81C277.19 0.67 277.24 0.56 277.34 0.47C277.44 0.38 277.6 0.34 277.82 0.34H280.39C280.62 0.34 280.79 0.38 280.88 0.47C280.98 0.55 281.03 0.66 281.03 0.81C281.03 0.96 280.98 1.07 280.88 1.16C280.78 1.24 280.62 1.28 280.39 1.28H279.34L279.72 1.77C279.84 1.92 279.97 2.1 279.94 2.44C280.02 3.03 279.02 3.03 279.02 4.03H285.02H280.02H286.02H281.02H288.02C287.353 4.03 287.02 3.69667 287.02 3.03C285.02 5.03 282.02 3.03 279.02 4.03H288.02H285.02H287.02C287.02 4.03 286.02 5.03 285.88 5.32C285.68 5.37 285.48 5.41 285.29 5.45C285.1 5.49 284.89 5.51 284.69 5.52C284.49 5.53 284.28 5.52 284.05 5.51C283.82 5.5 283.58 5.46 283.35 5.4C283.18 5.59 283.07 5.74 282.89 5.85L282.99 5.98L283.09 5.85C283.25 5.77 283.43 5.64 284.26 5.39C284.49 5.36 284.71 5.33 284.92 5.3C285.13 5.27 285.34 5.24 285.55 5.22C285.76 5.2 285.96 5.16 286.03 5.06C286.697 5.04667 287.363 5.04 288.03 5.04H287.03C288.03 4.04 289.03 6.04 289.03 4.04H279.03H288.03H282.03H286.03H280.03H284.03H279.03C281.03 3.04 284.03 4.04 285.6 2.44C285.79 2.27 285.91 2.14 286.04 2.02L286.61 1.28H285.55C285.32 1.28 285.15 1.24 285.06 1.16C284.96 1.07 284.91 0.95 284.91 0.81C284.91 0.67 284.96 0.56 285.06 0.47C285.16 0.38 285.32 0.34 285.55 0.34H288.13C288.36 0.34 288.52 0.38 288.61 0.47C288.71 0.55 288.76 0.66 288.76 0.81C288.76 0.96 288.71 1.07 288.61 1.16C288.51 1.24 288.35 1.28 288.13 1.28H287.77L287.11 2.13C286.98 2.3 286.83 2.49 286.66 2.69C284.02 4.03 282.02 4.03 279.02 4.03H287.02C287.02 4.69667 286.633 5.00333 285.86 4.95C285.78 5.01 285.61 5.02 285.44 5.05C284.92 5.13 284.49 5.34 284.27 5.89C284.1 6.06 283.98 6.21 283.88 6.34L283.57 6.75H283.55ZM297.72 6.37C297.72 6.37 297.64 6.75 297.69 7.18L298.52 8.25L298.94 8.79C299.08 8.97 299.22 9.16 299.33 9.34C301 9.04 299 12.04 300.66 11.02C300.8 11.2 300.94 11.37 301.05 11.52L301.84 12.53H302.2C302.42 12.53 302.59 12.57 302.68 12.66C302.78 12.74 302.83 12.85 302.83 13C302.83 13.13 302.78 13.25 302.68 13.34C302.58 13.43 302.42 13.47 302.2 13.47H299.17C298.94 13.47 298.78 13.42 298.69 13.34C298.59 13.25 298.54 13.14 298.54 13C298.54 12.86 298.59 12.75 298.69 12.66C298.79 12.57 298.95 12.53 299.17 12.53H300.68C300.68 12.53 300.52 12.33 300.25 11.99C298.01 10.03 295.01 12.03 292.01 11.03C293.01 8.03 297.01 12.03 298.14 9.28C298.06 9.16 297.97 9.04 297.88 8.93L296.78 7.52L295.69 8.93C295.6 9.04 295.51 9.16 295.42 9.28C292 12.03 289 8.03 287 12.03C289 11.03 291 10.03 293 11.03C293 11.03 293 12.03 293.26 12.01C293.08 12.33 292.92 12.53 292.92 12.53H294.42C294.64 12.53 294.81 12.57 294.9 12.66C295 12.74 295.05 12.85 295.05 13C295.05 13.13 295 13.25 294.9 13.34C294.8 13.43 294.64 13.47 294.42 13.47H291.41C291.18 13.47 291.02 13.42 290.93 13.34C290.83 13.25 290.78 13.14 290.78 13C290.78 12.9 290.81 12.8 290.87 12.72C290.93 12.64 291 12.59 291.07 12.56C291.14 12.53 291.37 12.53 291.75 12.53L292.02 12.18C291.98 10.03 289.98 12.03 288.98 11.03C288.98 12.03 287.98 12.03 286.98 12.03C286.98 10.03 289.98 12.03 289.98 10.03C290.98 9.03 292.98 11.03 294.07 9.42C294.18 9.31 294.28 9.2 294.37 9.1L295.48 7.65L295.84 7.17C296.98 6.03 296.98 5.03 298.98 5.03C297.58 5.03 296.18 5.52 295.15 5.12C294.91 5.07 294.69 5.01 294.39 4.92C288.98 3.02 283.98 4.02 278.98 4.02C283.98 3.02 288.98 6.02 292.89 2.49L292.51 2L291.95 1.27H291.6C291.37 1.27 291.21 1.23 291.12 1.15C291.02 1.06 290.97 0.94 290.97 0.8C290.97 0.66 291.02 0.55 291.12 0.46C291.22 0.37 291.38 0.33 291.6 0.33H294.17C294.4 0.33 294.57 0.37 294.66 0.46C294.76 0.54 294.81 0.65 294.81 0.8C294.81 0.95 294.76 1.06 294.66 1.15C294.56 1.23 294.4 1.27 294.17 1.27H293.11L293.58 1.88L293.9 2.29C293.98 3.03 293.98 4.03 294.5 3.67C295.07 4.49 295.51 4.87 295.86 5C296.91 5.4 298.22 3.53 298.97 5.03C298.97 4.36333 298.927 3.78 298.84 3.28C298.91 3.16 299 3.05 299.09 2.93L300.36 1.27H299.3C299.07 1.27 298.9 1.23 298.81 1.15C298.71 1.06 298.66 0.94 298.66 0.8C298.66 0.66 298.71 0.55 298.81 0.46C298.91 0.37 299.07 0.33 299.3 0.33H301.88C302.11 0.33 302.27 0.37 302.36 0.46C302.46 0.54 302.51 0.65 302.51 0.8C302.51 0.95 302.46 1.06 302.36 1.15C302.26 1.23 302.1 1.27 301.88 1.27H301.52L299.94 3.33C299.85 3.44 299.77 3.55 299.69 3.66C297.96 3.02 299.96 6.02 297.94 6C297.84 6.17 297.68 6.36 297.68 6.36L297.72 6.37Z" fill="white"/>
</svg>
