<svg width="502" height="43" viewBox="0 0 502 43" fill="none" xmlns="http://www.w3.org/2000/svg">
<path d="M19.6675 11.6582V10.3042C19.6675 9.84521 19.7516 9.51628 19.9199 9.31738C20.1035 9.11849 20.3407 9.01904 20.6313 9.01904C20.922 9.01904 21.1515 9.11849 21.3198 9.31738C21.5034 9.51628 21.5952 9.84521 21.5952 10.3042V15.6514C21.5952 16.1257 21.5034 16.4622 21.3198 16.6611C21.1515 16.86 20.922 16.9595 20.6313 16.9595C20.3713 16.9595 20.1494 16.8677 19.9658 16.6841C19.7975 16.5005 19.6981 16.2021 19.6675 15.7891C19.591 14.5039 18.8949 13.3641 17.5791 12.3696C15.8044 11.008 13.7848 10.3271 11.5205 10.3271C10.0365 10.3271 8.63656 10.6561 7.3208 11.314C6.34163 11.7882 5.56136 12.3696 4.97998 13.0581C3.97021 14.2515 3.16699 15.5749 2.57031 17.0283C2.14193 18.0993 1.92773 19.3079 1.92773 20.6543V24.0278C1.92773 26.9041 2.9681 29.4056 5.04883 31.5322C7.12956 33.6436 9.54688 34.6992 12.3008 34.6992C13.9531 34.6992 15.4295 34.3397 16.73 33.6206C18.0457 32.9015 19.3156 31.8153 20.5396 30.3618C20.7996 30.0405 21.0903 29.8799 21.4116 29.8799C21.687 29.8799 21.9089 29.964 22.0771 30.1323C22.2454 30.3006 22.3296 30.5148 22.3296 30.7749C22.3296 31.1268 22.0007 31.6623 21.3428 32.3813C20.0882 33.7889 18.673 34.8522 17.0972 35.5713C15.5366 36.2751 13.9531 36.627 12.3467 36.627C10.9544 36.627 9.53923 36.3592 8.10107 35.8237C6.99951 35.4106 6.08919 34.9287 5.37012 34.3779C4.65104 33.8271 3.76367 32.9015 2.70801 31.6011C1.66764 30.2853 0.956217 29.0767 0.57373 27.9751C0.191243 26.8582 0 25.6343 0 24.3032V20.3789C0 18.4818 0.504883 16.5464 1.51465 14.5728C2.53971 12.5838 3.93197 11.0615 5.69141 10.0059C7.46615 8.9349 9.38623 8.39941 11.4517 8.39941C14.634 8.39941 17.3726 9.48568 19.6675 11.6582Z" fill="white"/>
<path d="M33.1387 22.9033V33.9419H47.9639V28.2505C47.9639 27.7915 48.048 27.4626 48.2163 27.2637C48.3999 27.0648 48.637 26.9653 48.9277 26.9653C49.2184 26.9653 49.4479 27.0648 49.6162 27.2637C49.7998 27.4626 49.8916 27.7915 49.8916 28.2505V35.8696H28.6177C28.1587 35.8696 27.8298 35.7778 27.6309 35.5942C27.432 35.4106 27.3325 35.1812 27.3325 34.9058C27.3325 34.6151 27.432 34.3856 27.6309 34.2173C27.8298 34.0337 28.1587 33.9419 28.6177 33.9419H31.2109V10.9468H28.6177C28.1587 10.9468 27.8298 10.8626 27.6309 10.6943C27.432 10.5107 27.3325 10.2736 27.3325 9.98291C27.3325 9.69222 27.432 9.46273 27.6309 9.29443C27.8298 9.11084 28.1587 9.01904 28.6177 9.01904H48.8818V15.6514C48.8818 16.1104 48.79 16.4393 48.6064 16.6382C48.4382 16.8371 48.2087 16.9365 47.918 16.9365C47.6273 16.9365 47.3901 16.8371 47.2065 16.6382C47.0382 16.4393 46.9541 16.1104 46.9541 15.6514V10.9468H33.1387V20.9756H40.0464V18.7954C40.0464 18.3364 40.1382 18.0075 40.3218 17.8086C40.5054 17.6097 40.7425 17.5103 41.0332 17.5103C41.3086 17.5103 41.5381 17.6097 41.7217 17.8086C41.9053 18.0075 41.9971 18.3364 41.9971 18.7954V25.0835C41.9971 25.5425 41.9053 25.8714 41.7217 26.0703C41.5381 26.2692 41.3086 26.3687 41.0332 26.3687C40.7425 26.3687 40.5054 26.2692 40.3218 26.0703C40.1382 25.8714 40.0464 25.5425 40.0464 25.0835V22.9033H33.1387Z" fill="white"/>
<path d="M77.4307 10.8779C76.3444 10.8779 75.4953 11.1074 74.8833 11.5664C74.2866 12.0101 73.3228 13.3717 71.9917 15.6514C70.0181 19.0479 68.6717 20.9067 67.9526 21.228C69.8651 21.993 71.6322 23.9819 73.2539 27.1948L76.6733 33.9419H79.519C80.59 33.9419 81.1255 34.2632 81.1255 34.9058C81.1255 35.5483 80.59 35.8696 79.519 35.8696H76.7422C76.1302 35.8696 75.7477 35.8237 75.5947 35.7319C75.4417 35.6401 75.2199 35.3188 74.9292 34.7681L71.4868 28.021C70.3088 25.7108 69.1689 24.2038 68.0674 23.5C66.9811 22.7962 65.543 22.4443 63.7529 22.4443H62.2842V33.9419H64.7856C65.8719 33.9419 66.415 34.2632 66.415 34.9058C66.415 35.5483 65.8719 35.8696 64.7856 35.8696H57.8779C56.807 35.8696 56.2715 35.5483 56.2715 34.9058C56.2715 34.2632 56.807 33.9419 57.8779 33.9419H60.3335V10.9468H57.8779C56.807 10.9468 56.2715 10.6255 56.2715 9.98291C56.2715 9.34033 56.807 9.01904 57.8779 9.01904H64.7856C65.8719 9.01904 66.415 9.34033 66.415 9.98291C66.415 10.6255 65.8719 10.9468 64.7856 10.9468H62.2842V20.4707H63.7529C65.1452 20.4707 66.1932 20.1647 66.897 19.5527C67.6161 18.9255 68.7406 17.3114 70.2705 14.7104C71.6934 12.3084 72.8026 10.7555 73.5981 10.0518C74.409 9.34798 75.7171 8.99609 77.5225 8.99609C78.3945 8.99609 78.9224 9.09554 79.106 9.29443C79.2896 9.49333 79.3813 9.93701 79.3813 10.6255V13.1729C79.3813 14.2285 79.0601 14.7563 78.4175 14.7563C77.7596 14.7563 77.4307 14.2591 77.4307 13.2646V10.8779Z" fill="white"/>
<path d="M91.6821 24.854V33.9419H98.2915C98.7505 33.9419 99.0794 34.0337 99.2783 34.2173C99.4772 34.3856 99.5767 34.6151 99.5767 34.9058C99.5767 35.1812 99.4772 35.4106 99.2783 35.5942C99.0794 35.7778 98.7505 35.8696 98.2915 35.8696H87.1611C86.7021 35.8696 86.3732 35.7778 86.1743 35.5942C85.9754 35.4106 85.876 35.1812 85.876 34.9058C85.876 34.6151 85.9754 34.3856 86.1743 34.2173C86.3732 34.0337 86.7021 33.9419 87.1611 33.9419H89.7544V10.9468H87.1611C86.7021 10.9468 86.3732 10.8626 86.1743 10.6943C85.9754 10.5107 85.876 10.2736 85.876 9.98291C85.876 9.69222 85.9754 9.46273 86.1743 9.29443C86.3732 9.11084 86.7021 9.01904 87.1611 9.01904H98.3604C101.007 9.01904 103.164 9.79932 104.832 11.3599C106.515 12.9204 107.356 14.7487 107.356 16.8447C107.356 18.084 107.081 19.2008 106.53 20.1953C105.995 21.1898 105.345 21.9701 104.58 22.5361C103.432 23.3929 102.246 24.0202 101.022 24.418C100.135 24.7087 99.0335 24.854 97.7178 24.854H91.6821ZM91.6821 22.9263H97.8325C99.2554 22.9263 100.586 22.6126 101.826 21.9854C103.08 21.3428 103.991 20.5625 104.557 19.6445C105.138 18.7266 105.429 17.7933 105.429 16.8447C105.429 15.3301 104.778 13.9684 103.478 12.7598C102.178 11.5511 100.533 10.9468 98.5439 10.9468H91.6821V22.9263Z" fill="white"/>
<path d="M117.821 22.9033V33.9419H132.646V28.2505C132.646 27.7915 132.731 27.4626 132.899 27.2637C133.083 27.0648 133.32 26.9653 133.61 26.9653C133.901 26.9653 134.131 27.0648 134.299 27.2637C134.482 27.4626 134.574 27.7915 134.574 28.2505V35.8696H113.3C112.841 35.8696 112.512 35.7778 112.313 35.5942C112.115 35.4106 112.015 35.1812 112.015 34.9058C112.015 34.6151 112.115 34.3856 112.313 34.2173C112.512 34.0337 112.841 33.9419 113.3 33.9419H115.894V10.9468H113.3C112.841 10.9468 112.512 10.8626 112.313 10.6943C112.115 10.5107 112.015 10.2736 112.015 9.98291C112.015 9.69222 112.115 9.46273 112.313 9.29443C112.512 9.11084 112.841 9.01904 113.3 9.01904H133.564V15.6514C133.564 16.1104 133.473 16.4393 133.289 16.6382C133.121 16.8371 132.891 16.9365 132.601 16.9365C132.31 16.9365 132.073 16.8371 131.889 16.6382C131.721 16.4393 131.637 16.1104 131.637 15.6514V10.9468H117.821V20.9756H124.729V18.7954C124.729 18.3364 124.821 18.0075 125.004 17.8086C125.188 17.6097 125.425 17.5103 125.716 17.5103C125.991 17.5103 126.221 17.6097 126.404 17.8086C126.588 18.0075 126.68 18.3364 126.68 18.7954V25.0835C126.68 25.5425 126.588 25.8714 126.404 26.0703C126.221 26.2692 125.991 26.3687 125.716 26.3687C125.425 26.3687 125.188 26.2692 125.004 26.0703C124.821 25.8714 124.729 25.5425 124.729 25.0835V22.9033H117.821Z" fill="white"/>
<path d="M153.278 10.9468V33.9419H158.281C158.74 33.9419 159.069 34.0337 159.268 34.2173C159.466 34.3856 159.566 34.6151 159.566 34.9058C159.566 35.1812 159.466 35.4106 159.268 35.5942C159.069 35.7778 158.74 35.8696 158.281 35.8696H146.324C145.865 35.8696 145.536 35.7778 145.337 35.5942C145.139 35.4106 145.039 35.1812 145.039 34.9058C145.039 34.6151 145.139 34.3856 145.337 34.2173C145.536 34.0337 145.865 33.9419 146.324 33.9419H151.327V10.9468H143.433V17.625C143.433 18.0993 143.341 18.4359 143.157 18.6348C142.989 18.8337 142.759 18.9331 142.469 18.9331C142.193 18.9331 141.964 18.8337 141.78 18.6348C141.597 18.4359 141.505 18.0993 141.505 17.625V9.01904H163.1V17.625C163.1 18.0993 163.008 18.4359 162.825 18.6348C162.656 18.8337 162.427 18.9331 162.136 18.9331C161.846 18.9331 161.608 18.8337 161.425 18.6348C161.257 18.4359 161.172 18.0993 161.172 17.625V10.9468H153.278Z" fill="white"/>
<path d="M187.082 22.8804H174.299V33.9419H176.893C177.352 33.9419 177.68 34.0337 177.879 34.2173C178.078 34.3856 178.178 34.6151 178.178 34.9058C178.178 35.1812 178.078 35.4106 177.879 35.5942C177.68 35.7778 177.352 35.8696 176.893 35.8696H170.191C169.732 35.8696 169.403 35.7778 169.205 35.5942C169.006 35.4106 168.906 35.1812 168.906 34.9058C168.906 34.6151 169.006 34.3856 169.205 34.2173C169.403 34.0337 169.732 33.9419 170.191 33.9419H172.372V10.9468H171.178C170.704 10.9468 170.367 10.8626 170.168 10.6943C169.97 10.5107 169.87 10.2736 169.87 9.98291C169.87 9.69222 169.97 9.46273 170.168 9.29443C170.367 9.11084 170.704 9.01904 171.178 9.01904H176.893C177.352 9.01904 177.68 9.11084 177.879 9.29443C178.078 9.46273 178.178 9.69222 178.178 9.98291C178.178 10.2736 178.078 10.5107 177.879 10.6943C177.68 10.8626 177.352 10.9468 176.893 10.9468H174.299V20.9526H187.082V10.9468H184.512C184.053 10.9468 183.724 10.8626 183.525 10.6943C183.326 10.5107 183.227 10.2736 183.227 9.98291C183.227 9.69222 183.318 9.46273 183.502 9.29443C183.701 9.11084 184.037 9.01904 184.512 9.01904H190.226C190.7 9.01904 191.037 9.11084 191.236 9.29443C191.435 9.46273 191.534 9.69222 191.534 9.98291C191.534 10.2736 191.435 10.5107 191.236 10.6943C191.037 10.8626 190.7 10.9468 190.226 10.9468H189.033V33.9419H191.213C191.672 33.9419 192.001 34.0337 192.2 34.2173C192.399 34.3856 192.498 34.6151 192.498 34.9058C192.498 35.1812 192.399 35.4106 192.2 35.5942C192.001 35.7778 191.672 35.8696 191.213 35.8696H184.512C184.053 35.8696 183.724 35.7778 183.525 35.5942C183.326 35.4106 183.227 35.1812 183.227 34.9058C183.227 34.6151 183.318 34.3856 183.502 34.2173C183.701 34.0337 184.037 33.9419 184.512 33.9419H187.082V22.8804Z" fill="white"/>
<path d="M200.53 10.9468V20.9526H203.605C206.956 20.9526 209.565 21.6029 211.431 22.9033C213.313 24.1885 214.254 26.0244 214.254 28.4111C214.254 30.5837 213.474 32.3737 211.913 33.7812C210.353 35.1735 208.517 35.8696 206.405 35.8696H196.009C195.153 35.8696 194.724 35.5483 194.724 34.9058C194.724 34.2632 195.153 33.9419 196.009 33.9419H198.603V10.9468H196.009C195.153 10.9468 194.724 10.6255 194.724 9.98291C194.724 9.34033 195.153 9.01904 196.009 9.01904H203.124C203.98 9.01904 204.409 9.34033 204.409 9.98291C204.409 10.6255 203.98 10.9468 203.124 10.9468H200.53ZM200.53 33.9419H206.268C208.058 33.9419 209.511 33.3988 210.628 32.3125C211.745 31.2109 212.303 29.9258 212.303 28.457C212.303 26.8047 211.546 25.466 210.031 24.4409C208.532 23.4159 206.336 22.9033 203.445 22.9033H200.53V33.9419ZM218.867 10.9468V33.9419H221.437C222.309 33.9419 222.745 34.2632 222.745 34.9058C222.745 35.5483 222.309 35.8696 221.437 35.8696H214.346C213.474 35.8696 213.038 35.5483 213.038 34.9058C213.038 34.2632 213.474 33.9419 214.346 33.9419H216.916V10.9468H214.346C213.474 10.9468 213.038 10.6255 213.038 9.98291C213.038 9.34033 213.474 9.01904 214.346 9.01904H221.437C222.309 9.01904 222.745 9.34033 222.745 9.98291C222.745 10.6255 222.309 10.9468 221.437 10.9468H218.867Z" fill="white"/>
<path d="M227.702 33.9419V10.9468H225.109C224.252 10.9468 223.824 10.6255 223.824 9.98291C223.824 9.34033 224.252 9.01904 225.109 9.01904H233.187C234.059 9.01904 234.495 9.34033 234.495 9.98291C234.495 10.6255 234.059 10.9468 233.187 10.9468H229.63V33.0928L243.858 9.01904H248.907C249.764 9.01904 250.192 9.34033 250.192 9.98291C250.192 10.6255 249.764 10.9468 248.907 10.9468H246.314V33.9419H248.907C249.764 33.9419 250.192 34.2632 250.192 34.9058C250.192 35.5483 249.764 35.8696 248.907 35.8696H241.793C240.936 35.8696 240.508 35.5483 240.508 34.9058C240.508 34.2632 240.936 33.9419 241.793 33.9419H244.386V11.8418L230.181 35.8696H225.109C224.252 35.8696 223.824 35.5483 223.824 34.9058C223.824 34.2632 224.252 33.9419 225.109 33.9419H227.702ZM231.902 0C232.177 0 232.399 0.0841471 232.567 0.252441C232.736 0.405436 232.835 0.688477 232.866 1.10156C232.958 1.97363 233.455 2.75391 234.357 3.44238C235.245 4.13086 236.408 4.4751 237.846 4.4751C239.269 4.4751 240.424 4.13086 241.311 3.44238C242.214 2.75391 242.711 1.97363 242.803 1.10156C242.849 0.688477 242.94 0.413086 243.078 0.275391C243.277 0.0917969 243.507 0 243.767 0C244.042 0 244.271 0.0994466 244.455 0.29834C244.654 0.481934 244.753 0.734375 244.753 1.05566C244.753 2.43262 244.126 3.67188 242.872 4.77344C241.632 5.875 239.957 6.42578 237.846 6.42578C235.734 6.42578 234.051 5.875 232.797 4.77344C231.558 3.67188 230.938 2.43262 230.938 1.05566C230.938 0.734375 231.03 0.481934 231.213 0.29834C231.397 0.0994466 231.626 0 231.902 0Z" fill="white"/>
<path d="M303.917 35.8696H282.987V40.9414C282.987 41.9359 282.658 42.4331 282 42.4331C281.373 42.4331 281.059 41.9129 281.059 40.8726V35.5254C281.059 34.8828 281.128 34.4621 281.266 34.2632C281.419 34.049 281.709 33.9266 282.138 33.896C283.178 33.8348 284.257 33.3223 285.374 32.3584C286.506 31.3945 287.301 30.2241 287.76 28.8472C288.235 27.4702 288.472 25.4201 288.472 22.6968V10.9468H285.833C284.762 10.9468 284.226 10.6255 284.226 9.98291C284.226 9.34033 284.762 9.01904 285.833 9.01904H304.215C305.301 9.01904 305.844 9.34033 305.844 9.98291C305.844 10.6255 305.301 10.9468 304.215 10.9468H302.218V33.9419H304.215C304.903 33.9419 305.347 34.0184 305.546 34.1714C305.745 34.3091 305.844 34.7604 305.844 35.5254V40.8726C305.844 41.9129 305.531 42.4331 304.903 42.4331C304.245 42.4331 303.917 41.9359 303.917 40.9414V35.8696ZM290.399 10.9468V22.6968C290.399 28.2658 289.091 32.0142 286.475 33.9419H300.268V10.9468H290.399Z" fill="white"/>
<path d="M333.475 22.5132C333.475 25.0835 332.955 27.4702 331.915 29.6733C330.874 31.8612 329.436 33.5671 327.6 34.791C325.779 36.015 323.821 36.627 321.725 36.627C318.619 36.627 315.881 35.3112 313.509 32.6797C311.153 30.0329 309.975 26.644 309.975 22.5132C309.975 18.367 311.153 14.9782 313.509 12.3467C315.881 9.71517 318.619 8.39941 321.725 8.39941C323.821 8.39941 325.779 9.01139 327.6 10.2354C329.421 11.4593 330.851 13.1652 331.892 15.353C332.947 17.5409 333.475 19.9276 333.475 22.5132ZM331.524 22.5132C331.524 19.3768 330.614 16.5617 328.793 14.0679C326.973 11.5741 324.617 10.3271 321.725 10.3271C319.017 10.3271 316.699 11.5205 314.771 13.9072C312.859 16.2786 311.903 19.1473 311.903 22.5132C311.903 26.0933 312.905 29.0231 314.909 31.3027C316.929 33.5671 319.201 34.6992 321.725 34.6992C324.617 34.6992 326.973 33.46 328.793 30.9814C330.614 28.4876 331.524 25.6649 331.524 22.5132Z" fill="white"/>
<path d="M359.706 10.8779C358.62 10.8779 357.771 11.1074 357.159 11.5664C356.562 12.0101 355.598 13.3717 354.267 15.6514C352.293 19.0479 350.947 20.9067 350.228 21.228C352.14 21.993 353.908 23.9819 355.529 27.1948L358.949 33.9419H361.794C362.865 33.9419 363.401 34.2632 363.401 34.9058C363.401 35.5483 362.865 35.8696 361.794 35.8696H359.018C358.406 35.8696 358.023 35.8237 357.87 35.7319C357.717 35.6401 357.495 35.3188 357.205 34.7681L353.762 28.021C352.584 25.7108 351.444 24.2038 350.343 23.5C349.257 22.7962 347.818 22.4443 346.028 22.4443H344.56V33.9419H347.061C348.147 33.9419 348.69 34.2632 348.69 34.9058C348.69 35.5483 348.147 35.8696 347.061 35.8696H340.153C339.082 35.8696 338.547 35.5483 338.547 34.9058C338.547 34.2632 339.082 33.9419 340.153 33.9419H342.609V10.9468H340.153C339.082 10.9468 338.547 10.6255 338.547 9.98291C338.547 9.34033 339.082 9.01904 340.153 9.01904H347.061C348.147 9.01904 348.69 9.34033 348.69 9.98291C348.69 10.6255 348.147 10.9468 347.061 10.9468H344.56V20.4707H346.028C347.421 20.4707 348.469 20.1647 349.172 19.5527C349.891 18.9255 351.016 17.3114 352.546 14.7104C353.969 12.3084 355.078 10.7555 355.874 10.0518C356.684 9.34798 357.993 8.99609 359.798 8.99609C360.67 8.99609 361.198 9.09554 361.381 9.29443C361.565 9.49333 361.657 9.93701 361.657 10.6255V13.1729C361.657 14.2285 361.335 14.7563 360.693 14.7563C360.035 14.7563 359.706 14.2591 359.706 13.2646V10.8779Z" fill="white"/>
<path d="M370.24 10.9468L378.547 26.2539L386.855 10.9468H385.088C384.002 10.9468 383.458 10.6255 383.458 9.98291C383.458 9.34033 384.002 9.01904 385.088 9.01904H390.229C391.299 9.01904 391.835 9.34033 391.835 9.98291C391.835 10.6255 391.299 10.9468 390.229 10.9468H389.081L377.583 32.0142C376.803 33.4676 375.962 34.6074 375.059 35.4336C374.156 36.2445 373.009 36.6499 371.617 36.6499C370.852 36.6499 370.11 36.5581 369.391 36.3745C368.672 36.1909 368.243 35.9844 368.105 35.7549C367.968 35.5254 367.899 35.1047 367.899 34.4927V31.7158C367.899 30.6602 368.213 30.1323 368.84 30.1323C369.498 30.1323 369.827 30.6219 369.827 31.6011V34.3779C370.607 34.5921 371.265 34.6992 371.8 34.6992C372.657 34.6992 373.361 34.4468 373.912 33.9419C374.478 33.4217 375.128 32.4808 375.862 31.1191L377.354 28.3652L367.899 10.9468H366.66C365.589 10.9468 365.053 10.6255 365.053 9.98291C365.053 9.34033 365.589 9.01904 366.66 9.01904H372.007C373.078 9.01904 373.613 9.34033 373.613 9.98291C373.613 10.6255 373.078 10.9468 372.007 10.9468H370.24Z" fill="white"/>
<path d="M407.647 27.8145H405.444L398.031 10.9468H397.664V33.9419H401.221C401.68 33.9419 402.009 34.0337 402.208 34.2173C402.407 34.3856 402.506 34.6151 402.506 34.9058C402.506 35.1812 402.407 35.4106 402.208 35.5942C402.009 35.7778 401.68 35.8696 401.221 35.8696H394.107C393.648 35.8696 393.319 35.7778 393.12 35.5942C392.921 35.4106 392.822 35.1812 392.822 34.9058C392.822 34.6151 392.921 34.3856 393.12 34.2173C393.319 34.0337 393.648 33.9419 394.107 33.9419H395.736V10.9468H394.52C394.061 10.9468 393.732 10.8626 393.533 10.6943C393.334 10.5107 393.235 10.2736 393.235 9.98291C393.235 9.69222 393.334 9.46273 393.533 9.29443C393.732 9.11084 394.061 9.01904 394.52 9.01904H399.248L406.545 25.6343L413.729 9.01904H418.456C418.93 9.01904 419.267 9.11084 419.466 9.29443C419.665 9.46273 419.764 9.69222 419.764 9.98291C419.764 10.2736 419.665 10.5107 419.466 10.6943C419.267 10.8626 418.93 10.9468 418.456 10.9468H417.263V33.9419H418.869C419.343 33.9419 419.68 34.0337 419.879 34.2173C420.078 34.3856 420.177 34.6151 420.177 34.9058C420.177 35.1812 420.078 35.4106 419.879 35.5942C419.68 35.7778 419.343 35.8696 418.869 35.8696H411.778C411.319 35.8696 410.982 35.7778 410.768 35.5942C410.569 35.4106 410.47 35.1812 410.47 34.9058C410.47 34.6151 410.569 34.3856 410.768 34.2173C410.967 34.0337 411.304 33.9419 411.778 33.9419H415.335V10.9468H414.922L407.647 27.8145Z" fill="white"/>
<path d="M428.324 22.9033V33.9419H443.149V28.2505C443.149 27.7915 443.234 27.4626 443.402 27.2637C443.585 27.0648 443.823 26.9653 444.113 26.9653C444.404 26.9653 444.633 27.0648 444.802 27.2637C444.985 27.4626 445.077 27.7915 445.077 28.2505V35.8696H423.803C423.344 35.8696 423.015 35.7778 422.816 35.5942C422.618 35.4106 422.518 35.1812 422.518 34.9058C422.518 34.6151 422.618 34.3856 422.816 34.2173C423.015 34.0337 423.344 33.9419 423.803 33.9419H426.396V10.9468H423.803C423.344 10.9468 423.015 10.8626 422.816 10.6943C422.618 10.5107 422.518 10.2736 422.518 9.98291C422.518 9.69222 422.618 9.46273 422.816 9.29443C423.015 9.11084 423.344 9.01904 423.803 9.01904H444.067V15.6514C444.067 16.1104 443.976 16.4393 443.792 16.6382C443.624 16.8371 443.394 16.9365 443.104 16.9365C442.813 16.9365 442.576 16.8371 442.392 16.6382C442.224 16.4393 442.14 16.1104 442.14 15.6514V10.9468H428.324V20.9756H435.232V18.7954C435.232 18.3364 435.324 18.0075 435.507 17.8086C435.691 17.6097 435.928 17.5103 436.219 17.5103C436.494 17.5103 436.724 17.6097 436.907 17.8086C437.091 18.0075 437.183 18.3364 437.183 18.7954V25.0835C437.183 25.5425 437.091 25.8714 436.907 26.0703C436.724 26.2692 436.494 26.3687 436.219 26.3687C435.928 26.3687 435.691 26.2692 435.507 26.0703C435.324 25.8714 435.232 25.5425 435.232 25.0835V22.9033H428.324Z" fill="white"/>
<path d="M469.357 22.8804H456.575V33.9419H459.168C459.627 33.9419 459.956 34.0337 460.155 34.2173C460.354 34.3856 460.453 34.6151 460.453 34.9058C460.453 35.1812 460.354 35.4106 460.155 35.5942C459.956 35.7778 459.627 35.8696 459.168 35.8696H452.467C452.008 35.8696 451.679 35.7778 451.48 35.5942C451.281 35.4106 451.182 35.1812 451.182 34.9058C451.182 34.6151 451.281 34.3856 451.48 34.2173C451.679 34.0337 452.008 33.9419 452.467 33.9419H454.647V10.9468H453.454C452.979 10.9468 452.643 10.8626 452.444 10.6943C452.245 10.5107 452.146 10.2736 452.146 9.98291C452.146 9.69222 452.245 9.46273 452.444 9.29443C452.643 9.11084 452.979 9.01904 453.454 9.01904H459.168C459.627 9.01904 459.956 9.11084 460.155 9.29443C460.354 9.46273 460.453 9.69222 460.453 9.98291C460.453 10.2736 460.354 10.5107 460.155 10.6943C459.956 10.8626 459.627 10.9468 459.168 10.9468H456.575V20.9526H469.357V10.9468H466.787C466.328 10.9468 465.999 10.8626 465.8 10.6943C465.601 10.5107 465.502 10.2736 465.502 9.98291C465.502 9.69222 465.594 9.46273 465.777 9.29443C465.976 9.11084 466.313 9.01904 466.787 9.01904H472.501C472.976 9.01904 473.312 9.11084 473.511 9.29443C473.71 9.46273 473.81 9.69222 473.81 9.98291C473.81 10.2736 473.71 10.5107 473.511 10.6943C473.312 10.8626 472.976 10.9468 472.501 10.9468H471.308V33.9419H473.488C473.947 33.9419 474.276 34.0337 474.475 34.2173C474.674 34.3856 474.773 34.6151 474.773 34.9058C474.773 35.1812 474.674 35.4106 474.475 35.5942C474.276 35.7778 473.947 35.8696 473.488 35.8696H466.787C466.328 35.8696 465.999 35.7778 465.8 35.5942C465.601 35.4106 465.502 35.1812 465.502 34.9058C465.502 34.6151 465.594 34.3856 465.777 34.2173C465.976 34.0337 466.313 33.9419 466.787 33.9419H469.357V22.8804Z" fill="white"/>
<path d="M492.008 10.9468V33.9419H497.011C497.47 33.9419 497.799 34.0337 497.998 34.2173C498.197 34.3856 498.296 34.6151 498.296 34.9058C498.296 35.1812 498.197 35.4106 497.998 35.5942C497.799 35.7778 497.47 35.8696 497.011 35.8696H485.055C484.596 35.8696 484.267 35.7778 484.068 35.5942C483.869 35.4106 483.77 35.1812 483.77 34.9058C483.77 34.6151 483.869 34.3856 484.068 34.2173C484.267 34.0337 484.596 33.9419 485.055 33.9419H490.058V10.9468H482.163V17.625C482.163 18.0993 482.071 18.4359 481.888 18.6348C481.719 18.8337 481.49 18.9331 481.199 18.9331C480.924 18.9331 480.694 18.8337 480.511 18.6348C480.327 18.4359 480.235 18.0993 480.235 17.625V9.01904H501.831V17.625C501.831 18.0993 501.739 18.4359 501.555 18.6348C501.387 18.8337 501.157 18.9331 500.867 18.9331C500.576 18.9331 500.339 18.8337 500.155 18.6348C499.987 18.4359 499.903 18.0993 499.903 17.625V10.9468H492.008Z" fill="white"/>
</svg>
