<svg width="502" height="43" viewBox="0 0 502 43" fill="none" xmlns="http://www.w3.org/2000/svg">
<path d="M21.4994 12.34C19.8694 12 21.8694 9.99999 21.3294 9.02999C21.3794 9.02999 21.4394 9.01999 21.4994 9.01999C21.7894 9.01999 22.0194 9.11999 22.1894 9.31999C22.3694 9.51999 22.4694 9.84999 22.4694 10.31V14.15C22.1294 14.12 21.9494 14.19 21.8694 14.31C21.8394 14.35 21.8294 14.4 21.8194 14.45C21.8694 16 18.8694 16 18.8694 16C18.8694 21 19.8694 13 20.4594 16.39C20.4294 16.38 20.3994 16.37 20.3594 16.35C19.9094 16.15 19.9794 15.37 20.1594 14.35C20.1494 14.33 20.1394 14.3 20.1194 14.27C19.9794 13.99 19.7994 13.72 19.5894 13.46C19.5694 13.44 19.5494 13.41 19.5294 13.39C19.1794 13.71 18.7294 13.31 18.2994 12.79C18.2794 12.76 18.2494 12.74 18.2294 12.71C16.8594 12 16.8594 8.99999 13.8594 9.99999C14.8594 12 16.8594 11 17.8594 11C16.8594 11 14.8594 11 13.4394 11.42C13.3994 11.42 13.3694 11.42 13.3394 11.42C12.3094 11.45 11.6294 10.87 10.9894 10.47C10.9694 10.46 10.9494 10.45 10.9294 10.44C10.8694 12 8.86942 9.99999 7.86942 11C6.86942 12 7.86942 12 8.47942 11.81C8.45942 11.81 8.42942 11.83 8.39942 11.84C6.98942 12.3 4.87942 11.89 4.91942 14.27C4.89942 14.29 4.88942 14.32 4.86942 14.34C4.29942 15.18 3.81942 16.07 3.42942 17.02C2.99942 18.09 2.78942 19.3 2.78942 20.65V24.02C2.78942 26.32 3.45942 28.38 4.78942 30.2C4.82942 30.25 4.85942 30.3 4.89942 30.35C4.87275 30.7767 4.52608 30.99 3.85942 30.99C4.85942 31.99 6.85942 30.99 6.99942 32.51C7.00942 32.52 7.02942 32.53 7.03942 32.54C8.84942 33.97 10.8894 34.69 13.1594 34.69C14.2394 34.69 15.2494 34.54 16.1794 34.23C16.2094 34.23 16.2294 34.21 16.2594 34.2C16.5494 34.1 16.9194 33.6 17.3394 33.19C17.3594 33.17 17.3894 33.14 17.4094 33.12C17.6394 32.06 17.9994 32.03 18.4494 32.12C18.4994 32.13 18.5494 32.14 18.5994 32.15C19.8694 30.99 20.8694 32.99 21.0694 30.74C21.0894 30.72 21.1094 30.7 21.1194 30.68C21.2094 30.57 21.3094 30.47 21.3994 30.35C21.4094 30.34 21.4194 30.32 21.4294 30.31C21.4394 30.3 21.4494 30.28 21.4594 30.27C21.2894 30.47 21.3994 30.76 21.5794 31.08C21.5994 31.11 21.6094 31.14 21.6294 31.16C21.8494 31.98 22.8494 32.98 23.8494 32.98C22.8494 32.98 21.8494 32.98 21.0194 33.29C20.9994 33.32 20.9894 33.36 20.9694 33.39C20.6494 34.02 20.4294 34.7 19.9494 34.39C19.9294 34.41 19.8994 34.43 19.8794 34.44C19.2694 34.87 18.6194 35.24 17.9494 35.55C16.3894 36.25 14.8094 36.61 13.1994 36.61C12.2994 36.61 11.3894 36.5 10.4694 36.27C10.4394 36.27 10.4094 36.26 10.3794 36.25C9.84942 35.98 7.84942 35.98 6.84942 35.98C7.51608 35.98 7.76275 35.7233 7.58942 35.21C7.58942 35.21 7.53942 35.18 7.51942 35.17C7.49942 35.16 7.46942 35.14 7.45942 35.14C8.84942 31.98 8.84942 38.98 9.84942 34.98C7.84942 34.98 5.84942 33.98 5.13942 33.38C5.10942 33.36 5.08942 33.34 5.06942 33.32C4.60942 32.85 4.09942 32.27 3.54942 31.59C2.93942 30.82 2.44942 30.09 2.06942 29.4C2.03942 29.35 2.01942 29.3 2.00942 29.26C4.83942 27 -0.160583 28 1.02942 26.48C1.01942 26.42 1.00942 26.36 0.999417 26.31C0.899417 25.67 0.839417 25 0.839417 24.31V23.49C0.839417 23.42 0.839417 23.35 0.879417 23.28C2.83942 22 4.83942 24 5.83942 22C3.83942 23 1.83942 21 0.189417 20.56C0.109417 20.5 0.0894168 20.45 0.0594168 20.4C-0.140583 19.95 -0.0705832 19.47 0.899417 18.99C0.929417 18.93 0.939417 18.88 0.949417 18.82C1.07942 17.93 1.31942 17.03 1.65942 16.12C1.67942 16.06 1.69942 16.01 1.72942 15.95C1.76942 15.58 2.09942 15.21 2.43942 14.84C2.48942 14.79 2.53942 14.74 2.58942 14.68C3.83942 14 1.83942 12 4.03942 12.07C4.05942 12.05 4.07942 12.03 4.09942 12C4.44942 11.62 4.80942 11.26 5.19942 10.94C5.21942 10.92 5.24942 10.9 5.26942 10.88C5.82942 10.99 7.82942 10.99 7.81942 9.32999C7.83942 9.31999 7.86942 9.30999 7.89942 9.28999C8.80942 8.89999 9.74942 8.62999 10.7194 8.49999C10.7494 8.49999 10.7794 8.49999 10.8094 8.48999C12.8294 8.99999 15.8294 7.99999 17.8694 9.73999C17.8994 9.75999 17.9194 9.76999 17.9494 9.77999C18.2994 9.96999 18.6294 10.18 18.9594 10.4C18.9894 10.42 19.0094 10.43 19.0394 10.45C18.8294 11.99 20.8294 11.99 21.4294 12.29C21.4394 12.3 21.4594 12.31 21.4694 12.32L21.4994 12.34Z" fill="white"/>
<path d="M34.0094 22.9V28.42C34.0094 28.42 34.0094 28.51 34.0094 28.55C33.9227 29.5166 33.9227 30.19 34.0094 30.57V32.41C33.916 33.4633 34.4294 33.97 35.5494 33.93H43.9494C44.0094 33.93 44.0794 33.93 44.1494 33.93C45.8694 33.99 46.8694 31.99 48.8694 32.99C47.8694 31.99 47.8694 34.99 47.0694 33.97C47.0994 33.98 47.1594 33.98 47.2094 33.98C47.7394 33.98 48.1894 33.98 48.5494 33.98C48.5594 33.98 48.5794 33.98 48.5994 33.98C48.9294 33.98 49.2494 33.99 49.5894 33.99C49.6494 33.99 49.6994 33.99 49.6994 33.99C49.5894 33.99 49.4794 33.99 49.3794 33.99C48.4494 33.97 47.7294 33.91 47.2194 33.84C47.1894 33.84 47.1494 33.84 47.1194 33.83C46.8694 34.01 46.8694 33.01 46.9694 33.32C46.9994 33.32 47.0294 33.32 47.0594 33.31C47.2194 33.29 47.3994 33.28 47.5994 33.26C47.6394 33.26 47.6794 33.26 47.7194 33.26C48.486 33.0933 49.2627 33.0466 50.0494 33.12C50.0494 33.12 50.1094 33.12 50.1294 33.12C50.5294 33.18 50.8694 33.42 50.8694 34C51.2894 33.17 50.8394 33.03 50.2794 33.04C50.2394 33.04 50.1994 33.04 50.1694 33.04C46.8794 33 47.8794 32 48.8294 30.9C48.8394 30.81 48.8394 30.73 48.8394 30.66V28.25C48.8394 27.79 48.9194 27.46 49.0894 27.26C49.2694 27.06 49.5094 26.96 49.7994 26.96C50.0894 26.96 50.3194 27.06 50.4894 27.26C50.6694 27.46 50.7694 27.79 50.7694 28.25V31.13C50.7694 31.21 50.7694 31.29 50.7694 31.38C50.8194 32.27 51.1494 32.67 51.5994 33.02C51.6394 33.05 51.6794 33.08 51.7194 33.11C51.8694 33 51.8694 34 51.4394 34.15C51.3894 34.17 51.3394 34.19 51.2694 34.21C51.1394 34.25 50.9994 34.3 50.8294 34.36C50.8194 34.41 50.8094 34.46 50.8094 34.53C50.7994 34.65 50.7794 34.8 50.7594 34.97C50.7594 35.03 50.7594 35.09 50.7594 35.15V35.87H34.6994C34.6994 35.87 34.6294 35.87 34.5894 35.87C32.8694 36 31.8694 36 29.9394 35.92C29.9094 35.92 29.8794 35.92 29.8494 35.92C29.5894 35.9 29.3494 35.86 29.1094 35.79C29.0894 35.79 29.0694 35.78 29.0394 35.77C28.8494 36.01 28.8494 35.01 29.3394 35C29.3694 35 29.3894 35 29.4194 35C29.6894 35 29.8794 35 30.1294 35C30.1494 35 30.1794 35 30.2094 35C31.8494 35.01 32.8494 35.01 33.8494 36.01C32.8494 36.01 31.8494 35.01 31.7394 34.41C31.7194 34.39 31.6894 34.37 31.6694 34.36C31.3994 34.17 31.1294 34.02 30.8594 34.02H32.3194C32.3794 34.02 32.4394 34.02 32.8594 33.84C32.8894 33.83 32.9294 33.81 32.9694 33.8C34.2394 33.38 35.7694 34.82 34.8694 33.02C33.8694 32.02 31.8694 33.02 29.8694 32.02C32.8694 32.02 31.8694 30.02 32.0794 28.3V19.09C32.0794 19.09 32.0794 19.05 32.0794 19.03C31.9794 18.54 32.3994 18.05 32.7394 17.56C32.7394 17.55 32.7594 17.53 32.7694 17.52C33.8694 17.02 30.8694 16.02 32.0794 14.75C32.0794 14.73 32.0794 14.72 32.0794 14.7V14.19C32.0794 14.19 32.1094 14.17 32.1294 14.15C33.8694 13.01 35.8694 15.01 37.8694 13.01C36.8694 13.01 34.8694 14.01 33.3994 11.94C33.4494 11.89 33.5094 11.84 33.5594 11.79C33.9894 11.4 34.4294 11 34.8694 11C33.8694 11 31.8694 11 30.6994 10.95H29.4794C29.4794 10.95 29.4194 10.95 29.3794 10.95C29.3394 10.95 29.3194 10.95 29.2994 10.95C29.6727 10.99 29.8594 10.6766 29.8594 10.01C28.8594 9.00998 26.8594 11.01 26.8594 9.00998C27.8594 9.00998 28.8594 9.00998 29.9594 9.02998C29.9794 9.02998 29.9894 9.02998 30.0094 9.02998H34.5894C34.5894 9.02998 34.6294 9.02998 34.6494 9.02998C34.8594 9.00998 35.8594 9.00998 36.1794 9.02998C36.1994 9.02998 36.2294 9.02998 36.2494 9.02998H48.1894C48.1894 9.02998 48.2494 9.02998 48.2694 9.02998C48.5894 9.01998 49.3394 9.00998 50.1194 9.00998C50.1894 9.00998 50.2594 9.00998 50.3294 9.00998C51.8594 8.00998 52.8594 10.01 53.8594 10.01C52.8594 10.01 51.8594 10.01 50.6494 9.96998C50.6094 10.03 50.5794 10.1 50.5394 10.15C50.3494 10.43 50.1194 10.6 49.7794 10.41C49.7494 10.48 49.7394 10.55 49.7394 10.62V13.65C49.7394 13.65 49.7394 13.68 49.7394 13.7C51.8594 14.03 51.8594 17.03 53.8594 17.03H44.8594C44.8594 15.03 47.8594 16.03 47.7994 14.24C47.7994 14.2 47.7994 14.16 47.7994 14.12V12.53C46.8494 12.03 45.8494 11.03 45.8494 10.03C45.8494 10.03 45.8494 11.03 46.2794 10.98C46.2494 10.98 46.2194 10.98 46.1894 10.98H33.9894V15.05C33.8494 17.03 31.8494 15.03 31.8494 16.03C30.8494 18.03 34.8494 16.03 33.8894 18.15C33.8894 18.17 33.8894 18.19 33.8894 18.21C33.8994 18.39 33.9394 18.59 33.9794 18.88C33.9794 18.9 33.9794 18.92 33.9794 18.94V19.49C34.8394 20.03 31.8394 20.03 32.8394 21.03C34.3694 21.03 35.7594 21.32 37.1094 21.63C37.1694 21.64 37.2294 21.66 37.2694 21.67C37.6494 21.91 38.2994 22.0466 39.2194 22.08C39.2794 22.09 39.3394 22.1 39.3994 22.11C40.8094 22.35 42.2494 22.43 43.8494 22.03C41.8494 22.03 40.8494 20.03 39.2594 21.01H39.3794C41.8494 21.03 42.8494 21.03 44.8494 21.03C43.3794 21.03 42.4494 20.49 41.2694 19.81C41.2194 19.78 41.1594 19.75 41.0994 19.71C46.8494 19.03 31.8494 19.03 40.6394 17.76C40.6794 17.72 40.7194 17.7 40.7494 17.68C41.5594 17.22 41.2494 20.88 42.8394 20.3C42.8394 20.32 42.8394 20.34 42.8394 20.36V24.63C44.8394 24.04 44.8394 27.04 46.8394 26.04C44.8394 29.04 42.8394 25.04 41.0894 26.02C41.0594 25.99 41.0394 25.95 41.0194 25.91C40.9294 25.71 40.8794 25.45 40.8794 25.13V22.95H39.4794C37.8294 23.05 36.8294 23.05 34.8294 23.05C35.8294 22.05 35.8294 27.05 36.5194 22.86C36.5094 22.8 36.4794 22.75 36.4394 22.71C36.2394 22.45 35.9894 22.4 35.6194 22.98C35.5094 22.96 35.4394 22.96 35.3594 22.96H33.9594L34.0094 22.9Z" fill="white"/>
<path d="M78.4206 11.18C78.0606 11.06 77.5106 11.0233 76.7706 11.07C76.7706 11.07 76.7106 11.09 76.6906 11.1C76.3406 11.21 76.0306 11.37 75.7606 11.57C75.3006 11.91 74.6306 12.79 73.7406 14.22C73.7306 14.24 73.7206 14.25 73.7106 14.27C73.7006 14.29 73.6906 14.3 73.6806 14.32C73.8806 15.01 74.8806 16.01 75.8806 16.01H71.8806L72.8806 17.01C71.8806 18.01 69.8806 16.01 69.7306 17.56C69.7306 17.59 69.7206 17.61 69.7206 17.64C69.7206 17.78 69.7506 17.91 69.8106 18.03C69.8206 18.06 69.8406 18.08 69.8506 18.1C71.8806 19 68.8806 20 69.9106 20.95C69.9106 20.97 69.9106 20.99 69.9106 21.02C69.9306 21.24 69.9906 21.47 70.1106 21.94C70.1306 21.96 70.1506 21.97 70.1706 21.99C71.5706 23.02 72.8906 24.75 74.1306 27.2L77.5506 33.95H80.4006C81.4706 33.95 82.0106 34.27 82.0106 34.91C82.0106 35.07 81.9806 35.21 81.9106 35.33C81.8906 35.37 81.8606 35.41 81.8306 35.44C81.8806 37 79.8806 35 78.8706 35.89C78.8506 35.89 78.8206 35.89 78.8006 35.9C77.9406 36.04 76.4106 36.45 75.8006 35.9C75.7806 35.88 75.7606 35.87 75.7506 35.85C74.8906 35.01 73.8906 35.01 74.9306 33.04L74.9006 32.99L73.0706 29.41C73.0706 29.41 73.0506 29.38 73.0506 29.36C70.8906 29.01 72.8906 28.01 71.6606 26.72C71.6606 26.7 71.6406 26.69 71.6306 26.67C70.7106 25.11 69.8206 24.06 68.9506 23.5C67.8606 22.8 66.4306 22.44 64.6406 22.44H63.1706V26.2C63.1706 26.2 63.2206 26.24 63.2306 26.26C63.8906 25.99 64.8906 27.99 65.8906 26.99C65.8906 28.99 63.8906 27.99 63.1706 29.18V32.24C63.1706 32.31 63.1706 32.37 63.1906 32.44C63.2606 32.6 63.3606 32.72 63.4806 32.82C63.5206 32.85 63.5606 32.88 63.6006 32.9C64.0006 32.93 64.2706 32.95 64.4906 32.96C64.5506 32.96 64.6006 32.96 64.6406 32.97C65.8906 32.99 66.8906 32.99 67.5506 33.52C67.5906 33.56 67.6306 33.61 67.6706 33.65C67.7506 33.75 67.8206 33.86 67.8806 33.98C67.7106 33.98 67.5506 33.98 67.3806 33.98C67.3206 33.98 67.2706 33.98 67.2106 33.98C66.3306 33.98 65.564 33.98 64.9106 33.98C64.8406 33.98 64.7806 33.98 64.7106 33.98C63.6606 33.98 62.5506 33.98 61.8806 33.98C62.5506 33.98 63.6606 33.98 64.7006 33.98C64.7706 33.98 64.8306 33.98 64.9006 33.98C65.554 33.9867 66.2473 34.0733 66.9806 34.24C66.9806 34.24 67.0606 34.31 67.1006 34.34C67.2306 34.49 67.3006 34.67 67.3006 34.9C67.3006 35.06 67.2706 35.2 67.2006 35.32C67.1806 35.36 67.1506 35.4 67.1206 35.43C66.8906 36.99 64.8906 34.99 64.1606 35.86H58.7706C58.6806 35.86 58.6006 35.86 58.5106 35.86C58.4206 35.86 58.3506 35.85 58.2906 35.84C59.7306 35.5 59.7906 35.3 59.4406 35.11C59.4006 35.09 59.3506 35.06 59.2906 35.04C57.8906 34.99 56.8906 34.99 56.8906 33.99C57.8906 33.99 58.8906 33.99 59.7206 33.93C59.8206 33.93 59.9106 33.93 59.9906 33.93H61.2206V30.18C61.2206 30.18 61.2406 30.14 61.2506 30.12C62.8906 28.99 61.8906 28.99 61.2706 28.29C61.2606 28.27 61.2506 28.25 61.2306 28.23V22.01C60.9006 21.98 60.9006 20.98 61.2306 21.25C61.2306 21.23 61.2306 21.2 61.2306 21.18V18.93C61.2306 18.93 61.2306 18.88 61.2106 18.86C60.4906 18.38 60.1606 17.86 60.2306 17.34C60.2306 17.29 60.2506 17.25 60.2606 17.2C61.8906 16.99 63.8906 16.99 61.2206 14.53V10.94H60.3806C60.3806 10.94 60.3006 10.94 60.2906 10.99C60.3206 10.99 60.3406 10.99 60.3706 10.99C60.5106 10.99 60.6806 10.99 60.8806 10.99C60.7006 10.81 60.4806 10.69 60.2506 10.61C60.2206 10.61 60.1906 10.59 60.1606 10.58C60.7006 10.26 60.8606 10.09 60.7906 9.99001C60.7806 9.97001 60.7506 9.96001 60.7206 9.94001C59.8806 8.98001 57.8806 10.98 57.8806 8.98001C58.8806 8.98001 59.8806 8.98001 61.0406 9.00001C61.0606 9.00001 61.0806 9.00001 61.1006 9.00001H64.5506C64.5506 9.00001 64.6106 9.00001 64.6406 9.00001C65.8906 9.98001 67.8906 7.98001 67.8906 9.98001C66.8906 9.98001 65.8906 9.98001 65.1006 10.12C65.0706 10.12 65.0506 10.14 65.0206 10.15C64.5406 10.34 64.5306 10.56 66.1606 10.91C66.1006 10.91 66.0206 10.92 65.9406 10.92C65.8606 10.92 65.7706 10.92 65.6806 10.92H64.7006C64.7706 11.6 64.7006 11.84 64.5506 11.9C64.5406 11.9 64.5206 11.91 64.5006 11.91C63.8906 11.97 64.8906 13.97 63.1806 14.11C63.1806 14.19 63.1806 14.26 63.1806 14.34V17.28C63.1806 17.28 63.1806 17.34 63.1806 17.37C61.8906 17.97 64.8906 17.97 63.8906 18.97H60.8906C61.5573 18.97 61.884 19.1633 61.8706 19.55C61.8706 19.55 61.8406 19.61 61.8206 19.64C61.5706 20.07 61.3306 20.41 60.8806 19.97C61.1906 19.97 61.5906 19.97 62.0306 19.98C62.0606 19.98 62.1006 19.98 62.1306 19.98C62.6306 19.9667 63.224 20.03 63.9106 20.17C63.9106 20.17 63.9706 20.18 64.0006 20.19C64.2506 20.25 64.4706 20.33 64.6306 20.43C64.6706 20.43 64.7006 20.43 64.7306 20.43C65.3506 20.43 65.9006 20.35 66.3806 20.22C66.4106 20.22 66.4406 20.2 66.4606 20.2C66.9306 20.12 67.3606 19.95 67.7106 19.75C67.7706 19.72 67.8306 19.68 67.8806 19.64C67.8806 19.3 67.8806 18.63 68.0806 18.08C68.0906 18.05 68.1006 18.02 68.1106 18C68.5506 17.97 69.0706 17.63 69.4406 17.14C69.4406 17.13 69.4606 17.11 69.4706 17.1C71.8806 16.95 69.8806 15.95 70.8606 15C70.8906 14.98 70.9206 14.97 70.9506 14.95C71.1006 14.88 71.2606 14.82 71.4206 14.78C71.4506 14.78 71.4906 14.76 71.5206 14.75C72.8806 13.94 73.8806 15.94 73.5906 14.19C73.6206 14.16 73.6606 14.14 73.6906 14.11C73.7606 14.06 73.8206 14 73.8806 13.94C73.8806 13.65 73.7206 13.61 73.4806 13.66C73.4506 13.66 73.4206 13.67 73.3906 13.68C73.4406 13.61 73.4706 13.54 73.5006 13.48C73.8806 12.94 73.8806 11.94 73.5406 11.02C73.5706 10.97 73.6106 10.92 73.6506 10.88C73.9506 10.5 74.2306 10.2 74.4706 9.99001C75.0206 9.52001 75.7906 9.20001 76.7906 9.05001C76.8206 9.05001 76.8506 9.05001 76.8906 9.04001C76.8806 8.95001 75.8806 8.95001 75.8806 8.95001C77.8806 9.95001 80.8806 7.95001 81.8806 9.95001C81.8806 9.95001 79.8806 8.95001 79.6106 10.71C79.5906 10.72 79.5606 10.73 79.5306 10.75C79.0706 10.95 78.4706 10.95 77.8706 10.95C79.8706 9.95001 80.8706 11.95 81.7406 11.71C81.7706 11.72 81.8006 11.74 81.8206 11.75C82.0706 11.88 82.3106 12.04 82.5306 12.22C82.5606 12.24 82.5806 12.25 82.6106 12.27C82.9006 12.2 83.1206 12.14 83.3106 12.1C83.3706 12.09 83.4306 12.07 83.4906 12.05C83.8706 11.95 83.8706 12.95 83.4506 12.52C83.4006 12.56 83.3506 12.6 83.3006 12.64C82.9506 12.93 82.6706 13.24 82.5006 13.47C82.4706 13.47 82.4406 13.47 82.4106 13.48C81.9506 13.52 81.4706 13.54 81.0206 13.67C80.9606 13.69 80.9106 13.7 80.8506 13.73C78.8806 12.95 80.8806 15.95 78.8806 15.95C77.8806 15.95 79.8806 13.95 78.3706 13.87C78.3606 13.81 78.3406 13.74 78.3406 13.67C78.3206 13.53 78.3106 13.38 78.3106 13.21V12.39C78.3106 12.39 78.3106 12.31 78.3206 12.27C78.694 12.05 78.7206 11.68 78.4006 11.16L78.4206 11.13V11.18Z" fill="white"/>
<path d="M100.128 26.67C97.8684 28 94.8684 26 92.5584 26.33C92.5584 26.35 92.5484 26.36 92.5484 26.38V32.42C92.5484 32.42 92.5484 32.46 92.5484 32.47C91.8684 33 90.8684 34 89.8684 35C91.8684 36 93.8684 33 95.3684 33.94C95.3984 33.94 95.4184 33.94 95.4384 33.94H98.6684C99.8684 35 101.868 33 101.868 35C101.868 36 99.8684 34 100.058 35.67C100.018 35.69 99.9784 35.71 99.9484 35.73C99.7484 35.82 99.4884 35.87 99.1684 35.87H94.7784C94.7784 35.87 94.7284 35.87 94.7084 35.87C93.8784 36 91.8784 36 91.3684 35.87H89.5784C89.5784 35.87 89.5184 35.87 89.4884 35.87C88.8884 36 87.8884 36 86.8884 36C87.8884 35 85.8884 34 87.6884 34.22C87.7184 34.21 87.7484 34.2 87.7784 34.19C87.8684 34.16 87.9584 34.14 88.0484 34.11C88.0784 34.11 88.1084 34.1 88.1284 34.09C87.8984 34 86.8984 34 86.8984 34C88.8984 35 90.8984 33 91.8984 35C89.8984 35 88.8984 33 86.8984 34C88.8984 34 89.8984 34 90.6484 32.89C90.6484 32.87 90.6484 32.85 90.6484 32.83V19.15C90.6484 19.15 90.6484 19.06 90.6384 19.02C89.8984 18.01 88.8984 18.01 86.8984 18.01C87.8984 16.01 89.8984 18.01 90.6284 16.11C90.6484 16.07 90.6584 16.03 90.6584 15.99V10.95H90.1884C90.1884 10.95 90.1284 10.95 90.0584 10.98C90.0884 10.98 90.1184 10.98 90.1484 10.98C91.4884 11 92.4184 11 93.8984 11C92.4384 11 91.2084 11 90.1384 10.79C90.1084 10.79 90.0784 10.78 90.0584 10.77C88.8984 9.98998 87.8984 9.98997 85.8984 9.98997C86.8984 9.98997 87.8984 7.98998 88.6484 9.00998C88.6684 9.00998 88.6984 9.00998 88.7184 9.00998H99.2584C101.908 9.00998 104.058 9.78998 105.728 11.35C107.408 12.91 108.248 14.74 108.248 16.83C108.248 18.07 107.968 19.19 107.418 20.18C107.198 20.59 106.958 20.96 106.698 21.3C106.658 21.35 106.628 21.4 106.588 21.44C106.738 22.71 106.068 22.35 105.398 22.08C105.368 22.07 105.338 22.06 105.308 22.05C103.888 22.98 106.888 22.98 105.888 23.98C104.888 23.98 103.888 23.98 103.048 23.98C102.968 24 102.908 24.02 102.858 24.04C102.548 24.18 102.228 24.29 101.908 24.4C101.398 24.57 100.808 24.69 100.148 24.76C100.118 24.76 100.088 24.76 100.058 24.76C98.8784 23.98 97.8784 23.98 97.0984 24.83H96.5984C96.5984 24.83 96.5784 24.83 96.5584 24.83C95.8784 24.98 94.8784 24.98 93.8784 24.98C95.8784 25.98 97.8784 24.98 100.148 26.65H100.138L100.128 26.67ZM96.4684 22.98C95.8684 23 94.8684 23 94.0684 22.92H97.1884C97.8684 22.99 98.8684 22.99 100.188 22.8C100.208 22.8 100.218 22.8 100.238 22.8C101.088 22.65 101.908 22.38 102.688 21.99C102.858 21.9 103.028 21.81 103.178 21.72C103.208 21.7 103.228 21.69 103.258 21.67C103.858 22 105.858 21 106.858 20C105.858 20 103.858 20 103.248 20.03C103.168 20 103.118 19.96 103.058 19.93C102.678 19.69 102.268 19.59 101.848 20C101.848 17 105.848 20 106.008 18.34C106.048 18.29 106.068 18.23 106.088 18.18C106.218 17.74 106.278 17.3 106.278 16.85C106.278 15.34 105.628 13.97 104.328 12.77C103.028 11.56 101.388 10.96 99.3984 10.96H92.5384V21.32C92.5384 21.39 92.5384 21.45 92.5784 21.51C93.8484 23.01 95.8484 21.01 96.4484 22.99L96.4684 22.98Z" fill="white"/>
<path d="M116.881 23.03C116.881 24 117.881 24 118.701 24.45V32.42C119.881 34 122.881 34 123.881 35C121.881 36 120.881 34 120.241 33.94H128.791C128.871 33.94 128.941 33.94 129.101 33.96C130.881 33 133.881 35 135.881 35C133.881 36 132.881 34 131.991 33.94H133.531V32.3C132.881 32 130.881 32 129.881 32C129.881 30 132.881 31 133.431 29.44C133.521 29.34 133.531 29.27 133.531 29.2V28.26C133.531 27.8 133.621 27.47 133.781 27.27C133.961 27.07 134.201 26.97 134.491 26.97C134.781 26.97 135.011 27.07 135.181 27.27C135.361 27.47 135.461 27.8 135.461 28.26V35.88H115.761C115.711 35.88 115.661 35.88 115.591 35.88C114.881 35 112.881 37 112.911 35.07C112.911 35.02 112.901 34.97 112.901 34.91C112.901 34.62 113.001 34.39 113.201 34.22C113.401 34.04 113.731 33.94 114.191 33.94H116.781V18.09C116.781 18 116.781 17.92 116.781 17.83C116.847 17.2767 116.857 16.6967 116.811 16.09C116.781 16.02 116.771 15.95 116.771 15.87V10.95H114.181C113.721 10.95 113.391 10.87 113.191 10.7C112.991 10.52 112.891 10.28 112.891 9.99002C112.891 9.70002 112.991 9.47002 113.191 9.30002C113.391 9.12002 113.721 9.02002 114.181 9.02002H134.441V10.5C134.734 10.8334 134.734 11.1734 134.441 11.52V15.66C134.441 16.12 134.351 16.45 134.171 16.65C134.001 16.85 133.771 16.95 133.481 16.95C133.191 16.95 132.951 16.85 132.771 16.65C132.601 16.45 132.521 16.12 132.521 15.66V12.51C133.231 12.77 133.851 12.35 134.421 11.89C134.471 11.85 134.521 11.81 134.571 11.76C134.881 10.01 136.881 12.01 137.881 11.01C136.881 11.01 135.881 11.01 134.471 11.01C134.391 11.01 134.331 11.01 134.271 11.01C133.201 11.01 132.341 11 131.121 10.96H118.711V12.23C118.891 13.02 120.891 14.02 119.891 15.02C119.891 15.02 118.891 15.02 118.751 15.17C118.711 15.24 118.711 15.33 118.711 15.43V21H125.621V18.82C125.621 18.75 125.621 18.69 125.631 18.63C126.891 17.02 126.891 18.02 127.571 18.63C127.571 18.69 127.571 18.75 127.571 18.82V21.71C127.571 21.79 127.571 21.88 127.591 21.96C127.891 23.03 128.891 23.03 129.891 23.03C127.891 25.03 125.891 24.03 123.891 24.03C123.891 26.03 125.891 25.03 126.471 26.24C126.501 26.25 126.521 26.27 126.551 26.28C126.621 26.32 126.701 26.35 126.771 26.38C126.721 26.38 126.671 26.39 126.611 26.39C126.551 26.39 126.501 26.39 126.441 26.38C124.891 26.02 125.891 23.02 123.981 22.92C123.951 22.92 123.911 22.92 123.871 22.92H120.231C118.891 23.02 117.891 23.02 116.911 23.05H116.901L116.881 23.03Z" fill="white"/>
<path d="M154.798 10.57C154.868 11 154.868 12 154.488 12.23C154.458 12.25 154.438 12.26 154.408 12.28C154.338 12.33 154.248 12.38 154.148 12.44C154.148 12.47 154.148 12.5 154.148 12.53V15.32C153.868 16 151.868 17 152.868 18C153.868 17 155.868 19 155.708 17.23C155.738 17.23 155.768 17.25 155.788 17.26C155.958 17.33 156.118 17.42 156.258 17.53C156.278 17.55 156.308 17.57 156.328 17.59C152.868 18.99 159.868 18.99 156.258 20.37C156.238 20.37 156.208 20.37 156.188 20.37C155.538 20.29 154.608 19.37 154.188 19.97C154.158 20.05 154.158 20.15 154.158 20.24V21.81C154.158 21.9 154.158 21.99 154.158 22.07C154.008 22.58 153.938 22.81 153.948 23.14C153.948 23.16 153.948 23.18 153.948 23.21C153.878 24.02 153.878 25.02 154.148 26.2C154.148 26.22 154.148 26.23 154.148 26.25V32.45C153.868 33.02 154.868 34.02 155.608 33.96C155.628 33.96 155.648 33.96 155.668 33.96H158.648C159.868 35.02 161.868 33.02 161.868 35.02C159.868 34.02 159.868 37.02 157.628 35.89H148.708C148.708 35.89 148.678 35.89 148.658 35.89C147.868 35.02 145.868 35.02 144.868 35.02H147.868C148.868 34.02 147.868 34.02 147.008 33.97C147.038 33.97 147.068 33.97 147.098 33.97C147.128 33.97 147.158 33.97 147.198 33.97H150.678C150.678 33.97 150.718 33.97 150.738 33.97C151.868 33.02 153.868 35.02 153.868 33.02C153.868 32.02 151.868 34.02 152.198 32.5C152.198 32.48 152.198 32.45 152.198 32.43V12.97C152.198 12.97 152.198 12.92 152.198 12.89C150.858 11.99 153.858 11.99 152.858 10.99C150.858 9.98999 149.858 11.99 147.478 10.98C147.458 10.98 147.448 10.98 147.428 10.98C147.368 10.98 147.308 10.98 147.238 10.98C147.208 10.98 147.178 10.98 147.148 10.98C146.848 11 147.848 11 147.848 11C146.848 12 144.848 9.99999 144.278 11.57C144.278 11.6 144.278 11.63 144.278 11.66V16.03C144.278 16.03 144.278 16.07 144.278 16.09C140.848 17 144.848 18 143.478 18.92C143.448 18.92 143.428 18.92 143.398 18.92C143.368 18.92 143.338 18.92 143.308 18.92C143.248 18.92 143.198 18.92 143.148 18.91C143.188 18.86 143.218 18.81 143.248 18.76C143.268 18.74 143.278 18.71 143.288 18.68C142.838 16.98 142.838 15.98 143.838 14.98C143.838 14.98 142.838 14.98 142.358 14.56C142.358 14.54 142.358 14.53 142.348 14.51V10.5C142.838 8.96999 139.838 10.97 140.838 8.96999C141.838 8.96999 142.838 8.96999 143.828 8.98999H154.498C156.838 8.96999 158.838 8.96999 160.508 8.98999H160.878C161.848 7.96999 162.848 9.96999 163.598 10.15C163.628 10.15 163.658 10.15 163.688 10.16C164.268 10.22 164.958 9.96999 165.588 10.03C165.618 10.03 165.648 10.03 165.678 10.04C176.848 9.95999 176.848 10.96 165.448 11.04C165.378 11.08 165.328 11.13 165.278 11.17C164.818 11.55 164.368 12.03 163.938 12.09V14.44C163.838 14.97 165.838 15.97 164.968 16.94C165.018 16.95 165.088 16.96 165.158 16.96C165.378 16.96 165.608 16.96 165.838 16.96C165.838 18.01 165.288 18.51 164.668 18.73C164.638 18.74 164.608 18.75 164.578 18.76C163.848 18.96 161.848 18.96 160.848 18.96C159.848 17.96 160.848 17.96 162.038 17.78C162.038 17.75 162.038 17.71 162.028 17.68C162.028 17.65 162.028 17.61 162.028 17.58V12.55C162.028 12.55 162.028 12.47 162.028 12.43C162.582 12.11 163.078 11.92 163.518 11.86C163.518 11.86 163.568 11.86 163.588 11.86C164.038 11.91 164.648 11.84 165.298 11.41C165.328 11.39 165.358 11.37 165.388 11.35C165.858 10.95 164.858 10.95 165.358 10.95C165.328 10.95 165.298 10.95 165.278 10.95C164.828 10.95 164.368 10.95 163.878 10.95C163.838 10.95 163.798 10.95 163.758 10.95C161.868 10.95 160.868 10.95 159.068 10.9C159.048 10.9 159.038 10.9 159.018 10.9H157.218C156.318 10.9333 155.525 10.8067 154.838 10.52H154.798V10.57Z" fill="white"/>
<path d="M188.029 22.84C188.029 22.84 187.989 22.87 187.959 22.88C186.869 23 185.869 23 184.999 22.88C184.939 22.88 184.879 22.88 184.819 22.88H178.409C178.349 22.88 178.289 22.88 178.199 22.88C176.879 23 175.879 23 175.369 23.34C175.309 23.38 175.249 23.42 175.179 23.47V33.95H177.769C178.099 33.95 178.359 34 178.549 34.09C178.569 34.09 178.589 34.11 178.609 34.12C179.879 35.01 181.879 33.01 182.879 35.01C181.879 34.01 180.879 36.01 179.879 36.01C177.879 34.01 183.879 39.01 180.879 35.01C179.879 37.01 177.879 36.01 176.399 35.89C176.359 35.89 176.319 35.89 176.269 35.89H171.069C170.609 35.89 170.279 35.8 170.079 35.61C169.879 35.43 169.779 35.2 169.779 34.92C169.779 34.63 169.879 34.4 170.079 34.23C170.279 34.05 170.609 33.95 171.069 33.95H173.249V29.92C173.249 29.8 173.249 29.68 173.269 29.55C174.399 28.46 174.739 27.65 174.279 26.7C174.259 26.65 174.229 26.6 174.189 26.55C173.879 25 171.879 27 171.879 26C171.879 25 172.879 24 174.279 24.24C174.339 24.24 174.399 24.24 174.459 24.22C175.419 24.06 176.149 23 176.879 23C175.879 22 173.879 23 173.949 21.1C173.959 21.07 173.969 21.04 173.979 21.01C174.049 20.8 174.089 20.6 174.109 20.41C174.109 20.38 174.109 20.36 174.109 20.33C171.879 20.01 170.879 20.01 168.879 19.01C170.069 18.42 171.249 18.18 172.159 17.97C172.219 17.96 172.269 17.94 172.329 17.93C174.879 17.01 172.879 15.01 173.249 14.14C173.249 14.09 173.249 14.05 173.249 14V10.94H172.059C171.589 10.94 171.249 10.86 171.049 10.69C170.849 10.51 170.749 10.27 170.749 9.97998C170.749 9.91998 170.749 9.86998 170.759 9.80998C170.879 7.98998 172.879 9.98998 173.579 9.00998H177.299C177.299 9.00998 177.339 9.00998 177.359 9.00998C177.549 9.00998 177.789 9.12998 178.029 9.31998C178.079 9.35998 178.129 9.39998 178.189 9.45998C177.889 10.99 180.889 8.98998 179.889 10.99C178.889 10.99 177.889 10.99 177.109 10.94H175.189V16.73C175.189 16.81 175.189 16.9 175.189 16.98C174.889 17 174.889 18 175.189 17.71V17.94C175.189 17.94 175.189 18.03 175.189 18.08C174.889 17.99 174.889 18.99 175.379 18.69C175.399 18.74 175.409 18.79 175.419 18.84C175.649 19.83 175.389 21.63 177.399 21.05C177.499 21.02 177.609 20.99 177.729 20.94C178.889 20.99 179.889 20.99 180.629 20.96C180.659 20.96 180.689 20.96 180.719 20.96C181.219 20.96 181.749 20.96 182.279 20.97C182.309 20.97 182.339 20.97 182.369 20.97C182.879 20.98 183.879 20.98 185.079 20.98C185.109 20.98 185.139 20.98 185.179 20.98C186.479 20.98 187.749 20.98 188.879 20.98C188.879 20.57 188.539 20.16 188.219 19.77C188.169 19.71 188.129 19.66 188.079 19.6C187.889 18.98 186.889 17.98 185.889 17.98C185.889 16.98 186.889 16.98 187.949 16.69C187.969 16.61 187.969 16.53 187.969 16.45V10.93H185.399C184.939 10.93 184.609 10.85 184.409 10.68C184.209 10.5 184.109 10.26 184.109 9.96998C184.109 9.90998 184.109 9.85998 184.119 9.79998C184.879 8.97998 185.879 8.97998 186.819 8.99998H189.589C190.079 8.99998 190.679 8.83998 191.199 8.75998C191.269 8.74998 191.329 8.73998 191.379 8.72998C190.879 8.97998 189.879 8.97998 189.879 8.97998C189.879 9.97998 190.879 10.98 191.459 10.91C191.419 10.91 191.359 10.92 191.299 10.93C191.239 10.93 191.169 10.93 191.109 10.93H189.919V12.3C188.889 12.98 191.889 13.98 191.219 14.63C191.239 14.65 191.269 14.67 191.289 14.68C191.609 14.91 191.959 15.12 192.369 15.21C192.389 15.21 192.399 15.21 192.419 15.22C186.889 14.98 186.889 15.98 192.739 15.9C192.719 15.9 192.689 15.9 192.669 15.91C191.619 16.05 190.239 15.43 188.839 16.4C188.829 16.43 188.809 16.46 188.799 16.48C188.749 16.62 188.749 16.75 188.799 16.87C188.799 16.89 188.819 16.92 188.819 16.94C188.889 16.97 188.889 17.97 189.279 17.49C189.309 17.51 189.329 17.53 189.359 17.55C189.819 17.95 190.319 18.26 189.889 18.48C189.899 18.54 189.899 18.59 189.899 18.65C189.899 19.66 189.899 20.62 189.929 22.17C189.929 22.25 189.929 22.33 189.929 22.4V23.98C191.309 24.66 192.209 25.35 193.309 25.71C193.359 25.73 193.419 25.74 193.419 26.31C193.359 26.34 193.309 26.36 193.259 26.39C192.179 26.92 191.279 27.69 189.909 27.08C189.909 27.14 189.909 27.2 189.909 27.26C189.909 27.81 189.909 28.35 189.939 28.85C189.929 28.98 189.919 29.1 189.919 29.23V33.9H190.659C191.889 33.96 192.889 33.96 193.889 33.96C193.222 33.96 193.052 34.2066 193.379 34.7C193.379 34.75 193.389 34.81 193.389 34.87C193.389 35.15 193.289 35.37 193.089 35.56C192.889 35.74 192.559 35.84 192.099 35.84H185.399C184.939 35.84 184.609 35.75 184.409 35.56C184.209 35.38 184.109 35.15 184.109 34.87C184.109 34.58 184.199 34.35 184.379 34.18C184.579 34 184.919 33.9 185.389 33.9H187.959V30.13C187.959 30 187.959 29.87 187.989 29.74C188.619 28.49 188.799 27.62 188.549 26.56C188.539 26.5 188.519 26.45 188.479 26.4C188.879 24.96 180.879 27.96 187.959 23.61C187.959 23.59 187.959 23.56 187.959 23.53C187.959 23.42 187.979 23.24 188.029 22.84C188.029 22.82 188.029 22.81 188.029 22.81V22.84Z" fill="white"/>
<path d="M201.402 10.95V19.29C201.402 19.36 201.402 19.43 201.362 19.5C199.872 21.01 197.872 19.01 195.872 20.01C197.872 22.01 200.872 20.01 202.682 20.95C202.892 20.95 202.982 20.95 203.072 20.95H204.472C207.082 20.95 209.232 21.34 210.942 22.13C210.992 22.15 211.032 22.17 211.042 22.18C210.862 24 212.862 23 213.432 23.86C213.452 23.88 213.482 23.91 213.502 23.93C214.252 24.75 214.742 25.73 214.972 26.85C214.972 26.88 214.982 26.91 214.992 26.94C215.862 26.99 216.862 27.99 216.862 28.99C216.862 29.99 214.862 27.99 214.982 29.91C214.982 29.94 214.972 29.97 214.962 30C214.772 30.96 214.392 31.83 213.832 32.6C213.812 32.62 213.792 32.65 213.772 32.67C211.862 31.98 211.862 34.98 209.862 33.98C210.862 32.98 210.862 35.98 211.582 34.65C211.562 34.67 211.532 34.68 211.512 34.7C210.252 35.47 208.832 35.85 207.262 35.85H198.492C198.422 35.85 198.352 35.85 198.252 35.85C196.852 35.98 194.852 35.98 193.852 35.98C194.852 35.98 195.852 35.98 195.582 35.05C195.582 35 195.572 34.94 195.572 34.88C195.572 34.24 196.002 33.92 196.862 33.92H199.452V31.51C199.452 31.42 199.452 31.33 199.492 31.24C200.852 29.98 200.852 28.98 199.702 28.43C199.702 28.4 199.702 28.38 199.702 28.35C199.772 27.64 199.762 26.99 199.662 26.22C199.662 26.19 199.662 26.16 199.682 26.14C200.842 24.99 202.842 26.99 202.842 24.99C201.842 24.99 199.842 24.99 199.462 23.28C199.462 23.26 199.462 23.25 199.452 23.23V18.68C199.452 18.68 199.452 18.62 199.452 18.6C198.862 16 194.862 21 194.862 18C194.862 17 197.862 19 198.862 17C198.195 17 197.548 17.0033 196.922 17.01C196.922 17.01 196.842 17.01 196.802 17C195.022 16.84 193.662 16.69 197.652 16.4C197.692 16.4 197.742 16.4 197.782 16.4C197.852 16.01 198.852 16.01 198.382 16.33C198.402 16.33 198.422 16.33 198.432 16.32C198.852 16.21 199.142 16.01 199.012 15.56C199.012 15.54 199.002 15.53 198.992 15.51C198.852 15 197.852 14 196.852 14C197.852 13 198.852 13 200.852 13C200.185 13 199.722 12.7633 199.462 12.29C199.462 12.29 199.462 12.25 199.462 12.23V10.94H196.872C196.012 10.94 195.582 10.62 195.582 9.97999C195.582 9.91999 195.582 9.86999 195.592 9.80999C196.862 7.98999 198.862 9.98999 199.862 8.98999C199.195 8.98999 198.685 8.99666 198.332 9.00999C198.332 9.00999 198.402 9.00999 198.472 9.00999H202.442C202.852 8.98999 201.852 8.98999 201.852 8.98999C202.852 9.98999 204.852 7.98999 205.252 9.80999C205.252 9.85999 205.262 9.91999 205.262 9.97999C205.262 10.62 204.832 10.94 203.972 10.94H201.382L201.402 10.95ZM202.972 33.94H205.702C206.872 34 207.872 34 208.562 33.82C208.582 33.81 208.632 33.8 208.692 33.78C209.792 33.55 210.722 33.06 211.492 32.3C212.192 31.61 212.672 30.85 212.932 30.02C212.952 29.96 212.962 29.91 212.992 29.85C213.862 28.99 213.862 27.99 212.992 27.06C212.962 27.01 212.942 26.95 212.922 26.9C212.902 26.85 212.882 26.79 212.862 26.74C213.872 24.99 209.872 26.99 210.622 25.45C210.592 25.44 210.542 25.42 210.472 25.4C209.312 25.03 208.592 23.99 207.872 23.99C208.538 23.99 209.105 23.9033 209.572 23.73C209.572 23.73 209.472 23.69 209.422 23.67C208.072 23.15 206.372 22.89 204.312 22.89H201.392V23.33C201.392 23.39 201.392 23.45 201.392 23.51C200.872 23.99 199.872 24.99 199.872 25.99C199.872 25.99 200.872 25.99 201.082 26.37C201.082 26.43 201.082 26.49 201.072 26.54C200.982 27.22 200.982 27.8 201.092 28.44C201.092 28.5 201.112 28.56 201.172 28.6C201.872 28.98 203.872 28.98 204.872 28.98C203.872 28.98 202.872 30.98 201.442 31.41C201.412 31.48 201.402 31.53 201.402 31.59V32.35C201.402 32.42 201.402 32.49 201.432 32.56C201.872 32.98 202.872 33.98 202.542 33.91C202.542 33.91 202.542 33.92 202.962 33.92L202.972 33.94ZM219.742 10.95V17.15C219.742 17.15 219.732 17.24 219.722 17.29C219.872 18 216.872 18 219.122 20.07C219.122 20.13 219.122 20.18 219.102 20.23C219.022 20.82 219.232 21.37 219.732 21.89V33.94H222.302C223.172 33.94 223.612 34.26 223.612 34.9C223.612 35.54 223.172 35.86 222.302 35.86H215.212C214.342 35.86 213.902 35.54 213.902 34.9C213.902 34.26 214.342 33.94 215.212 33.94H216.402C217.872 34 218.872 34 219.872 34C218.872 34 217.872 33 217.792 32.4V29.48C217.792 29.48 217.792 29.4 217.792 29.37C217.352 28.72 217.792 28.38 218.172 28.05C218.212 28.01 218.252 27.98 218.292 27.94C219.452 27.26 216.562 26.54 216.452 25.82C216.452 25.78 216.452 25.74 216.452 25.71C213.882 24.02 220.882 26.02 217.812 23.58C217.802 23.52 217.802 23.46 217.802 23.4V21.63C217.882 21.02 217.882 20.02 217.802 19.17V12.61C217.802 12.55 217.802 12.5 217.792 12.44C216.892 12.02 215.892 12.02 216.342 10.96C216.302 10.96 216.222 10.96 216.142 10.96H215.242C215.162 10.96 215.092 10.96 215.042 10.96C215.762 8.47999 216.582 13.02 216.822 12.17C216.832 12.13 216.842 12.08 216.822 12.01C216.892 12.01 215.892 11.01 216.382 10.74C216.372 10.71 216.322 10.68 216.272 10.64C215.702 10.26 214.952 9.64999 215.042 9.04999C215.092 9.02999 215.162 9.02999 215.242 9.02999H222.332C223.202 9.02999 223.642 9.34999 223.642 9.98999C223.642 10.63 223.202 10.95 222.332 10.95H219.742Z" fill="white"/>
<path d="M228.571 33.94V28.48C228.571 28.4 228.571 28.33 228.551 28.25C226.871 26.99 227.871 26.99 228.571 25.6V19.41C228.821 19.33 229.051 19.27 229.281 19.22C229.341 19.21 229.391 19.19 229.451 19.18C230.398 19.0533 231.218 19.0033 231.911 19.03C231.911 19.03 231.951 19.03 231.961 19.03C232.581 19.04 233.071 19.08 233.491 19.19C233.511 19.19 233.541 19.2 234.121 18.66C234.091 18.66 234.061 18.64 234.031 18.64C233.481 18.51 232.751 18.68 232.101 18.78C232.081 18.78 232.071 18.78 232.051 18.78C230.861 20 230.861 17 229.381 17.58C229.341 17.55 229.301 17.52 229.261 17.48C229.241 17.46 229.211 17.44 229.191 17.42C227.861 16.99 226.861 15.99 226.861 14.99C227.528 14.99 228.095 14.85 228.561 14.57V10.93H225.971C225.111 10.93 224.691 10.61 224.691 9.96999C224.691 9.32999 225.121 9.00999 225.971 9.00999H234.051C234.921 9.00999 235.361 9.32999 235.361 9.96999C235.361 10.61 234.921 10.93 234.051 10.93H230.491V16.63C230.491 16.73 230.491 16.82 230.491 16.93C230.861 17.99 230.861 18.99 230.491 19.7C230.491 19.74 230.491 19.78 230.491 19.82V26.75C230.491 26.84 230.491 26.92 230.511 27C230.861 27.98 230.861 28.98 230.501 29.56C230.501 29.63 230.501 29.7 230.501 29.77V33.07L239.351 18.1C239.351 18.1 239.371 18.07 239.381 18.05C237.871 17.98 239.871 16.98 238.861 16.05C238.811 16.05 238.751 16.05 238.691 16.04C237.401 15.99 236.441 15.99 234.871 15.99C236.871 15.99 237.871 13.99 240.301 14.92C240.341 14.92 240.371 14.91 240.411 14.9C240.831 14.82 241.221 14.68 241.531 14.41L241.651 14.21L244.721 9.00999H249.771C250.631 9.00999 251.061 9.32999 251.061 9.96999C251.061 10.61 250.631 10.93 249.771 10.93H247.181V22.6C247.181 22.68 247.181 22.77 247.211 22.86C252.871 22.98 252.871 23.98 247.181 24.34V28.53C247.181 28.61 247.181 28.69 247.181 28.77C246.968 29.5767 246.968 30.3 247.181 30.94C247.181 31 247.181 31.07 247.181 31.13V33.93H248.091C248.171 33.93 248.261 33.93 248.361 33.93C248.871 34.99 250.871 32.99 251.051 34.73C251.051 34.78 251.061 34.84 251.061 34.9C251.061 35.54 250.631 35.86 249.771 35.86H242.661C242.581 35.86 242.511 35.86 242.441 35.86C240.871 35 241.871 35 242.441 33.95C242.511 33.95 242.581 33.95 242.661 33.95H245.251V31.05C245.251 30.98 245.251 30.92 245.251 30.85C243.851 30 246.851 30 245.251 28.86C245.251 28.78 245.241 28.7 245.241 28.62V25.11C245.241 25.03 245.241 24.95 245.261 24.87C245.661 24.9567 246.195 25 246.861 25C246.861 24.43 246.861 23.53 246.561 22.89C246.531 22.84 246.511 22.78 246.481 22.73C246.735 22.2433 247.195 22 247.861 22C247.861 20 244.861 22 245.281 20.44C245.241 20.35 245.241 20.26 245.241 20.16V11.84L243.821 14.25C243.771 14.33 243.731 14.41 243.621 14.49C243.011 15.7 240.971 14.66 240.181 15.22C240.141 15.25 240.101 15.28 240.071 15.32C239.861 16 239.861 17 238.861 17C239.861 18 240.861 15 241.361 16.02C241.431 16.02 241.481 16.02 241.541 16.04C241.761 16.11 241.921 16.32 241.941 16.8C241.941 16.87 241.951 16.95 241.961 17.04C241.961 17.13 241.981 17.22 241.991 17.32C241.971 17.38 241.931 17.45 241.901 17.51L237.191 25.47C237.191 25.47 237.161 25.52 237.141 25.55C234.861 26 233.861 26 235.791 28.15C235.811 28.23 235.821 28.31 235.821 28.38C235.841 29.07 235.711 29.67 234.851 29.42L234.821 29.47L231.851 34.5C231.851 34.5 231.821 34.55 231.811 34.57C232.871 34.99 233.871 34.99 232.871 35.99C231.871 35.99 230.871 35.99 229.581 35.86C229.491 35.86 229.401 35.86 229.321 35.86H225.981C225.121 35.86 224.701 35.54 224.701 34.9C224.701 34.84 224.701 34.79 224.711 34.73C224.881 32.99 226.881 34.99 227.431 33.94C227.501 33.94 227.591 33.94 227.671 33.94H228.581H228.571ZM232.771 -9.76585e-06C233.051 -9.76585e-06 233.271 0.0799902 233.441 0.24999C233.611 0.39999 233.711 0.68999 233.741 1.09999C233.831 1.96999 234.331 2.74999 235.231 3.43999C236.121 4.12999 237.281 4.46999 238.721 4.46999C240.161 4.46999 241.301 4.12999 242.191 3.43999C243.091 2.74999 243.591 1.96999 243.681 1.09999C243.731 0.68999 243.821 0.40999 243.961 0.26999C244.161 0.0899902 244.391 -0.0100098 244.651 -0.0100098C244.931 -0.0100098 245.151 0.0899902 245.341 0.28999C245.541 0.46999 245.641 0.72999 245.641 1.04999C245.641 2.42999 245.011 3.66999 243.761 4.76999C242.521 5.86999 240.851 6.41999 238.731 6.41999C236.611 6.41999 234.941 5.86999 233.681 4.76999C232.441 3.66999 231.821 2.42999 231.821 1.04999C231.821 0.72999 231.911 0.47999 232.091 0.28999C232.271 0.0899902 232.501 -0.0100098 232.781 -0.0100098L232.771 -9.76585e-06Z" fill="white"/>
<path d="M306.329 36.94C304.869 37 303.869 35 303.349 35.88C303.319 35.88 303.289 35.88 303.259 35.88H300.469C300.409 35.88 300.339 35.88 300.299 35.9C300.869 36.02 301.869 36.02 300.869 37.02C299.869 38.02 298.869 35.02 297.349 36.04C297.319 36.04 297.289 36.04 297.259 36.04C296.859 36.07 296.509 36.12 296.189 36.21C296.169 36.21 296.139 36.22 296.119 36.23C294.869 33.01 294.869 40.01 293.739 36C293.709 36 293.689 36 293.659 36C293.609 36 293.549 36 293.489 36C293.459 36 293.439 36 293.459 35.97C293.469 35.97 293.489 35.97 293.509 35.97C293.529 35.97 293.539 35.97 293.559 35.97C293.539 35.97 293.519 35.97 293.489 35.97C292.879 37.01 290.879 35.01 290.579 36.52C290.559 36.5 290.529 36.49 290.509 36.47C290.419 36.41 290.339 36.34 290.249 36.27C290.239 36.26 290.229 36.25 290.209 36.24C288.879 36.01 287.879 36.01 287.299 35.88C287.279 35.88 287.249 35.88 287.229 35.88H283.869V39.35C283.869 39.35 283.869 39.44 283.879 39.48C283.879 40.01 285.879 41.01 285.879 41.01C285.879 43.01 283.879 41.01 283.309 42.35C283.289 42.36 283.269 42.37 283.249 42.38C283.139 42.42 283.019 42.44 282.879 42.44C282.719 42.44 282.589 42.41 282.469 42.34C282.449 42.33 282.429 42.32 282.409 42.31C281.879 42.01 280.879 42.01 280.879 42.01C279.879 41.01 281.879 40.01 281.939 39.38C281.939 39.36 281.939 39.34 281.939 39.32V38.01C281.939 38.01 281.939 37.97 281.939 37.95C281.879 36.01 283.879 38.01 283.879 37.01C284.559 34.96 282.919 36.18 281.779 36.33C281.759 36.33 281.749 36.33 281.729 36.33C280.879 36 279.879 34 278.879 35C278.879 33 280.879 35 281.579 34.07C281.599 34.07 281.619 34.07 281.629 34.07C281.699 34.07 281.769 34.07 281.849 34.07C281.889 34.07 281.919 34.07 281.949 34.07C283.879 34 284.879 34 286.879 34C284.879 35 284.879 32 282.879 32C284.879 30 285.879 33 286.879 33.26C286.899 33.26 286.909 33.27 286.929 33.28C287.789 33.63 288.389 33.59 287.099 31.52C287.109 31.5 287.129 31.48 287.149 31.45C288.869 29.99 287.869 29.99 287.259 29.01C287.259 28.98 287.259 28.95 287.249 28.93C287.229 28.64 287.379 28.42 287.589 28.26C287.609 28.24 287.629 28.23 287.659 28.21C288.879 28 288.879 27 289.219 25.83C289.219 25.8 289.219 25.78 289.219 25.75C289.259 25.27 289.299 24.76 289.319 24.22C289.319 24.2 289.319 24.19 289.319 24.17C288.869 22.01 286.869 22.01 287.869 20.01C287.869 20.6767 288.359 21.08 289.339 21.22C289.339 21.22 289.339 21.16 289.339 21.14V14.15C289.339 14.15 289.339 14.11 289.339 14.09C289.869 13.01 286.869 13.01 287.869 12.01C288.869 12.01 289.869 12.01 290.679 11.93C290.709 11.93 290.739 11.93 290.759 11.94C291.149 12 291.339 11.94 290.869 11C290.139 10.27 288.359 10.6 286.829 10.65C286.799 10.65 286.759 10.65 286.719 10.65C285.519 10.22 285.099 11.32 284.409 11.89C284.389 11.91 284.359 11.93 284.339 11.94C283.869 11.99 284.869 11.99 284.869 11.99H280.869C281.869 12.99 282.869 10.99 283.659 10.68C283.679 10.66 283.689 10.64 283.709 10.62C284.559 9.54 285.739 9 288.159 9.01C288.179 9.01 288.209 9.01 288.229 9.01H289.529C289.589 9.01 289.649 9.01 289.719 9.01C291.869 7.99 292.869 10.99 295.069 9.01H303.569C305.869 8.99 308.869 6.99 308.869 10.99C305.869 9.99 303.869 11.99 300.869 11.99C301.869 12.99 302.869 10.99 303.599 10.94C303.569 10.94 303.539 10.94 303.499 10.94H303.089V12.74C303.089 12.74 303.089 12.82 303.089 12.87C303.869 12.99 304.869 13.99 304.869 14.99C303.869 14.99 302.869 14.99 301.599 14.91C301.559 14.91 301.529 14.93 301.499 14.93C300.639 15.13 299.869 15.36 299.869 15.98C299.869 16.98 301.869 16.98 302.999 17.3C303.089 17.38 303.089 17.47 303.089 17.55V22.43C302.869 23.97 302.869 24.97 303.089 27.26V33.91H304.769C304.829 33.91 304.889 33.91 304.929 33.91C303.869 35.97 307.869 33.97 306.699 35.56C306.699 35.58 306.699 35.61 306.699 35.64V39.28C306.699 39.28 306.699 39.36 306.699 39.39C306.806 39.7767 306.526 39.97 305.859 39.97C306.859 38.97 307.859 40.97 308.859 40.97C309.859 42.97 307.859 40.97 306.859 42.29C306.859 42.32 306.859 42.35 306.859 42.38C306.859 42.53 306.859 42.72 306.859 42.97C305.859 42.97 304.859 41.97 304.819 41.37C304.799 41.3 304.789 41.22 304.789 41.15C304.789 41.07 304.789 40.99 304.789 40.91V37.44C304.789 37.44 304.789 37.36 304.789 37.32C304.869 36.97 305.869 36.97 306.329 36.92C306.329 36.91 306.329 36.9 306.329 36.9V36.94ZM291.269 10.95V22.7C291.269 26.52 290.649 29.48 289.419 31.59C289.389 31.63 289.369 31.68 289.339 31.72C290.869 31 291.869 33 292.869 33C291.399 33 289.929 33 288.509 33C288.479 33 288.449 33 288.419 33C287.869 33 285.869 33 285.349 33.13C285.309 33.13 285.269 33.14 285.239 33.15C283.899 33.35 283.989 33.67 285.559 33.83C285.599 33.83 285.649 33.83 285.699 33.84C286.479 33.9467 287.256 33.9933 288.029 33.98C288.029 33.98 288.089 33.98 288.119 33.98C288.599 33.98 289.149 33.98 289.579 33.94H301.139V30.45C301.139 30.45 301.139 30.38 301.159 30.35C301.879 30 303.879 30 304.879 30C304.879 27.05 301.989 28.93 301.209 27.52C301.209 27.49 301.189 27.47 301.189 27.44C301.889 28 302.889 26 303.889 26C301.889 27 300.889 25 299.829 25.22C299.809 25.19 299.799 25.16 299.789 25.13C299.719 24.77 300.369 24.43 301.089 23.56C301.109 23.53 301.129 23.5 301.159 23.46V10.94H291.289L291.269 10.95Z" fill="white"/>
<path d="M334.351 22.51C334.351 24.5 334.041 26.38 333.411 28.16C333.391 28.22 333.371 28.27 333.361 28.33C334.881 30 332.881 30 332.091 30.98C332.071 31.01 332.061 31.03 332.041 31.06C331.391 32.12 330.621 33.03 329.751 33.81C329.731 33.83 329.711 33.85 329.681 33.87C329.871 33.89 330.021 33.91 330.161 33.92C330.231 33.92 330.291 33.93 330.371 34.01C330.341 34.01 330.311 34.01 330.281 34.01C329.461 34.03 328.581 34.08 327.721 34.2C327.691 34.2 327.661 34.2 327.621 34.21C326.891 34.99 325.891 32.99 326.051 34.54C326.021 34.54 325.991 34.56 325.961 34.57C325.581 34.69 325.221 34.82 324.891 34.99C325.081 35.18 325.271 35.26 325.451 35.28C325.511 35.28 325.571 35.28 325.631 35.28C325.891 34.99 325.891 35.99 325.761 36.12C325.741 36.12 325.711 36.14 325.681 36.15C325.201 36.3 324.711 36.42 324.221 36.49C324.191 36.49 324.161 36.49 324.131 36.5C322.891 37.98 321.891 37.98 321.171 36.52C321.121 36.5 321.061 36.49 321.001 36.48C318.551 36.1 316.351 34.82 314.391 32.66C314.031 32.25 313.691 31.83 313.381 31.38C313.351 31.33 313.311 31.28 313.281 31.23C314.881 31.98 314.881 28.98 316.881 29.98C314.881 29.98 312.881 27.98 311.281 28.97C311.241 28.94 311.201 28.9 311.161 28.87C310.781 28.53 310.671 28.08 311.451 27.18C311.451 27.15 311.441 27.12 311.431 27.09C311.181 26.14 311.011 25.13 310.921 24.07C310.921 24.04 310.921 24.01 310.921 23.98C309.891 23.98 308.891 22.98 308.891 21.98C308.891 20.98 310.891 22.98 310.911 21.02C310.911 21 310.911 20.99 310.911 20.97C311.171 17.51 312.331 14.63 314.391 12.32C316.761 9.68999 319.501 8.37 322.611 8.37C324.711 8.37 326.661 8.98 328.491 10.21C329.451 10.86 330.301 11.63 331.041 12.55C331.061 12.57 331.081 12.6 331.091 12.62C329.891 12.98 328.891 12.98 328.891 12.98C327.891 14.98 330.891 12.98 331.281 15.19C331.281 15.21 331.281 15.24 331.281 15.26C331.321 15.57 331.601 15.77 331.941 15.94C331.971 15.95 331.991 15.97 332.021 15.98C332.891 14.98 333.891 16.98 334.891 16.98C335.891 17.98 334.891 17.98 333.811 18.12C333.831 18.18 333.841 18.24 333.861 18.29C334.201 19.63 334.371 21.03 334.371 22.49L334.351 22.51ZM325.851 23.01C326.531 23.0033 327.024 22.7733 327.331 22.32C327.331 22.32 327.371 22.3 327.391 22.28C327.641 22.14 327.951 22.06 328.321 22.01C328.351 22.01 328.381 22.01 328.411 22C329.871 22 330.871 22 331.371 21.92C331.431 21.91 331.481 21.9 331.541 21.88C331.911 21.77 332.211 21.52 332.321 21C332.321 20.97 332.321 20.94 332.321 20.91C332.111 18.93 331.521 17.08 330.531 15.38C330.521 15.35 330.501 15.33 330.491 15.3C330.084 14.4333 329.521 13.6667 328.801 13C328.741 12.94 328.701 12.9 328.651 12.85C327.001 11.16 324.981 10.32 322.601 10.32C320.911 10.32 319.371 10.79 317.981 11.72C317.951 11.74 317.931 11.75 317.901 11.77C318.871 11.99 318.871 12.99 318.871 12.99H313.871C313.871 12.99 314.871 12.99 315.251 13.16C315.231 13.16 315.221 13.17 315.201 13.18C314.941 13.3 314.701 13.44 314.471 13.59C314.451 13.61 314.421 13.62 314.401 13.64C314.871 13.99 313.871 13.99 313.421 14.46C313.401 14.48 313.381 14.5 313.361 14.52C313.201 14.68 313.041 14.84 312.881 15C312.991 15 313.091 15 313.181 15C313.201 15 313.221 15 313.231 15C314.871 15 315.871 16 316.871 17C315.871 18 314.871 16 314.041 16.47C314.031 16.5 314.011 16.52 314.001 16.55C313.581 17.46 313.271 18.42 313.071 19.43C313.071 19.46 313.061 19.49 313.051 19.52C312.871 22.99 308.871 20.99 308.871 22.99C308.871 23.99 311.871 21.99 311.911 23.59C311.931 23.62 311.941 23.66 311.961 23.69C312.181 24.11 312.411 24.43 312.831 24.01C312.831 24.03 312.831 24.04 312.831 24.06C313.031 26.34 313.691 28.32 314.791 30.01C314.811 30.03 314.821 30.06 314.841 30.08C313.861 31.98 317.861 29.98 316.851 32.37C316.861 32.38 316.871 32.39 316.891 32.4C318.181 33.53 319.561 34.24 321.041 34.53C321.071 34.53 321.101 34.54 321.121 34.54C321.861 32.97 322.861 33.97 324.081 34.56C324.111 34.56 324.141 34.56 324.171 34.55C326.351 34.17 328.181 32.98 329.661 30.96C331.171 28.9 332.051 26.61 332.311 24.1C332.311 24.07 332.311 24.04 332.311 24.01C331.721 24 331.211 23.66 330.721 23.31C330.671 23.27 330.621 23.24 330.571 23.2C330.091 23.0467 329.601 23.0433 329.101 23.19C329.101 23.19 329.071 23.19 329.051 23.19C328.701 23.2 328.341 23.12 328.001 23.05C327.981 23.05 327.971 23.05 327.951 23.05C327.218 23.01 326.474 23.01 325.721 23.05C325.721 23.05 325.781 23.02 325.831 23.01H325.851Z" fill="white"/>
<path d="M360.581 10.88C359.491 10.88 358.651 11.11 358.031 11.57C357.431 12.01 356.471 13.38 355.141 15.66C353.951 17.72 352.981 19.21 352.251 20.14C352.231 20.16 352.221 20.18 352.201 20.2C351.881 22.01 354.881 20.01 353.881 22.01C353.881 22.01 352.881 22.01 352.401 21.95C352.411 21.96 352.431 21.98 352.461 21.99C353.861 23.02 355.181 24.75 356.421 27.2L359.841 33.95H362.691C362.781 33.95 362.861 33.95 362.951 33.95C363.041 33.95 363.111 33.96 363.201 33.97C363.901 35.01 365.901 33.01 366.901 35.01C364.901 34.01 364.901 37.01 363.201 35.85C363.111 35.86 363.031 35.87 362.951 35.87C362.871 35.87 362.781 35.87 362.691 35.87H360.251C360.251 35.87 360.191 35.87 360.161 35.87C358.648 35.95 357.914 35.49 357.961 34.49C357.961 34.49 357.941 34.45 357.931 34.43L354.661 28.01C353.921 26.57 353.201 25.44 352.501 24.62C352.461 24.58 352.431 24.54 352.391 24.5C350.901 22.99 348.901 24.99 347.901 23.99C346.901 21.99 348.901 23.99 349.911 22.87C349.901 22.87 349.881 22.85 349.861 22.84C349.021 22.57 348.051 22.43 346.941 22.43H345.471V32.34C345.471 32.34 345.471 32.41 345.461 32.44C344.911 33.99 342.911 31.99 341.911 33.99C343.911 33.99 344.911 33.99 346.991 33.93H347.971C349.061 33.93 349.601 34.25 349.601 34.89C349.601 35.05 349.571 35.19 349.501 35.31C349.481 35.35 349.451 35.39 349.421 35.42C348.911 35.98 347.911 35.98 346.461 35.85H341.071C340.941 35.85 340.811 35.85 340.691 35.83C340.671 35.83 340.651 35.83 340.641 35.83C340.921 34.98 341.921 33.98 342.551 33.92C342.571 33.92 342.601 33.92 342.621 33.92H343.521V20.48C343.781 20.14 343.788 19.6866 343.541 19.12C343.521 19.03 343.521 18.94 343.521 18.85V10.92H342.801C342.721 10.92 342.641 10.92 342.551 10.92C341.911 10.97 340.911 10.97 339.641 10.49C339.611 10.45 339.591 10.42 339.561 10.38C339.491 10.26 339.461 10.12 339.461 9.95997C339.461 9.31997 340.001 8.99997 341.071 8.99997H347.981C348.071 8.99997 348.161 8.99997 348.241 8.99997C348.321 8.99997 348.401 9.00997 348.471 9.01997C348.771 9.6533 348.771 10.2766 348.471 10.89C348.401 10.89 348.321 10.9 348.241 10.91C348.161 10.91 348.071 10.91 347.981 10.91H347.001C348.921 12.96 342.921 7.95997 345.481 12.4C345.481 12.42 345.481 12.43 345.481 12.45V14.12C345.481 14.12 345.511 14.16 345.531 14.18C346.921 14.96 347.921 14.96 349.921 14.96C348.921 16.96 346.921 14.96 345.531 17.02C345.511 17.04 345.501 17.07 345.481 17.09V18.89C345.481 18.89 345.481 18.92 345.481 18.94C345.921 19.96 345.921 20.96 348.381 20.31C348.391 20.31 348.411 20.3 348.431 20.29C349.111 20.14 349.661 19.89 350.091 19.52C350.661 19.03 351.471 17.92 352.551 16.2C352.591 16.13 352.631 16.07 352.671 16C351.921 15.97 350.921 13.97 348.921 14.97C349.921 12.97 352.921 14.97 354.211 13.42C354.241 13.39 354.271 13.35 354.301 13.32C354.841 12.46 355.321 11.76 355.751 11.19C355.791 11.14 355.821 11.1 355.871 11.05C356.921 10.96 357.921 9.95997 358.131 9.29997C358.161 9.29997 358.181 9.27997 358.211 9.26997C358.501 9.17997 358.811 9.10997 359.151 9.05997C359.171 9.05997 359.181 9.05997 359.201 9.05997C360.911 8.96997 362.911 8.96997 363.911 8.96997C364.911 9.96997 361.911 9.96997 362.571 10.72C362.571 10.74 362.571 10.76 362.571 10.79V13.15C362.571 14.21 362.251 14.73 361.611 14.73C360.971 14.73 360.621 14.23 360.621 13.24V10.85L360.581 10.88Z" fill="white"/>
<path d="M371.111 10.95L371.981 12.55C372.021 12.62 372.061 12.69 372.091 12.77C371.871 14.01 371.871 15.01 372.071 15.75C372.111 15.83 372.141 15.9 372.171 15.96C372.291 16.21 372.331 16.32 372.051 15.98C372.081 15.98 372.121 15.96 372.151 15.95C373.051 15.68 374.081 15.45 374.281 16.79C374.301 16.81 374.311 16.83 374.321 16.85L375.901 19.76L375.931 19.82C375.601 20.05 375.351 20.26 375.151 20.45C375.081 20.51 375.021 20.57 374.961 20.63C371.881 25 377.881 20 376.221 22.07C376.301 22.07 376.361 22.06 376.411 22.05C377.231 21.99 378.051 21.99 378.881 21.99C379.881 22.99 376.881 22.99 378.091 23.76C378.111 23.81 378.141 23.86 378.161 23.91L378.601 24.73L378.671 24.85C380.881 24.99 382.881 25.99 384.881 24.99C382.881 25.99 382.881 22.99 380.901 23.53L380.981 23.38L382.951 19.75C382.951 19.75 382.971 19.71 382.981 19.69C382.881 19 381.881 18 380.881 18C381.881 17 382.881 17 384.411 17.08L384.481 16.96L387.741 10.95H387.561C387.501 10.95 387.431 10.95 387.301 10.95C385.881 11 384.881 11 383.881 11C383.881 11 384.881 11 384.521 10.52C384.491 10.48 384.461 10.45 384.441 10.41C384.371 10.29 384.341 10.15 384.341 9.99001C384.341 9.35001 384.881 9.03001 385.971 9.03001H388.061C388.881 9.01001 390.881 9.01001 391.881 9.01001C390.881 9.01001 388.881 9.01001 388.181 9.01001C388.071 9.01001 387.981 9.01001 387.881 9.01001H391.881C391.881 9.01001 390.881 9.01001 391.151 9.01001H393.881C393.881 9.01001 392.881 9.01001 392.531 9.46001C392.541 9.48001 392.561 9.50001 392.571 9.51001C392.661 9.64001 392.711 9.80001 392.711 9.99001C392.711 10.63 392.171 10.95 391.101 10.95H389.951L388.781 13.09C388.781 13.09 388.751 13.14 388.741 13.17C388.781 13.74 389.001 13.94 389.291 13.97C389.351 13.97 389.411 13.97 389.511 13.97C390.861 13.99 392.861 13.99 393.861 13.99C392.861 14.99 391.861 14.99 389.691 14.97C389.631 14.97 389.561 14.97 389.491 14.97C388.621 14.95 387.601 14.8 387.311 15.76L387.281 15.81L385.651 18.8C385.651 18.8 385.631 18.84 385.621 18.86C385.641 18.95 385.661 19.04 385.721 19.12C385.751 19.14 385.781 19.16 385.811 19.17C385.861 18.98 386.861 19.98 386.911 19.66C386.941 19.66 386.971 19.68 387.001 19.69C389.161 20.34 391.261 19.58 393.351 19.71C393.381 19.71 393.411 19.71 393.391 20C393.361 20 393.331 20 393.291 20C391.331 20.01 389.371 20.08 387.401 20.39C387.371 20.39 387.341 20.39 387.311 20.4C386.851 22 384.851 20 383.851 21C383.851 21 384.851 21 384.521 21.4C384.481 21.39 384.451 21.37 384.411 21.34C384.381 21.31 384.341 21.28 384.311 21.23C384.301 21.25 384.291 21.27 384.281 21.29L379.171 30.65C379.171 30.65 379.151 30.69 379.141 30.71C379.441 30.83 379.791 31.25 380.161 31.63C380.211 31.68 380.261 31.72 380.301 31.77C380.661 31.9233 380.827 32.3533 380.801 33.06C380.801 33.06 380.751 33.09 380.721 33.1C379.721 33.51 378.521 33.06 377.791 33.21C377.701 33.25 377.651 33.31 377.621 33.36C377.071 34.19 376.501 34.88 375.901 35.43C375.001 36.24 373.851 36.65 372.461 36.65C372.281 36.65 372.111 36.65 371.931 36.64C371.871 36.64 371.811 36.64 371.761 36.63C371.841 35.01 369.841 37.01 368.901 35.67C368.881 35.64 368.871 35.6 368.861 35.56C368.781 35.32 368.741 34.96 368.741 34.51V31.73C368.741 30.67 369.051 30.15 369.681 30.15C369.791 30.15 369.891 30.16 369.981 30.19C370.031 30.2 370.071 30.22 370.111 30.24C371.841 30.02 371.841 32.02 370.691 33C370.661 33.09 370.661 33.18 370.661 33.26V34.39C371.441 34.6 372.101 34.71 372.631 34.71C373.491 34.71 374.191 34.46 374.741 33.95C375.081 33.64 375.461 33.17 375.861 32.54C375.881 32.51 375.901 32.49 375.911 32.46C374.831 30.01 377.831 32.01 377.431 29.75C377.441 29.73 377.451 29.71 377.461 29.69C377.471 29.67 377.491 29.65 377.501 29.63C377.821 28 379.821 30 379.821 29C380.821 27 376.821 29 377.461 27.05C377.451 27.03 377.431 27 377.421 26.98L376.191 24.72C376.191 24.72 376.171 24.69 376.161 24.67C376.001 24.37 375.521 24.01 375.121 23.61C375.071 23.56 375.021 23.51 374.951 23.46C371.811 22.99 372.811 21.99 374.011 20.7L373.921 20.54L371.631 16.32C371.631 16.32 371.601 16.27 371.591 16.24C372.801 15.99 374.801 15.99 373.801 13.99C373.801 13.99 373.761 13.99 373.691 13.99C373.661 13.99 373.611 13.99 373.551 13.99C372.801 13.99 370.801 13.99 369.801 13.99C370.801 13.99 372.801 13.99 373.651 13.86C373.701 13.9 373.751 13.94 373.801 13.99C373.761 13.95 373.721 13.91 373.681 13.88C373.641 13.85 373.591 13.82 373.541 13.79C372.801 14.99 371.801 11.99 370.951 13.29C370.891 13.27 370.831 13.26 370.761 13.24C370.741 13.24 370.731 13.24 370.721 13.23C369.811 13 368.811 12 368.801 11.11C368.791 11.09 368.781 11.07 368.771 11.06L368.711 10.94H367.471C367.381 10.94 367.301 10.94 367.211 10.94C367.121 10.94 367.051 10.93 366.951 10.92C365.671 10.97 364.801 10.99 364.091 10.78C364.041 10.77 364.001 10.75 363.961 10.74C363.801 11 363.801 10 363.731 9.92001C363.731 9.88001 363.731 9.84001 363.731 9.79001C363.721 9.69001 363.691 9.57001 363.641 9.39001C363.661 9.38001 363.681 9.37001 363.701 9.36001C364.181 9.14001 364.721 9.06001 365.431 9.04001C365.461 9.04001 365.491 9.04001 365.521 9.04001C366.801 9.00001 367.801 9.00001 368.391 9.02001C368.431 9.02001 368.471 9.02001 368.501 9.02001H371.761C373.141 9.01001 374.051 9.00001 375.111 9.00001C375.171 9.00001 375.221 9.00001 375.281 9.00001C376.801 8.00001 379.801 11 381.801 10C379.801 10 377.801 10 375.561 9.59001C375.451 9.59001 375.391 9.62001 375.341 9.64001C374.191 10.07 373.281 10.27 371.911 10.97C371.841 10.95 371.751 10.94 371.661 10.94H371.041L371.111 10.95Z" fill="white"/>
<path d="M409.32 28.03C408.85 28.03 408.23 28.12 407.62 28.17C407.55 28.17 407.49 28.18 407.42 28.18C407.053 28.06 406.977 27.7267 407.19 27.18C407.19 27.18 407.29 27.15 407.34 27.14C408 27 408.79 27 409.87 27C408.87 25 405.87 27 405.13 25.09C405.1 25.06 405.09 25.04 405.08 25.01L403.52 21.47C403.52 21.47 403.5 21.43 403.49 21.41C404.86 20 401.86 20 402.37 18.87L402.31 18.75C402.31 18.75 402.29 18.71 402.28 18.69C401.86 18.01 398.86 18.01 401.14 16.09C401.14 16.07 401.12 16.05 401.12 16.03L400.97 15.68C400.97 15.68 400.95 15.64 400.94 15.62C399.86 15.01 401.86 14.01 400.31 14.19C400.31 14.17 400.29 14.16 400.29 14.14L398.89 10.96H398.52V19.09C398.52 19.09 398.52 19.13 398.52 19.16C398.62 19.4 398.68 19.66 398.73 19.91C398.74 19.97 398.75 20.04 398.76 20.1C399.86 19.01 399.86 22.01 400.86 21.01C400.193 21.6767 399.42 22.3734 398.54 23.1C398.53 23.16 398.53 23.22 398.53 23.28V24.05C398.87 25.01 398.87 27.01 398.53 28.26C398.53 28.28 398.53 28.3 398.53 28.32V28.74C398.53 28.74 398.53 28.78 398.53 28.8C398.757 29.6067 398.757 30.2967 398.53 30.87C398.53 30.87 398.53 30.9 398.53 30.92V32.43C398.53 32.43 398.53 32.48 398.53 32.5C398.86 33.02 398.86 34.02 400.04 33.96H402.08C402.54 33.96 402.87 34.05 403.07 34.24C403.27 34.41 403.37 34.64 403.37 34.93C403.37 35.21 403.27 35.43 403.07 35.62C402.87 35.81 402.54 35.9 402.08 35.9H395.57C395.52 35.9 395.47 35.9 395.42 35.9C392.86 34.03 397.86 34.03 396.6 32.52C396.6 32.5 396.6 32.47 396.6 32.45V31.18C396.6 31.18 396.6 31.15 396.6 31.13C397.86 29.03 394.86 26.03 396.6 23.86C396.6 23.84 396.6 23.81 396.6 23.79V21.5C396.6 21.5 396.6 21.45 396.6 21.43C396.773 20.4967 396.773 19.8134 396.6 19.38C396.6 19.38 396.6 19.34 396.6 19.31V10.97H395.38C394.92 10.97 394.59 10.89 394.39 10.72C394.19 10.54 394.09 10.3 394.09 10.01C394.09 9.72003 394.19 9.49003 394.39 9.32003C394.59 9.14003 394.92 9.04003 395.38 9.04003H400.11L401.79 12.87C401.79 12.87 401.81 12.91 401.82 12.92C402.81 13.01 403.75 13.91 403.86 14.85C403.86 14.91 403.86 14.96 403.87 15.02C401.86 16.02 404.86 17.02 404.18 18.31C404.19 18.34 404.2 18.37 404.22 18.39L404.83 19.79C404.83 19.79 404.85 19.83 404.86 19.85C403.86 21.02 406.86 21.02 405.73 21.82L405.75 21.87L407.41 25.64L408.9 22.2C408.94 22.11 408.98 22.02 408.93 21.92C407.87 21 406.87 21 404.87 21C406.87 20 408.87 20 410.64 19.63C410.68 19.6 410.7 19.57 410.71 19.55C410.92 19.19 411.05 18.82 411.14 18.45C411.14 18.42 411.15 18.39 411.27 17.69C411.27 17.66 411.27 17.63 411.27 17.61C411.36 16.85 411.42 16.11 411.82 15.45L411.84 15.4L414.59 9.03003H419.32C419.69 9.03003 419.98 9.09003 420.18 9.20003C420.2 9.21003 420.22 9.22003 420.24 9.23003C420.87 9.01003 421.87 10.01 421.87 11.01C420.87 13.01 418.87 9.01003 418.13 12.41C418.13 12.43 418.13 12.46 418.13 12.48V14.83C416.87 16.01 416.87 17.01 417.93 17.8C417.93 17.82 417.93 17.83 417.93 17.85C417.93 17.99 417.93 18.13 417.93 18.27C417.93 18.29 417.93 18.3 417.93 18.32C417.86 19 419.86 20 418.86 21C418.86 21 417.86 21 418.12 21.29V33.94H419.73C420.2 33.94 420.54 34.03 420.74 34.22C420.94 34.39 421.04 34.62 421.04 34.91C421.04 35.19 420.94 35.41 420.74 35.6C420.54 35.79 420.2 35.88 419.73 35.88H412.64C412.18 35.88 411.84 35.79 411.63 35.6C411.43 35.42 411.33 35.19 411.33 34.91C411.33 34.62 411.43 34.39 411.63 34.22C411.83 34.04 412.17 33.94 412.64 33.94H416.2V33.11C416.87 33 417.87 33 417.87 32C418.87 30 415.87 32 415.47 30.21C415.41 30.18 415.35 30.16 415.29 30.14C414.37 29.87 413.19 30.36 413.87 29C413.87 28 415.87 30 415.94 28.34C415.95 28.31 415.96 28.27 415.96 28.24C415.96 28.17 415.96 28.1 415.96 28.03C415.96 28 415.96 27.96 415.96 27.93C414.88 27.01 414.88 26.01 416.2 24.98C416.2 24.95 416.2 24.92 416.2 24.89V20.09C415.87 19.01 415.87 18.01 415.97 17.06C415.97 17.03 415.97 17 415.97 16.97C415.92 16.21 416 15.52 416.21 14.71C416.21 14.69 416.21 14.67 416.21 14.66V12.42C415.88 12.02 414.88 12.02 415.2 12.36L415.17 12.44L414.36 14.31C414.36 14.31 414.34 14.34 414.34 14.36C413.85 14.58 413.75 14.95 413.77 15.34C413.77 15.4 413.77 15.47 413.81 15.54C414.88 16.03 415.88 18.03 416.88 17.03C416.16 17.75 415.44 17.95 414.27 18.09C414.2 18.09 414.14 18.1 414.11 18.12C414.88 17.04 414.88 20.04 415.88 19.04C414.88 20.04 412.88 18.04 412.04 19.71L412 19.8L409.78 24.95C409.78 24.95 409.76 25 409.75 25.02C413.88 27.03 407.88 26.03 409.25 27.87C409.26 27.9 409.27 27.93 409.29 27.96C409.3 27.99 409.32 28.03 409.33 28.06L409.32 28.03Z" fill="white"/>
<path d="M429.19 22.9V33.94H444.01V28.99C443.86 27 445.86 28.99 446.86 28C446.86 28 445.86 28 445.6 27.95C445.63 27.95 445.67 27.95 445.7 27.95C446.04 27.98 446.22 28.15 445.93 28.66C445.94 28.7 445.94 28.75 445.94 28.8V35.85H437.39C437.39 35.85 437.34 35.85 437.32 35.85C436.86 35.98 435.86 35.98 435.65 35.85C435.63 35.85 435.6 35.85 435.58 35.85H433.49C433.07 35.9366 432.526 35.9366 431.86 35.85H428.76C428.16 35.9366 427.606 35.9366 427.1 35.85H424.67C424.34 35.85 424.08 35.8 423.89 35.71C423.85 35.69 423.82 35.67 423.78 35.65C424.87 34.98 422.87 33.98 425.13 33.93C425.16 33.93 425.2 33.93 425.23 33.93H425.71C425.71 33.93 425.8 33.93 425.84 33.94C426.526 33.9733 426.87 34.3233 426.87 34.99C425.87 32.99 430.87 31.99 428.1 29.95C428.1 29.93 428.08 29.91 428.08 29.9C428.08 29.89 428.06 29.86 428.05 29.84C428.87 28.99 429.87 28.99 431.87 28.99C430.87 27.99 428.87 27.99 427.28 27.08C427.26 27.05 427.26 27.02 427.26 26.99V22.4C426.993 21.46 426.993 20.5266 427.26 19.6V18.43C431.86 16.99 423.86 16.99 426.56 16.42C426.53 16.38 426.51 16.35 426.49 16.31C425.74 14.97 427.84 14.87 427.7 14.21C427.7 14.18 427.7 14.15 427.69 14.13C427.63 13.79 427.49 13.44 427.27 13.11C427.27 13.08 427.27 13.05 427.27 13.03V12.48C427.27 12.48 427.27 12.43 427.27 12.41C427.45 12.59 427.58 12.45 427.69 12.18C427.7 12.15 427.72 12.12 427.88 11.67C427.89 11.63 427.91 11.6 427.92 11.56C428.09 11.08 428.3 10.64 428.68 10.86C428.71 10.88 428.74 10.9 428.5 11.02C428.47 11.02 428.44 11.02 428.41 11.02C426.56 11.14 424.71 11.93 422.86 11C421.86 9.99997 424.86 9.99997 423.77 9.21997C423.79 9.20997 423.8 9.19997 423.82 9.18997C424.02 9.07997 424.3 9.01997 424.66 9.01997H430.18C430.27 9.01997 430.37 9.01997 430.44 9.01997C431.85 4.00997 431.85 12.01 433.33 9.01997C433.4 9.01997 433.48 9.01997 433.55 9.02997C433.62 9.03997 433.72 9.02997 433.81 9.02997C433.9 9.02997 433.99 9.02997 434.08 9.02997H444.91V14.12C444.91 14.12 444.91 14.16 444.91 14.18C444.88 14.91 444.39 15.19 443.8 15.39C443.77 15.39 443.74 15.41 443.71 15.42C443.796 15.8133 443.616 15.87 443.17 15.59C443.17 15.59 443.14 15.59 443.12 15.6C443.02 15.63 442.91 15.67 442.81 15.71C442.78 15.72 442.75 15.73 442.73 15.74C442.84 16.01 442.84 17.01 443.24 16.99C443.3 17 443.37 17 443.44 17C443.37 17 443.31 17 443.24 16.99C442.84 17 442.84 16 443.18 16.49C443.2 16.47 443.22 16.45 443.23 16.43C443.42 16.18 443.51 15.87 443.52 15.55C443.52 15.52 443.52 15.49 443.52 15.46C441.83 15 443.83 14 442.97 12.55C442.97 12.51 442.97 12.47 442.97 12.43V10.95H440.82C439.83 11 438.83 11 437.87 10.95C437.8 10.95 437.71 10.95 437.63 10.95H434.55C434.46 10.95 434.37 10.95 434.3 10.95C433.32 10.9833 432.5 10.9833 431.84 10.95C431.73 10.95 431.64 10.95 431.57 10.95H429.73C429.73 10.95 429.67 10.95 429.65 10.95C429.83 12 428.83 13 429.17 13.84C429.17 13.86 429.17 13.87 429.17 13.89C429.07 14.35 428.89 14.74 428.7 15.07C428.69 15.09 428.67 15.12 428.66 15.14C427.94 15.08 427.82 15.21 427.88 15.45C427.89 15.49 427.9 15.53 427.93 15.58C429.85 16 428.85 17 429.08 17.87C429.11 17.87 429.15 17.88 429.19 17.89C429.99 18.01 430.85 18.01 430.85 18.01C431.52 19.36 429.93 19.34 428.82 19.8C428.79 19.81 428.75 19.83 428.71 19.84C427.85 19.01 426.85 21.01 425.85 21.01C426.85 21.01 427.85 21.01 429.31 21.01C429.38 21.01 429.44 21.01 429.49 21.01C429.89 21.01 430.27 21.01 430.61 20.99C430.63 20.99 430.65 20.99 430.67 20.99H432.88C432.88 20.99 432.92 20.99 432.93 20.99C433.6 19.54 435.39 19.69 435.9 18.69C435.92 18.64 435.94 18.6 435.96 18.55C435.88 18.19 436.16 18.0566 436.8 18.15C436.8 18.15 436.84 18.2 436.86 18.22C437.28 18.73 437.75 19.23 438.32 19.58C438.35 19.6 438.37 19.61 438.39 20.18C438.35 20.2 438.3 20.22 438.24 20.24C438.18 20.26 438.11 20.29 438.04 20.31C438.04 20.33 438.04 20.34 438.04 20.36V22.12C436.86 24.03 435.86 24.03 433.86 24.03C434.48 25.27 435.48 24.97 436.41 24.83C436.44 24.83 436.47 24.83 436.41 25.2C436.39 25.17 436.37 25.13 436.35 25.09C436.27 24.94 436.18 24.79 436.1 24.61V22.92H429.19V22.9Z" fill="white"/>
<path d="M471.811 23.77C471.311 23.89 470.801 23.4 470.251 23.03C470.201 22.99 470.141 22.96 470.091 22.93C468.861 26.01 467.861 21.01 467.161 22.89C467.131 22.89 467.101 22.89 467.071 22.89H460.451C459.861 23.01 458.861 23.01 457.471 23.21C457.411 23.2 457.341 23.19 457.281 23.18C456.521 23.04 455.871 22.88 455.871 24.02C456.538 24.02 457.065 24.1567 457.451 24.43V25.77C457.871 26.02 457.871 27.02 457.451 27.06V33.96H458.601C459.871 34.02 461.871 34.02 462.871 34.02C462.251 35.88 461.241 36.2 460.091 36.18C460.061 36.18 460.031 36.18 460.001 36.18C458.871 34.02 457.871 39.02 456.401 35.9C456.371 35.9 456.341 35.9 456.311 35.9H454.881C454.881 35.9 454.841 35.9 454.821 35.9C455.871 34.03 451.871 36.03 452.501 34.14C452.521 34.13 452.541 34.12 452.561 34.11C452.761 34.02 453.021 33.97 453.341 33.97H454.001C454.001 33.97 454.041 33.97 454.071 33.97C455.871 34.02 458.871 34.02 460.871 34.02C459.871 32.02 456.871 34.02 455.541 32.51C455.521 32.48 455.521 32.46 455.521 32.44V27.84C456.871 26.03 454.871 24.03 455.521 22.26C455.521 22.24 455.521 22.21 455.521 22.19V15.49C455.761 15.41 455.991 15.34 456.211 15.28C456.251 15.27 456.301 15.26 456.341 15.25C455.881 15.02 454.881 15.02 454.881 15.02C456.881 15.02 457.881 13.02 459.881 14.02C459.215 14.02 458.478 13.8533 457.671 13.52C457.671 13.52 457.631 13.48 457.621 13.46C456.451 12.22 453.011 12.14 453.431 9.24C453.451 9.23 453.461 9.22 453.481 9.21C453.681 9.1 453.971 9.04 454.341 9.04H459.491C459.491 9.04 459.551 9.04 459.571 9.04C461.881 9.02 462.881 10.02 463.881 11.02C461.881 11.02 460.881 11.02 458.631 10.96C458.611 10.96 458.591 10.96 458.561 10.96H457.461V12.32C457.461 12.32 457.461 12.35 457.461 12.37C457.661 12.67 457.771 13.05 457.781 13.49C457.781 13.52 457.781 13.54 457.781 13.57C460.881 16.02 453.881 14.02 457.281 16.43C457.271 16.46 457.251 16.48 457.241 16.51C456.901 17.31 456.971 18.16 457.461 19.02C457.461 19.04 457.461 19.06 457.461 19.08V19.4C457.461 19.4 457.461 19.43 457.461 19.45C456.881 20.01 459.881 20.01 459.001 20.96H459.351C459.881 21.01 461.881 21.01 462.881 21.01C462.881 21.01 461.881 21.01 462.271 20.96H465.971C465.971 20.96 466.011 20.96 466.031 20.96C465.938 20.3267 465.558 20.01 464.891 20.01C466.891 19.01 466.891 22.01 468.881 20.96C468.901 20.96 468.911 20.96 468.931 20.96H470.251V19.29C470.641 18.5 471.551 18.2 471.581 17.74C471.581 17.72 471.581 17.71 471.581 17.69C470.891 16.01 468.891 18.01 467.891 16.01C468.891 17.01 468.891 14.01 470.241 14.77C470.241 14.73 470.241 14.68 470.241 14.64V10.96H469.341C469.261 10.96 469.171 10.96 469.101 10.98C466.881 12.01 466.881 11.01 466.401 10.16C466.401 10.11 466.391 10.05 466.391 9.99C466.391 9.96 466.391 9.93 466.391 9.9C466.391 9.87 466.391 9.84 466.391 9.82C466.718 9.27333 466.548 9 465.881 9C466.881 9 467.881 9 469.191 9.02C469.211 9.02 469.231 9.02 469.261 9.02H471.871C471.871 9.02 471.911 9.02 471.931 9.02C472.891 9 473.891 9 474.671 9.74C474.671 9.76 474.671 9.79 474.681 9.82C474.681 9.87 474.691 9.93 474.691 9.99C474.691 10.02 474.691 10.05 474.691 10.08C474.881 10.01 474.881 11.01 474.391 11.22C474.331 11.21 474.271 11.19 474.201 11.18C473.391 11.01 472.581 10.83 472.191 11.89V14.76C473.881 17.02 469.881 17.02 471.281 17.53C471.261 17.55 471.231 17.57 471.211 17.59C470.711 18.09 470.531 18.67 472.181 19.33C472.181 19.36 472.181 19.39 472.181 19.42V26.84C472.181 26.84 472.181 26.9 472.181 26.93C473.871 29.01 471.871 30.01 472.171 32.28C472.171 32.33 472.171 32.38 472.171 32.43C472.171 32.45 472.171 32.48 472.171 32.51C471.551 33.23 470.761 33.15 470.001 32.98C469.971 32.98 469.941 32.97 469.901 32.96C468.861 32.02 467.861 34.02 466.861 34.02C467.861 34.02 468.861 34.02 470.201 33.8C470.241 33.8 470.271 33.8 470.301 33.81C471.461 34.01 472.601 34 473.681 33.96C473.701 33.96 473.721 33.96 473.741 33.96H473.851C474.851 34.02 475.851 35.02 475.851 36.02C474.851 37.02 473.851 35.02 472.911 35.89C472.891 35.89 472.881 35.89 472.861 35.89H469.181C469.181 35.89 469.141 35.89 469.131 35.89C468.861 42.02 469.861 42.02 469.861 36.02C469.861 35.02 466.861 37.02 466.371 35.09C466.371 35.06 466.371 35.04 466.371 35.01C466.371 34.98 466.371 34.96 466.371 34.93C466.371 34.64 466.461 34.41 466.641 34.24C466.751 34.14 466.911 34.06 467.121 34.02C467.171 34.01 467.221 34 467.281 33.99C467.871 34.02 468.871 32.02 469.871 32.91C469.941 32.88 470.011 32.86 470.071 32.83C470.301 32.72 470.421 32.6 470.231 32.44V30.47C470.231 30.47 470.231 30.43 470.231 30.41C467.871 29.03 470.871 28.03 470.231 27.41V24.44C470.658 24.1667 471.188 23.9567 471.821 23.81L471.811 23.77Z" fill="white"/>
<path d="M490.869 10.56C491.879 10 491.879 13 492.879 12.47V12.54C492.879 13.99 492.879 14.99 492.879 15.57V15.63C492.879 15.68 492.879 15.73 492.879 15.79C492.879 17 492.879 18 493.329 18.68C493.339 18.69 493.349 18.71 493.359 18.72C493.729 19.22 494.099 19.78 493.989 20.34C493.989 20.37 493.979 20.4 493.969 20.43C493.869 21 493.869 22 492.929 22.82C492.889 22.9 492.879 22.98 492.879 23.05V32.41C492.879 32.41 492.879 32.46 492.879 32.48C492.869 32.99 493.869 33.99 494.399 33.93H496.359C496.359 33.93 496.399 33.93 496.409 33.93C495.869 33.99 495.869 32.99 495.869 32.99C497.869 32.99 499.869 32.99 499.869 35.99H498.479C498.409 35.99 498.349 35.99 498.289 36.01C496.869 39.99 496.869 34.99 495.389 35.98C495.329 35.98 495.269 35.98 495.209 35.97C494.789 35.95 494.389 35.92 493.999 35.86H491.699C491.699 35.86 491.649 35.86 491.629 35.86C491.123 35.9467 490.559 35.9467 489.939 35.86C489.939 35.86 489.899 35.86 489.869 35.86H489.119C489.059 35.86 488.999 35.86 488.949 35.86C488.859 35.99 489.859 35.99 489.859 35.99C488.859 35.99 486.859 35.99 486.069 36.31C486.009 36.36 485.949 36.41 485.899 36.45C485.569 36.73 485.209 36.98 484.859 36.98C485.859 35.98 485.859 34.98 484.859 33.98C485.859 33.98 486.859 33.98 487.389 33.92H490.919V31.4C490.919 31.4 490.919 31.34 490.919 31.31C489.859 30.98 488.859 28.98 487.859 29.98C487.859 28.42 488.669 28.75 489.459 29.06C489.519 29.08 489.579 29.11 489.639 29.13C487.859 26.98 492.859 28.98 490.919 26.75V21.31C491.109 21.22 491.269 21.14 491.399 21.05C491.409 21.05 491.429 21.03 491.439 21.02C491.859 20.97 491.859 19.97 491.869 20.33C491.869 20.3 491.859 20.28 491.849 20.26C491.799 20.09 491.659 19.92 491.489 19.76C491.479 19.75 491.469 19.74 491.449 19.73C490.859 19.98 489.859 17.98 488.859 18.98C488.859 17.98 489.859 16.98 490.919 16.78C490.919 16.75 490.919 16.72 490.919 16.69V15.56C490.919 15.56 490.919 15.52 490.919 15.5C490.149 14.39 491.009 13.02 490.569 11.95C490.559 11.92 490.549 11.9 490.539 11.87C489.869 11.98 488.869 9.98002 487.849 10.92H484.529C484.249 10.51 484.079 10.83 483.919 11.29C483.909 11.33 483.889 11.37 483.879 11.41C484.859 11.97 482.859 12.97 482.909 14.01C482.909 14.04 482.909 14.07 482.909 14.09C482.909 14.27 482.909 14.44 482.909 14.61C482.909 14.64 482.909 14.67 482.909 14.7C484.859 14.97 483.859 17.97 485.859 17.97C482.859 17.97 478.859 17.97 475.859 16.97C477.859 15.97 478.859 15.97 480.979 15.55C480.979 15.49 480.959 15.44 480.949 15.39C480.879 14.87 480.929 14.63 481.089 13.77C481.089 13.75 481.089 13.72 481.089 13.7V12.03C481.859 10.96 478.859 10.96 479.569 10.14C479.499 10.16 479.439 10.19 479.379 10.2C479.079 10.29 478.849 10.29 478.849 9.96002C478.849 8.94002 479.629 8.96002 480.499 9.10002C480.519 9.10002 480.529 9.10002 480.549 9.10002C481.849 8.96002 482.849 8.96002 484.259 8.98002C484.289 8.98002 484.319 8.98002 484.349 8.98002H501.149C501.149 8.98002 501.189 8.98002 501.209 8.98002C501.629 8.96669 501.839 8.62669 501.839 7.96002C500.839 8.96002 502.839 9.96002 502.669 10.48V14.47C502.669 14.47 502.669 14.51 502.669 14.53C501.839 15.96 500.839 13.96 501.209 16C501.189 16 501.159 16 501.129 16C500.519 15.98 499.959 15.97 499.309 15.96C499.279 15.96 499.259 15.96 499.229 15.97C498.829 15.96 498.829 16.96 499.219 16.5C499.249 16.5 499.279 16.51 499.309 16.52C499.989 16.66 500.669 16.8 500.929 17.36C500.939 17.38 500.949 17.41 500.959 17.44C500.839 16.96 500.839 17.96 500.789 17.5C500.789 17.47 500.779 17.44 500.769 17.41C500.769 17.32 500.749 17.22 500.739 17.11V10.9H494.349C493.839 10.95 491.839 10.95 490.849 10.51H490.839L490.869 10.56Z" fill="white"/>
</svg>
