<svg width="127" height="344" viewBox="0 0 127 344" fill="none" xmlns="http://www.w3.org/2000/svg">
<path d="M19.8636 27.75V24.2727L35.2045 0H37.7273V5.38636H36.0227L24.4318 23.7273V24H45.0909V27.75H19.8636ZM36.2955 34.9091V0H40.3182V34.9091H36.2955Z" fill="white"/>
<path d="M50.6605 27.75V24.2727L66.0014 0H68.5241V5.38636H66.8196L55.2287 23.7273V24H75.8878V27.75H50.6605ZM67.0923 34.9091V0H71.1151V34.9091H67.0923Z" fill="white"/>
<path d="M83.6349 35.1818C82.794 35.1818 82.0724 34.8807 81.4702 34.2784C80.8679 33.6761 80.5668 32.9545 80.5668 32.1136C80.5668 31.2727 80.8679 30.5511 81.4702 29.9489C82.0724 29.3466 82.794 29.0455 83.6349 29.0455C84.4759 29.0455 85.1974 29.3466 85.7997 29.9489C86.402 30.5511 86.7031 31.2727 86.7031 32.1136C86.7031 32.6705 86.5611 33.1818 86.277 33.6477C86.0043 34.1136 85.6349 34.4886 85.169 34.7727C84.7145 35.0455 84.2031 35.1818 83.6349 35.1818Z" fill="white"/>
<path d="M101.955 0V34.9091H97.7273V4.43182H97.5227L89 10.0909V5.79545L97.7273 0H101.955Z" fill="white"/>
<path d="M66.8636 87.7498V84.2725L82.2045 59.9998H84.7273V65.3861H83.0227L71.4318 83.727V83.9998H92.0909V87.7498H66.8636ZM83.2955 94.9088V59.9998H87.3182V94.9088H83.2955Z" fill="white"/>
<path d="M109.661 95.3861C107.32 95.3861 105.251 94.9713 103.456 94.1418C101.672 93.3009 100.28 92.1475 99.2798 90.6816C98.2798 89.2043 97.7855 87.5225 97.7969 85.6361C97.7855 84.1589 98.0753 82.7952 98.6662 81.5452C99.2571 80.2838 100.064 79.2327 101.087 78.3918C102.121 77.5395 103.274 76.9998 104.547 76.7725V76.5679C102.876 76.1361 101.547 75.1986 100.558 73.7554C99.5696 72.3009 99.081 70.6475 99.0923 68.7952C99.081 67.0225 99.5298 65.4373 100.439 64.0395C101.348 62.6418 102.598 61.5395 104.189 60.7327C105.791 59.9259 107.615 59.5225 109.661 59.5225C111.683 59.5225 113.49 59.9259 115.081 60.7327C116.672 61.5395 117.922 62.6418 118.831 64.0395C119.751 65.4373 120.217 67.0225 120.229 68.7952C120.217 70.6475 119.712 72.3009 118.712 73.7554C117.723 75.1986 116.411 76.1361 114.774 76.5679V76.7725C116.036 76.9998 117.172 77.5395 118.183 78.3918C119.195 79.2327 120.001 80.2838 120.604 81.5452C121.206 82.7952 121.513 84.1589 121.524 85.6361C121.513 87.5225 121.001 89.2043 119.99 90.6816C118.99 92.1475 117.598 93.3009 115.814 94.1418C114.041 94.9713 111.99 95.3861 109.661 95.3861ZM109.661 91.6361C111.24 91.6361 112.604 91.3804 113.751 90.8691C114.899 90.3577 115.786 89.6361 116.411 88.7043C117.036 87.7725 117.354 86.6816 117.365 85.4316C117.354 84.1134 117.013 82.9486 116.342 81.9373C115.672 80.9259 114.757 80.1304 113.598 79.5509C112.45 78.9714 111.138 78.6816 109.661 78.6816C108.172 78.6816 106.842 78.9714 105.672 79.5509C104.513 80.1304 103.598 80.9259 102.928 81.9373C102.268 82.9486 101.945 84.1134 101.956 85.4316C101.945 86.6816 102.246 87.7725 102.859 88.7043C103.484 89.6361 104.376 90.3577 105.536 90.8691C106.695 91.3804 108.07 91.6361 109.661 91.6361ZM109.661 75.0679C110.911 75.0679 112.018 74.8179 112.984 74.3179C113.962 73.8179 114.729 73.1191 115.286 72.2213C115.842 71.3236 116.126 70.2725 116.138 69.0679C116.126 67.8861 115.848 66.8577 115.303 65.9827C114.757 65.0963 114.001 64.4145 113.036 63.9373C112.07 63.4486 110.945 63.2043 109.661 63.2043C108.354 63.2043 107.212 63.4486 106.234 63.9373C105.257 64.4145 104.501 65.0963 103.967 65.9827C103.433 66.8577 103.172 67.8861 103.183 69.0679C103.172 70.2725 103.439 71.3236 103.984 72.2213C104.541 73.1191 105.308 73.8179 106.286 74.3179C107.263 74.8179 108.388 75.0679 109.661 75.0679Z" fill="white"/>
<path d="M32.8636 159.386C30.5227 159.386 28.4545 158.971 26.6591 158.142C24.875 157.301 23.483 156.147 22.483 154.682C21.483 153.204 20.9886 151.522 21 149.636C20.9886 148.159 21.2784 146.795 21.8693 145.545C22.4602 144.284 23.267 143.233 24.2898 142.392C25.3239 141.54 26.4773 141 27.75 140.772V140.568C26.0795 140.136 24.75 139.199 23.7614 137.755C22.7727 136.301 22.2841 134.647 22.2955 132.795C22.2841 131.022 22.733 129.437 23.642 128.04C24.5511 126.642 25.8011 125.54 27.392 124.733C28.9943 123.926 30.8182 123.522 32.8636 123.522C34.8864 123.522 36.6932 123.926 38.2841 124.733C39.875 125.54 41.125 126.642 42.0341 128.04C42.9545 129.437 43.4205 131.022 43.4318 132.795C43.4205 134.647 42.9148 136.301 41.9148 137.755C40.9261 139.199 39.6136 140.136 37.9773 140.568V140.772C39.2386 141 40.375 141.54 41.3864 142.392C42.3977 143.233 43.2045 144.284 43.8068 145.545C44.4091 146.795 44.7159 148.159 44.7273 149.636C44.7159 151.522 44.2045 153.204 43.1932 154.682C42.1932 156.147 40.8011 157.301 39.017 158.142C37.2443 158.971 35.1932 159.386 32.8636 159.386ZM32.8636 155.636C34.4432 155.636 35.8068 155.38 36.9545 154.869C38.1023 154.358 38.9886 153.636 39.6136 152.704C40.2386 151.772 40.5568 150.682 40.5682 149.432C40.5568 148.113 40.2159 146.949 39.5455 145.937C38.875 144.926 37.9602 144.13 36.8011 143.551C35.6534 142.971 34.3409 142.682 32.8636 142.682C31.375 142.682 30.0455 142.971 28.875 143.551C27.7159 144.13 26.8011 144.926 26.1307 145.937C25.4716 146.949 25.1477 148.113 25.1591 149.432C25.1477 150.682 25.4489 151.772 26.0625 152.704C26.6875 153.636 27.5795 154.358 28.7386 154.869C29.8977 155.38 31.2727 155.636 32.8636 155.636ZM32.8636 139.068C34.1136 139.068 35.2216 138.818 36.1875 138.318C37.1648 137.818 37.9318 137.119 38.4886 136.221C39.0455 135.324 39.3295 134.272 39.3409 133.068C39.3295 131.886 39.0511 130.858 38.5057 129.983C37.9602 129.096 37.2045 128.415 36.2386 127.937C35.2727 127.449 34.1477 127.204 32.8636 127.204C31.5568 127.204 30.4148 127.449 29.4375 127.937C28.4602 128.415 27.7045 129.096 27.1705 129.983C26.6364 130.858 26.375 131.886 26.3864 133.068C26.375 134.272 26.642 135.324 27.1875 136.221C27.7443 137.119 28.5114 137.818 29.4886 138.318C30.4659 138.818 31.5909 139.068 32.8636 139.068Z" fill="white"/>
<path d="M62.4418 159.386C60.1009 159.386 58.0327 158.971 56.2372 158.142C54.4531 157.301 53.0611 156.147 52.0611 154.682C51.0611 153.204 50.5668 151.522 50.5781 149.636C50.5668 148.159 50.8565 146.795 51.4474 145.545C52.0384 144.284 52.8452 143.233 53.8679 142.392C54.902 141.54 56.0554 141 57.3281 140.772V140.568C55.6577 140.136 54.3281 139.199 53.3395 137.755C52.3509 136.301 51.8622 134.647 51.8736 132.795C51.8622 131.022 52.3111 129.437 53.2202 128.04C54.1293 126.642 55.3793 125.54 56.9702 124.733C58.5724 123.926 60.3963 123.522 62.4418 123.522C64.4645 123.522 66.2713 123.926 67.8622 124.733C69.4531 125.54 70.7031 126.642 71.6122 128.04C72.5327 129.437 72.9986 131.022 73.0099 132.795C72.9986 134.647 72.4929 136.301 71.4929 137.755C70.5043 139.199 69.1918 140.136 67.5554 140.568V140.772C68.8168 141 69.9531 141.54 70.9645 142.392C71.9759 143.233 72.7827 144.284 73.3849 145.545C73.9872 146.795 74.294 148.159 74.3054 149.636C74.294 151.522 73.7827 153.204 72.7713 154.682C71.7713 156.147 70.3793 157.301 68.5952 158.142C66.8224 158.971 64.7713 159.386 62.4418 159.386ZM62.4418 155.636C64.0213 155.636 65.3849 155.38 66.5327 154.869C67.6804 154.358 68.5668 153.636 69.1918 152.704C69.8168 151.772 70.1349 150.682 70.1463 149.432C70.1349 148.113 69.794 146.949 69.1236 145.937C68.4531 144.926 67.5384 144.13 66.3793 143.551C65.2315 142.971 63.919 142.682 62.4418 142.682C60.9531 142.682 59.6236 142.971 58.4531 143.551C57.294 144.13 56.3793 144.926 55.7088 145.937C55.0497 146.949 54.7259 148.113 54.7372 149.432C54.7259 150.682 55.027 151.772 55.6406 152.704C56.2656 153.636 57.1577 154.358 58.3168 154.869C59.4759 155.38 60.8509 155.636 62.4418 155.636ZM62.4418 139.068C63.6918 139.068 64.7997 138.818 65.7656 138.318C66.7429 137.818 67.5099 137.119 68.0668 136.221C68.6236 135.324 68.9077 134.272 68.919 133.068C68.9077 131.886 68.6293 130.858 68.0838 129.983C67.5384 129.096 66.7827 128.415 65.8168 127.937C64.8509 127.449 63.7259 127.204 62.4418 127.204C61.1349 127.204 59.9929 127.449 59.0156 127.937C58.0384 128.415 57.2827 129.096 56.7486 129.983C56.2145 130.858 55.9531 131.886 55.9645 133.068C55.9531 134.272 56.2202 135.324 56.7656 136.221C57.3224 137.119 58.0895 137.818 59.0668 138.318C60.044 138.818 61.169 139.068 62.4418 139.068Z" fill="white"/>
<path d="M82.7599 159.182C81.919 159.182 81.1974 158.88 80.5952 158.278C79.9929 157.676 79.6918 156.954 79.6918 156.113C79.6918 155.272 79.9929 154.551 80.5952 153.949C81.1974 153.346 81.919 153.045 82.7599 153.045C83.6009 153.045 84.3224 153.346 84.9247 153.949C85.527 154.551 85.8281 155.272 85.8281 156.113C85.8281 156.67 85.6861 157.182 85.402 157.647C85.1293 158.113 84.7599 158.488 84.294 158.772C83.8395 159.045 83.3281 159.182 82.7599 159.182Z" fill="white"/>
<path d="M92.9787 158.909V155.841L104.501 143.227C105.854 141.75 106.967 140.466 107.842 139.375C108.717 138.272 109.365 137.238 109.786 136.272C110.217 135.295 110.433 134.272 110.433 133.204C110.433 131.977 110.138 130.915 109.547 130.017C108.967 129.119 108.172 128.426 107.161 127.937C106.149 127.449 105.013 127.204 103.751 127.204C102.411 127.204 101.24 127.483 100.24 128.04C99.2514 128.585 98.4844 129.352 97.9389 130.341C97.4048 131.329 97.1378 132.488 97.1378 133.818H93.1151C93.1151 131.772 93.5866 129.977 94.5298 128.432C95.473 126.886 96.7571 125.682 98.3821 124.818C100.018 123.954 101.854 123.522 103.888 123.522C105.933 123.522 107.746 123.954 109.325 124.818C110.905 125.682 112.143 126.846 113.041 128.312C113.939 129.778 114.388 131.409 114.388 133.204C114.388 134.488 114.155 135.744 113.689 136.971C113.234 138.187 112.439 139.545 111.303 141.045C110.178 142.534 108.615 144.352 106.615 146.5L98.7741 154.886V155.159H115.001V158.909H92.9787Z" fill="white"/>
<path d="M69.7955 187.522C71.2273 187.534 72.6591 187.807 74.0909 188.341C75.5227 188.875 76.8295 189.761 78.0114 191C79.1932 192.227 80.142 193.903 80.858 196.028C81.5739 198.153 81.9318 200.818 81.9318 204.022C81.9318 207.125 81.6364 209.88 81.0455 212.29C80.4659 214.687 79.625 216.71 78.5227 218.358C77.4318 220.005 76.1023 221.255 74.5341 222.108C72.9773 222.96 71.2159 223.386 69.25 223.386C67.2955 223.386 65.5511 223 64.017 222.227C62.4943 221.443 61.2443 220.358 60.267 218.971C59.3011 217.574 58.6818 215.954 58.4091 214.113H62.5682C62.9432 215.716 63.6875 217.04 64.8011 218.085C65.9261 219.119 67.4091 219.636 69.25 219.636C71.9432 219.636 74.0682 218.46 75.625 216.108C77.1932 213.755 77.9773 210.432 77.9773 206.136H77.7045C77.0682 207.091 76.3125 207.915 75.4375 208.608C74.5625 209.301 73.5909 209.835 72.5227 210.21C71.4545 210.585 70.3182 210.772 69.1136 210.772C67.1136 210.772 65.2784 210.278 63.608 209.29C61.9489 208.29 60.6193 206.92 59.6193 205.182C58.6307 203.432 58.1364 201.432 58.1364 199.182C58.1364 197.045 58.6136 195.091 59.5682 193.318C60.5341 191.534 61.8864 190.113 63.625 189.057C65.375 188 67.4318 187.488 69.7955 187.522ZM69.7955 191.272C68.3636 191.272 67.0739 191.63 65.9261 192.346C64.7898 193.051 63.8864 194.005 63.2159 195.21C62.5568 196.403 62.2273 197.727 62.2273 199.182C62.2273 200.636 62.5455 201.96 63.1818 203.153C63.8295 204.335 64.7102 205.278 65.8239 205.983C66.9489 206.676 68.2273 207.022 69.6591 207.022C70.7386 207.022 71.7443 206.812 72.6761 206.392C73.608 205.96 74.4205 205.375 75.1136 204.636C75.8182 203.886 76.3693 203.04 76.767 202.096C77.1648 201.142 77.3636 200.147 77.3636 199.113C77.3636 197.75 77.0341 196.471 76.375 195.278C75.7273 194.085 74.8295 193.119 73.6818 192.38C72.5455 191.642 71.25 191.272 69.7955 191.272Z" fill="white"/>
<path d="M100.226 223.386C98.794 223.363 97.3622 223.091 95.9304 222.568C94.4986 222.045 93.1918 221.165 92.0099 219.926C90.8281 218.676 89.8793 216.988 89.1634 214.863C88.4474 212.727 88.0895 210.045 88.0895 206.818C88.0895 203.727 88.3793 200.988 88.9588 198.602C89.5384 196.204 90.3793 194.187 91.4815 192.551C92.5838 190.903 93.9134 189.653 95.4702 188.801C97.0384 187.949 98.8054 187.522 100.771 187.522C102.726 187.522 104.464 187.915 105.987 188.699C107.521 189.471 108.771 190.551 109.737 191.937C110.703 193.324 111.328 194.92 111.612 196.727H107.453C107.067 195.159 106.317 193.858 105.203 192.824C104.089 191.79 102.612 191.272 100.771 191.272C98.0668 191.272 95.9361 192.449 94.3793 194.801C92.8338 197.153 92.0554 200.454 92.044 204.704H92.3168C92.9531 203.738 93.7088 202.915 94.5838 202.233C95.4702 201.54 96.4474 201.005 97.5156 200.63C98.5838 200.255 99.7145 200.068 100.908 200.068C102.908 200.068 104.737 200.568 106.396 201.568C108.055 202.557 109.385 203.926 110.385 205.676C111.385 207.415 111.885 209.409 111.885 211.659C111.885 213.818 111.402 215.795 110.436 217.591C109.47 219.375 108.112 220.795 106.362 221.852C104.624 222.897 102.578 223.409 100.226 223.386ZM100.226 219.636C101.658 219.636 102.942 219.278 104.078 218.562C105.226 217.846 106.129 216.886 106.788 215.682C107.459 214.477 107.794 213.136 107.794 211.659C107.794 210.216 107.47 208.903 106.822 207.721C106.186 206.528 105.305 205.579 104.18 204.875C103.067 204.17 101.794 203.818 100.362 203.818C99.2827 203.818 98.277 204.034 97.3452 204.466C96.4134 204.886 95.5952 205.466 94.8906 206.204C94.1974 206.943 93.652 207.79 93.2543 208.744C92.8565 209.687 92.6577 210.682 92.6577 211.727C92.6577 213.113 92.9815 214.409 93.6293 215.613C94.2884 216.818 95.1861 217.79 96.3224 218.528C97.4702 219.267 98.7713 219.636 100.226 219.636Z" fill="white"/>
<path d="M12.9545 244V278.909H8.72727V248.432H8.52273L0 254.091V249.795L8.72727 244H12.9545Z" fill="white"/>
<path d="M24.0852 278.909L39.6989 248.022V247.75H21.6989V244H44.0625V247.954L28.517 278.909H24.0852Z" fill="white"/>
<path d="M61.2571 279.386C59.8253 279.363 58.3935 279.091 56.9616 278.568C55.5298 278.045 54.223 277.165 53.0412 275.926C51.8594 274.676 50.9105 272.988 50.1946 270.863C49.4787 268.727 49.1207 266.045 49.1207 262.818C49.1207 259.727 49.4105 256.988 49.9901 254.602C50.5696 252.204 51.4105 250.187 52.5128 248.551C53.6151 246.903 54.9446 245.653 56.5014 244.801C58.0696 243.949 59.8366 243.522 61.8026 243.522C63.7571 243.522 65.4957 243.915 67.0185 244.699C68.5526 245.471 69.8026 246.551 70.7685 247.937C71.7344 249.324 72.3594 250.92 72.6435 252.727H68.4844C68.098 251.159 67.348 249.858 66.2344 248.824C65.1207 247.79 63.6435 247.272 61.8026 247.272C59.098 247.272 56.9673 248.449 55.4105 250.801C53.8651 253.153 53.0866 256.454 53.0753 260.704H53.348C53.9844 259.738 54.7401 258.915 55.6151 258.233C56.5014 257.54 57.4787 257.005 58.5469 256.63C59.6151 256.255 60.7457 256.068 61.9389 256.068C63.9389 256.068 65.7685 256.568 67.4276 257.568C69.0866 258.557 70.4162 259.926 71.4162 261.676C72.4162 263.415 72.9162 265.409 72.9162 267.659C72.9162 269.818 72.4332 271.795 71.4673 273.591C70.5014 275.375 69.1435 276.795 67.3935 277.852C65.6548 278.897 63.6094 279.409 61.2571 279.386ZM61.2571 275.636C62.6889 275.636 63.973 275.278 65.1094 274.562C66.2571 273.846 67.1605 272.886 67.8196 271.682C68.4901 270.477 68.8253 269.136 68.8253 267.659C68.8253 266.216 68.5014 264.903 67.8537 263.721C67.2173 262.528 66.3366 261.579 65.2116 260.875C64.098 260.17 62.8253 259.818 61.3935 259.818C60.3139 259.818 59.3082 260.034 58.3764 260.466C57.4446 260.886 56.6264 261.466 55.9219 262.204C55.2287 262.943 54.6832 263.79 54.2855 264.744C53.8878 265.687 53.6889 266.682 53.6889 267.727C53.6889 269.113 54.0128 270.409 54.6605 271.613C55.3196 272.818 56.2173 273.79 57.3537 274.528C58.5014 275.267 59.8026 275.636 61.2571 275.636Z" fill="white"/>
<path d="M80.9787 279.182C80.1378 279.182 79.4162 278.88 78.8139 278.278C78.2116 277.676 77.9105 276.954 77.9105 276.113C77.9105 275.272 78.2116 274.551 78.8139 273.949C79.4162 273.346 80.1378 273.045 80.9787 273.045C81.8196 273.045 82.5412 273.346 83.1435 273.949C83.7457 274.551 84.0469 275.272 84.0469 276.113C84.0469 276.67 83.9048 277.182 83.6207 277.647C83.348 278.113 82.9787 278.488 82.5128 278.772C82.0582 279.045 81.5469 279.182 80.9787 279.182Z" fill="white"/>
<path d="M90.3793 271.75V268.272L105.72 244H108.243V249.386H106.538L94.9474 267.727V268H115.607V271.75H90.3793ZM106.811 278.909V244H110.834V278.909H106.811Z" fill="white"/>
<path d="M64.9545 308V342.909H60.7273V312.432H60.5227L52 318.091V313.795L60.7273 308H64.9545Z" fill="white"/>
<path d="M86.108 307.522C87.5398 307.534 88.9716 307.807 90.4034 308.341C91.8352 308.875 93.142 309.761 94.3239 311C95.5057 312.227 96.4545 313.903 97.1705 316.028C97.8864 318.153 98.2443 320.818 98.2443 324.022C98.2443 327.125 97.9489 329.88 97.358 332.29C96.7784 334.687 95.9375 336.71 94.8352 338.358C93.7443 340.005 92.4148 341.255 90.8466 342.108C89.2898 342.96 87.5284 343.386 85.5625 343.386C83.608 343.386 81.8636 343 80.3295 342.227C78.8068 341.443 77.5568 340.358 76.5795 338.971C75.6136 337.574 74.9943 335.954 74.7216 334.113H78.8807C79.2557 335.716 80 337.04 81.1136 338.085C82.2386 339.119 83.7216 339.636 85.5625 339.636C88.2557 339.636 90.3807 338.46 91.9375 336.108C93.5057 333.755 94.2898 330.432 94.2898 326.136H94.017C93.3807 327.091 92.625 327.915 91.75 328.608C90.875 329.301 89.9034 329.835 88.8352 330.21C87.767 330.585 86.6307 330.772 85.4261 330.772C83.4261 330.772 81.5909 330.278 79.9205 329.29C78.2614 328.29 76.9318 326.92 75.9318 325.182C74.9432 323.432 74.4489 321.432 74.4489 319.182C74.4489 317.045 74.9261 315.091 75.8807 313.318C76.8466 311.534 78.1989 310.113 79.9375 309.057C81.6875 308 83.7443 307.488 86.108 307.522ZM86.108 311.272C84.6761 311.272 83.3864 311.63 82.2386 312.346C81.1023 313.051 80.1989 314.005 79.5284 315.21C78.8693 316.403 78.5398 317.727 78.5398 319.182C78.5398 320.636 78.858 321.96 79.4943 323.153C80.142 324.335 81.0227 325.278 82.1364 325.983C83.2614 326.676 84.5398 327.022 85.9716 327.022C87.0511 327.022 88.0568 326.812 88.9886 326.392C89.9205 325.96 90.733 325.375 91.4261 324.636C92.1307 323.886 92.6818 323.04 93.0795 322.096C93.4773 321.142 93.6761 320.147 93.6761 319.113C93.6761 317.75 93.3466 316.471 92.6875 315.278C92.0398 314.085 91.142 313.119 89.9943 312.38C88.858 311.642 87.5625 311.272 86.108 311.272Z" fill="white"/>
<path d="M104.947 342.909V339.841L116.47 327.227C117.822 325.75 118.936 324.466 119.811 323.375C120.686 322.272 121.334 321.238 121.754 320.272C122.186 319.295 122.402 318.272 122.402 317.204C122.402 315.977 122.107 314.915 121.516 314.017C120.936 313.119 120.141 312.426 119.129 311.937C118.118 311.449 116.982 311.204 115.72 311.204C114.379 311.204 113.209 311.483 112.209 312.04C111.22 312.585 110.453 313.352 109.908 314.341C109.374 315.329 109.107 316.488 109.107 317.818H105.084C105.084 315.772 105.555 313.977 106.499 312.432C107.442 310.886 108.726 309.682 110.351 308.818C111.987 307.954 113.822 307.522 115.857 307.522C117.902 307.522 119.714 307.954 121.294 308.818C122.874 309.682 124.112 310.846 125.01 312.312C125.908 313.778 126.357 315.409 126.357 317.204C126.357 318.488 126.124 319.744 125.658 320.971C125.203 322.187 124.408 323.545 123.271 325.045C122.146 326.534 120.584 328.352 118.584 330.5L110.743 338.886V339.159H126.97V342.909H104.947Z" fill="white"/>
</svg>
