<svg width="132" height="344" viewBox="0 0 132 344" fill="none" xmlns="http://www.w3.org/2000/svg">
<path d="M36.864 27.75V24.2727L52.2049 0H54.7276V5.38636H53.023L41.4321 23.7273V24H62.0912V27.75H36.864ZM53.2958 34.9091V0H57.3185V34.9091H53.2958Z" fill="white"/>
<path d="M67.6608 27.75V24.2727L83.0017 0H85.5245V5.38636H83.8199L72.229 23.7273V24H92.8881V27.75H67.6608ZM84.0927 34.9091V0H88.1154V34.9091H84.0927Z" fill="white"/>
<path d="M100.635 35.1818C99.7944 35.1818 99.0728 34.8807 98.4705 34.2784C97.8682 33.6761 97.5671 32.9545 97.5671 32.1136C97.5671 31.2727 97.8682 30.5511 98.4705 29.9489C99.0728 29.3466 99.7944 29.0455 100.635 29.0455C101.476 29.0455 102.198 29.3466 102.8 29.9489C103.402 30.5511 103.703 31.2727 103.703 32.1136C103.703 32.6705 103.561 33.1818 103.277 33.6477C103.005 34.1136 102.635 34.4886 102.169 34.7727C101.715 35.0455 101.203 35.1818 100.635 35.1818Z" fill="white"/>
<path d="M118.955 0V34.9091H114.728V4.43182H114.523L106 10.0909V5.79545L114.728 0H118.955Z" fill="white"/>
<path d="M35.864 85.75V82.2727L51.2049 58H53.7276V63.3864H52.023L40.4321 81.7273V82H61.0912V85.75H35.864ZM52.2958 92.9091V58H56.3185V92.9091H52.2958Z" fill="white"/>
<path d="M78.6608 93.3864C76.3199 93.3864 74.2517 92.9716 72.4563 92.142C70.6722 91.3011 69.2802 90.1477 68.2802 88.6818C67.2802 87.2045 66.7858 85.5227 66.7972 83.6364C66.7858 82.1591 67.0756 80.7955 67.6665 79.5455C68.2574 78.2841 69.0642 77.233 70.087 76.392C71.1211 75.5398 72.2745 75 73.5472 74.7727V74.5682C71.8767 74.1364 70.5472 73.1989 69.5586 71.7557C68.5699 70.3011 68.0813 68.6477 68.0927 66.7955C68.0813 65.0227 68.5301 63.4375 69.4392 62.0398C70.3483 60.642 71.5983 59.5398 73.1892 58.733C74.7915 57.9261 76.6154 57.5227 78.6608 57.5227C80.6836 57.5227 82.4904 57.9261 84.0813 58.733C85.6722 59.5398 86.9222 60.642 87.8313 62.0398C88.7517 63.4375 89.2177 65.0227 89.229 66.7955C89.2177 68.6477 88.712 70.3011 87.712 71.7557C86.7233 73.1989 85.4108 74.1364 83.7745 74.5682V74.7727C85.0358 75 86.1722 75.5398 87.1836 76.392C88.1949 77.233 89.0017 78.2841 89.604 79.5455C90.2063 80.7955 90.5131 82.1591 90.5245 83.6364C90.5131 85.5227 90.0017 87.2045 88.9904 88.6818C87.9904 90.1477 86.5983 91.3011 84.8142 92.142C83.0415 92.9716 80.9904 93.3864 78.6608 93.3864ZM78.6608 89.6364C80.2404 89.6364 81.604 89.3807 82.7517 88.8693C83.8995 88.358 84.7858 87.6364 85.4108 86.7045C86.0358 85.7727 86.354 84.6818 86.3654 83.4318C86.354 82.1136 86.0131 80.9489 85.3427 79.9375C84.6722 78.9261 83.7574 78.1307 82.5983 77.5511C81.4506 76.9716 80.1381 76.6818 78.6608 76.6818C77.1722 76.6818 75.8426 76.9716 74.6722 77.5511C73.5131 78.1307 72.5983 78.9261 71.9279 79.9375C71.2688 80.9489 70.9449 82.1136 70.9563 83.4318C70.9449 84.6818 71.2461 85.7727 71.8597 86.7045C72.4847 87.6364 73.3767 88.358 74.5358 88.8693C75.6949 89.3807 77.0699 89.6364 78.6608 89.6364ZM78.6608 73.0682C79.9108 73.0682 81.0188 72.8182 81.9847 72.3182C82.962 71.8182 83.729 71.1193 84.2858 70.2216C84.8427 69.3239 85.1267 68.2727 85.1381 67.0682C85.1267 65.8864 84.8483 64.858 84.3029 63.983C83.7574 63.0966 83.0017 62.4148 82.0358 61.9375C81.0699 61.4489 79.9449 61.2045 78.6608 61.2045C77.354 61.2045 76.212 61.4489 75.2347 61.9375C74.2574 62.4148 73.5017 63.0966 72.9677 63.983C72.4336 64.858 72.1722 65.8864 72.1836 67.0682C72.1722 68.2727 72.4392 69.3239 72.9847 70.2216C73.5415 71.1193 74.3086 71.8182 75.2858 72.3182C76.2631 72.8182 77.3881 73.0682 78.6608 73.0682Z" fill="white"/>
<path d="M11.864 158.386C9.52305 158.386 7.45487 157.972 5.65941 157.142C3.87532 156.301 2.48328 155.148 1.48328 153.682C0.483276 152.205 -0.011042 150.523 0.000321612 148.636C-0.011042 147.159 0.278731 145.795 0.86964 144.545C1.46055 143.284 2.26737 142.233 3.29009 141.392C4.32419 140.54 5.47759 140 6.75032 139.773V139.568C5.07987 139.136 3.75032 138.199 2.76169 136.756C1.77305 135.301 1.28441 133.648 1.29578 131.795C1.28441 130.023 1.73328 128.438 2.64237 127.04C3.55146 125.642 4.80146 124.54 6.39237 123.733C7.99464 122.926 9.8185 122.523 11.864 122.523C13.8867 122.523 15.6935 122.926 17.2844 123.733C18.8753 124.54 20.1253 125.642 21.0344 127.04C21.9549 128.438 22.4208 130.023 22.4321 131.795C22.4208 133.648 21.9151 135.301 20.9151 136.756C19.9265 138.199 18.614 139.136 16.9776 139.568V139.773C18.239 140 19.3753 140.54 20.3867 141.392C21.398 142.233 22.2049 143.284 22.8071 144.545C23.4094 145.795 23.7162 147.159 23.7276 148.636C23.7162 150.523 23.2049 152.205 22.1935 153.682C21.1935 155.148 19.8015 156.301 18.0174 157.142C16.2446 157.972 14.1935 158.386 11.864 158.386ZM11.864 154.636C13.4435 154.636 14.8071 154.381 15.9549 153.869C17.1026 153.358 17.989 152.636 18.614 151.705C19.239 150.773 19.5571 149.682 19.5685 148.432C19.5571 147.114 19.2162 145.949 18.5458 144.938C17.8753 143.926 16.9605 143.131 15.8015 142.551C14.6537 141.972 13.3412 141.682 11.864 141.682C10.3753 141.682 9.04578 141.972 7.87532 142.551C6.71623 143.131 5.80146 143.926 5.131 144.938C4.47191 145.949 4.14805 147.114 4.15941 148.432C4.14805 149.682 4.44918 150.773 5.06282 151.705C5.68782 152.636 6.57987 153.358 7.73896 153.869C8.89805 154.381 10.273 154.636 11.864 154.636ZM11.864 138.068C13.114 138.068 14.2219 137.818 15.1878 137.318C16.1651 136.818 16.9321 136.119 17.489 135.222C18.0458 134.324 18.3299 133.273 18.3412 132.068C18.3299 130.886 18.0515 129.858 17.506 128.983C16.9605 128.097 16.2049 127.415 15.239 126.938C14.273 126.449 13.148 126.205 11.864 126.205C10.5571 126.205 9.41509 126.449 8.43782 126.938C7.46055 127.415 6.70487 128.097 6.17078 128.983C5.63669 129.858 5.37532 130.886 5.38668 132.068C5.37532 133.273 5.64237 134.324 6.18782 135.222C6.74464 136.119 7.51169 136.818 8.48896 137.318C9.46623 137.818 10.5912 138.068 11.864 138.068Z" fill="white"/>
<path d="M41.4421 158.386C39.1012 158.386 37.033 157.972 35.2375 157.142C33.4534 156.301 32.0614 155.148 31.0614 153.682C30.0614 152.205 29.5671 150.523 29.5784 148.636C29.5671 147.159 29.8569 145.795 30.4478 144.545C31.0387 143.284 31.8455 142.233 32.8682 141.392C33.9023 140.54 35.0557 140 36.3284 139.773V139.568C34.658 139.136 33.3284 138.199 32.3398 136.756C31.3512 135.301 30.8625 133.648 30.8739 131.795C30.8625 130.023 31.3114 128.438 32.2205 127.04C33.1296 125.642 34.3796 124.54 35.9705 123.733C37.5728 122.926 39.3966 122.523 41.4421 122.523C43.4648 122.523 45.2716 122.926 46.8625 123.733C48.4534 124.54 49.7034 125.642 50.6125 127.04C51.533 128.438 51.9989 130.023 52.0103 131.795C51.9989 133.648 51.4932 135.301 50.4932 136.756C49.5046 138.199 48.1921 139.136 46.5557 139.568V139.773C47.8171 140 48.9534 140.54 49.9648 141.392C50.9762 142.233 51.783 143.284 52.3853 144.545C52.9875 145.795 53.2944 147.159 53.3057 148.636C53.2944 150.523 52.783 152.205 51.7716 153.682C50.7716 155.148 49.3796 156.301 47.5955 157.142C45.8228 157.972 43.7716 158.386 41.4421 158.386ZM41.4421 154.636C43.0216 154.636 44.3853 154.381 45.533 153.869C46.6807 153.358 47.5671 152.636 48.1921 151.705C48.8171 150.773 49.1353 149.682 49.1466 148.432C49.1353 147.114 48.7944 145.949 48.1239 144.938C47.4534 143.926 46.5387 143.131 45.3796 142.551C44.2319 141.972 42.9194 141.682 41.4421 141.682C39.9534 141.682 38.6239 141.972 37.4534 142.551C36.2944 143.131 35.3796 143.926 34.7091 144.938C34.05 145.949 33.7262 147.114 33.7375 148.432C33.7262 149.682 34.0273 150.773 34.6409 151.705C35.2659 152.636 36.158 153.358 37.3171 153.869C38.4762 154.381 39.8512 154.636 41.4421 154.636ZM41.4421 138.068C42.6921 138.068 43.8 137.818 44.7659 137.318C45.7432 136.818 46.5103 136.119 47.0671 135.222C47.6239 134.324 47.908 133.273 47.9194 132.068C47.908 130.886 47.6296 129.858 47.0841 128.983C46.5387 128.097 45.783 127.415 44.8171 126.938C43.8512 126.449 42.7262 126.205 41.4421 126.205C40.1353 126.205 38.9932 126.449 38.0159 126.938C37.0387 127.415 36.283 128.097 35.7489 128.983C35.2148 129.858 34.9534 130.886 34.9648 132.068C34.9534 133.273 35.2205 134.324 35.7659 135.222C36.3228 136.119 37.0898 136.818 38.0671 137.318C39.0444 137.818 40.1694 138.068 41.4421 138.068Z" fill="white"/>
<path d="M61.7603 158.182C60.9194 158.182 60.1978 157.881 59.5955 157.278C58.9932 156.676 58.6921 155.955 58.6921 155.114C58.6921 154.273 58.9932 153.551 59.5955 152.949C60.1978 152.347 60.9194 152.045 61.7603 152.045C62.6012 152.045 63.3228 152.347 63.925 152.949C64.5273 153.551 64.8284 154.273 64.8284 155.114C64.8284 155.67 64.6864 156.182 64.4023 156.648C64.1296 157.114 63.7603 157.489 63.2944 157.773C62.8398 158.045 62.3284 158.182 61.7603 158.182Z" fill="white"/>
<path d="M71.979 157.909V154.841L83.5017 142.227C84.854 140.75 85.9677 139.466 86.8427 138.375C87.7177 137.273 88.3654 136.239 88.7858 135.273C89.2177 134.295 89.4336 133.273 89.4336 132.205C89.4336 130.977 89.1381 129.915 88.5472 129.017C87.9676 128.119 87.1722 127.426 86.1608 126.938C85.1495 126.449 84.0131 126.205 82.7517 126.205C81.4108 126.205 80.2404 126.483 79.2404 127.04C78.2517 127.585 77.4847 128.352 76.9392 129.341C76.4051 130.33 76.1381 131.489 76.1381 132.818H72.1154C72.1154 130.773 72.587 128.977 73.5302 127.432C74.4733 125.886 75.7574 124.682 77.3824 123.818C79.0188 122.955 80.854 122.523 82.8881 122.523C84.9336 122.523 86.7461 122.955 88.3256 123.818C89.9052 124.682 91.1438 125.847 92.0415 127.312C92.9392 128.778 93.3881 130.409 93.3881 132.205C93.3881 133.489 93.1551 134.744 92.6892 135.972C92.2347 137.187 91.4392 138.545 90.3029 140.045C89.1779 141.534 87.6154 143.352 85.6154 145.5L77.7745 153.886V154.159H94.0017V157.909H71.979Z" fill="white"/>
<path d="M88.7958 186.523C90.2276 186.534 91.6594 186.807 93.0912 187.341C94.5231 187.875 95.8299 188.761 97.0117 190C98.1935 191.227 99.1424 192.903 99.8583 195.028C100.574 197.153 100.932 199.818 100.932 203.023C100.932 206.125 100.637 208.881 100.046 211.29C99.4662 213.688 98.6253 215.71 97.523 217.358C96.4321 219.006 95.1026 220.256 93.5344 221.108C91.9776 221.96 90.2162 222.386 88.2503 222.386C86.2958 222.386 84.5515 222 83.0174 221.227C81.4946 220.443 80.2446 219.358 79.2674 217.972C78.3015 216.574 77.6821 214.955 77.4094 213.114H81.5685C81.9435 214.716 82.6878 216.04 83.8015 217.085C84.9265 218.119 86.4094 218.636 88.2503 218.636C90.9435 218.636 93.0685 217.46 94.6253 215.108C96.1935 212.756 96.9776 209.432 96.9776 205.136H96.7049C96.0685 206.091 95.3128 206.915 94.4378 207.608C93.5628 208.301 92.5912 208.835 91.523 209.21C90.4549 209.585 89.3185 209.773 88.114 209.773C86.114 209.773 84.2787 209.278 82.6083 208.29C80.9492 207.29 79.6196 205.92 78.6196 204.182C77.631 202.432 77.1367 200.432 77.1367 198.182C77.1367 196.045 77.614 194.091 78.5685 192.318C79.5344 190.534 80.8867 189.114 82.6253 188.057C84.3753 187 86.4321 186.489 88.7958 186.523ZM88.7958 190.273C87.364 190.273 86.0742 190.631 84.9265 191.347C83.7901 192.051 82.8867 193.006 82.2162 194.21C81.5571 195.403 81.2276 196.727 81.2276 198.182C81.2276 199.636 81.5458 200.96 82.1821 202.153C82.8299 203.335 83.7106 204.278 84.8242 204.983C85.9492 205.676 87.2276 206.023 88.6594 206.023C89.739 206.023 90.7446 205.812 91.6765 205.392C92.6083 204.96 93.4208 204.375 94.114 203.636C94.8185 202.886 95.3696 202.04 95.7674 201.097C96.1651 200.142 96.364 199.148 96.364 198.114C96.364 196.75 96.0344 195.472 95.3753 194.278C94.7276 193.085 93.8299 192.119 92.6821 191.381C91.5458 190.642 90.2503 190.273 88.7958 190.273Z" fill="white"/>
<path d="M119.226 222.386C117.794 222.364 116.363 222.091 114.931 221.568C113.499 221.045 112.192 220.165 111.01 218.926C109.828 217.676 108.88 215.989 108.164 213.864C107.448 211.727 107.09 209.045 107.09 205.818C107.09 202.727 107.38 199.989 107.959 197.602C108.539 195.205 109.38 193.187 110.482 191.551C111.584 189.903 112.914 188.653 114.47 187.801C116.039 186.949 117.806 186.523 119.772 186.523C121.726 186.523 123.465 186.915 124.988 187.699C126.522 188.472 127.772 189.551 128.738 190.938C129.703 192.324 130.328 193.92 130.613 195.727H126.453C126.067 194.159 125.317 192.858 124.203 191.824C123.09 190.79 121.613 190.273 119.772 190.273C117.067 190.273 114.936 191.449 113.38 193.801C111.834 196.153 111.056 199.455 111.044 203.705H111.317C111.953 202.739 112.709 201.915 113.584 201.233C114.47 200.54 115.448 200.006 116.516 199.631C117.584 199.256 118.715 199.068 119.908 199.068C121.908 199.068 123.738 199.568 125.397 200.568C127.056 201.557 128.385 202.926 129.385 204.676C130.385 206.415 130.885 208.409 130.885 210.659C130.885 212.818 130.402 214.795 129.436 216.591C128.47 218.375 127.113 219.795 125.363 220.852C123.624 221.898 121.578 222.409 119.226 222.386ZM119.226 218.636C120.658 218.636 121.942 218.278 123.078 217.562C124.226 216.847 125.13 215.886 125.789 214.682C126.459 213.477 126.794 212.136 126.794 210.659C126.794 209.216 126.47 207.903 125.823 206.722C125.186 205.528 124.306 204.58 123.181 203.875C122.067 203.17 120.794 202.818 119.363 202.818C118.283 202.818 117.277 203.034 116.345 203.466C115.414 203.886 114.595 204.466 113.891 205.205C113.198 205.943 112.652 206.79 112.255 207.744C111.857 208.688 111.658 209.682 111.658 210.727C111.658 212.114 111.982 213.409 112.63 214.614C113.289 215.818 114.186 216.79 115.323 217.528C116.47 218.267 117.772 218.636 119.226 218.636Z" fill="white"/>
<path d="M28.9549 245V279.909H24.7276V249.432H24.523L16.0003 255.091V250.795L24.7276 245H28.9549Z" fill="white"/>
<path d="M40.0855 279.909L55.6992 249.023V248.75H37.6992V245H60.0628V248.955L44.5174 279.909H40.0855Z" fill="white"/>
<path d="M77.2574 280.386C75.8256 280.364 74.3938 280.091 72.962 279.568C71.5301 279.045 70.2233 278.165 69.0415 276.926C67.8597 275.676 66.9108 273.989 66.1949 271.864C65.479 269.727 65.1211 267.045 65.1211 263.818C65.1211 260.727 65.4108 257.989 65.9904 255.602C66.5699 253.205 67.4108 251.187 68.5131 249.551C69.6154 247.903 70.9449 246.653 72.5017 245.801C74.0699 244.949 75.837 244.523 77.8029 244.523C79.7574 244.523 81.4961 244.915 83.0188 245.699C84.5529 246.472 85.8029 247.551 86.7688 248.938C87.7347 250.324 88.3597 251.92 88.6438 253.727H84.4847C84.0983 252.159 83.3483 250.858 82.2347 249.824C81.1211 248.79 79.6438 248.273 77.8029 248.273C75.0983 248.273 72.9677 249.449 71.4108 251.801C69.8654 254.153 69.087 257.455 69.0756 261.705H69.3483C69.9847 260.739 70.7404 259.915 71.6154 259.233C72.5017 258.54 73.479 258.006 74.5472 257.631C75.6154 257.256 76.7461 257.068 77.9392 257.068C79.9392 257.068 81.7688 257.568 83.4279 258.568C85.087 259.557 86.4165 260.926 87.4165 262.676C88.4165 264.415 88.9165 266.409 88.9165 268.659C88.9165 270.818 88.4336 272.795 87.4677 274.591C86.5017 276.375 85.1438 277.795 83.3938 278.852C81.6552 279.898 79.6097 280.409 77.2574 280.386ZM77.2574 276.636C78.6892 276.636 79.9733 276.278 81.1097 275.562C82.2574 274.847 83.1608 273.886 83.8199 272.682C84.4904 271.477 84.8256 270.136 84.8256 268.659C84.8256 267.216 84.5017 265.903 83.854 264.722C83.2176 263.528 82.337 262.58 81.212 261.875C80.0983 261.17 78.8256 260.818 77.3938 260.818C76.3142 260.818 75.3086 261.034 74.3767 261.466C73.4449 261.886 72.6267 262.466 71.9222 263.205C71.229 263.943 70.6836 264.79 70.2858 265.744C69.8881 266.688 69.6892 267.682 69.6892 268.727C69.6892 270.114 70.0131 271.409 70.6608 272.614C71.3199 273.818 72.2176 274.79 73.354 275.528C74.5017 276.267 75.8029 276.636 77.2574 276.636Z" fill="white"/>
<path d="M96.979 280.182C96.1381 280.182 95.4165 279.881 94.8142 279.278C94.212 278.676 93.9108 277.955 93.9108 277.114C93.9108 276.273 94.212 275.551 94.8142 274.949C95.4165 274.347 96.1381 274.045 96.979 274.045C97.8199 274.045 98.5415 274.347 99.1438 274.949C99.7461 275.551 100.047 276.273 100.047 277.114C100.047 277.67 99.9052 278.182 99.6211 278.648C99.3483 279.114 98.979 279.489 98.5131 279.773C98.0586 280.045 97.5472 280.182 96.979 280.182Z" fill="white"/>
<path d="M106.38 272.75V269.273L121.72 245H124.243V250.386H122.539L110.948 268.727V269H131.607V272.75H106.38ZM122.811 279.909V245H126.834V279.909H122.811Z" fill="white"/>
<path d="M42.9549 308V342.909H38.7276V312.432H38.523L30.0003 318.091V313.795L38.7276 308H42.9549Z" fill="white"/>
<path d="M64.1083 307.523C65.5401 307.534 66.9719 307.807 68.4037 308.341C69.8356 308.875 71.1424 309.761 72.3242 311C73.506 312.227 74.4549 313.903 75.1708 316.028C75.8867 318.153 76.2446 320.818 76.2446 324.023C76.2446 327.125 75.9492 329.881 75.3583 332.29C74.7787 334.687 73.9378 336.71 72.8355 338.358C71.7446 340.006 70.4151 341.256 68.8469 342.108C67.2901 342.96 65.5287 343.386 63.5628 343.386C61.6083 343.386 59.864 343 58.3299 342.227C56.8071 341.443 55.5571 340.358 54.5799 338.972C53.614 337.574 52.9946 335.955 52.7219 334.114H56.881C57.256 335.716 58.0003 337.04 59.114 338.085C60.239 339.119 61.7219 339.636 63.5628 339.636C66.256 339.636 68.381 338.46 69.9378 336.108C71.506 333.756 72.2901 330.432 72.2901 326.136H72.0174C71.381 327.091 70.6253 327.915 69.7503 328.608C68.8753 329.301 67.9037 329.835 66.8355 330.21C65.7674 330.585 64.631 330.773 63.4265 330.773C61.4265 330.773 59.5912 330.278 57.9208 329.29C56.2617 328.29 54.9321 326.92 53.9321 325.182C52.9435 323.432 52.4492 321.432 52.4492 319.182C52.4492 317.045 52.9265 315.091 53.881 313.318C54.8469 311.534 56.1992 310.114 57.9378 309.057C59.6878 308 61.7446 307.489 64.1083 307.523ZM64.1083 311.273C62.6765 311.273 61.3867 311.631 60.239 312.347C59.1026 313.051 58.1992 314.006 57.5287 315.21C56.8696 316.403 56.5401 317.727 56.5401 319.182C56.5401 320.636 56.8583 321.96 57.4946 323.153C58.1424 324.335 59.023 325.278 60.1367 325.983C61.2617 326.676 62.5401 327.023 63.9719 327.023C65.0515 327.023 66.0571 326.813 66.989 326.392C67.9208 325.96 68.7333 325.375 69.4265 324.636C70.131 323.886 70.6821 323.04 71.0799 322.097C71.4776 321.142 71.6765 320.148 71.6765 319.114C71.6765 317.75 71.3469 316.472 70.6878 315.278C70.0401 314.085 69.1424 313.119 67.9946 312.381C66.8583 311.642 65.5628 311.273 64.1083 311.273Z" fill="white"/>
<path d="M82.9478 342.909V339.841L94.4705 327.227C95.8228 325.75 96.9364 324.466 97.8114 323.375C98.6864 322.273 99.3341 321.239 99.7546 320.273C100.186 319.295 100.402 318.273 100.402 317.205C100.402 315.977 100.107 314.915 99.5159 314.017C98.9364 313.119 98.1409 312.426 97.1296 311.938C96.1182 311.449 94.9819 311.205 93.7205 311.205C92.3796 311.205 91.2091 311.483 90.2091 312.04C89.2205 312.585 88.4534 313.352 87.908 314.341C87.3739 315.33 87.1069 316.489 87.1069 317.818H83.0841C83.0841 315.773 83.5557 313.977 84.4989 312.432C85.4421 310.886 86.7262 309.682 88.3512 308.818C89.9875 307.955 91.8228 307.523 93.8569 307.523C95.9023 307.523 97.7148 307.955 99.2944 308.818C100.874 309.682 102.113 310.847 103.01 312.312C103.908 313.778 104.357 315.409 104.357 317.205C104.357 318.489 104.124 319.744 103.658 320.972C103.203 322.187 102.408 323.545 101.272 325.045C100.147 326.534 98.5841 328.352 96.5841 330.5L88.7432 338.886V339.159H104.97V342.909H82.9478Z" fill="white"/>
</svg>
