<svg width="1125" height="505" viewBox="0 0 1125 505" fill="none" xmlns="http://www.w3.org/2000/svg">
<path d="M991.749 334.857C991.749 343.358 992.269 348.45 993.153 348.45C994.023 348.45 994.557 343.4 994.557 334.983V321.517H1123.7V359.392L921.211 359.552C812.561 359.636 726.623 359.838 726.623 359.998C726.623 360.006 726.679 360.006 726.792 360.014C731.227 360.183 734.863 360.679 734.863 361.117C734.863 361.597 747.693 361.917 767.149 361.917C787.742 361.917 799.436 361.614 799.436 361.075C799.436 359.762 828.535 359.972 829.265 361.285C829.714 362.102 841.983 362.354 883.773 362.422C947.11 362.514 953.23 362.497 953.792 363.558C953.848 363.667 953.848 363.794 953.848 363.928C953.848 363.962 953.848 363.987 953.848 364.021C953.848 365.107 958.368 365.283 986.134 365.283C1013.9 365.283 1018.42 365.107 1018.42 364.021C1018.42 362.977 1020.99 362.758 1033.16 362.758C1045.11 362.758 1047.9 362.994 1047.9 363.979C1047.9 364.871 1050.09 365.283 1055.97 365.502C1060.41 365.671 1077.46 365.881 1093.87 365.965L1123.7 366.125V379.171C1123.7 377.235 1123.18 377.067 1117.39 377.067C1113.92 377.067 1111.07 376.688 1111.07 376.225C1111.07 374.887 1048.36 375.097 1047.31 376.435C1046.66 377.277 1046.33 377.277 1045.68 376.435C1045.06 375.644 1037.75 375.383 1016.2 375.383H987.538V368.65H953.848V375.383H892.083C851.838 375.383 830.318 375.678 830.318 376.225C830.318 376.764 818.849 377.067 798.734 377.067C778.618 377.067 767.149 376.764 767.149 376.225C767.149 375.669 698.829 375.383 565.009 375.383C431.19 375.383 362.869 375.669 362.869 376.225C362.869 376.688 366.351 377.067 370.59 377.067C376.514 377.067 378.311 377.361 378.311 378.329C378.311 379.415 382.831 379.592 410.597 379.592C438.363 379.592 442.883 379.415 442.883 378.329C442.883 377.285 445.452 377.067 457.622 377.067C469.793 377.067 472.362 377.285 472.362 378.329C472.362 379.297 474.159 379.592 480.082 379.592C484.322 379.592 487.803 379.97 487.803 380.433C487.803 380.972 499.496 381.275 520.089 381.275C540.682 381.275 552.376 380.972 552.376 380.433C552.376 379.928 558.229 379.592 567.115 379.592C576.001 379.592 581.854 379.928 581.854 380.433C581.854 380.896 585.336 381.275 589.575 381.275C593.814 381.275 597.296 381.654 597.296 382.117C597.296 382.655 608.989 382.958 629.582 382.958C650.175 382.958 661.868 382.655 661.868 382.117C661.868 381.612 667.722 381.275 676.607 381.275C685.493 381.275 691.347 381.612 691.347 382.117C691.347 382.58 694.828 382.958 699.068 382.958H706.788V391.375H771.361V383.379L947.882 383.446C1040.14 383.48 1110.6 383.379 1110.6 383.228C1110.6 383.219 1110.41 383.211 1110.02 383.202C1091.37 382.807 1091.09 381.275 1109.66 381.275H1123.7V391.375H910.332V399.792H925.773V407.367H990.346V399.792H1123.7V440.461L1081.36 439.905C1039.52 439.358 670.206 439.4 670.206 439.939C670.206 439.948 670.347 439.964 670.642 439.973L678.713 440.276V455.342H743.286V440.192H772.764V447.767H1123.7V455.342H938.407V462.075H908.928V455.342H844.356V462.075H861.902C872.669 462.075 879.449 462.403 879.449 462.917C879.449 463.455 891.143 463.758 911.736 463.758C932.329 463.758 944.022 463.455 944.022 462.917C944.022 462.412 949.875 462.075 958.761 462.075C967.647 462.075 973.501 462.412 973.501 462.917C973.501 463.38 976.968 463.758 981.221 463.758H988.942V471.333H1053.51V463.758H1123.7V475.584L996.662 475.559C912.143 475.533 869.623 475.811 869.623 476.375C869.623 476.922 858.337 477.225 838.039 477.225C817.923 477.225 806.454 476.922 806.454 476.383C806.454 475.828 738.134 475.542 604.314 475.542C470.495 475.542 402.174 475.828 402.174 476.383C402.174 476.888 407.789 477.225 416.212 477.225C424.634 477.225 430.249 477.562 430.249 478.067C430.249 478.605 441.943 478.908 462.536 478.908C483.129 478.908 494.822 478.605 494.822 478.067C494.822 476.754 523.922 476.964 524.652 478.277C525.101 479.093 538.942 479.38 586.178 479.556C619.699 479.683 674.923 479.969 708.894 480.204C742.865 480.44 797.498 480.76 830.318 480.928C863.138 481.097 893.613 481.273 898.049 481.332L906.121 481.433V487.325H923.667C934.434 487.325 941.214 487.653 941.214 488.167C941.214 488.705 952.908 489.008 973.501 489.008C994.094 489.008 1005.79 488.705 1005.79 488.167C1005.79 487.653 999.007 487.325 988.24 487.325H970.693V481.433H1123.7V492.375L1102.29 492.4C1039.73 492.484 960.179 491.399 959.042 490.431C958.116 489.665 957.68 489.673 957.133 490.481C956.235 491.819 892.083 492.03 892.083 490.692C892.083 490.136 832.213 489.85 715.295 489.85C598.952 489.85 538.212 489.564 537.636 489.008C537.131 488.52 529.663 488.167 520.005 488.167C509.772 488.167 503.244 488.495 503.244 489.008C503.244 489.564 421.743 489.909 262.15 490.027C134.381 490.119 35.0095 490.313 35.0095 490.464C35.0095 490.464 35.1499 490.473 35.4447 490.481C43.4461 490.633 49.8331 491.113 49.8331 491.559C49.8331 492.064 62.3125 492.375 82.1194 492.375C102.712 492.375 114.406 492.072 114.406 491.533C114.406 490.22 143.505 490.431 144.235 491.744C144.685 492.56 158.245 492.821 205.06 492.905C285.649 493.048 293.58 492.973 294.128 494.134C294.184 494.269 294.156 494.403 294.128 494.563C294.114 494.673 294.086 494.782 294.086 494.9C294.086 496.533 295.026 496.583 326.372 496.583C357.718 496.583 358.658 496.533 358.658 494.9C358.658 493.326 359.599 493.217 373.397 493.217C386.916 493.217 388.137 493.351 388.137 494.807C388.137 496.297 389.976 496.44 416.563 497.004C432.201 497.332 459.84 497.518 477.977 497.417C505.111 497.265 612.372 497.753 640.461 498.157L647.831 498.267V505H243.551V501.726C243.551 499.47 242.835 498.284 241.262 497.922C240.013 497.635 224.067 497.408 205.818 497.417C187.583 497.425 151.97 497.189 126.688 496.878C83.2564 496.356 80.7156 496.238 80.7156 494.774C80.7156 493.915 80.0839 493.217 79.3119 493.217C78.5398 493.217 77.9081 493.974 77.9081 494.9C77.9081 496.533 76.9676 496.583 45.6219 496.583C14.2761 496.583 13.3356 496.533 13.3356 494.9C13.3356 493.469 12.3951 493.217 7.01875 493.217C0.72995 493.217 0.701875 493.233 0.701875 496.171V464.6H127.741C211.503 464.6 254.781 464.314 254.781 463.758C254.781 463.245 248.001 462.917 237.234 462.917H219.687V456.183H0.701875V448.608H54.0444V441.033H117.213V448.608H240.743V451.832C240.743 453.608 241.038 455.241 241.403 455.46C242.498 456.116 266.628 456.335 270.685 455.72C273.942 455.232 274.433 454.736 274.433 451.882V448.608H331.987V441.269L293.019 440.663C271.583 440.326 247.102 440.116 238.623 440.192C230.131 440.276 210.085 440.301 194.068 440.267L164.941 440.192V432.617H131.251V440.192L71.2403 440.2C38.2381 440.208 8.85766 440.444 5.96594 440.73C0.814175 441.244 0.701875 441.336 0.701875 444.93V400.642L190.91 400.212L191.766 392.217H0.701875V382.117H18.2488C41.2281 382.117 41.4949 383.648 18.5997 384.069C9.13841 384.238 33.6198 384.347 72.995 384.305C112.37 384.254 172.535 384.313 206.702 384.431L268.818 384.642V392.217H254.781V400.642L468.852 400.212L469.274 396.215L469.709 392.217H302.508V384.642L331.636 384.456C359.514 384.271 359.809 384.254 338.655 384.01C325.53 383.859 316.546 383.421 316.546 382.933C316.546 381.62 253.812 381.847 252.787 383.169C252.142 384.01 251.805 384.01 251.159 383.169C250.555 382.394 244.632 382.117 228.699 382.117C215.209 382.117 207.053 381.797 207.053 381.275C207.053 379.937 144.348 380.147 143.295 381.485C142.649 382.327 142.312 382.327 141.666 381.485C141.063 380.711 135.139 380.433 119.206 380.433C100.902 380.433 97.5606 380.24 97.5606 379.171C97.5606 378.085 93.1107 377.908 65.9762 377.908C38.8418 377.908 34.3919 378.085 34.3919 379.171C34.3919 379.869 33.7602 380.433 32.9881 380.433C32.2161 380.433 31.5844 379.869 31.5844 379.171C31.5844 378.127 28.9313 377.908 16.1431 377.908H0.701875V366.546L17.8978 366.731C68.896 367.27 152.447 367.918 200.034 368.137C229.766 368.271 257.392 368.44 261.448 368.515L268.818 368.65V377.067H333.391V368.65L440.427 368.448C499.3 368.339 609.789 368.347 685.985 368.465C764.861 368.591 824.829 368.364 825.265 367.943C826.065 367.177 760.046 365.881 732.743 366.125C689.943 366.521 673.098 366.159 673.098 364.862C673.098 363.777 668.648 363.6 641.514 363.6C614.379 363.6 609.929 363.777 609.929 364.862C609.929 365.561 609.298 366.125 608.526 366.125C607.754 366.125 607.122 365.612 607.122 364.989C607.122 363.65 560.602 362.733 494.836 362.767C468.923 362.784 454.661 362.489 454.352 361.933C453.608 360.587 391.38 360.78 390.467 362.127C389.906 362.96 389.498 362.96 388.516 362.135C387 360.856 317.921 360.158 196.048 360.2C113.9 360.233 112.735 360.208 112.005 358.55C111.317 356.984 110.096 356.867 94.5847 356.867C78.8486 356.867 77.9081 356.959 77.9081 358.55C77.9081 360.191 76.9676 360.233 39.305 360.233H0.701875V322.308L41.7616 322.745C64.3479 322.99 97.8273 323.394 116.16 323.646C138.705 323.949 149.499 323.823 149.499 323.234C149.499 322.628 246.807 322.358 459.728 322.358C665.616 322.358 769.957 322.645 769.957 323.2C769.957 323.713 776.512 324.042 786.802 324.042C797.091 324.042 803.647 323.713 803.647 323.2C803.647 322.661 815.34 322.358 835.933 322.358C863.699 322.358 868.219 322.182 868.219 321.096C875.336 319.833 876.642 320.246 876.642 321.163C876.642 322.375 882.173 322.443 934.196 321.887L991.749 321.273V334.857ZM281.452 0V93.425H346.024V0H375.503V4.20833H779.783V0H842.952V4.20833H966.482V11.7833H842.952V20.2H966.482V27.775H842.952V36.1917H966.482V43.7667H842.797L843.233 47.7646L843.654 51.7625L966.482 52.2002V58.9167H842.952V67.3333H966.482V74.9083H842.952V83.325H966.482V90.9H842.952V99.3167H966.482V106.892H842.952V115.308H931.388V122.042H807.858V130.458H931.388V138.033H807.858V146.45H931.388V154.025H808.013L807.577 158.023L807.156 162.021L744.689 162.475V154.025H340.409V157.392C340.409 160.674 340.297 160.758 335.496 160.758C330.723 160.758 330.583 160.851 330.583 164.058C330.583 165.901 329.811 167.534 328.828 167.778C328.828 168.013 462.69 168.232 627.125 168.266C826.149 168.308 927.177 168.619 927.177 169.175C927.177 169.722 905.517 170.017 865.005 170.017H802.833L796.895 173.644C793.624 175.639 791.392 177.533 791.912 177.853C792.445 178.172 820.253 178.433 853.719 178.433H914.543V185.167H760.706L755.217 188.533C750.726 191.294 748.774 191.9 744.409 191.9C741.475 191.9 739.074 191.631 739.074 191.311C739.074 190.983 741.096 189.468 743.566 187.944L748.044 185.167H324.14L313.163 191.9H298.634C288.316 191.9 284.372 191.631 285.06 190.966C285.747 190.301 282.757 190.116 274.672 190.334L263.315 190.646L267.47 188.079C270.32 186.32 271.626 184.662 271.626 182.81V180.117H282.856C291.096 180.117 294.086 179.831 294.086 179.031C294.086 178.433 296.921 176.27 300.402 174.225C303.884 172.18 306.719 170.008 306.719 169.394C306.719 168.779 307.674 168.064 308.825 167.795C310.425 167.424 310.931 165.859 310.931 161.204V155.094L304.417 154.564C300.838 154.269 294.998 153.991 291.433 153.958C287.867 153.924 285.747 153.705 286.716 153.469C287.685 153.234 288.471 152.468 288.471 151.769C288.471 150.709 289.874 150.591 296.795 151.071C297.623 151.13 298.409 151.189 299.153 151.247C303.533 151.567 306.284 151.778 308.025 151.071C310.973 149.876 310.959 146.054 310.931 135.71C310.931 134.692 310.931 133.598 310.931 132.445V114.34L345.322 114.761L346.109 94.2667H281.452V114.467H246.358V151.5H261.799C270.292 151.5 277.241 151.828 277.241 152.241C277.241 153.352 269.717 154.025 257.265 154.025H246.063L247.13 160.758H32.9881V137.613C32.9881 122.74 32.4828 114.467 31.5844 114.467C30.686 114.467 30.1806 122.74 30.1806 137.613V160.758H0.701875V0H281.452ZM646.427 311.417V319.833H583.258V311.417H178.978V317.308H149.499V288.338L161.319 281.117L152.251 281.032C144.404 280.957 132.991 279.753 137.918 279.517C139.07 279.459 139.673 277.986 139.673 275.225V271.017H161.558L167.116 267.574C170.163 265.68 177.715 262.617 183.891 260.757C190.068 258.897 197.171 256.203 199.683 254.773C203.937 252.348 204.246 251.785 204.246 246.608C204.246 243.553 204.849 240.691 205.593 240.245C206.435 239.74 202.73 239.555 195.416 239.74L183.891 240.035L189.436 236.584L194.995 233.142H216.879V229.186C216.879 225.87 217.609 224.775 221.371 222.452L225.849 219.675H218.718C214.802 219.675 210.029 219.187 208.12 218.598C202.758 216.931 206.772 215.467 216.711 215.467C226.341 215.467 229.513 214.92 229.513 213.27C229.513 212.277 275.514 212.1 539.742 212.1H849.971V217.15H725.626L719.717 220.761C716.46 222.747 713.807 224.641 713.807 224.969C713.807 225.297 741.601 225.567 775.572 225.567H837.337V233.142H683.514L677.576 236.769C674.305 238.764 672.073 240.658 672.593 240.978C673.126 241.297 707.574 241.558 749.139 241.558H824.703V248.292H701.173V250.236C701.173 251.313 699.404 253.207 697.243 254.444L693.298 256.708H630.466L634.228 254.352C636.306 253.047 638.004 251.153 638.004 250.143V248.292H233.724V250.396C233.724 252.273 233.149 252.5 228.348 252.5C224.375 252.5 222.101 253.072 219.575 254.688C217.708 255.892 211.124 258.392 204.947 260.243C193.802 263.585 182.642 268.955 184.032 270.31C185.772 272.001 191.387 270.806 196.525 267.65L202.014 264.283H358.321L352.762 267.616C349.702 269.451 347.611 271.345 348.102 271.825C348.677 272.389 359.444 272.683 378.044 272.658L407.087 272.624L419.244 264.283H390.355C374.464 264.283 361.466 263.989 361.466 263.627C361.466 263.265 366.21 261.556 372.022 259.839L382.564 256.708L443.585 256.809L433.408 259.89C427.807 261.582 423.231 263.265 423.231 263.627C423.231 263.989 460.318 264.283 505.631 264.283H588.045L582.837 267.473C575.467 272.01 575.987 272.7 586.768 272.7C593.309 272.7 595.892 272.389 595.892 271.606C595.892 271.008 598.292 269.115 601.212 267.397L606.532 264.283H889.823L902.232 260.437C909.054 258.324 916.045 256.717 917.744 256.86C920.144 257.07 918.684 257.802 911.385 260.075C906.177 261.691 901.923 263.307 901.909 263.652C901.909 263.997 912.774 264.283 926.054 264.283H950.184L940.667 270.175H1004.38V275.048C1004.38 279.72 1004.12 280.081 998.066 283.642L991.749 287.362V316.467H927.177V311.417H864.008V315.625C864.008 317.94 863.376 319.833 862.604 319.833C861.832 319.833 861.201 317.94 861.201 315.625V311.417H803.647V304.717L860.499 304.262L860.92 300.265L861.355 296.267H803.647V288.692H859.207L873.02 280.275H816.281V272.7H782.591V280.275H658.246L652.337 283.886C649.08 285.872 646.427 287.766 646.427 288.094C646.427 288.422 674.221 288.692 708.192 288.692H769.957V296.267H646.272L646.708 300.265L647.129 304.262L769.957 304.7V311.417H646.427ZM1123.7 210.871L1100.89 210.627C1083.06 210.433 1077.38 210.122 1077.38 209.306C1077.38 208.725 1080.23 206.57 1083.69 204.525C1089.37 201.192 1090.01 200.409 1090.01 196.942C1090.01 194.821 1090.77 192.624 1091.7 192.068C1092.64 191.504 1092.76 191.058 1091.98 191.058C1088.97 191.058 1087.2 193.238 1087.2 196.942C1087.2 200.409 1086.56 201.192 1080.89 204.525C1077.42 206.57 1074.57 208.733 1074.57 209.331C1074.57 210.181 1067.51 210.459 1041.93 210.61L1009.3 210.804L1071.76 211.292V214.044C1071.76 216.199 1070.39 217.613 1065.45 220.517C1059.61 223.959 1059.13 224.557 1059.13 228.512C1059.13 232.468 1058.65 233.066 1052.81 236.508C1046.55 240.195 1046.5 240.279 1046.5 245.943V251.658H1014.21C982.864 251.658 981.923 251.608 981.923 249.975C981.923 248.342 980.983 248.292 950.339 248.292H918.754V250.236C918.754 252.113 911.104 257.449 909.644 256.582C909.265 256.346 910.514 255.269 912.438 254.183C914.375 253.098 915.947 251.322 915.947 250.253V248.292H858.393V241.558H913.954L927.766 233.142H871.027V225.567H926.587L940.4 217.15H883.661V212.1L1007.89 211.696L947.18 211.469C908.339 211.326 886.468 210.938 886.468 210.408C886.468 209.886 896.856 209.575 914.248 209.575H942.029L955.841 201.158H899.102V193.583H927.794C945.412 193.583 956.824 193.255 957.357 192.742C957.835 192.279 958.859 191.9 959.632 191.9C960.404 191.9 960.642 192.279 960.165 192.742C959.589 193.297 970.089 193.575 990.612 193.558C1015.92 193.533 1022.45 193.289 1024.65 192.296C1026.7 191.361 1031.6 191.058 1044.38 191.058H1061.39L1070.91 185.167H1007.77L1002.28 188.533C999.259 190.385 996.157 191.9 995.385 191.9C994.613 191.9 996.452 190.385 999.47 188.533L1004.96 185.167H948.233V178.433H1003.79L1017.61 170.017H989.237C971.255 170.017 960.867 169.705 960.867 169.175C960.867 168.636 972.364 168.333 992.549 168.333C1011.7 168.333 1025.3 167.988 1026.94 167.458C1028.49 166.961 1029.65 165.707 1029.65 164.512C1029.65 162.77 1030.32 162.442 1033.86 162.442C1037.4 162.442 1038.07 162.77 1038.07 164.504C1038.07 165.64 1036.96 166.953 1035.62 167.424C1032.61 168.468 1050.95 168.586 1094 167.778L1123.7 167.222V210.871ZM1060.53 11.7833V20.2H1123.7V27.775H1060.53V31.4194C1060.53 33.431 1060.95 35.3247 1061.47 35.6278C1061.98 35.9392 1076.2 36.1917 1093.06 36.1917H1123.7V43.7667H1060.53V47.4111C1060.53 49.4227 1060.95 51.3164 1061.47 51.6194C1061.98 51.9308 1076.2 52.1833 1093.06 52.1833H1123.7V58.9167H1060.53V67.3333H1123.7V74.9083H1060.53V78.5527C1060.53 80.5643 1060.95 82.4581 1061.47 82.7611C1061.98 83.0725 1076.2 83.325 1093.06 83.325H1123.7V90.9H1060.53V94.5444C1060.53 96.556 1060.95 98.4497 1061.47 98.7527C1061.98 99.0642 1076.2 99.3167 1093.06 99.3167H1123.7V106.892H1060.53V115.258L1074.57 115.199C1082.29 115.165 1088.97 114.803 1089.39 114.382C1089.83 113.97 1097.72 113.625 1106.94 113.625H1123.7V159.917H1088.61V154.025H1025.44V158.233C1025.44 160.548 1024.81 162.442 1024.04 162.442C1023.26 162.442 1022.63 160.548 1022.63 158.233V154.025H965.078V146.484L1021.93 146.029L1022.35 142.031L1022.79 138.033H965.078V130.458H1022.63V122.042H965.078V115.308L994.206 115.233C1010.22 115.19 1030.91 115.09 1040.18 115.022L1057.02 114.887L1057.44 110.89L1057.88 106.892H1000.17V99.3503L1057.02 98.8958L1057.44 94.8979L1057.88 90.9H1000.17V83.3587L1057.02 82.9042L1057.44 78.9062L1057.88 74.9083H1000.17V67.3333H1057.73V58.9167H1000.17V52.217L1057.02 51.7625L1057.44 47.7646L1057.88 43.7667H1000.17V36.2253L1057.02 35.7708L1057.44 31.7729L1057.88 27.775H1000.17V20.2337L1057.02 19.7792L1057.44 15.7812L1057.88 11.7833H1000.17V4.20833H1057.73V0H1060.53V4.20833H1123.7V11.7833H1060.53ZM852.778 210.417C852.778 210.972 748.437 211.258 542.549 211.258C289.945 211.258 232.321 211.056 232.321 210.173C232.321 209.575 235.156 207.412 238.637 205.367C244.309 202.034 244.954 201.251 244.954 197.783C244.954 195.662 245.712 193.465 246.639 192.91C248.773 191.631 277.844 191.471 276.539 192.75C275.514 193.743 696.344 193.339 707.322 192.338C712.207 191.892 713.891 191.984 713.203 192.649C712.501 193.331 733.024 193.583 788.823 193.583H865.412V201.158H741.292L735.27 204.702C731.957 206.646 729.248 208.54 729.248 208.91C729.248 209.272 757.042 209.575 791.013 209.575C831.259 209.575 852.778 209.87 852.778 210.417ZM0.701875 168.333H13.3356C28.2715 168.333 28.8049 168.838 19.6525 174.225C13.9813 177.558 13.3356 178.341 13.3356 181.808C13.3356 185.125 12.6338 186.084 8.43654 188.525C5.75538 190.082 3.87435 191.555 4.25336 191.791C4.64641 192.018 7.48199 190.738 10.5562 188.937C15.4693 186.067 16.1431 185.2 16.1431 181.808C16.1431 178.341 16.7889 177.558 22.46 174.225C25.9413 172.18 28.7769 170.017 28.7769 169.419C28.7769 168.544 49.2155 168.333 135.462 168.333C218.269 168.333 242.147 168.561 242.147 169.36C242.147 169.916 239.143 172.205 235.479 174.435C226.986 179.612 228.292 180.26 246.709 179.931L260.396 179.696V182.692C260.396 184.88 259.329 186.303 256.465 187.953C252.661 190.132 251.945 190.217 236.883 190.217C227.983 190.217 220.88 190.579 220.389 191.058C219.883 191.546 212.05 191.9 201.635 191.9C189.59 191.9 183.203 192.228 182.066 192.91C181.14 193.465 180.382 195.662 180.382 197.783C180.382 201.259 179.736 202.034 174.037 205.383C170.542 207.437 168.001 209.6 168.38 210.189C168.927 211.048 152.265 211.3 84.5338 211.46L0.701875 211.662V168.333ZM569.221 432.617V440.192H633.793V432.617H795.14C901.193 432.617 956.782 432.33 957.357 431.775C958.537 430.639 1020.75 430.639 1021.93 431.775C1022.48 432.314 1041.13 432.617 1073.25 432.617C1114.82 432.617 1123.7 432.415 1123.7 431.472C1123.7 430.555 1116.57 430.209 1087.56 429.721C1067.66 429.393 1043.81 429.183 1034.56 429.25C1025.3 429.326 1007.77 429.359 995.61 429.317L973.501 429.25V424.2H910.332V426.725C910.332 428.114 909.7 429.25 908.928 429.25C908.156 429.25 907.524 428.114 907.524 426.725V424.2H740.478V416.625H754.516V408.208H691.193L691.628 412.206L692.049 416.204L706.788 416.709V424.2H699.769C692.905 424.2 692.751 424.259 692.751 426.725V429.25H629.582V424.2H225.302V429.082L241.501 429.688C250.415 430.024 275.205 430.226 296.598 430.142C378.521 429.805 458.802 430.529 459.391 431.598C460.121 432.911 524.301 433.08 524.301 431.775C524.301 431.27 530.126 430.933 538.956 430.933C547.21 430.933 553.99 431.304 554.481 431.775C554.959 432.238 558.468 432.617 562.286 432.617H569.221ZM0.701875 211.671L164.941 212.117V214.878C164.941 217.041 163.565 218.446 158.624 221.358C153.135 224.59 152.307 225.533 152.307 228.597C152.307 232.973 152.953 233.142 170.247 233.142H183.765L172.872 239.824L140.375 240.296L139.547 252.5H0.701875V211.671ZM1123.7 316.467H994.557V287.362L1000.87 283.642C1006.92 280.081 1007.19 279.72 1007.19 275.048V270.175H1123.7V316.467ZM0.701875 271.017H128.443V281.117H96.971L84.9269 288.203V303.101C84.9269 311.299 85.4041 318.167 85.9797 318.36C86.5552 318.554 86.092 318.495 84.9269 318.226C83.7618 317.948 64.3479 317.62 41.7616 317.493L0.701875 317.258V271.017ZM21.7581 416.625V424.2H86.3306V416.633L409.895 416.204L410.316 412.206L410.751 408.208H6.31687V416.625H21.7581ZM235.128 240.893C235.128 241.255 330.695 241.558 447.501 241.558H659.875L673.688 233.142H247.172L241.15 236.685C237.837 238.629 235.128 240.523 235.128 240.893ZM375.503 11.7833V20.2H779.783V11.7833H375.503ZM375.503 58.9167V67.3333H779.783V58.9167H375.503ZM340.409 122.042V130.458H744.689V122.042H340.409ZM247.762 224.902C247.762 225.264 337.953 225.567 448.203 225.567H648.645L662.458 217.15H259.806L253.784 220.693C250.471 222.638 247.762 224.531 247.762 224.902ZM263.203 208.91C263.203 209.272 353.394 209.575 463.645 209.575H664.086L677.899 201.158H275.247L269.225 204.702C265.912 206.646 263.203 208.54 263.203 208.91ZM180.382 288.027C180.382 288.389 270.573 288.692 380.823 288.692H581.265L595.078 280.275H192.426L186.404 283.818C183.091 285.763 180.382 287.656 180.382 288.027ZM324.968 177.768C324.968 178.13 415.159 178.433 525.41 178.433H725.851L739.664 170.017H337.012L330.99 173.56C327.677 175.504 324.968 177.398 324.968 177.768ZM375.503 106.892V115.308H550.045C646.048 115.308 737.011 115.056 752.185 114.753L779.783 114.197V106.892H375.503ZM375.503 74.9083V83.3334L779.081 82.9042L779.502 78.9062L779.938 74.9083H375.503ZM375.503 27.775V36.2001L779.081 35.7708L779.502 31.7729L779.938 27.775H375.503ZM178.978 327.408V335.833L582.556 335.404L582.977 331.406L583.413 327.408H178.978ZM375.503 90.9V99.3251L779.081 98.8958L779.502 94.8979L779.938 90.9H375.503ZM340.409 138.033V146.458L743.987 146.029L744.409 142.031L744.844 138.033H340.409ZM179.919 304.128C180.438 304.439 271.247 304.591 381.708 304.473L582.556 304.262L582.977 300.265L583.413 296.267H178.978V299.911C178.978 301.923 179.399 303.816 179.919 304.128ZM376.444 51.6278C376.963 51.9392 467.772 52.0907 578.233 51.9729L779.081 51.7625L779.502 47.7646L779.938 43.7667H375.503V47.4111C375.503 49.4227 375.924 51.3164 376.444 51.6278ZM646.427 343.4V348.45H861.201V343.4H803.647V335.859L860.499 335.404L860.92 331.406L861.355 327.408H646.427V335.825H769.957V343.4H646.427ZM1123.7 497.905V505H712.403V498.267L813.122 498.098C868.514 498.006 961.063 497.93 1018.77 497.922L1123.7 497.905ZM543.602 472.394C543.434 472.402 543.35 472.411 543.35 472.419C543.35 472.579 587.343 472.68 644.321 472.655C693.817 472.638 717.555 472.613 717.555 472.562C717.555 472.529 700.808 472.47 668.536 472.385L584.662 472.158V464.6H591.681C595.541 464.6 598.699 464.221 598.699 463.758C598.699 463.245 591.919 462.917 581.153 462.917H563.606V456.183H500.437V459.55C500.437 461.402 499.805 462.917 499.033 462.917C498.261 462.917 497.629 461.444 497.629 459.651V456.385L394.103 456.04C337.167 455.855 288.836 455.855 286.716 456.04C283.263 456.335 282.856 456.722 282.856 459.643V462.917H300.402C311.169 462.917 317.949 463.245 317.949 463.758C317.949 465.105 530.224 464.903 532.611 463.548C534.099 462.706 534.604 462.706 535.124 463.548C535.531 464.213 538.563 464.6 543.364 464.6H550.972V472.091L543.602 472.394ZM1123.7 251.658H1049.3V245.943C1049.3 240.279 1049.36 240.195 1055.62 236.508C1061.46 233.066 1061.94 232.468 1061.94 228.512C1061.94 224.557 1062.41 223.959 1068.25 220.517C1073.21 217.604 1074.57 216.199 1074.57 214.027V211.258L1123.7 210.888V251.658ZM473.766 408.208V416.633L687.838 416.204L688.259 412.206L688.694 408.208H521.493V400.633H535.531V392.217H472.207L472.643 396.215L473.064 400.212L487.803 400.717V408.208H473.766ZM178.978 343.4V348.45H583.258V343.4H178.978ZM468.151 482.275V488.167H501.841V484.817C501.841 482.022 501.321 481.4 498.682 481.063C496.942 480.844 460.458 480.474 417.616 480.238C257.546 479.354 217.722 478.875 216.458 477.814C215.532 477.04 215.097 477.048 214.549 477.856C213.651 479.194 149.499 479.405 149.499 478.067C149.499 477.536 139.477 477.225 122.239 477.225C101.814 477.225 94.7812 476.964 94.1636 476.173C93.5178 475.331 93.1809 475.331 92.5352 476.173C91.4824 477.511 27.3731 477.722 27.3731 476.383C27.3731 475.878 21.9968 475.542 14.0375 475.542H0.701875V481.854L227.758 482.056C352.636 482.174 457.819 482.267 461.483 482.267L468.151 482.275ZM84.9269 327.408V348.45H149.499V327.408H84.9269ZM209.861 499.108V505H0.701875V499.125L97.9116 499.1C151.38 499.075 198.434 499.075 202.491 499.083L209.861 499.108ZM515.878 357.708C515.878 359.341 516.819 359.392 548.164 359.392C579.51 359.392 580.451 359.341 580.451 357.708C580.451 356.118 579.51 356.025 562.904 356.025H545.357V351.817H651.958C721.513 351.817 758.867 351.522 759.429 350.975C760.004 350.411 692.456 350.167 557.724 350.243C424.536 350.318 358.995 350.63 366.379 351.143C372.555 351.573 395.928 351.732 418.317 351.497C440.707 351.261 463.925 351.295 469.905 351.564C480.167 352.035 480.784 352.17 480.784 354.039C480.784 356.017 480.841 356.025 498.331 356.025C514.938 356.025 515.878 356.118 515.878 357.708ZM816.281 391.375V399.792H880.853V391.375H816.281ZM1035.27 407.367V415.783H1099.84V407.367H1035.27ZM864.949 304.119C865.454 304.431 879.674 304.683 896.533 304.683H927.177V296.267H864.008V299.911C864.008 301.923 864.429 303.816 864.949 304.119ZM864.949 335.261C865.454 335.572 879.674 335.825 896.533 335.825H927.177V327.408H864.008V331.053C864.008 333.064 864.429 334.958 864.949 335.261ZM919.653 240.978C920.186 241.297 934.266 241.516 950.928 241.474L981.221 241.39L993.546 233.142H930.574L924.636 236.769C921.365 238.764 919.133 240.658 919.653 240.978ZM932.287 224.986C932.82 225.306 946.9 225.525 963.562 225.482L993.855 225.398L1006.18 217.15H943.208L937.27 220.778C933.999 222.772 931.767 224.666 932.287 224.986ZM1026.31 145.844C1026.77 146.13 1040.99 146.391 1057.89 146.416L1088.61 146.467V138.016L1025.44 138.118V141.72C1025.44 143.706 1025.83 145.558 1026.31 145.844ZM947.658 208.952C948.149 209.247 962.229 209.474 978.933 209.449L1009.3 209.415L1021.62 201.158H958.649L952.711 204.786C949.44 206.781 947.166 208.658 947.658 208.952ZM864.836 288.069C865.328 288.363 879.407 288.591 896.112 288.565L926.475 288.532L938.8 280.275H875.828L869.89 283.903C866.619 285.897 864.345 287.774 864.836 288.069ZM1009.42 177.81C1009.91 178.105 1023.99 178.332 1040.7 178.307L1071.06 178.273L1083.39 170.017H1020.41L1014.48 173.644C1011.21 175.639 1008.93 177.516 1009.42 177.81ZM1025.44 122.042V130.458H1033.16C1038.34 130.458 1040.92 130.113 1040.99 129.406C1041.08 128.565 1041.25 128.565 1041.81 129.406C1042.34 130.189 1048.45 130.458 1065.56 130.458H1088.61V122.042H1065.45C1047.91 122.042 1042.26 122.294 1042.17 123.094C1042.09 123.935 1041.92 123.935 1041.36 123.094C1040.91 122.437 1037.81 122.042 1033.05 122.042H1025.44ZM334.794 441.033V448.608H397.963V441.033H334.794ZM131.251 424.2V429.25H195.823V424.2H131.251ZM864.008 343.4V348.45H927.177V343.4H864.008ZM0.701875 432.322C0.701875 433.256 10.5141 433.458 56.0658 433.458C86.5131 433.458 111.767 433.13 112.174 432.734C113.002 431.943 46.8852 430.715 18.5997 431.001C4.66045 431.144 0.701875 431.438 0.701875 432.322ZM855.586 494.9C855.586 496.533 854.645 496.583 824.001 496.583C793.357 496.583 792.417 496.533 792.417 494.9C792.417 493.267 793.357 493.217 824.001 493.217C854.645 493.217 855.586 493.267 855.586 494.9ZM392.348 364.862C392.348 365.948 387.898 366.125 360.764 366.125C333.629 366.125 329.179 365.948 329.179 364.862C329.179 363.777 333.629 363.6 360.764 363.6C387.898 363.6 392.348 363.777 392.348 364.862ZM939.811 378.329C939.811 379.415 935.361 379.592 908.226 379.592C881.092 379.592 876.642 379.415 876.642 378.329C876.642 377.243 881.092 377.067 908.226 377.067C935.361 377.067 939.811 377.243 939.811 378.329ZM42.8144 352.658V356.867H76.5044V352.658H42.8144ZM308.123 476.383C308.123 476.922 319.816 477.225 340.409 477.225C361.002 477.225 372.696 476.922 372.696 476.383C372.696 475.845 361.002 475.542 340.409 475.542C319.816 475.542 308.123 475.845 308.123 476.383ZM611.333 491.533C611.333 492.072 599.865 492.375 579.749 492.375C559.633 492.375 548.164 492.072 548.164 491.533C548.164 490.995 559.633 490.692 579.749 490.692C599.865 490.692 611.333 490.995 611.333 491.533ZM173.363 361.917C173.363 362.455 161.894 362.758 141.779 362.758C121.663 362.758 110.194 362.455 110.194 361.917C110.194 361.378 121.663 361.075 141.779 361.075C161.894 361.075 173.363 361.378 173.363 361.917ZM1040.88 350.975C1040.88 351.514 1052.35 351.817 1072.46 351.817C1092.58 351.817 1104.05 351.514 1104.05 350.975C1104.05 350.436 1092.58 350.133 1072.46 350.133C1052.35 350.133 1040.88 350.436 1040.88 350.975ZM828.914 367.808C828.914 368.347 840.383 368.65 860.499 368.65C880.615 368.65 892.083 368.347 892.083 367.808C892.083 367.27 880.615 366.967 860.499 366.967C840.383 366.967 828.914 367.27 828.914 367.808ZM1049.3 380.433C1049.3 380.972 1037.83 381.275 1017.72 381.275C997.603 381.275 986.134 380.972 986.134 380.433C986.134 379.895 997.603 379.592 1017.72 379.592C1037.83 379.592 1049.3 379.895 1049.3 380.433ZM991.749 478.067C991.749 478.605 980.281 478.908 960.165 478.908C940.049 478.908 928.581 478.605 928.581 478.067C928.581 477.528 940.049 477.225 960.165 477.225C980.281 477.225 991.749 477.528 991.749 478.067ZM1098.43 472.175C1098.43 472.672 1103.59 473.017 1111.07 473.017C1118.55 473.017 1123.7 472.672 1123.7 472.175C1123.7 471.678 1118.55 471.333 1111.07 471.333C1103.59 471.333 1098.43 471.678 1098.43 472.175ZM178.276 217.992C177.799 218.455 174.879 218.833 171.791 218.833C168.408 218.833 166.527 218.497 167.046 217.992C167.524 217.529 170.443 217.15 173.532 217.15C176.915 217.15 178.796 217.487 178.276 217.992ZM1073.17 494.479C1073.17 495.178 1072.54 495.742 1071.76 495.742C1070.99 495.742 1070.36 495.178 1070.36 494.479C1070.36 493.781 1070.99 493.217 1071.76 493.217C1072.54 493.217 1073.17 493.781 1073.17 494.479Z" fill="black"/>
<path d="M420.423 248.292C389.555 248.292 389.541 248.292 389.541 250.143C389.541 251.153 387.842 253.047 385.765 254.352L382.003 256.708H382.564L372.022 259.839C366.224 261.556 361.466 263.265 361.466 263.627C361.466 263.265 366.042 261.582 371.643 259.89L381.82 256.809L224.811 256.708L231.408 252.5H228.348C233.149 252.5 233.724 252.273 233.724 250.396V248.292H638.004V250.143C638.004 248.426 637.345 248.292 628.88 248.292C620.415 248.292 619.756 248.426 619.756 250.143C619.756 251.153 618.057 253.047 615.98 254.352L612.218 256.708H443.768L447.53 254.352C449.607 253.047 451.306 251.153 451.306 250.143C451.306 248.292 451.292 248.292 420.423 248.292ZM981.923 249.975C981.923 251.608 982.864 251.658 1014.21 251.658H982.443L974.385 256.708H922.559L912.241 259.856C908.268 261.06 904.815 262.255 903.089 262.987C904.703 262.289 907.819 261.186 911.385 260.075C918.684 257.802 920.144 257.07 917.744 256.86C916.045 256.717 909.054 258.324 902.232 260.437L897.53 261.901L901.909 260.521L913.841 256.759L630.466 256.708H693.298L697.243 254.444C699.404 253.207 701.173 251.313 701.173 250.236V248.292H915.947V250.253C915.947 251.322 914.375 253.098 912.438 254.183C910.514 255.269 909.265 256.346 909.644 256.582C911.104 257.449 918.754 252.113 918.754 250.236V248.292H950.339C980.983 248.292 981.923 248.342 981.923 249.975ZM889.851 264.275L889.823 264.283H606.532L601.212 267.397L601.142 267.44L606.294 264.283H606.532H748.129L889.851 264.275ZM578.022 271.067C578.485 270.284 580.142 269.14 582.837 267.473C580.675 268.803 578.808 270.217 578.022 271.067ZM223.968 252.862C222.396 253.224 220.908 253.838 219.575 254.688C221.006 253.771 222.354 253.19 223.968 252.862ZM595.148 272.195C593.969 272.548 591.33 272.7 586.768 272.7C591.175 272.7 593.927 272.532 595.148 272.195ZM586.768 272.7C583.848 272.7 581.672 272.649 580.212 272.481C581.714 272.633 583.89 272.7 586.768 272.7Z" fill="#A3A3A3"/>
<path d="M209.861 499.108L202.491 499.083C198.434 499.075 151.38 499.075 97.9116 499.1L0.701875 499.125V496.171C0.701875 493.233 0.72995 493.217 7.01875 493.217C12.3951 493.217 13.3356 493.469 13.3356 494.9C13.3356 496.533 14.2761 496.583 45.6219 496.583C76.9676 496.583 77.9081 496.533 77.9081 494.9C77.9081 493.974 78.5398 493.217 79.3119 493.217C80.0839 493.217 80.7156 493.915 80.7156 494.774C80.7156 496.238 83.2564 496.356 126.688 496.878C151.97 497.189 187.583 497.425 205.818 497.417C224.067 497.408 240.013 497.635 241.262 497.922C242.835 498.284 243.551 499.47 243.551 501.726V505H209.861V499.108ZM647.831 498.267L640.461 498.157C612.372 497.753 505.111 497.265 477.977 497.417C459.84 497.518 432.201 497.332 416.563 497.004C389.976 496.44 388.137 496.297 388.137 494.807C388.137 493.351 386.916 493.217 373.397 493.217C359.599 493.217 358.658 493.326 358.658 494.9C358.658 496.533 357.718 496.583 326.372 496.583C295.026 496.583 294.086 496.533 294.086 494.9C294.086 492.939 300.206 493.074 205.06 492.905C158.245 492.821 144.685 492.56 144.235 491.744C143.505 490.431 114.406 490.22 114.406 491.533C114.406 492.072 102.712 492.375 82.1194 492.375C62.3125 492.375 49.8331 492.064 49.8331 491.559C49.8331 491.113 43.4461 490.633 35.4447 490.481C27.5275 490.33 129.552 490.128 262.15 490.027C421.743 489.909 503.244 489.564 503.244 489.008C503.244 488.495 509.772 488.167 520.005 488.167C529.663 488.167 537.131 488.52 537.636 489.008C538.212 489.564 598.952 489.85 715.295 489.85C832.213 489.85 892.083 490.136 892.083 490.692C892.083 492.03 956.235 491.819 957.133 490.481C957.68 489.673 958.116 489.665 959.042 490.431C960.179 491.399 1039.73 492.484 1102.29 492.4L1123.7 492.375V497.905L1018.77 497.922C961.063 497.93 868.514 498.006 813.122 498.098L712.403 498.267V505H647.831V498.267ZM855.586 494.9C855.586 493.267 854.645 493.217 824.001 493.217C793.357 493.217 792.417 493.267 792.417 494.9C792.417 496.533 793.357 496.583 824.001 496.583C854.645 496.583 855.586 496.533 855.586 494.9ZM1073.17 494.479C1073.17 493.781 1072.54 493.217 1071.76 493.217C1070.99 493.217 1070.36 493.781 1070.36 494.479C1070.36 495.178 1070.99 495.742 1071.76 495.742C1072.54 495.742 1073.17 495.178 1073.17 494.479ZM611.333 491.533C611.333 490.995 599.865 490.692 579.749 490.692C559.633 490.692 548.164 490.995 548.164 491.533C548.164 492.072 559.633 492.375 579.749 492.375C599.865 492.375 611.333 492.072 611.333 491.533ZM941.214 488.167C941.214 487.653 934.434 487.325 923.667 487.325H906.121V481.433L898.049 481.332C893.613 481.273 863.138 481.097 830.318 480.928C797.498 480.76 742.865 480.44 708.894 480.204C674.923 479.969 619.699 479.683 586.178 479.556C538.942 479.38 525.101 479.093 524.652 478.277C523.922 476.964 494.822 476.754 494.822 478.067C494.822 478.605 483.129 478.908 462.536 478.908C441.943 478.908 430.249 478.605 430.249 478.067C430.249 477.562 424.634 477.225 416.212 477.225C407.789 477.225 402.174 476.888 402.174 476.383C402.174 475.828 470.495 475.542 604.314 475.542C738.134 475.542 806.454 475.828 806.454 476.383C806.454 476.922 817.923 477.225 838.039 477.225C858.337 477.225 869.623 476.922 869.623 476.375C869.623 475.811 912.143 475.533 996.662 475.559L1123.7 475.584V481.433H970.693V487.325H988.24C999.007 487.325 1005.79 487.653 1005.79 488.167C1005.79 488.705 994.094 489.008 973.501 489.008C952.908 489.008 941.214 488.705 941.214 488.167ZM991.749 478.067C991.749 477.528 980.281 477.225 960.165 477.225C940.049 477.225 928.581 477.528 928.581 478.067C928.581 478.605 940.049 478.908 960.165 478.908C980.281 478.908 991.749 478.605 991.749 478.067ZM468.151 482.275L461.483 482.267C457.819 482.267 352.636 482.174 227.758 482.056L0.701875 481.854V475.542H14.0375C21.9968 475.542 27.3731 475.878 27.3731 476.383C27.3731 477.722 91.4824 477.511 92.5352 476.173C93.1809 475.331 93.5178 475.331 94.1636 476.173C94.7812 476.964 101.814 477.225 122.239 477.225C139.477 477.225 149.499 477.536 149.499 478.067C149.499 479.405 213.651 479.194 214.549 477.856C215.097 477.048 215.532 477.04 216.458 477.814C217.722 478.875 257.546 479.354 417.616 480.238C460.458 480.474 496.942 480.844 498.682 481.063C501.321 481.4 501.841 482.022 501.841 484.817V488.167H468.151V482.275ZM308.123 476.383C308.123 475.845 319.816 475.542 340.409 475.542C361.002 475.542 372.696 475.845 372.696 476.383C372.696 476.922 361.002 477.225 340.409 477.225C319.816 477.225 308.123 476.922 308.123 476.383ZM543.602 472.394L550.972 472.091V464.6H543.364C538.563 464.6 535.531 464.213 535.124 463.548C534.604 462.706 534.099 462.706 532.611 463.548C530.224 464.903 317.949 465.105 317.949 463.758C317.949 463.245 311.169 462.917 300.402 462.917H282.856V459.643C282.856 456.722 283.263 456.335 286.716 456.04C288.836 455.855 337.167 455.855 394.103 456.04L497.629 456.385V459.651C497.629 461.444 498.261 462.917 499.033 462.917C499.805 462.917 500.437 461.402 500.437 459.55V456.183H563.606V462.917H581.153C591.919 462.917 598.699 463.245 598.699 463.758C598.699 464.221 595.541 464.6 591.681 464.6H584.662V472.158L668.536 472.385C739.215 472.571 735.411 472.621 644.321 472.655C584.872 472.68 539.545 472.562 543.602 472.394ZM1098.43 472.175C1098.43 471.678 1103.59 471.333 1111.07 471.333C1118.55 471.333 1123.7 471.678 1123.7 472.175C1123.7 472.672 1118.55 473.017 1111.07 473.017C1103.59 473.017 1098.43 472.672 1098.43 472.175ZM988.942 463.758H981.221C976.968 463.758 973.501 463.38 973.501 462.917C973.501 462.412 967.647 462.075 958.761 462.075C949.875 462.075 944.022 462.412 944.022 462.917C944.022 463.455 932.329 463.758 911.736 463.758C891.143 463.758 879.449 463.455 879.449 462.917C879.449 462.403 872.669 462.075 861.902 462.075H844.356V455.342H908.928V462.075H938.407V455.342H1123.7V463.758H1053.51V471.333H988.942V463.758ZM0.701875 456.183H219.687V462.917H237.234C248.001 462.917 254.781 463.245 254.781 463.758C254.781 464.314 211.503 464.6 127.741 464.6H0.701875V456.183ZM241.403 455.46C241.038 455.241 240.743 453.608 240.743 451.832V448.608H117.213V441.033H54.0444V448.608H0.701875V444.93C0.701875 441.336 0.814175 441.244 5.96594 440.73C8.85766 440.444 38.2381 440.208 71.2403 440.2L131.251 440.192V432.617H164.941V440.192L194.068 440.267C210.085 440.301 230.131 440.276 238.623 440.192C247.102 440.116 271.583 440.326 293.019 440.663L331.987 441.269V448.608H274.433V451.882C274.433 454.736 273.942 455.232 270.685 455.72C266.628 456.335 242.498 456.116 241.403 455.46ZM678.713 440.276L670.642 439.973C655.621 439.409 1038.69 439.342 1081.36 439.905L1123.7 440.461V447.767H772.764V440.192H743.286V455.342H678.713V440.276ZM334.794 441.033H397.963V448.608H334.794V441.033ZM569.221 432.617H562.286C558.468 432.617 554.959 432.238 554.481 431.775C553.99 431.304 547.21 430.933 538.956 430.933C530.126 430.933 524.301 431.27 524.301 431.775C524.301 433.08 460.121 432.911 459.391 431.598C458.802 430.529 378.521 429.805 296.598 430.142C275.205 430.226 250.415 430.024 241.501 429.688L225.302 429.082V424.2H629.582V429.25H692.751V426.725C692.751 424.259 692.905 424.2 699.769 424.2H706.788V416.709L692.049 416.204L691.628 412.206L691.193 408.208H754.516V416.625H740.478V424.2H907.524V426.725C907.524 428.114 908.156 429.25 908.928 429.25C909.7 429.25 910.332 428.114 910.332 426.725V424.2H973.501V429.25L995.61 429.317C1007.77 429.359 1025.3 429.326 1034.56 429.25C1043.81 429.183 1067.66 429.393 1087.56 429.721C1116.57 430.209 1123.7 430.555 1123.7 431.472C1123.7 432.415 1114.82 432.617 1073.25 432.617C1041.13 432.617 1022.48 432.314 1021.93 431.775C1020.75 430.639 958.537 430.639 957.357 431.775C956.782 432.33 901.193 432.617 795.14 432.617H633.793V440.192H569.221V432.617ZM0.701875 432.322C0.701875 431.438 4.66045 431.144 18.5997 431.001C46.8852 430.715 113.002 431.943 112.174 432.734C111.767 433.13 86.5131 433.458 56.0658 433.458C10.5141 433.458 0.701875 433.256 0.701875 432.322ZM131.251 424.2H195.823V429.25H131.251V424.2ZM21.7581 416.625H6.31687V408.208H410.751L410.316 412.206L409.895 416.204L86.3306 416.633V424.2H21.7581V416.625ZM473.766 408.208H487.803V400.717L473.064 400.212L472.643 396.215L472.207 392.217H535.531V400.633H521.493V408.208H688.694L688.259 412.206L687.838 416.204L473.766 416.633V408.208ZM1035.27 407.367H1099.84V415.783H1035.27V407.367ZM925.773 399.792H910.332V391.375H1123.7V399.792H990.346V407.367H925.773V399.792ZM0.701875 392.217H191.766L191.331 396.215L190.91 400.212L0.701875 400.642V392.217ZM254.781 392.217H268.818V384.642L206.702 384.431C172.535 384.313 112.37 384.254 72.995 384.305C33.6198 384.347 9.13841 384.238 18.5997 384.069C41.4949 383.648 41.2281 382.117 18.2488 382.117H0.701875V377.908H16.1431C28.9313 377.908 31.5844 378.127 31.5844 379.171C31.5844 379.869 32.2161 380.433 32.9881 380.433C33.7602 380.433 34.3919 379.869 34.3919 379.171C34.3919 378.085 38.8418 377.908 65.9762 377.908C93.1107 377.908 97.5606 378.085 97.5606 379.171C97.5606 380.24 100.902 380.433 119.206 380.433C135.139 380.433 141.063 380.711 141.666 381.485C142.312 382.327 142.649 382.327 143.295 381.485C144.348 380.147 207.053 379.937 207.053 381.275C207.053 381.797 215.209 382.117 228.699 382.117C244.632 382.117 250.555 382.394 251.159 383.169C251.805 384.01 252.142 384.01 252.787 383.169C253.812 381.847 316.546 381.62 316.546 382.933C316.546 383.421 325.53 383.859 338.655 384.01C359.809 384.254 359.514 384.271 331.636 384.456L302.508 384.642V392.217H469.709L469.274 396.215L468.852 400.212L254.781 400.642V392.217ZM816.281 391.375H880.853V399.792H816.281V391.375ZM706.788 382.958H699.068C694.828 382.958 691.347 382.58 691.347 382.117C691.347 381.612 685.493 381.275 676.607 381.275C667.722 381.275 661.868 381.612 661.868 382.117C661.868 382.655 650.175 382.958 629.582 382.958C608.989 382.958 597.296 382.655 597.296 382.117C597.296 381.654 593.814 381.275 589.575 381.275C585.336 381.275 581.854 380.896 581.854 380.433C581.854 379.928 576.001 379.592 567.115 379.592C558.229 379.592 552.376 379.928 552.376 380.433C552.376 380.972 540.682 381.275 520.089 381.275C499.496 381.275 487.803 380.972 487.803 380.433C487.803 379.97 484.322 379.592 480.082 379.592C474.159 379.592 472.362 379.297 472.362 378.329C472.362 377.285 469.793 377.067 457.622 377.067C445.452 377.067 442.883 377.285 442.883 378.329C442.883 379.415 438.363 379.592 410.597 379.592C382.831 379.592 378.311 379.415 378.311 378.329C378.311 377.361 376.514 377.067 370.59 377.067C366.351 377.067 362.869 376.688 362.869 376.225C362.869 375.669 431.19 375.383 565.009 375.383C698.829 375.383 767.149 375.669 767.149 376.225C767.149 376.764 778.618 377.067 798.734 377.067C818.849 377.067 830.318 376.764 830.318 376.225C830.318 375.678 851.838 375.383 892.083 375.383H953.848V368.65H987.538V375.383H1016.2C1037.75 375.383 1045.06 375.644 1045.68 376.435C1046.33 377.277 1046.66 377.277 1047.31 376.435C1048.36 375.097 1111.07 374.887 1111.07 376.225C1111.07 376.688 1113.92 377.067 1117.39 377.067C1123.18 377.067 1123.7 377.235 1123.7 379.171V381.275H1109.66C1091.09 381.275 1091.37 382.807 1110.02 383.202C1117.93 383.371 1044.97 383.48 947.882 383.446L771.361 383.379V391.375H706.788V382.958ZM1049.3 380.433C1049.3 379.895 1037.83 379.592 1017.72 379.592C997.603 379.592 986.134 379.895 986.134 380.433C986.134 380.972 997.603 381.275 1017.72 381.275C1037.83 381.275 1049.3 380.972 1049.3 380.433ZM939.811 378.329C939.811 377.243 935.361 377.067 908.226 377.067C881.092 377.067 876.642 377.243 876.642 378.329C876.642 379.415 881.092 379.592 908.226 379.592C935.361 379.592 939.811 379.415 939.811 378.329ZM268.818 368.65L261.448 368.515C257.392 368.44 229.766 368.271 200.034 368.137C152.447 367.918 68.896 367.27 17.8978 366.731L0.701875 366.546V360.233H39.305C76.9676 360.233 77.9081 360.191 77.9081 358.55C77.9081 356.959 78.8486 356.867 94.5847 356.867C110.096 356.867 111.317 356.984 112.005 358.55C112.735 360.208 113.9 360.233 196.048 360.2C317.921 360.158 387 360.856 388.516 362.135C389.498 362.96 389.906 362.96 390.467 362.127C391.38 360.78 453.608 360.587 454.352 361.933C454.661 362.489 468.923 362.784 494.836 362.767C560.602 362.733 607.122 363.65 607.122 364.989C607.122 365.612 607.754 366.125 608.526 366.125C609.298 366.125 609.929 365.561 609.929 364.862C609.929 363.777 614.379 363.6 641.514 363.6C668.648 363.6 673.098 363.777 673.098 364.862C673.098 366.159 689.943 366.521 732.743 366.125C760.046 365.881 826.065 367.177 825.265 367.943C824.829 368.364 764.861 368.591 685.985 368.465C609.789 368.347 499.3 368.339 440.427 368.448L333.391 368.65V377.067H268.818V368.65ZM392.348 364.862C392.348 363.777 387.898 363.6 360.764 363.6C333.629 363.6 329.179 363.777 329.179 364.862C329.179 365.948 333.629 366.125 360.764 366.125C387.898 366.125 392.348 365.948 392.348 364.862ZM173.363 361.917C173.363 361.378 161.894 361.075 141.779 361.075C121.663 361.075 110.194 361.378 110.194 361.917C110.194 362.455 121.663 362.758 141.779 362.758C161.894 362.758 173.363 362.455 173.363 361.917ZM828.914 367.808C828.914 367.27 840.383 366.967 860.499 366.967C880.615 366.967 892.083 367.27 892.083 367.808C892.083 368.347 880.615 368.65 860.499 368.65C840.383 368.65 828.914 368.347 828.914 367.808ZM1055.97 365.502C1050.09 365.283 1047.9 364.871 1047.9 363.979C1047.9 362.994 1045.11 362.758 1033.16 362.758C1020.99 362.758 1018.42 362.977 1018.42 364.021C1018.42 365.107 1013.9 365.283 986.134 365.283C958.368 365.283 953.848 365.107 953.848 364.021C953.848 362.489 955.294 362.523 883.773 362.422C841.983 362.354 829.714 362.102 829.265 361.285C828.535 359.972 799.436 359.762 799.436 361.075C799.436 361.614 787.742 361.917 767.149 361.917C747.693 361.917 734.863 361.597 734.863 361.117C734.863 360.679 731.227 360.183 726.792 360.014C722.356 359.846 809.837 359.636 921.211 359.552L1123.7 359.392V366.125L1093.87 365.965C1077.46 365.881 1060.41 365.671 1055.97 365.502ZM515.878 357.708C515.878 356.118 514.938 356.025 498.331 356.025C480.841 356.025 480.784 356.017 480.784 354.039C480.784 352.17 480.167 352.035 469.905 351.564C463.925 351.295 440.707 351.261 418.317 351.497C395.928 351.732 372.555 351.573 366.379 351.143C358.995 350.63 424.536 350.318 557.724 350.243C692.456 350.167 760.004 350.411 759.429 350.975C758.867 351.522 721.513 351.817 651.958 351.817H545.357V356.025H562.904C579.51 356.025 580.451 356.118 580.451 357.708C580.451 359.341 579.51 359.392 548.164 359.392C516.819 359.392 515.878 359.341 515.878 357.708ZM42.8144 352.658H76.5044V356.867H42.8144V352.658ZM1040.88 350.975C1040.88 350.436 1052.35 350.133 1072.46 350.133C1092.58 350.133 1104.05 350.436 1104.05 350.975C1104.05 351.514 1092.58 351.817 1072.46 351.817C1052.35 351.817 1040.88 351.514 1040.88 350.975ZM84.9269 327.408H149.499V348.45H84.9269V327.408ZM178.978 343.4H583.258V348.45H178.978V343.4ZM646.427 343.4H769.957V335.825H646.427V327.408H861.355L860.92 331.406L860.499 335.404L803.647 335.859V343.4H861.201V348.45H646.427V343.4ZM864.008 343.4H927.177V348.45H864.008V343.4ZM991.749 334.857V321.273L934.196 321.887C882.173 322.443 876.642 322.375 876.642 321.163C876.642 320.246 875.336 319.833 872.431 319.833C869.623 319.833 868.219 320.254 868.219 321.096C868.219 322.182 863.699 322.358 835.933 322.358C815.34 322.358 803.647 322.661 803.647 323.2C803.647 323.713 797.091 324.042 786.802 324.042C776.512 324.042 769.957 323.713 769.957 323.2C769.957 322.645 665.616 322.358 459.728 322.358C246.807 322.358 149.499 322.628 149.499 323.234C149.499 323.823 138.705 323.949 116.16 323.646C97.8273 323.394 64.3479 322.99 41.7616 322.745L0.701875 322.308V317.258L41.7616 317.493C64.3479 317.62 83.7618 317.948 84.9269 318.226C86.092 318.495 86.5552 318.554 85.9797 318.36C85.4041 318.167 84.9269 311.299 84.9269 303.101V288.203L96.971 281.117H128.443V271.017H0.701875V252.5H139.547L139.968 246.398L140.375 240.296L172.872 239.824L183.765 233.142H170.247C152.953 233.142 152.307 232.973 152.307 228.597C152.307 225.533 153.135 224.59 158.624 221.358C163.565 218.446 164.941 217.041 164.941 214.878V212.117L0 211.662L84.5338 211.46C152.265 211.3 168.927 211.048 168.38 210.189C168.001 209.6 170.542 207.437 174.037 205.383C179.736 202.034 180.382 201.259 180.382 197.783C180.382 195.662 181.14 193.465 182.066 192.91C183.203 192.228 189.59 191.9 201.635 191.9C212.05 191.9 219.883 191.546 220.389 191.058C220.88 190.579 227.983 190.217 236.883 190.217C251.945 190.217 252.661 190.132 256.465 187.953C259.329 186.303 260.396 184.88 260.396 182.692V179.696L246.709 179.931C228.292 180.26 226.986 179.612 235.479 174.435C239.143 172.205 242.147 169.916 242.147 169.36C242.147 168.561 218.269 168.333 135.462 168.333C49.2155 168.333 28.7769 168.544 28.7769 169.419C28.7769 170.017 25.9413 172.18 22.46 174.225C16.7889 177.558 16.1431 178.341 16.1431 181.808C16.1431 185.2 15.4693 186.067 10.5562 188.937C7.48199 190.738 4.64641 192.018 4.25336 191.791C3.87435 191.555 5.75538 190.082 8.43654 188.525C12.6338 186.084 13.3356 185.125 13.3356 181.808C13.3356 178.341 13.9813 177.558 19.6525 174.225C28.8049 168.838 28.2715 168.333 13.3356 168.333H0.701875V160.758H30.1806V137.613C30.1806 122.74 30.686 114.467 31.5844 114.467C32.4828 114.467 32.9881 122.74 32.9881 137.613V160.758H247.13L246.063 154.025H257.265C269.717 154.025 277.241 153.352 277.241 152.241C277.241 151.828 270.292 151.5 261.799 151.5H246.358V114.467H281.452V94.2667H346.109L345.322 114.761L310.931 114.34V132.445C310.931 153.276 311.815 152.114 296.795 151.071C289.874 150.591 288.471 150.709 288.471 151.769C288.471 152.468 287.685 153.234 286.716 153.469C285.747 153.705 287.867 153.924 291.433 153.958C294.998 153.991 300.838 154.269 304.417 154.564L310.931 155.094V161.204C310.931 165.859 310.425 167.424 308.825 167.795C307.674 168.064 306.719 168.779 306.719 169.394C306.719 170.008 303.884 172.18 300.402 174.225C296.921 176.27 294.086 178.433 294.086 179.031C294.086 179.831 291.096 180.117 282.856 180.117H271.626V182.81C271.626 184.662 270.32 186.32 267.47 188.079L263.315 190.646L274.672 190.334C282.757 190.116 285.747 190.301 285.06 190.966C284.372 191.631 288.316 191.9 298.634 191.9H313.163L324.14 185.167H748.044L743.566 187.944C741.096 189.468 739.074 190.983 739.074 191.311C739.074 191.631 741.475 191.9 744.409 191.9C748.774 191.9 750.726 191.294 755.217 188.533L760.706 185.167H914.543V178.433H853.719C820.253 178.433 792.445 178.172 791.912 177.853C791.392 177.533 793.624 175.639 796.895 173.644L802.833 170.017H865.005C905.517 170.017 927.177 169.722 927.177 169.175C927.177 168.619 826.149 168.308 627.125 168.266C462.1 168.232 327.86 168.013 328.828 167.778C329.811 167.534 330.583 165.901 330.583 164.058C330.583 160.851 330.723 160.758 335.496 160.758C340.297 160.758 340.409 160.674 340.409 157.392V154.025H744.689V162.475L807.156 162.021L807.577 158.023L808.013 154.025H931.388V146.45H807.858V138.033H931.388V130.458H807.858V122.042H931.388V115.308H842.952V106.892H966.482V99.3167H842.952V90.9H966.482V83.325H842.952V74.9083H966.482V67.3333H842.952V58.9167H966.482V52.2002L843.654 51.7625L843.233 47.7646L842.797 43.7667H966.482V36.1917H842.952V27.775H966.482V20.2H842.952V11.7833H966.482V4.20833H842.952V0H1057.73V4.20833H1000.17V11.7833H1057.88L1057.44 15.7812L1057.02 19.7792L1000.17 20.2337V27.775H1057.88L1057.44 31.7729L1057.02 35.7708L1000.17 36.2253V43.7667H1057.88L1057.44 47.7646L1057.02 51.7625L1000.17 52.217V58.9167H1057.73V67.3333H1000.17V74.9083H1057.88L1057.44 78.9062L1057.02 82.9042L1000.17 83.3587V90.9H1057.88L1057.44 94.8979L1057.02 98.8958L1000.17 99.3503V106.892H1057.88L1057.44 110.89L1057.02 114.887L1040.18 115.022C1030.91 115.09 1010.22 115.19 994.206 115.233L965.078 115.308V122.042H1022.63V130.458H965.078V138.033H1022.79L1022.35 142.031L1021.93 146.029L965.078 146.484V154.025H1022.63V158.233C1022.63 160.548 1023.26 162.442 1024.04 162.442C1024.81 162.442 1025.44 160.548 1025.44 158.233V154.025H1088.61V159.917H1123.7V167.222L1094 167.778C1050.95 168.586 1032.61 168.468 1035.62 167.424C1036.96 166.953 1038.07 165.64 1038.07 164.504C1038.07 162.77 1037.4 162.442 1033.86 162.442C1030.32 162.442 1029.65 162.77 1029.65 164.512C1029.65 165.707 1028.49 166.961 1026.94 167.458C1025.3 167.988 1011.7 168.333 992.549 168.333C972.364 168.333 960.867 168.636 960.867 169.175C960.867 169.705 971.255 170.017 989.237 170.017H1017.61L1003.79 178.433H948.233V185.167H1004.96L999.47 188.533C996.452 190.385 994.613 191.9 995.385 191.9C996.157 191.9 999.259 190.385 1002.28 188.533L1007.77 185.167H1070.91L1061.39 191.058H1044.38C1031.6 191.058 1026.7 191.361 1024.65 192.296C1022.45 193.289 1015.92 193.533 990.612 193.558C970.089 193.575 959.589 193.297 960.165 192.742C960.642 192.279 960.404 191.9 959.632 191.9C958.859 191.9 957.835 192.279 957.357 192.742C956.824 193.255 945.412 193.583 927.794 193.583H899.102V201.158H955.841L942.029 209.575H914.248C896.856 209.575 886.468 209.886 886.468 210.408C886.468 210.938 908.339 211.326 947.18 211.469L1007.89 211.696L883.661 212.1V217.15H940.4L926.587 225.567H871.027V233.142H927.766L913.954 241.558H858.393V248.292H824.703V241.558H749.139C707.574 241.558 673.126 241.297 672.593 240.978C672.073 240.658 674.305 238.764 677.576 236.769L683.514 233.142H837.337V225.567H775.572C741.601 225.567 713.807 225.297 713.807 224.969C713.807 224.641 716.46 222.747 719.717 220.761L725.626 217.15H849.971V212.1H539.742C275.514 212.1 229.513 212.277 229.513 213.27C229.513 214.92 226.341 215.467 216.711 215.467C206.772 215.467 202.758 216.931 208.12 218.598C210.029 219.187 214.802 219.675 218.718 219.675H225.849L221.371 222.452C217.609 224.775 216.879 225.87 216.879 229.186V233.142H194.995L189.436 236.584L183.891 240.035L195.416 239.74C202.73 239.555 206.435 239.74 205.593 240.245C204.849 240.691 204.246 243.553 204.246 246.608C204.246 251.785 203.937 252.348 199.683 254.773C197.171 256.203 190.068 258.897 183.891 260.757C177.715 262.617 170.163 265.68 167.116 267.574L161.558 271.017H139.673V275.225C139.673 277.986 139.07 279.459 137.918 279.517C132.991 279.753 144.404 280.957 152.251 281.032L161.319 281.117L149.499 288.338V317.308H178.978V311.417H583.258V319.833H646.427V311.417H769.957V304.7L647.129 304.262L646.708 300.265L646.272 296.267H769.957V288.692H708.192C674.221 288.692 646.427 288.422 646.427 288.094C646.427 287.766 649.08 285.872 652.337 283.886L658.246 280.275H782.591V272.7H816.281V280.275H873.02L859.207 288.692H803.647V296.267H861.355L860.92 300.265L860.499 304.262L803.647 304.717V311.417H861.201V315.625C861.201 317.94 861.832 319.833 862.604 319.833C863.376 319.833 864.008 317.94 864.008 315.625V311.417H927.177V316.467H991.749V287.362L998.066 283.642C1004.12 280.081 1004.38 279.72 1004.38 275.048V270.175H940.667L950.184 264.283H926.054C912.774 264.283 901.909 263.997 901.909 263.644C901.909 263.29 906.556 261.582 912.241 259.856L922.559 256.708H974.385L982.443 251.658H1046.5V245.943C1046.5 240.279 1046.55 240.195 1052.81 236.508C1058.65 233.066 1059.13 232.468 1059.13 228.512C1059.13 224.557 1059.61 223.959 1065.45 220.517C1070.39 217.613 1071.76 216.199 1071.76 214.044V211.292L1009.3 210.804L1041.93 210.61C1067.51 210.459 1074.57 210.181 1074.57 209.331C1074.57 208.733 1077.42 206.57 1080.89 204.525C1086.56 201.192 1087.2 200.409 1087.2 196.942C1087.2 193.238 1088.97 191.058 1091.98 191.058C1092.76 191.058 1092.64 191.504 1091.7 192.068C1090.77 192.624 1090.01 194.821 1090.01 196.942C1090.01 200.409 1089.37 201.192 1083.69 204.525C1080.23 206.57 1077.38 208.725 1077.38 209.306C1077.38 210.122 1083.06 210.433 1100.89 210.627L1124.4 210.88L1074.57 211.258V214.027C1074.57 216.199 1073.21 217.604 1068.25 220.517C1062.41 223.959 1061.94 224.557 1061.94 228.512C1061.94 232.468 1061.46 233.066 1055.62 236.508C1049.36 240.195 1049.3 240.279 1049.3 245.943V251.658H1123.7V270.175H1007.19V275.048C1007.19 279.72 1006.92 280.081 1000.87 283.642L994.557 287.362V316.467H1123.7V321.517H994.557V334.983C994.557 343.4 994.023 348.45 993.153 348.45C992.269 348.45 991.749 343.358 991.749 334.857ZM178.276 217.992C178.796 217.487 176.915 217.15 173.532 217.15C170.443 217.15 167.524 217.529 167.046 217.992C166.527 218.497 168.408 218.833 171.791 218.833C174.879 218.833 177.799 218.455 178.276 217.992ZM852.778 210.417C852.778 209.87 831.259 209.575 791.013 209.575C757.042 209.575 729.248 209.272 729.248 208.91C729.248 208.54 731.957 206.646 735.27 204.702L741.292 201.158H865.412V193.583H788.823C733.024 193.583 712.501 193.331 713.203 192.649C713.891 191.984 712.207 191.892 707.322 192.338C696.344 193.339 275.514 193.743 276.539 192.75C277.844 191.471 248.773 191.631 246.639 192.91C245.712 193.465 244.954 195.662 244.954 197.783C244.954 201.251 244.309 202.034 238.637 205.367C235.156 207.412 232.321 209.575 232.321 210.173C232.321 211.056 289.945 211.258 542.549 211.258C748.437 211.258 852.778 210.972 852.778 210.417ZM178.978 327.408H583.413L582.977 331.406L582.556 335.404L178.978 335.833V327.408ZM864.949 335.261C864.429 334.958 864.008 333.064 864.008 331.053V327.408H927.177V335.825H896.533C879.674 335.825 865.454 335.572 864.949 335.261ZM179.919 304.128C179.399 303.816 178.978 301.923 178.978 299.911V296.267H583.413L582.977 300.265L582.556 304.262L381.708 304.473C271.247 304.591 180.438 304.439 179.919 304.128ZM864.949 304.119C864.429 303.816 864.008 301.923 864.008 299.911V296.267H927.177V304.683H896.533C879.674 304.683 865.454 304.431 864.949 304.119ZM180.382 288.027C180.382 287.656 183.091 285.763 186.404 283.818L192.426 280.275H595.078L581.265 288.692H380.823C270.573 288.692 180.382 288.389 180.382 288.027ZM864.836 288.069C864.345 287.774 866.619 285.897 869.89 283.903L875.828 280.275H938.8L926.475 288.532L896.112 288.565C879.407 288.591 865.328 288.363 864.836 288.069ZM348.102 271.825C347.611 271.345 349.702 269.451 352.762 267.616L358.321 264.283H202.014L196.525 267.65C191.387 270.806 185.772 272.001 184.032 270.31C182.642 268.955 193.802 263.585 204.947 260.243C211.124 258.392 217.708 255.892 219.575 254.688C221.778 253.274 224.474 252.5 227.197 252.5H231.408L224.811 256.708L381.82 256.809L371.643 259.89C366.042 261.582 361.466 263.265 361.466 263.627C361.466 263.989 374.464 264.283 390.355 264.283H419.244L407.087 272.624L378.044 272.658C359.444 272.683 348.677 272.389 348.102 271.825ZM577.643 271.682C577.643 271.126 579.987 269.232 582.837 267.473L588.045 264.283H505.631C460.318 264.283 423.231 263.989 423.231 263.627C423.231 263.265 427.807 261.582 433.408 259.89L443.585 256.809L382.003 256.708L385.765 254.352C387.842 253.047 389.541 251.153 389.541 250.143C389.541 248.292 389.555 248.292 420.423 248.292C451.292 248.292 451.306 248.292 451.306 250.143C451.306 251.153 449.607 253.047 447.53 254.352L443.768 256.708H612.218L615.98 254.352C618.057 253.047 619.756 251.153 619.756 250.143C619.756 248.426 620.415 248.292 628.88 248.292C637.345 248.292 638.004 248.426 638.004 250.143C638.004 251.153 636.306 253.047 634.228 254.352L630.466 256.708L913.841 256.759L901.909 260.521L889.977 264.275L748.129 264.283H606.294L601.086 267.473C598.236 269.232 595.892 271.126 595.892 271.682C595.892 272.372 592.958 272.7 586.768 272.7C580.577 272.7 577.643 272.372 577.643 271.682ZM235.128 240.893C235.128 240.523 237.837 238.629 241.15 236.685L247.172 233.142H673.688L659.875 241.558H447.501C330.695 241.558 235.128 241.255 235.128 240.893ZM919.653 240.978C919.133 240.658 921.365 238.764 924.636 236.769L930.574 233.142H993.546L981.221 241.39L950.928 241.474C934.266 241.516 920.186 241.297 919.653 240.978ZM247.762 224.902C247.762 224.531 250.471 222.638 253.784 220.693L259.806 217.15H662.458L648.645 225.567H448.203C337.953 225.567 247.762 225.264 247.762 224.902ZM932.287 224.986C931.767 224.666 933.999 222.772 937.27 220.778L943.208 217.15H1006.18L993.855 225.398L963.562 225.482C946.9 225.525 932.82 225.306 932.287 224.986ZM947.658 208.952C947.166 208.658 949.44 206.781 952.711 204.786L958.649 201.158H1021.62L1009.3 209.415L978.933 209.449C962.229 209.474 948.149 209.247 947.658 208.952ZM324.968 177.768C324.968 177.398 327.677 175.504 330.99 173.56L337.012 170.017H739.664L725.851 178.433H525.41C415.159 178.433 324.968 178.13 324.968 177.768ZM1009.42 177.81C1008.93 177.516 1011.21 175.639 1014.48 173.644L1020.41 170.017H1083.39L1071.06 178.273L1040.7 178.307C1023.99 178.332 1009.91 178.105 1009.42 177.81ZM340.409 138.033H744.844L744.409 142.031L743.987 146.029L340.409 146.458V138.033ZM1026.31 145.844C1025.83 145.558 1025.44 143.706 1025.44 141.72V138.118L1088.61 138.016V146.467L1057.89 146.416C1040.99 146.391 1026.77 146.13 1026.31 145.844ZM340.409 122.042H744.689V130.458H340.409V122.042ZM1025.44 122.042H1033.05C1037.81 122.042 1040.91 122.437 1041.36 123.094C1041.92 123.935 1042.09 123.935 1042.17 123.094C1042.26 122.294 1047.91 122.042 1065.45 122.042H1088.61V130.458H1065.56C1048.45 130.458 1042.34 130.189 1041.81 129.406C1041.25 128.565 1041.08 128.565 1040.99 129.406C1040.92 130.113 1038.34 130.458 1033.16 130.458H1025.44V122.042ZM375.503 106.892H779.783V114.197L752.185 114.753C737.011 115.056 646.048 115.308 550.045 115.308H375.503V106.892ZM1060.53 106.892H1123.7V113.625H1106.94C1097.72 113.625 1089.83 113.97 1089.39 114.382C1088.97 114.803 1082.29 115.165 1074.57 115.199L1060.53 115.258V106.892ZM375.503 90.9H779.938L779.502 94.8979L779.081 98.8958L375.503 99.3251V90.9ZM1061.47 98.7527C1060.95 98.4497 1060.53 96.556 1060.53 94.5444V90.9H1123.7V99.3167H1093.06C1076.2 99.3167 1061.98 99.0642 1061.47 98.7527ZM281.452 0H346.024V93.425H281.452V0ZM375.503 74.9083H779.938L779.502 78.9062L779.081 82.9042L375.503 83.3334V74.9083ZM1061.47 82.7611C1060.95 82.4581 1060.53 80.5643 1060.53 78.5527V74.9083H1123.7V83.325H1093.06C1076.2 83.325 1061.98 83.0725 1061.47 82.7611ZM375.503 58.9167H779.783V67.3333H375.503V58.9167ZM1060.53 58.9167H1123.7V67.3333H1060.53V58.9167ZM376.444 51.6278C375.924 51.3164 375.503 49.4227 375.503 47.4111V43.7667H779.938L779.502 47.7646L779.081 51.7625L578.233 51.9729C467.772 52.0907 376.963 51.9392 376.444 51.6278ZM1061.47 51.6194C1060.95 51.3164 1060.53 49.4227 1060.53 47.4111V43.7667H1123.7V52.1833H1093.06C1076.2 52.1833 1061.98 51.9308 1061.47 51.6194ZM375.503 27.775H779.938L779.502 31.7729L779.081 35.7708L375.503 36.2001V27.775ZM1061.47 35.6278C1060.95 35.3247 1060.53 33.431 1060.53 31.4194V27.775H1123.7V36.1917H1093.06C1076.2 36.1917 1061.98 35.9392 1061.47 35.6278ZM375.503 11.7833H779.783V20.2H375.503V11.7833ZM1060.53 11.7833H1123.7V20.2H1060.53V11.7833ZM375.503 0H779.783V4.20833H375.503V0ZM1060.53 0H1123.7L1123.7 4.20833H1060.53V0ZM263.203 208.91C263.203 208.54 265.912 206.646 269.225 204.702L275.247 201.158H677.899L664.086 209.575H463.645C353.394 209.575 263.203 209.272 263.203 208.91Z" fill="#FDFDFD"/>
</svg>
