<svg width="1125" height="505" viewBox="0 0 1125 505" fill="none" xmlns="http://www.w3.org/2000/svg">
<path d="M0 175.908V167.492H393.4V162.442H375.135V154.109L392.613 153.604L393.119 150.027L393.611 146.45H375.135V138.118L392.697 137.613L393.555 130.458H375.135V122.042H393.4V115.393L375.837 114.887L375.416 110.932L374.98 106.976L392.697 106.471L393.555 99.3167H375.135V90.9842L392.697 90.4792L393.555 83.325H375.135V74.9925L392.697 74.4875L393.555 67.3333H375.135V58.9167H392.838L392.697 52.6042L375.837 51.7625L375.416 47.8067L374.98 43.8508L392.697 43.3458L393.555 36.1917H375.135V27.8592L392.697 27.3542L393.555 20.2H375.135V11.8675L392.697 11.3625L393.555 4.20833H384.352C375.458 4.20833 375.135 4.13258 375.135 2.10417V0H1124V4.20833H986.31V11.7833H1124V20.2H986.31V27.775H1124V36.1917H986.31V43.7667H1124V52.1833H986.31V58.9167H1124V67.3333H986.31V74.9083H1124V83.325H986.31V90.9H1124V99.3167H986.31V102.624C986.31 105.065 986.956 106.025 988.769 106.311C990.118 106.521 1021.1 106.74 1057.61 106.791L1124 106.892V115.308H986.31V122.042H1124V130.458H986.31V138.033H1124V146.45H986.31V154.025H1124V162.442H986.31V167.492H1124V170.017H375.135V175.908H0ZM979.987 505H43.555C81.3354 505 87.11 504.832 87.11 503.737C87.11 502.744 89.063 502.475 96.2425 502.475H105.375V495.826L87.8125 495.321L87.391 491.365L86.9554 487.409L104.673 486.904L105.108 483.327L105.53 479.75H87.11V471.417L104.673 470.912L105.108 467.335L105.53 463.758H87.11V455.426L104.673 454.921L105.108 451.344L105.53 447.767H87.11V439.35H105.544L104.673 433.037L87.8125 432.196L87.391 428.24L86.9554 424.284L104.673 423.779L105.108 420.202L105.53 416.625H87.11V408.292L104.673 407.787L105.108 404.21L105.53 400.633H87.11V392.301L104.673 391.796L104.982 384.642H87.11V376.225H104.827L105.15 372.9L105.487 369.576L87.8125 369.071L87.391 365.115L86.9554 361.159L104.673 360.654L105.108 357.077L105.53 353.5H87.11V345.167L104.673 344.662L105.108 341.085L105.53 337.508H87.11V329.176L104.673 328.671L105.108 325.094L105.53 321.517H87.11V313.1H105.544L104.673 306.787L87.8125 305.946L87.391 301.99L86.9554 298.034L104.673 297.529L105.108 293.952L105.53 290.375H87.11V282.043L104.673 281.537L105.108 277.96C105.53 274.409 105.572 274.383 110.995 274.383C116.418 274.383 116.46 274.409 116.882 277.96L117.317 281.537L164.385 282V290.375H116.46L116.882 293.952L117.317 297.529L164.385 297.992V306.367H116.615V313.1H164.385V321.517H116.46L116.882 325.094L117.317 328.671L164.385 329.134V337.508H116.46L116.882 341.085L117.317 344.662L164.385 345.125V353.5H116.46L116.882 357.077L117.317 360.654L164.385 361.117V369.492H116.615V376.225H164.385V384.642H116.46L116.882 388.219L117.317 391.796L164.385 392.259V400.633H116.46L116.882 404.21L117.317 407.787L164.385 408.25V416.625H116.46L116.882 420.202L117.317 423.779L164.385 424.242V432.617H116.615V439.35H164.385V447.767H116.46L116.882 451.344L117.317 454.921L164.385 455.384V463.758H116.46L116.882 467.335L117.317 470.912L164.385 471.375V479.75H116.46L116.882 483.327L117.317 486.904L164.385 487.367V495.742H116.615V502.475H140.5C160.788 502.475 164.385 502.669 164.385 503.737C164.385 504.764 166.731 505 177.03 505C187.329 505 189.675 504.764 189.675 503.737C189.675 502.626 199.974 502.475 273.975 502.475H358.275V495.759L190.378 495.321L189.52 487.325H358.275V479.75H189.675V471.333H358.275V463.758H189.675V455.342H358.275V447.767H189.675V439.35H358.275V432.634L190.378 432.196L189.52 424.2H358.275V416.625H189.675V408.208H358.275V400.633H189.675V392.217H358.275V384.642H189.675V376.225H358.275V369.508L190.378 369.071L189.52 361.075H358.275V353.517L190.378 353.079L189.52 345.083H358.275V337.508H189.675V329.092H358.275V321.517H189.675V313.1H358.275V306.383L190.378 305.946L189.52 297.95H358.275V290.375H189.675V281.958H273.975C329.234 281.958 358.275 281.672 358.275 281.117C358.275 280.006 383.115 280.006 384.267 281.117C384.787 281.622 394.355 281.958 408.237 281.958H431.335V290.375H383.41L384.267 297.529L431.335 297.992V306.367H383.565V313.1H431.335V321.517H383.41L384.267 328.671L431.335 329.134V337.508H383.41L384.267 344.662L431.335 345.125V353.5H383.41L384.267 360.654L431.335 361.117V369.492H383.565V376.225H431.335V384.642H383.41L384.267 391.796L431.335 392.259V400.633H383.41L384.267 407.787L431.335 408.25V416.625H383.41L384.267 423.779L431.335 424.242V432.617H383.565V439.35H431.335V447.767H383.41L384.267 454.921L431.335 455.384V463.758H383.41L384.267 470.912L431.335 471.375V479.75H383.41L384.267 486.904L431.335 487.367V495.742H383.565V502.475H407.45C427.738 502.475 431.335 502.669 431.335 503.737C431.335 504.672 432.979 505 437.658 505C442.336 505 443.98 504.672 443.98 503.737C443.98 502.626 456.864 502.475 551.547 502.475H659.114L658.242 496.162L444.682 495.321L444.261 491.323C443.952 488.47 444.345 487.325 445.666 487.308C446.664 487.308 494.911 487.207 552.867 487.098L658.242 486.904L658.678 483.335L659.099 479.758L444.682 479.329L444.261 475.34L443.825 471.342L658.242 470.912L659.099 463.758H443.98V455.35L658.242 454.921L659.099 447.767H443.98V439.35H658.945V432.625L444.682 432.196L443.825 424.208L658.242 423.779L659.099 416.633L444.682 416.204L443.825 408.217L658.242 407.787L658.552 400.633H443.98V392.225L658.242 391.796L659.099 384.642H443.98V376.225H658.945V369.5L444.682 369.071L443.825 361.083L658.158 360.654L658.65 357.086L659.156 353.508L444.682 353.079L444.261 349.081L443.825 345.083H657.189L658.074 342.457C658.552 341.01 658.945 339.301 658.945 338.67C658.945 337.693 641.72 337.508 551.462 337.508H443.98V329.1L658.242 328.671L659.099 321.517H443.98V313.1H658.945V306.375L444.682 305.946L443.825 297.958L658.242 297.529L659.099 290.383L444.682 289.954L443.825 281.967L658.242 281.537L659.099 274.383H696.725L697.582 281.537L835.975 281.975V290.375H698.285V293.649C698.285 295.863 699.002 297.091 700.505 297.437C701.727 297.723 732.708 297.95 769.35 297.95H835.975V306.367H698.285V313.1H835.975V321.517H698.285V329.092H835.975V337.508H698.285V345.083H835.975V353.5H698.13L698.987 360.654L835.975 361.092V369.492H698.285V376.225H835.975V384.642H698.285V392.217H835.975V400.633H698.285V408.208H835.975V416.625H698.13L698.987 423.779L835.975 424.217V432.617H698.285V439.35H835.975V447.767H698.285V455.342H835.975V463.758H698.285V471.333H835.975V479.75H698.13L698.987 486.904L835.975 487.342V495.742H698.285V502.475H767.13C827.39 502.475 835.975 502.635 835.975 503.737C835.975 504.848 852.919 505 979.987 505ZM671.59 162.442V167.492H946.97V162.45L732.707 162.021L732.286 158.031L731.85 154.033L946.267 153.604L947.125 146.45H732.005V138.042L946.267 137.613L947.125 130.458H732.005V122.042H946.97V115.317L732.707 114.887L732.286 110.898L731.85 106.9L946.267 106.471L946.703 102.902L947.125 99.3251L732.707 98.8958L732.286 94.9063L731.85 90.9084L946.267 90.4792L946.703 86.9105L947.125 83.3334L732.707 82.9042L732.286 78.9147L731.85 74.9167L946.267 74.4875L947.125 67.3333H732.005V58.9167H946.97V52.1917L732.707 51.7625L732.286 47.773L731.85 43.7751L946.267 43.3458L946.703 39.7772L947.125 36.2001L732.707 35.7708L732.286 31.7813L731.85 27.7834L946.267 27.3542L947.125 20.2H732.005V11.7917L946.267 11.3625L947.125 4.20833H732.005V2.10417C732.005 0.168333 731.485 0 725.682 0C719.88 0 719.36 0.168333 719.36 2.10417V4.20833H671.435L672.292 11.3625L719.36 11.8254V20.2H671.435L672.292 27.3542L719.36 27.8171V36.1917H671.435L672.292 43.3458L719.36 43.8087V52.1833H671.59V58.9167H719.36V67.3333H671.435L672.292 74.4875L719.36 74.9504V83.325H671.435L672.292 90.4792L719.36 90.9421V99.3167H671.435L672.292 106.471L719.36 106.934V115.308H671.59V122.042H719.36V130.458H671.435L672.292 137.613L719.36 138.075V146.45H671.435L672.292 153.604L719.36 154.067V162.442H671.59ZM404.64 162.475V167.492H646.3V162.458L469.973 162.021L469.551 158.023L469.115 154.025H646.3V146.45H477.7V138.033H646.3V130.458H477.7V122.042H646.3V115.325L478.402 114.887L477.981 110.89L477.545 106.892H646.3V99.3167H477.7V90.9H646.3V83.325H477.7V74.9083H646.3V67.3333H477.7V58.9167H646.3V52.2002L478.402 51.7625L477.981 47.7646L477.545 43.7667H646.3V36.1917H477.7V27.775H646.3V20.2H477.7V11.7833H646.3V4.20833H477.7V2.10417C477.7 0.0168333 477.602 0 465.055 0C452.508 0 452.41 0.0168333 452.41 2.10417V4.20833H404.485L405.342 11.3625L452.41 11.8254V20.2H404.485L405.342 27.3542L452.41 27.8171V36.1917H404.485L405.342 43.3458L452.41 43.8087V52.1833H404.64V58.9167H452.41V67.3333H404.485L405.342 74.4875L452.41 74.9504V83.325H404.485L405.342 90.4792L452.41 90.9421V99.3167H404.485L405.342 106.471L452.41 106.934V115.308H404.64V122.042H452.41V130.458H404.485L405.342 137.613L452.41 138.075V146.45H404.485L405.342 153.604L466.615 154.059L465.757 162.021L404.64 162.475ZM0 271.017V252.5H276.785C521.873 252.5 553.57 252.357 553.57 251.237C553.57 249.63 566.201 249.462 568.814 251.027C570.205 251.86 618.917 252.138 800.569 252.348C927.061 252.492 1051.59 252.357 1077.28 252.037L1124 251.465V270.175H835.975V265.967H286.62V274.383H262.735V265.967H87.11V271.017H0ZM986.31 209.575V217.15H1124V225.567H986.31V233.142H1124V241.558H986.31V248.292H946.97V241.567L732.707 241.137L732.286 237.148L731.85 233.15L946.267 232.721L947.125 225.575L732.707 225.146L732.286 221.156L731.85 217.158L946.267 216.729L947.125 209.575H732.005V201.158H838.785C923.155 201.158 945.607 200.939 945.776 200.106C945.902 199.525 946.057 198.482 946.127 197.792C946.239 196.756 949.33 196.487 963.128 196.285C983.753 195.99 986.31 196.294 986.31 199.071V201.158H1124V209.575H986.31ZM671.59 241.558V248.292H646.3V241.575L478.402 241.137L477.981 237.14L477.545 233.142H646.3V224.725H467.865V217.15H646.3V209.575H477.7V201.158H646.3V196.108H671.407L671.843 198.423L672.292 200.737L719.36 201.2V209.575H671.435L672.292 216.729L719.36 217.192V225.567H671.435L672.292 232.721L719.36 233.184V241.558H671.59ZM404.64 241.558V248.292H399.02C393.414 248.292 393.4 248.283 393.4 244.967V241.643L375.837 241.137L375.416 237.182L374.98 233.226L392.613 232.721L393.119 229.144L393.611 225.567H375.135V217.234L392.697 216.729L393.555 209.575H375.135V201.242L392.697 200.737L393.555 193.583H375.135V185.167H393.4V178.433H404.64V185.167H646.3V178.433H671.59V185.167H719.36V193.583H404.485L405.342 200.737L452.41 201.2V209.575H404.64V217.15H452.41V224.725H404.485L404.921 228.723L405.342 232.721L452.41 233.184V241.558H404.64ZM1124 185.167V193.583H732.005V185.167H839.544C924.771 185.167 947.04 184.948 946.872 184.115C946.745 183.534 946.717 182.019 946.801 180.748L946.97 178.433H986.31V185.167H1124ZM262.735 265.967H285.215V258.392L293.996 258.358C298.829 258.333 422.582 258.249 569.025 258.164C695.742 258.097 754.85 258.013 754.85 257.895C754.85 257.828 733.986 257.744 694.07 257.634L552.867 257.255L612.58 256.279C624.986 256.077 632.306 255.917 632.306 255.791C632.306 255.378 559.401 255.286 343.874 255.227C154.438 255.176 15.455 255.454 15.455 255.883C15.455 256.287 11.816 256.742 7.37625 256.877C7.17955 256.885 7.0812 256.893 7.0812 256.893C7.0812 257.037 51.0156 257.23 108.185 257.34C168.066 257.457 227.343 257.794 239.904 258.097L262.735 258.636V265.967ZM991.227 256.313L926.597 257.432L978.582 257.07C1007.17 256.877 1051.75 256.666 1077.64 256.616C1106.49 256.557 1122.52 256.245 1119.08 255.816C1111.16 254.84 1066.44 255.008 991.227 256.313Z" fill="#010101"/>
<path d="M562.618 249.975C562.885 249.975 563.138 249.975 563.405 249.975C568.73 249.975 573.465 249.596 573.943 249.133C574.49 248.611 588.245 248.292 610.557 248.292H695.475C715.763 248.292 719.36 248.485 719.36 249.554C719.36 250.488 721.004 250.817 725.682 250.817C730.361 250.817 732.005 250.488 732.005 249.554C732.005 248.443 744.805 248.292 838.785 248.292H945.565V241.567L732.707 241.137L946.97 241.567V248.292H1124V251.465L1077.28 252.037C1051.59 252.357 927.061 252.492 800.569 252.348C618.917 252.138 570.205 251.86 568.814 251.027C567.803 250.421 565.302 250.076 562.618 249.975ZM293.996 258.358L285.215 258.392H262.735V258.636L239.904 258.097C227.343 257.794 168.066 257.457 108.185 257.34C51.0156 257.23 7.0812 257.037 7.0812 256.893C7.0812 256.893 7.17955 256.885 7.37625 256.877C11.816 256.742 15.455 256.287 15.455 255.883C15.455 255.454 154.438 255.176 343.874 255.227C559.401 255.286 632.306 255.378 632.306 255.791C632.306 255.917 624.986 256.077 612.58 256.279L552.867 257.255L694.07 257.634C733.986 257.744 754.85 257.828 754.85 257.895C754.85 258.013 695.742 258.097 569.025 258.164C422.582 258.249 298.829 258.333 293.996 258.358ZM61.82 251.658C59.5299 251.684 58.4339 251.709 58.4339 251.734C58.4339 251.953 140.767 252.138 256.413 252.155C382.947 252.172 483.671 252.054 483.671 251.886C483.671 251.886 483.629 251.877 483.545 251.877C477.531 251.625 476.211 251.313 476.871 250.278C477.335 249.571 477.7 248.839 477.7 248.645C477.7 247.846 552.039 248.325 552.867 249.133C553.261 249.512 556.492 249.832 560.567 249.941C556.942 249.958 553.57 250.404 553.57 251.237C553.57 252.357 521.873 252.5 276.785 252.5H0V250.817L101.862 251.195L61.82 251.658ZM557.434 216.409L646.3 216.308V217.15H467.865V224.725H646.3V225.567H404.57L404.485 224.725H452.41V217.15H404.64V216.308L429.579 216.493C443.292 216.586 457.679 216.637 461.542 216.586C465.406 216.544 508.554 216.46 557.434 216.409ZM375.837 241.137L393.4 241.643V244.967C393.4 248.283 393.414 248.292 399.02 248.292H428.525C448.813 248.292 452.41 248.485 452.41 249.554C452.41 250.648 447.183 250.817 413.772 250.817C380.362 250.817 375.135 250.648 375.135 249.554C375.135 248.569 377.004 248.292 383.565 248.292H391.995V241.643L375.837 241.137ZM991.227 256.313C1066.44 255.008 1111.16 254.84 1119.08 255.816C1122.52 256.245 1106.49 256.557 1077.64 256.616C1051.75 256.666 1007.17 256.877 978.582 257.07L926.597 257.432L991.227 256.313Z" fill="#757575"/>
<path d="M696.725 274.383H443.98V265.967H835.975V274.383H698.285V281.537H697.582L696.725 274.383ZM110.995 274.383C105.572 274.383 105.53 274.409 105.108 277.96L105.53 274.383H96.4813C88.6133 274.383 87.3348 274.164 86.7025 272.7C85.986 271.059 84.7917 271.017 42.979 271.017H87.11V265.967H262.735V265.125H285.215V265.967H262.735V274.383H116.46L116.882 277.96C116.46 274.409 116.418 274.383 110.995 274.383ZM286.62 265.967H431.335V274.383H286.62V265.967ZM830.945 281.958H835.975V281.975L830.945 281.958Z" fill="#CDCDCD"/>
<path d="M0 271.017H42.979C84.7917 271.017 85.986 271.059 86.7025 272.7C87.3348 274.164 88.6133 274.383 96.4813 274.383H105.53L105.108 277.96L104.673 281.537L87.11 282.043V290.375H105.53L105.108 293.952L104.673 297.529L86.9554 298.034L87.391 301.99L87.8125 305.946L104.673 306.787L105.544 313.1H87.11V321.517H105.53L105.108 325.094L104.673 328.671L87.11 329.176V337.508H105.53L105.108 341.085L104.673 344.662L87.11 345.167V353.5H105.53L105.108 357.077L104.673 360.654L86.9554 361.159L87.391 365.115L87.8125 369.071L105.487 369.576L105.15 372.9L104.827 376.225H87.11V384.642H104.982L104.673 391.796L87.11 392.301V400.633H105.53L105.108 404.21L104.673 407.787L87.11 408.292V416.625H105.53L105.108 420.202L104.673 423.779L86.9554 424.284L87.391 428.24L87.8125 432.196L104.673 433.037L105.544 439.35H87.11V447.767H105.53L105.108 451.344L104.673 454.921L87.11 455.426V463.758H105.53L105.108 467.335L104.673 470.912L87.11 471.417V479.75H105.53L105.108 483.327L104.673 486.904L86.9554 487.409L87.391 491.365L87.8125 495.321L105.375 495.826V502.475H96.2425C89.063 502.475 87.11 502.744 87.11 503.737C87.11 504.832 81.3354 505 43.555 505H0V271.017ZM164.385 503.737C164.385 502.669 160.788 502.475 140.5 502.475H116.615V495.742H164.385V487.367L117.317 486.904L116.882 483.327L116.46 479.75H164.385V471.375L117.317 470.912L116.882 467.335L116.46 463.758H164.385V455.384L117.317 454.921L116.882 451.344L116.46 447.767H164.385V439.35H116.615V432.617H164.385V424.242L117.317 423.779L116.882 420.202L116.46 416.625H164.385V408.25L117.317 407.787L116.882 404.21L116.46 400.633H164.385V392.259L117.317 391.796L116.882 388.219L116.46 384.642H164.385V376.225H116.615V369.492H164.385V361.117L117.317 360.654L116.882 357.077L116.46 353.5H164.385V345.125L117.317 344.662L116.882 341.085L116.46 337.508H164.385V329.134L117.317 328.671L116.882 325.094L116.46 321.517H164.385V313.1H116.615V306.367H164.385V297.992L117.317 297.529L116.882 293.952L116.46 290.375H164.385V282L117.317 281.537L116.882 277.96L116.46 274.383H431.335V265.967H443.98V274.383H659.099L658.678 277.96L658.242 281.537L443.825 281.967L444.261 285.965L444.682 289.954L659.099 290.383L658.678 293.961L658.242 297.529L443.825 297.958L444.261 301.956L444.682 305.946L658.945 306.375V313.1H443.98V321.517H659.099L658.678 325.094L658.242 328.671L443.98 329.1V337.508H551.462C641.72 337.508 658.945 337.693 658.945 338.67C658.945 339.301 658.552 341.01 658.074 342.457L657.189 345.083H443.825L444.261 349.081L444.682 353.079L659.156 353.508L658.65 357.086L658.158 360.654L443.825 361.083L444.261 365.081L444.682 369.071L658.945 369.5V376.225H443.98V384.642H659.099L658.678 388.219L658.242 391.796L443.98 392.225V400.633H658.552L658.242 407.787L443.825 408.217L444.261 412.215L444.682 416.204L659.099 416.633L658.678 420.21L658.242 423.779L443.825 424.208L444.261 428.206L444.682 432.196L658.945 432.625V439.35H443.98V447.767H659.099L658.678 451.344L658.242 454.921L443.98 455.35V463.758H659.099L658.678 467.335L658.242 470.912L443.825 471.342L444.261 475.34L444.682 479.329L659.099 479.758L658.678 483.335L658.242 486.904L552.867 487.098C494.911 487.207 446.664 487.308 445.666 487.308C444.345 487.325 443.952 488.47 444.261 491.323L444.682 495.321L658.242 496.162L659.114 502.475H551.547C456.864 502.475 443.98 502.626 443.98 503.737C443.98 504.672 442.336 505 437.658 505C432.979 505 431.335 504.672 431.335 503.737C431.335 502.669 427.738 502.475 407.45 502.475H383.565V495.742H431.335V487.367L384.267 486.904L383.832 483.327L383.41 479.75H431.335V471.375L384.267 470.912L383.832 467.335L383.41 463.758H431.335V455.384L384.267 454.921L383.832 451.344L383.41 447.767H431.335V439.35H383.565V432.617H431.335V424.242L384.267 423.779L383.832 420.202L383.41 416.625H431.335V408.25L384.267 407.787L383.832 404.21L383.41 400.633H431.335V392.259L384.267 391.796L383.832 388.219L383.41 384.642H431.335V376.225H383.565V369.492H431.335V361.117L384.267 360.654L383.832 357.077L383.41 353.5H431.335V345.125L384.267 344.662L383.832 341.085L383.41 337.508H431.335V329.134L384.267 328.671L383.832 325.094L383.41 321.517H431.335V313.1H383.565V306.367H431.335V297.992L384.267 297.529L383.832 293.952L383.41 290.375H431.335V281.958H408.237C394.355 281.958 384.787 281.622 384.267 281.117C383.115 280.006 358.275 280.006 358.275 281.117C358.275 281.672 329.234 281.958 273.975 281.958H189.675V290.375H358.275V297.95H189.52L189.956 301.948L190.378 305.946L358.275 306.383V313.1H189.675V321.517H358.275V329.092H189.675V337.508H358.275V345.083H189.52L189.956 349.081L190.378 353.079L358.275 353.517V361.075H189.52L189.956 365.073L190.378 369.071L358.275 369.508V376.225H189.675V384.642H358.275V392.217H189.675V400.633H358.275V408.208H189.675V416.625H358.275V424.2H189.52L189.956 428.198L190.378 432.196L358.275 432.634V439.35H189.675V447.767H358.275V455.342H189.675V463.758H358.275V471.333H189.675V479.75H358.275V487.325H189.52L189.956 491.323L190.378 495.321L358.275 495.759V502.475H273.975C199.974 502.475 189.675 502.626 189.675 503.737C189.675 504.764 187.329 505 177.03 505C166.731 505 164.385 504.764 164.385 503.737ZM835.975 503.737C835.975 502.635 827.39 502.475 767.13 502.475H698.285V495.742H835.975V487.342L698.987 486.904L698.552 483.327L698.13 479.75H835.975V471.333H698.285V463.758H835.975V455.342H698.285V447.767H835.975V439.35H698.285V432.617H835.975V424.217L698.987 423.779L698.552 420.202L698.13 416.625H835.975V408.208H698.285V400.633H835.975V392.217H698.285V384.642H835.975V376.225H698.285V369.492H835.975V361.092L698.987 360.654L698.552 357.077L698.13 353.5H835.975V345.083H698.285V337.508H835.975V329.092H698.285V321.517H835.975V313.1H698.285V306.367H835.975V297.95H769.35C732.708 297.95 701.727 297.723 700.505 297.437C699.002 297.091 698.285 295.863 698.285 293.649V290.375H835.975V281.958H698.285V274.383H835.975V270.175H1124V505H979.987C852.919 505 835.975 504.848 835.975 503.737ZM262.735 258.392H285.215V265.125H262.735V258.392ZM61.82 251.658L101.862 251.195L0 250.817V175.908H375.135V170.017H1124V185.167H986.31V178.433H946.97L946.801 180.748C946.717 182.019 946.745 183.534 946.872 184.115C947.04 184.948 924.771 185.167 839.544 185.167H732.005V193.583H1124V201.158H986.31V199.071C986.31 196.294 983.753 195.99 963.128 196.285C949.33 196.487 946.239 196.756 946.127 197.792C946.057 198.482 945.902 199.525 945.776 200.106C945.607 200.939 923.155 201.158 838.785 201.158H732.005V209.575H947.125L946.703 213.152L946.267 216.729L731.85 217.158L732.286 221.156L732.707 225.146L947.125 225.575L946.703 229.152L946.267 232.721L731.85 233.15L732.286 237.148L732.707 241.137L945.565 241.567V248.292H838.785C744.805 248.292 732.005 248.443 732.005 249.554C732.005 250.488 730.361 250.817 725.682 250.817C721.004 250.817 719.36 250.488 719.36 249.554C719.36 248.485 715.763 248.292 695.475 248.292H671.59V241.558H719.36V233.184L672.292 232.721L671.857 229.144L671.435 225.567H719.36V217.192L672.292 216.729L671.857 213.152L671.435 209.575H719.36V201.2L672.292 200.737L671.843 198.423L671.407 196.108H646.3V201.158H477.7V209.575H646.3V216.308L557.434 216.409C508.554 216.46 465.406 216.544 461.542 216.586C457.679 216.637 443.292 216.586 429.579 216.493L404.64 216.308V209.575H452.41V201.2L405.342 200.737L404.907 197.16L404.485 193.583H719.36V185.167H671.59V178.433H646.3V185.167H404.64V178.433H393.4V185.167H375.135V193.583H393.555L393.133 197.16L392.697 200.737L375.135 201.242V209.575H393.555L393.133 213.152L392.697 216.729L375.135 217.234V225.567H393.611L393.119 229.144L392.613 232.721L374.98 233.226L375.416 237.182L375.837 241.137L391.995 241.643V248.292H383.565C377.004 248.292 375.135 248.569 375.135 249.554C375.135 250.648 380.362 250.817 413.772 250.817C447.183 250.817 452.41 250.648 452.41 249.554C452.41 248.485 448.813 248.292 428.525 248.292H404.64V241.558H452.41V233.184L405.342 232.721L404.907 229.144L404.485 225.567H646.3V233.142H477.545L477.981 237.14L478.402 241.137L646.3 241.575V248.292H610.557C588.245 248.292 574.49 248.611 573.943 249.133C573.465 249.596 568.73 249.975 563.405 249.975C558.08 249.975 553.345 249.596 552.867 249.133C552.039 248.325 477.7 247.846 477.7 248.645C477.7 248.839 477.335 249.571 476.871 250.278C476.211 251.313 477.531 251.625 483.545 251.877C487.676 252.046 385.462 252.172 256.413 252.155C127.363 252.138 39.8036 251.911 61.82 251.658ZM986.31 241.558H1124V248.292H986.31V241.558ZM986.31 225.567H1124V233.142H986.31V225.567ZM986.31 209.575H1124V217.15H986.31V209.575ZM0 0H375.135V2.10417C375.135 4.13258 375.458 4.20833 384.352 4.20833H393.555L393.133 7.78542L392.697 11.3625L375.135 11.8675V20.2H393.555L393.133 23.7771L392.697 27.3542L375.135 27.8592V36.1917H393.555L393.133 39.7687L392.697 43.3458L374.98 43.8508L375.416 47.8067L375.837 51.7625L392.697 52.6042L392.838 58.9167H375.135V67.3333H393.555L393.133 70.9104L392.697 74.4875L375.135 74.9925V83.325H393.555L393.133 86.9021L392.697 90.4792L375.135 90.9842V99.3167H393.555L393.133 102.894L392.697 106.471L374.98 106.976L375.416 110.932L375.837 114.887L393.4 115.393V122.042H375.135V130.458H393.555L393.133 134.035L392.697 137.613L375.135 138.118V146.45H393.611L393.119 150.027L392.613 153.604L375.135 154.109V162.442H393.4V167.492H0V0ZM404.64 162.475L465.757 162.021L466.179 158.04L466.615 154.059L405.342 153.604L404.907 150.027L404.485 146.45H452.41V138.075L405.342 137.613L404.907 134.035L404.485 130.458H452.41V122.042H404.64V115.308H452.41V106.934L405.342 106.471L404.907 102.894L404.485 99.3167H452.41V90.9421L405.342 90.4792L404.907 86.9021L404.485 83.325H452.41V74.9504L405.342 74.4875L404.907 70.9104L404.485 67.3333H452.41V58.9167H404.64V52.1833H452.41V43.8087L405.342 43.3458L404.907 39.7687L404.485 36.1917H452.41V27.8171L405.342 27.3542L404.907 23.7771L404.485 20.2H452.41V11.8254L405.342 11.3625L404.907 7.78542L404.485 4.20833H452.41V2.10417C452.41 0.0168333 452.508 0 465.055 0C477.602 0 477.7 0.0168333 477.7 2.10417V4.20833H646.3V11.7833H477.7V20.2H646.3V27.775H477.7V36.1917H646.3V43.7667H477.545L477.981 47.7646L478.402 51.7625L646.3 52.2002V58.9167H477.7V67.3333H646.3V74.9083H477.7V83.325H646.3V90.9H477.7V99.3167H646.3V106.892H477.545L477.981 110.89L478.402 114.887L646.3 115.325V122.042H477.7V130.458H646.3V138.033H477.7V146.45H646.3V154.025H469.115L469.551 158.023L469.973 162.021L646.3 162.458V167.492H404.64V162.475ZM671.59 162.442H719.36V154.067L672.292 153.604L671.857 150.027L671.435 146.45H719.36V138.075L672.292 137.613L671.857 134.035L671.435 130.458H719.36V122.042H671.59V115.308H719.36V106.934L672.292 106.471L671.857 102.894L671.435 99.3167H719.36V90.9421L672.292 90.4792L671.857 86.9021L671.435 83.325H719.36V74.9504L672.292 74.4875L671.857 70.9104L671.435 67.3333H719.36V58.9167H671.59V52.1833H719.36V43.8087L672.292 43.3458L671.857 39.7687L671.435 36.1917H719.36V27.8171L672.292 27.3542L671.857 23.7771L671.435 20.2H719.36V11.8254L672.292 11.3625L671.857 7.78542L671.435 4.20833H719.36V2.10417C719.36 0.168333 719.88 0 725.682 0C731.485 0 732.005 0.168333 732.005 2.10417V4.20833H947.125L946.703 7.78542L946.267 11.3625L732.005 11.7917V20.2H947.125L946.703 23.7771L946.267 27.3542L731.85 27.7834L732.286 31.7813L732.707 35.7708L947.125 36.2001L946.703 39.7772L946.267 43.3458L731.85 43.7751L732.286 47.773L732.707 51.7625L946.97 52.1917V58.9167H732.005V67.3333H947.125L946.703 70.9104L946.267 74.4875L731.85 74.9167L732.286 78.9147L732.707 82.9042L947.125 83.3334L946.703 86.9105L946.267 90.4792L731.85 90.9084L732.286 94.9063L732.707 98.8958L947.125 99.3251L946.703 102.902L946.267 106.471L731.85 106.9L732.286 110.898L732.707 114.887L946.97 115.317V122.042H732.005V130.458H947.125L946.703 134.035L946.267 137.613L732.005 138.042V146.45H947.125L946.703 150.027L946.267 153.604L731.85 154.033L732.286 158.031L732.707 162.021L946.97 162.45V167.492H671.59V162.442ZM986.31 162.442H1124V167.492H986.31V162.442ZM986.31 146.45H1124V154.025H986.31V146.45ZM986.31 130.458H1124V138.033H986.31V130.458ZM986.31 115.308H1124V122.042H986.31V115.308ZM988.769 106.311C986.956 106.025 986.31 105.065 986.31 102.624V99.3167H1124V106.892L1057.61 106.791C1021.1 106.74 990.118 106.521 988.769 106.311ZM986.31 83.325H1124V90.9H986.31V83.325ZM986.31 67.3333H1124V74.9083H986.31V67.3333ZM986.31 52.1833H1124V58.9167H986.31V52.1833ZM986.31 36.1917H1124V43.7667H986.31V36.1917ZM986.31 20.2H1124V27.775H986.31V20.2ZM986.31 4.20833H1124V11.7833H986.31V4.20833Z" fill="#FEFEFE"/>
</svg>
