<svg width="417" height="86" viewBox="0 0 417 86" fill="none" xmlns="http://www.w3.org/2000/svg">
<path d="M16.2524 9.00049V8.0498C16.2524 7.72754 16.3115 7.49658 16.4297 7.35693C16.5586 7.21729 16.7251 7.14746 16.9292 7.14746C17.1333 7.14746 17.2944 7.21729 17.4126 7.35693C17.5415 7.49658 17.606 7.72754 17.606 8.0498V11.8042C17.606 12.1372 17.5415 12.3735 17.4126 12.5132C17.2944 12.6528 17.1333 12.7227 16.9292 12.7227C16.7466 12.7227 16.5908 12.6582 16.4619 12.5293C16.3438 12.4004 16.2739 12.1909 16.2524 11.9009C16.1987 10.9985 15.71 10.1982 14.7861 9.5C13.54 8.54395 12.1221 8.06592 10.5322 8.06592C9.49023 8.06592 8.50732 8.29687 7.5835 8.75879C6.896 9.0918 6.34814 9.5 5.93994 9.9834C5.23096 10.8213 4.66699 11.7505 4.24805 12.771C3.94727 13.5229 3.79688 14.3716 3.79688 15.3169V17.6855C3.79688 19.7051 4.52734 21.4614 5.98828 22.9546C7.44922 24.437 9.14648 25.1782 11.0801 25.1782C12.2402 25.1782 13.2769 24.9258 14.1899 24.4209C15.1138 23.916 16.0054 23.1533 16.8647 22.1328C17.0474 21.9072 17.2515 21.7944 17.4771 21.7944C17.6704 21.7944 17.8262 21.8535 17.9443 21.9717C18.0625 22.0898 18.1216 22.2402 18.1216 22.4229C18.1216 22.6699 17.8906 23.0459 17.4287 23.5508C16.5479 24.5391 15.5542 25.2856 14.4478 25.7905C13.3521 26.2847 12.2402 26.5317 11.1123 26.5317C10.1348 26.5317 9.14111 26.3438 8.13135 25.9678C7.35791 25.6777 6.71875 25.3394 6.21387 24.9526C5.70898 24.5659 5.08594 23.916 4.34473 23.0029C3.61426 22.0791 3.11475 21.2305 2.84619 20.457C2.57764 19.6729 2.44336 18.8135 2.44336 17.8789V15.1235C2.44336 13.7915 2.79785 12.4326 3.50684 11.0469C4.22656 9.65039 5.2041 8.58154 6.43945 7.84033C7.68555 7.08838 9.03369 6.7124 10.4839 6.7124C12.7183 6.7124 14.6411 7.4751 16.2524 9.00049ZM30.9316 24.6465H29.3848L24.1802 13.4155H24.1157V24.6465H26.6133C27.2148 24.6465 27.5156 24.8721 27.5156 25.3232C27.5156 25.7744 27.2148 26 26.6133 26H21.6182C21.0166 26 20.7158 25.7744 20.7158 25.3232C20.7158 24.8721 21.0166 24.6465 21.6182 24.6465H22.7622V13.4155H21.9082C21.3066 13.4155 21.0059 13.1899 21.0059 12.7388C21.0059 12.2769 21.3066 12.0459 21.9082 12.0459H25.0342L30.1582 23.1157L35.2017 12.0459H38.3276C38.9399 12.0459 39.2461 12.2769 39.2461 12.7388C39.2461 13.1899 38.9399 13.4155 38.3276 13.4155H37.4897V24.6465H38.6177C39.23 24.6465 39.5361 24.8721 39.5361 25.3232C39.5361 25.7744 39.23 26 38.6177 26H33.6387C33.0264 26 32.7202 25.7744 32.7202 25.3232C32.7202 24.8721 33.0264 24.6465 33.6387 24.6465H36.1201V13.4155H36.0396L30.9316 24.6465ZM45.0952 26H41.8726C41.271 26 40.9702 25.7744 40.9702 25.3232C40.9702 24.8721 41.271 24.6465 41.8726 24.6465H43.5V13.4155H41.8726C41.271 13.4155 40.9702 13.1899 40.9702 12.7388C40.9702 12.2769 41.271 12.0459 41.8726 12.0459H46.6743C47.2759 12.0459 47.5767 12.2769 47.5767 12.7388C47.5767 13.1899 47.2759 13.4155 46.6743 13.4155H44.8535V24.0503L54.6021 12.0459H58.002C58.6035 12.0459 58.9043 12.2769 58.9043 12.7388C58.9043 13.1899 58.6035 13.4155 58.002 13.4155H56.1812V24.6465H58.002C58.6035 24.6465 58.9043 24.8721 58.9043 25.3232C58.9043 25.7744 58.6035 26 58.002 26H53.0068C52.4053 26 52.1045 25.7744 52.1045 25.3232C52.1045 24.8721 52.4053 24.6465 53.0068 24.6465H54.8276V14.0278L45.0952 26ZM64.6567 12.0459V14.5112C65.4624 13.5337 66.3271 12.7979 67.251 12.3037C68.1748 11.8096 69.2651 11.5625 70.522 11.5625C71.854 11.5625 73.084 11.874 74.2119 12.4971C75.3398 13.1201 76.21 13.9902 76.8223 15.1074C77.4453 16.2139 77.7568 17.3794 77.7568 18.604C77.7568 20.5483 77.0586 22.2134 75.6621 23.5991C74.2764 24.9741 72.5684 25.6616 70.5381 25.6616C68.1211 25.6616 66.1606 24.6787 64.6567 22.7129V30.8662H67.9438C68.2661 30.8662 68.4971 30.9253 68.6367 31.0435C68.7764 31.1724 68.8462 31.3389 68.8462 31.543C68.8462 31.7363 68.7764 31.8975 68.6367 32.0264C68.4971 32.1553 68.2661 32.2197 67.9438 32.2197H61.4824C61.1602 32.2197 60.9292 32.1553 60.7896 32.0264C60.6499 31.9082 60.5801 31.7471 60.5801 31.543C60.5801 31.3389 60.6499 31.1724 60.7896 31.0435C60.9292 30.9253 61.1602 30.8662 61.4824 30.8662H63.3032V13.4155H61.4824C61.1602 13.4155 60.9292 13.3511 60.7896 13.2222C60.6499 13.0933 60.5801 12.9268 60.5801 12.7227C60.5801 12.5293 60.6499 12.3682 60.7896 12.2393C60.9292 12.1104 61.1602 12.0459 61.4824 12.0459H64.6567ZM76.3872 18.604C76.3872 17.0464 75.8179 15.7144 74.6792 14.6079C73.5513 13.4907 72.1709 12.9321 70.5381 12.9321C68.8945 12.9321 67.5034 13.4907 66.3647 14.6079C65.2261 15.7251 64.6567 17.0571 64.6567 18.604C64.6567 20.1616 65.2261 21.499 66.3647 22.6162C67.5034 23.7334 68.8945 24.292 70.5381 24.292C72.1602 24.292 73.5405 23.7388 74.6792 22.6323C75.8179 21.5151 76.3872 20.1724 76.3872 18.604ZM93.9668 19.3452H85.1851V24.6465H86.7158C87.3174 24.6465 87.6182 24.8721 87.6182 25.3232C87.6182 25.7744 87.3174 26 86.7158 26H82.3008C81.6992 26 81.3984 25.7744 81.3984 25.3232C81.3984 24.8721 81.6992 24.6465 82.3008 24.6465H83.8315V13.4155H82.7842C82.1826 13.4155 81.8818 13.1899 81.8818 12.7388C81.8818 12.2769 82.1826 12.0459 82.7842 12.0459H86.2324C86.834 12.0459 87.1348 12.2769 87.1348 12.7388C87.1348 13.1899 86.834 13.4155 86.2324 13.4155H85.1851V17.9756H93.9668V13.4155H92.9355C92.3232 13.4155 92.0171 13.1899 92.0171 12.7388C92.0171 12.2769 92.3232 12.0459 92.9355 12.0459H96.3677C96.9692 12.0459 97.27 12.2769 97.27 12.7388C97.27 13.1899 96.9692 13.4155 96.3677 13.4155H95.3203V24.6465H96.8511C97.4526 24.6465 97.7534 24.8721 97.7534 25.3232C97.7534 25.7744 97.4526 26 96.8511 26H92.436C91.8345 26 91.5337 25.7744 91.5337 25.3232C91.5337 24.8721 91.8345 24.6465 92.436 24.6465H93.9668V19.3452ZM116.96 19.0552C116.96 21.1177 116.219 22.8794 114.737 24.3403C113.265 25.8013 111.487 26.5317 109.403 26.5317C107.298 26.5317 105.509 25.8013 104.038 24.3403C102.566 22.8687 101.83 21.1069 101.83 19.0552C101.83 16.9927 102.566 15.231 104.038 13.77C105.509 12.2983 107.298 11.5625 109.403 11.5625C111.487 11.5625 113.265 12.293 114.737 13.7539C116.219 15.2148 116.96 16.9819 116.96 19.0552ZM115.591 19.0552C115.591 17.3579 114.984 15.9131 113.77 14.7207C112.567 13.5283 111.106 12.9321 109.387 12.9321C107.668 12.9321 106.202 13.5337 104.988 14.7368C103.785 15.9292 103.184 17.3687 103.184 19.0552C103.184 20.731 103.785 22.1704 104.988 23.3735C106.202 24.5767 107.668 25.1782 109.387 25.1782C111.106 25.1782 112.567 24.582 113.77 23.3896C114.984 22.1865 115.591 20.7417 115.591 19.0552ZM124.018 24.6465V13.4155H122.197C121.596 13.4155 121.295 13.1899 121.295 12.7388C121.295 12.2769 121.596 12.0459 122.197 12.0459H129.545C133.208 12.0459 135.04 13.2061 135.04 15.5264C135.04 16.9766 134.094 17.9058 132.204 18.314C135.05 18.6899 136.474 19.9253 136.474 22.02C136.474 24.6733 134.701 26 131.156 26H122.197C121.596 26 121.295 25.7744 121.295 25.3232C121.295 24.8721 121.596 24.6465 122.197 24.6465H124.018ZM125.372 17.7017H128.997C132.123 17.7017 133.686 16.9497 133.686 15.4458C133.686 14.812 133.423 14.3179 132.896 13.9634C132.37 13.5981 131.258 13.4155 129.561 13.4155H125.372V17.7017ZM125.372 24.6465H131.043C133.75 24.6465 135.104 23.7764 135.104 22.0361C135.104 21.1875 134.76 20.4785 134.073 19.9092C133.385 19.3398 131.72 19.0552 129.078 19.0552H125.372V24.6465ZM162.319 24.6465V8.50098H160.499C159.897 8.50098 159.596 8.27539 159.596 7.82422C159.596 7.37305 159.897 7.14746 160.499 7.14746H166.17C166.783 7.14746 167.089 7.37305 167.089 7.82422C167.089 8.27539 166.783 8.50098 166.17 8.50098H163.673V24.0503L173.663 7.14746H177.208C177.81 7.14746 178.11 7.37305 178.11 7.82422C178.11 8.27539 177.81 8.50098 177.208 8.50098H175.387V24.6465H177.208C177.81 24.6465 178.11 24.8721 178.11 25.3232C178.11 25.7744 177.81 26 177.208 26H172.213C171.611 26 171.311 25.7744 171.311 25.3232C171.311 24.8721 171.611 24.6465 172.213 24.6465H174.034V9.12939L164.06 26H160.499C159.897 26 159.596 25.7744 159.596 25.3232C159.596 24.8721 159.897 24.6465 160.499 24.6465H162.319ZM194.643 13.4155V24.6465H195.996C196.748 24.6465 197.124 24.8721 197.124 25.3232C197.124 25.7744 196.748 26 195.996 26H191.952C191.2 26 190.824 25.7744 190.824 25.3232C190.824 24.8721 191.2 24.6465 191.952 24.6465H193.289V13.4155H186.634V21.1982C186.634 23.0781 186.226 24.437 185.41 25.2749C184.593 26.1128 183.535 26.5317 182.235 26.5317C181.698 26.5317 181.172 26.4673 180.656 26.3384C180.141 26.2095 179.834 26.0752 179.738 25.9355C179.641 25.7852 179.593 25.4897 179.593 25.0493V23.7119C179.593 23.0352 179.834 22.6968 180.318 22.6968C180.737 22.6968 180.946 23.0083 180.946 23.6313V24.9526C181.44 25.0708 181.881 25.1299 182.268 25.1299C184.266 25.1299 185.265 23.8193 185.265 21.1982V13.4155H183.492C182.74 13.4155 182.364 13.1899 182.364 12.7388C182.364 12.2769 182.74 12.0459 183.492 12.0459H195.996C196.748 12.0459 197.124 12.2769 197.124 12.7388C197.124 13.1899 196.748 13.4155 195.996 13.4155H194.643ZM204.311 13.4155V17.9756H208.355C212.523 17.9756 214.607 19.2539 214.607 21.8105C214.607 22.917 214.252 23.8945 213.543 24.7432C212.845 25.5811 211.116 26 208.355 26H202.167C201.566 26 201.265 25.7744 201.265 25.3232C201.265 24.8721 201.566 24.6465 202.167 24.6465H202.957V13.4155H202.232C201.62 13.4155 201.313 13.1899 201.313 12.7388C201.313 12.2769 201.62 12.0459 202.232 12.0459H206.131C206.733 12.0459 207.034 12.2769 207.034 12.7388C207.034 13.1899 206.733 13.4155 206.131 13.4155H204.311ZM204.311 24.6465H208.291C210.321 24.6465 211.647 24.4048 212.271 23.9214C212.894 23.438 213.205 22.7559 213.205 21.875C213.205 20.8545 212.797 20.1777 211.98 19.8447C211.164 19.5117 209.913 19.3452 208.226 19.3452H204.311V24.6465ZM232.348 20.4087H228.448C225.344 21.6763 223.577 23.54 223.147 26H221.278C220.773 26 220.521 25.7744 220.521 25.3232C220.521 24.8721 220.773 24.6465 221.278 24.6465H222.1C222.798 22.6484 224.307 21.1392 226.627 20.1187C224.135 19.5923 222.889 18.2173 222.889 15.9937C222.889 14.8335 223.276 13.8882 224.049 13.1577C224.833 12.4165 226.047 12.0459 227.691 12.0459H235.167C235.672 12.0459 235.925 12.2769 235.925 12.7388C235.925 13.1899 235.672 13.4155 235.167 13.4155H233.717V24.6465H235.167C235.672 24.6465 235.925 24.8721 235.925 25.3232C235.925 25.7744 235.672 26 235.167 26H230.366C229.861 26 229.608 25.7744 229.608 25.3232C229.608 24.8721 229.861 24.6465 230.366 24.6465H232.348V20.4087ZM232.348 19.0552V13.4155H227.981C225.5 13.4155 224.259 14.291 224.259 16.042C224.259 17.0518 224.592 17.8091 225.258 18.314C225.924 18.8081 227.181 19.0552 229.028 19.0552H232.348ZM265.009 18.2656V24.6465H269.65C269.972 24.6465 270.203 24.7109 270.343 24.8398C270.482 24.958 270.552 25.1191 270.552 25.3232C270.552 25.5166 270.482 25.6777 270.343 25.8066C270.203 25.9355 269.972 26 269.65 26H261.835C261.513 26 261.282 25.9355 261.142 25.8066C261.002 25.6777 260.933 25.5166 260.933 25.3232C260.933 25.1191 261.002 24.958 261.142 24.8398C261.282 24.7109 261.513 24.6465 261.835 24.6465H263.656V8.50098H261.835C261.513 8.50098 261.282 8.44189 261.142 8.32373C261.002 8.19482 260.933 8.02832 260.933 7.82422C260.933 7.62012 261.002 7.45898 261.142 7.34082C261.282 7.21191 261.513 7.14746 261.835 7.14746H269.698C271.557 7.14746 273.071 7.69531 274.242 8.79102C275.424 9.88672 276.015 11.1704 276.015 12.6421C276.015 13.5122 275.821 14.2964 275.435 14.9946C275.059 15.6929 274.602 16.2407 274.065 16.6382C273.259 17.2397 272.427 17.6802 271.567 17.9595C270.944 18.1636 270.171 18.2656 269.247 18.2656H265.009ZM265.009 16.9121H269.328C270.327 16.9121 271.261 16.6919 272.131 16.2515C273.012 15.8003 273.651 15.2524 274.049 14.6079C274.457 13.9634 274.661 13.3081 274.661 12.6421C274.661 11.5786 274.205 10.6226 273.292 9.77393C272.378 8.92529 271.224 8.50098 269.827 8.50098H265.009V16.9121ZM281.235 24.6465V8.50098H279.415C278.813 8.50098 278.512 8.27539 278.512 7.82422C278.512 7.37305 278.813 7.14746 279.415 7.14746H285.086C285.699 7.14746 286.005 7.37305 286.005 7.82422C286.005 8.27539 285.699 8.50098 285.086 8.50098H282.589V24.0503L292.579 7.14746H296.124C296.726 7.14746 297.026 7.37305 297.026 7.82422C297.026 8.27539 296.726 8.50098 296.124 8.50098H294.303V24.6465H296.124C296.726 24.6465 297.026 24.8721 297.026 25.3232C297.026 25.7744 296.726 26 296.124 26H291.129C290.527 26 290.227 25.7744 290.227 25.3232C290.227 24.8721 290.527 24.6465 291.129 24.6465H292.95V9.12939L282.976 26H279.415C278.813 26 278.512 25.7744 278.512 25.3232C278.512 24.8721 278.813 24.6465 279.415 24.6465H281.235ZM313.252 24.6465H314.977C315.46 24.6465 315.771 24.7109 315.911 24.8398C316.051 24.9688 316.121 25.2803 316.121 25.7744V29.5288C316.121 30.2485 315.9 30.6084 315.46 30.6084C314.998 30.6084 314.767 30.2646 314.767 29.5771V26H300.023C299.422 26 299.121 25.7744 299.121 25.3232C299.121 24.8721 299.422 24.6465 300.023 24.6465H301.554V8.50098H300.023C299.422 8.50098 299.121 8.27539 299.121 7.82422C299.121 7.37305 299.422 7.14746 300.023 7.14746H304.729C305.33 7.14746 305.631 7.37305 305.631 7.82422C305.631 8.27539 305.33 8.50098 304.729 8.50098H302.908V24.6465H311.899V8.50098H310.078C309.477 8.50098 309.176 8.27539 309.176 7.82422C309.176 7.37305 309.477 7.14746 310.078 7.14746H314.767C315.379 7.14746 315.686 7.37305 315.686 7.82422C315.686 8.27539 315.379 8.50098 314.767 8.50098H313.252V24.6465ZM331.879 8.50098H322.904V24.6465H324.725C325.327 24.6465 325.627 24.8721 325.627 25.3232C325.627 25.7744 325.327 26 324.725 26H320.02C319.418 26 319.118 25.7744 319.118 25.3232C319.118 24.8721 319.418 24.6465 320.02 24.6465H321.551V8.50098H320.02C319.418 8.50098 319.118 8.27539 319.118 7.82422C319.118 7.37305 319.418 7.14746 320.02 7.14746H334.78C335.381 7.14746 335.682 7.37305 335.682 7.82422C335.682 8.27539 335.381 8.50098 334.78 8.50098H333.249V24.6465H334.78C335.381 24.6465 335.682 24.8721 335.682 25.3232C335.682 25.7744 335.381 26 334.78 26H330.075C329.473 26 329.172 25.7744 329.172 25.3232C329.172 24.8721 329.473 24.6465 330.075 24.6465H331.879V8.50098ZM361.222 24.6465H371.615V24.1147C371.615 23.7925 371.679 23.5615 371.808 23.4219C371.937 23.2822 372.104 23.2124 372.308 23.2124C372.501 23.2124 372.662 23.2822 372.791 23.4219C372.92 23.5615 372.984 23.7925 372.984 24.1147V26H359.9V24.002C362.65 21.5312 365.325 19.0176 367.925 16.4609C369.139 15.2686 369.971 14.3931 370.422 13.8345C370.874 13.2759 371.18 12.7871 371.341 12.3682C371.513 11.9385 371.599 11.5088 371.599 11.0791C371.599 9.91895 371.131 8.89307 370.197 8.00146C369.262 7.10986 368.134 6.66406 366.813 6.66406C365.631 6.66406 364.584 7.00244 363.671 7.6792C362.758 8.35596 362.167 9.19385 361.898 10.1929C361.834 10.4507 361.753 10.6172 361.657 10.6924C361.528 10.7998 361.377 10.8535 361.206 10.8535C361.023 10.8535 360.867 10.7944 360.738 10.6763C360.62 10.5474 360.561 10.397 360.561 10.2251C360.561 9.70947 360.84 9.01123 361.399 8.13037C361.968 7.24951 362.747 6.55664 363.735 6.05176C364.734 5.54688 365.755 5.29443 366.797 5.29443C368.483 5.29443 369.934 5.87988 371.147 7.05078C372.361 8.22168 372.968 9.54834 372.968 11.0308C372.968 11.6538 372.866 12.2285 372.662 12.7549C372.458 13.2705 372.109 13.8398 371.615 14.4629C371.131 15.0752 370.256 16.0044 368.988 17.2505C365.809 20.3872 363.22 22.8203 361.222 24.5498V24.6465ZM383.136 7.14746V13.77C383.931 13.437 384.693 13.1899 385.424 13.0288C386.154 12.8569 386.847 12.771 387.502 12.771C389.2 12.771 390.618 13.3672 391.756 14.5596C392.906 15.752 393.48 17.3203 393.48 19.2646C393.48 21.4131 392.836 23.1533 391.547 24.4854C390.258 25.8174 388.646 26.4834 386.713 26.4834C385.435 26.4834 384.205 26.1987 383.023 25.6294C382.185 25.2319 381.422 24.7378 380.735 24.147C380.327 23.7925 380.123 23.4971 380.123 23.2607C380.123 23.0674 380.187 22.9062 380.316 22.7773C380.445 22.6377 380.595 22.5679 380.767 22.5679C380.95 22.5679 381.143 22.6646 381.347 22.8579C382.969 24.3726 384.736 25.1299 386.648 25.1299C388.228 25.1299 389.533 24.5928 390.564 23.5186C391.595 22.4336 392.111 20.9941 392.111 19.2002C392.111 17.6748 391.665 16.4502 390.773 15.5264C389.882 14.5918 388.749 14.1245 387.374 14.1245C385.966 14.1245 384.559 14.4951 383.152 15.2363C382.808 15.4082 382.566 15.4941 382.427 15.4941C382.233 15.4941 382.078 15.4297 381.959 15.3008C381.841 15.1719 381.782 14.9893 381.782 14.7529V5.77783H391.225C391.547 5.77783 391.778 5.84229 391.917 5.97119C392.057 6.1001 392.127 6.2666 392.127 6.4707C392.127 6.66406 392.057 6.8252 391.917 6.9541C391.778 7.08301 391.547 7.14746 391.225 7.14746H383.136ZM407.354 5.50391V24.6465H411.995C412.317 24.6465 412.548 24.7109 412.688 24.8398C412.827 24.958 412.897 25.1191 412.897 25.3232C412.897 25.5166 412.827 25.6777 412.688 25.8066C412.548 25.9355 412.317 26 411.995 26H401.36C401.038 26 400.807 25.9355 400.667 25.8066C400.527 25.6777 400.458 25.5166 400.458 25.3232C400.458 25.1191 400.527 24.958 400.667 24.8398C400.807 24.7109 401.038 24.6465 401.36 24.6465H406V7.37305L401.585 8.75879C401.371 8.82324 401.215 8.85547 401.118 8.85547C400.957 8.85547 400.807 8.79102 400.667 8.66211C400.538 8.52246 400.474 8.36133 400.474 8.17871C400.474 8.01758 400.527 7.86719 400.635 7.72754C400.721 7.6416 400.898 7.55029 401.167 7.45361L407.354 5.50391ZM24.6797 49.54C23.6165 49.54 22.7855 49.7646 22.1865 50.2139C21.6025 50.6481 20.6592 51.9808 19.3564 54.2119C17.4248 57.5361 16.1071 59.3555 15.4033 59.6699C17.2751 60.4186 19.0046 62.3652 20.5918 65.5098L23.9385 72.1133H26.7236C27.7718 72.1133 28.2959 72.4277 28.2959 73.0566C28.2959 73.6855 27.7718 74 26.7236 74H24.0059C23.4069 74 23.0326 73.9551 22.8828 73.8652C22.7331 73.7754 22.516 73.4609 22.2314 72.9219L18.8623 66.3184C17.7093 64.0573 16.5938 62.5824 15.5156 61.8936C14.4525 61.2048 13.0449 60.8604 11.293 60.8604H9.85547V72.1133H12.3037C13.3669 72.1133 13.8984 72.4277 13.8984 73.0566C13.8984 73.6855 13.3669 74 12.3037 74H5.54297C4.49479 74 3.9707 73.6855 3.9707 73.0566C3.9707 72.4277 4.49479 72.1133 5.54297 72.1133H7.94629V49.6074H5.54297C4.49479 49.6074 3.9707 49.293 3.9707 48.6641C3.9707 48.0352 4.49479 47.7207 5.54297 47.7207H12.3037C13.3669 47.7207 13.8984 48.0352 13.8984 48.6641C13.8984 49.293 13.3669 49.6074 12.3037 49.6074H9.85547V58.9287H11.293C12.6556 58.9287 13.6813 58.6292 14.3701 58.0303C15.0739 57.4163 16.1745 55.8366 17.6719 53.291C19.0645 50.9401 20.1501 49.4202 20.9287 48.7314C21.7223 48.0426 23.0026 47.6982 24.7695 47.6982C25.623 47.6982 26.1396 47.7956 26.3193 47.9902C26.499 48.1849 26.5889 48.6191 26.5889 49.293V51.7861C26.5889 52.8193 26.2744 53.3359 25.6455 53.3359C25.0016 53.3359 24.6797 52.8493 24.6797 51.876V49.54ZM54.2607 60.9277C54.2607 63.4434 53.7516 65.7793 52.7334 67.9355C51.7152 70.0768 50.3076 71.7464 48.5107 72.9443C46.7288 74.1423 44.8122 74.7412 42.7607 74.7412C39.721 74.7412 37.0407 73.4535 34.7197 70.8779C32.4137 68.2874 31.2607 64.9707 31.2607 60.9277C31.2607 56.8698 32.4137 53.5531 34.7197 50.9775C37.0407 48.402 39.721 47.1143 42.7607 47.1143C44.8122 47.1143 46.7288 47.7132 48.5107 48.9111C50.2926 50.109 51.6927 51.7786 52.7109 53.9199C53.7441 56.0612 54.2607 58.3971 54.2607 60.9277ZM52.3516 60.9277C52.3516 57.8581 51.4606 55.1029 49.6787 52.6621C47.8968 50.2214 45.5908 49.001 42.7607 49.001C40.1104 49.001 37.8418 50.1689 35.9551 52.5049C34.0833 54.8258 33.1475 57.6335 33.1475 60.9277C33.1475 64.4316 34.1283 67.2992 36.0898 69.5303C38.0664 71.7464 40.29 72.8545 42.7607 72.8545C45.5908 72.8545 47.8968 71.6416 49.6787 69.2158C51.4606 66.7751 52.3516 64.0124 52.3516 60.9277ZM76.7441 61.2871H64.2334V72.1133H66.7715C67.2207 72.1133 67.5426 72.2031 67.7373 72.3828C67.932 72.5475 68.0293 72.7721 68.0293 73.0566C68.0293 73.3262 67.932 73.5508 67.7373 73.7305C67.5426 73.9102 67.2207 74 66.7715 74H60.2129C59.7637 74 59.4417 73.9102 59.2471 73.7305C59.0524 73.5508 58.9551 73.3262 58.9551 73.0566C58.9551 72.7721 59.0524 72.5475 59.2471 72.3828C59.4417 72.2031 59.7637 72.1133 60.2129 72.1133H62.3467V49.6074H61.1787C60.7145 49.6074 60.3851 49.5251 60.1904 49.3604C59.9958 49.1807 59.8984 48.9486 59.8984 48.6641C59.8984 48.3796 59.9958 48.1549 60.1904 47.9902C60.3851 47.8105 60.7145 47.7207 61.1787 47.7207H66.7715C67.2207 47.7207 67.5426 47.8105 67.7373 47.9902C67.932 48.1549 68.0293 48.3796 68.0293 48.6641C68.0293 48.9486 67.932 49.1807 67.7373 49.3604C67.5426 49.5251 67.2207 49.6074 66.7715 49.6074H64.2334V59.4004H76.7441V49.6074H74.2285C73.7793 49.6074 73.4574 49.5251 73.2627 49.3604C73.068 49.1807 72.9707 48.9486 72.9707 48.6641C72.9707 48.3796 73.0605 48.1549 73.2402 47.9902C73.4349 47.8105 73.7643 47.7207 74.2285 47.7207H79.8213C80.2855 47.7207 80.6149 47.8105 80.8096 47.9902C81.0042 48.1549 81.1016 48.3796 81.1016 48.6641C81.1016 48.9486 81.0042 49.1807 80.8096 49.3604C80.6149 49.5251 80.2855 49.6074 79.8213 49.6074H78.6533V72.1133H80.7871C81.2363 72.1133 81.5583 72.2031 81.7529 72.3828C81.9476 72.5475 82.0449 72.7721 82.0449 73.0566C82.0449 73.3262 81.9476 73.5508 81.7529 73.7305C81.5583 73.9102 81.2363 74 80.7871 74H74.2285C73.7793 74 73.4574 73.9102 73.2627 73.7305C73.068 73.5508 72.9707 73.3262 72.9707 73.0566C72.9707 72.7721 73.0605 72.5475 73.2402 72.3828C73.4349 72.2031 73.7643 72.1133 74.2285 72.1133H76.7441V61.2871ZM91.8379 61.3096V72.1133H106.348V66.543C106.348 66.0938 106.43 65.7718 106.595 65.5771C106.774 65.3825 107.007 65.2852 107.291 65.2852C107.576 65.2852 107.8 65.3825 107.965 65.5771C108.145 65.7718 108.234 66.0938 108.234 66.543V74H87.4131C86.9639 74 86.6419 73.9102 86.4473 73.7305C86.2526 73.5508 86.1553 73.3262 86.1553 73.0566C86.1553 72.7721 86.2526 72.5475 86.4473 72.3828C86.6419 72.2031 86.9639 72.1133 87.4131 72.1133H89.9512V49.6074H87.4131C86.9639 49.6074 86.6419 49.5251 86.4473 49.3604C86.2526 49.1807 86.1553 48.9486 86.1553 48.6641C86.1553 48.3796 86.2526 48.1549 86.4473 47.9902C86.6419 47.8105 86.9639 47.7207 87.4131 47.7207H107.246V54.2119C107.246 54.6611 107.156 54.9831 106.977 55.1777C106.812 55.3724 106.587 55.4697 106.303 55.4697C106.018 55.4697 105.786 55.3724 105.606 55.1777C105.442 54.9831 105.359 54.6611 105.359 54.2119V49.6074H91.8379V59.4229H98.5986V57.2891C98.5986 56.8398 98.6885 56.5179 98.8682 56.3232C99.0479 56.1286 99.2799 56.0312 99.5645 56.0312C99.834 56.0312 100.059 56.1286 100.238 56.3232C100.418 56.5179 100.508 56.8398 100.508 57.2891V63.4434C100.508 63.8926 100.418 64.2145 100.238 64.4092C100.059 64.6038 99.834 64.7012 99.5645 64.7012C99.2799 64.7012 99.0479 64.6038 98.8682 64.4092C98.6885 64.2145 98.5986 63.8926 98.5986 63.4434V61.3096H91.8379ZM133.503 72.1133H135.906C136.58 72.1133 137.014 72.2031 137.209 72.3828C137.404 72.5625 137.501 72.9967 137.501 73.6855V78.9189C137.501 79.9222 137.194 80.4238 136.58 80.4238C135.936 80.4238 135.614 79.9447 135.614 78.9863V74H115.062C114.224 74 113.805 73.6855 113.805 73.0566C113.805 72.4277 114.224 72.1133 115.062 72.1133H117.196V49.6074H115.062C114.224 49.6074 113.805 49.293 113.805 48.6641C113.805 48.0352 114.224 47.7207 115.062 47.7207H121.621C122.46 47.7207 122.879 48.0352 122.879 48.6641C122.879 49.293 122.46 49.6074 121.621 49.6074H119.083V72.1133H131.616V49.6074H129.078C128.24 49.6074 127.82 49.293 127.82 48.6641C127.82 48.0352 128.24 47.7207 129.078 47.7207H135.614C136.468 47.7207 136.895 48.0352 136.895 48.6641C136.895 49.293 136.468 49.6074 135.614 49.6074H133.503V72.1133ZM191.093 74H170.608V78.9639C170.608 79.9372 170.286 80.4238 169.643 80.4238C169.029 80.4238 168.722 79.9147 168.722 78.8965V73.6631C168.722 73.0342 168.789 72.6224 168.924 72.4277C169.074 72.2181 169.358 72.0983 169.777 72.0684C170.796 72.0085 171.851 71.5068 172.944 70.5635C174.052 69.6201 174.831 68.4746 175.28 67.127C175.744 65.7793 175.977 63.7728 175.977 61.1074V49.6074H173.394C172.345 49.6074 171.821 49.293 171.821 48.6641C171.821 48.0352 172.345 47.7207 173.394 47.7207H191.385C192.448 47.7207 192.979 48.0352 192.979 48.6641C192.979 49.293 192.448 49.6074 191.385 49.6074H189.431V72.1133H191.385C192.059 72.1133 192.493 72.1882 192.688 72.3379C192.882 72.4727 192.979 72.9144 192.979 73.6631V78.8965C192.979 79.9147 192.673 80.4238 192.059 80.4238C191.415 80.4238 191.093 79.9372 191.093 78.9639V74ZM177.863 49.6074V61.1074C177.863 66.5579 176.583 70.2266 174.022 72.1133H187.521V49.6074H177.863ZM220.022 60.9277C220.022 63.4434 219.513 65.7793 218.495 67.9355C217.477 70.0768 216.069 71.7464 214.272 72.9443C212.491 74.1423 210.574 74.7412 208.522 74.7412C205.483 74.7412 202.802 73.4535 200.481 70.8779C198.175 68.2874 197.022 64.9707 197.022 60.9277C197.022 56.8698 198.175 53.5531 200.481 50.9775C202.802 48.402 205.483 47.1143 208.522 47.1143C210.574 47.1143 212.491 47.7132 214.272 48.9111C216.054 50.109 217.454 51.7786 218.473 53.9199C219.506 56.0612 220.022 58.3971 220.022 60.9277ZM218.113 60.9277C218.113 57.8581 217.222 55.1029 215.44 52.6621C213.659 50.2214 211.353 49.001 208.522 49.001C205.872 49.001 203.604 50.1689 201.717 52.5049C199.845 54.8258 198.909 57.6335 198.909 60.9277C198.909 64.4316 199.89 67.2992 201.852 69.5303C203.828 71.7464 206.052 72.8545 208.522 72.8545C211.353 72.8545 213.659 71.6416 215.44 69.2158C217.222 66.7751 218.113 64.0124 218.113 60.9277ZM245.695 49.54C244.632 49.54 243.801 49.7646 243.202 50.2139C242.618 50.6481 241.675 51.9808 240.372 54.2119C238.44 57.5361 237.123 59.3555 236.419 59.6699C238.291 60.4186 240.02 62.3652 241.607 65.5098L244.954 72.1133H247.739C248.787 72.1133 249.312 72.4277 249.312 73.0566C249.312 73.6855 248.787 74 247.739 74H245.021C244.423 74 244.048 73.9551 243.898 73.8652C243.749 73.7754 243.532 73.4609 243.247 72.9219L239.878 66.3184C238.725 64.0573 237.609 62.5824 236.531 61.8936C235.468 61.2048 234.061 60.8604 232.309 60.8604H230.871V72.1133H233.319C234.382 72.1133 234.914 72.4277 234.914 73.0566C234.914 73.6855 234.382 74 233.319 74H226.559C225.51 74 224.986 73.6855 224.986 73.0566C224.986 72.4277 225.51 72.1133 226.559 72.1133H228.962V49.6074H226.559C225.51 49.6074 224.986 49.293 224.986 48.6641C224.986 48.0352 225.51 47.7207 226.559 47.7207H233.319C234.382 47.7207 234.914 48.0352 234.914 48.6641C234.914 49.293 234.382 49.6074 233.319 49.6074H230.871V58.9287H232.309C233.671 58.9287 234.697 58.6292 235.386 58.0303C236.09 57.4163 237.19 55.8366 238.688 53.291C240.08 50.9401 241.166 49.4202 241.944 48.7314C242.738 48.0426 244.018 47.6982 245.785 47.6982C246.639 47.6982 247.155 47.7956 247.335 47.9902C247.515 48.1849 247.604 48.6191 247.604 49.293V51.7861C247.604 52.8193 247.29 53.3359 246.661 53.3359C246.017 53.3359 245.695 52.8493 245.695 51.876V49.54ZM256.005 49.6074L264.136 64.5889L272.267 49.6074H270.537C269.474 49.6074 268.942 49.293 268.942 48.6641C268.942 48.0352 269.474 47.7207 270.537 47.7207H275.568C276.617 47.7207 277.141 48.0352 277.141 48.6641C277.141 49.293 276.617 49.6074 275.568 49.6074H274.445L263.192 70.2266C262.429 71.6491 261.605 72.7646 260.722 73.5732C259.838 74.3669 258.715 74.7637 257.353 74.7637C256.604 74.7637 255.878 74.6738 255.174 74.4941C254.47 74.3145 254.051 74.1123 253.916 73.8877C253.781 73.6631 253.714 73.2513 253.714 72.6523V69.9346C253.714 68.9014 254.021 68.3848 254.635 68.3848C255.279 68.3848 255.601 68.8639 255.601 69.8223V72.54C256.364 72.7497 257.008 72.8545 257.532 72.8545C258.371 72.8545 259.06 72.6074 259.599 72.1133C260.153 71.6042 260.789 70.6833 261.508 69.3506L262.968 66.6553L253.714 49.6074H252.501C251.453 49.6074 250.929 49.293 250.929 48.6641C250.929 48.0352 251.453 47.7207 252.501 47.7207H257.734C258.783 47.7207 259.307 48.0352 259.307 48.6641C259.307 49.293 258.783 49.6074 257.734 49.6074H256.005ZM292.616 66.1162H290.46L283.205 49.6074H282.846V72.1133H286.327C286.776 72.1133 287.098 72.2031 287.293 72.3828C287.488 72.5475 287.585 72.7721 287.585 73.0566C287.585 73.3262 287.488 73.5508 287.293 73.7305C287.098 73.9102 286.776 74 286.327 74H279.364C278.915 74 278.593 73.9102 278.398 73.7305C278.204 73.5508 278.106 73.3262 278.106 73.0566C278.106 72.7721 278.204 72.5475 278.398 72.3828C278.593 72.2031 278.915 72.1133 279.364 72.1133H280.959V49.6074H279.769C279.319 49.6074 278.997 49.5251 278.803 49.3604C278.608 49.1807 278.511 48.9486 278.511 48.6641C278.511 48.3796 278.608 48.1549 278.803 47.9902C278.997 47.8105 279.319 47.7207 279.769 47.7207H284.396L291.538 63.9824L298.568 47.7207H303.195C303.66 47.7207 303.989 47.8105 304.184 47.9902C304.378 48.1549 304.476 48.3796 304.476 48.6641C304.476 48.9486 304.378 49.1807 304.184 49.3604C303.989 49.5251 303.66 49.6074 303.195 49.6074H302.027V72.1133H303.6C304.064 72.1133 304.393 72.2031 304.588 72.3828C304.783 72.5475 304.88 72.7721 304.88 73.0566C304.88 73.3262 304.783 73.5508 304.588 73.7305C304.393 73.9102 304.064 74 303.6 74H296.659C296.21 74 295.881 73.9102 295.671 73.7305C295.476 73.5508 295.379 73.3262 295.379 73.0566C295.379 72.7721 295.476 72.5475 295.671 72.3828C295.866 72.2031 296.195 72.1133 296.659 72.1133H300.141V49.6074H299.736L292.616 66.1162ZM312.854 61.3096V72.1133H327.363V66.543C327.363 66.0938 327.446 65.7718 327.61 65.5771C327.79 65.3825 328.022 65.2852 328.307 65.2852C328.591 65.2852 328.816 65.3825 328.98 65.5771C329.16 65.7718 329.25 66.0938 329.25 66.543V74H308.429C307.979 74 307.658 73.9102 307.463 73.7305C307.268 73.5508 307.171 73.3262 307.171 73.0566C307.171 72.7721 307.268 72.5475 307.463 72.3828C307.658 72.2031 307.979 72.1133 308.429 72.1133H310.967V49.6074H308.429C307.979 49.6074 307.658 49.5251 307.463 49.3604C307.268 49.1807 307.171 48.9486 307.171 48.6641C307.171 48.3796 307.268 48.1549 307.463 47.9902C307.658 47.8105 307.979 47.7207 308.429 47.7207H328.262V54.2119C328.262 54.6611 328.172 54.9831 327.992 55.1777C327.827 55.3724 327.603 55.4697 327.318 55.4697C327.034 55.4697 326.802 55.3724 326.622 55.1777C326.457 54.9831 326.375 54.6611 326.375 54.2119V49.6074H312.854V59.4229H319.614V57.2891C319.614 56.8398 319.704 56.5179 319.884 56.3232C320.063 56.1286 320.296 56.0312 320.58 56.0312C320.85 56.0312 321.074 56.1286 321.254 56.3232C321.434 56.5179 321.523 56.8398 321.523 57.2891V63.4434C321.523 63.8926 321.434 64.2145 321.254 64.4092C321.074 64.6038 320.85 64.7012 320.58 64.7012C320.296 64.7012 320.063 64.6038 319.884 64.4092C319.704 64.2145 319.614 63.8926 319.614 63.4434V61.3096H312.854ZM353.014 61.2871H340.503V72.1133H343.041C343.49 72.1133 343.812 72.2031 344.007 72.3828C344.201 72.5475 344.299 72.7721 344.299 73.0566C344.299 73.3262 344.201 73.5508 344.007 73.7305C343.812 73.9102 343.49 74 343.041 74H336.482C336.033 74 335.711 73.9102 335.517 73.7305C335.322 73.5508 335.225 73.3262 335.225 73.0566C335.225 72.7721 335.322 72.5475 335.517 72.3828C335.711 72.2031 336.033 72.1133 336.482 72.1133H338.616V49.6074H337.448C336.984 49.6074 336.655 49.5251 336.46 49.3604C336.265 49.1807 336.168 48.9486 336.168 48.6641C336.168 48.3796 336.265 48.1549 336.46 47.9902C336.655 47.8105 336.984 47.7207 337.448 47.7207H343.041C343.49 47.7207 343.812 47.8105 344.007 47.9902C344.201 48.1549 344.299 48.3796 344.299 48.6641C344.299 48.9486 344.201 49.1807 344.007 49.3604C343.812 49.5251 343.49 49.6074 343.041 49.6074H340.503V59.4004H353.014V49.6074H350.498C350.049 49.6074 349.727 49.5251 349.532 49.3604C349.338 49.1807 349.24 48.9486 349.24 48.6641C349.24 48.3796 349.33 48.1549 349.51 47.9902C349.704 47.8105 350.034 47.7207 350.498 47.7207H356.091C356.555 47.7207 356.884 47.8105 357.079 47.9902C357.274 48.1549 357.371 48.3796 357.371 48.6641C357.371 48.9486 357.274 49.1807 357.079 49.3604C356.884 49.5251 356.555 49.6074 356.091 49.6074H354.923V72.1133H357.057C357.506 72.1133 357.828 72.2031 358.022 72.3828C358.217 72.5475 358.314 72.7721 358.314 73.0566C358.314 73.3262 358.217 73.5508 358.022 73.7305C357.828 73.9102 357.506 74 357.057 74H350.498C350.049 74 349.727 73.9102 349.532 73.7305C349.338 73.5508 349.24 73.3262 349.24 73.0566C349.24 72.7721 349.33 72.5475 349.51 72.3828C349.704 72.2031 350.034 72.1133 350.498 72.1133H353.014V61.2871ZM375.183 49.6074V72.1133H380.079C380.528 72.1133 380.85 72.2031 381.045 72.3828C381.24 72.5475 381.337 72.7721 381.337 73.0566C381.337 73.3262 381.24 73.5508 381.045 73.7305C380.85 73.9102 380.528 74 380.079 74H368.377C367.928 74 367.606 73.9102 367.411 73.7305C367.216 73.5508 367.119 73.3262 367.119 73.0566C367.119 72.7721 367.216 72.5475 367.411 72.3828C367.606 72.2031 367.928 72.1133 368.377 72.1133H373.273V49.6074H365.547V56.1436C365.547 56.6077 365.457 56.9372 365.277 57.1318C365.113 57.3265 364.888 57.4238 364.604 57.4238C364.334 57.4238 364.109 57.3265 363.93 57.1318C363.75 56.9372 363.66 56.6077 363.66 56.1436V47.7207H384.796V56.1436C384.796 56.6077 384.706 56.9372 384.526 57.1318C384.362 57.3265 384.137 57.4238 383.853 57.4238C383.568 57.4238 383.336 57.3265 383.156 57.1318C382.992 56.9372 382.909 56.6077 382.909 56.1436V49.6074H375.183ZM408.088 65.2178H395.689L393.151 72.1133H396.768C397.217 72.1133 397.539 72.2031 397.733 72.3828C397.928 72.5475 398.025 72.7721 398.025 73.0566C398.025 73.3262 397.928 73.5508 397.733 73.7305C397.539 73.9102 397.217 74 396.768 74H389.715C389.266 74 388.944 73.9102 388.749 73.7305C388.554 73.5508 388.457 73.3262 388.457 73.0566C388.457 72.7721 388.554 72.5475 388.749 72.3828C388.944 72.2031 389.266 72.1133 389.715 72.1133H391.175L399.508 49.6074H393.938C393.488 49.6074 393.166 49.5251 392.972 49.3604C392.777 49.1807 392.68 48.9486 392.68 48.6641C392.68 48.3796 392.777 48.1549 392.972 47.9902C393.166 47.8105 393.488 47.7207 393.938 47.7207H403.438L412.647 72.1133H414.107C414.557 72.1133 414.879 72.2031 415.073 72.3828C415.268 72.5475 415.365 72.7721 415.365 73.0566C415.365 73.3262 415.268 73.5508 415.073 73.7305C414.879 73.9102 414.557 74 414.107 74H407.077C406.613 74 406.284 73.9102 406.089 73.7305C405.894 73.5508 405.797 73.3262 405.797 73.0566C405.797 72.7721 405.894 72.5475 406.089 72.3828C406.284 72.2031 406.613 72.1133 407.077 72.1133H410.671L408.088 65.2178ZM407.369 63.3311L402.158 49.6074H401.462L396.408 63.3311H407.369Z" fill="white"/>
</svg>
