<svg width="417" height="86" viewBox="0 0 417 86" fill="none" xmlns="http://www.w3.org/2000/svg">
<g clip-path="url(#clip0_753_628)">
<path d="M14.2098 8.61006C14.1498 7.00006 17.1498 9.00006 15.9798 7.34006C16.0298 7.22006 16.0798 7.12006 16.1398 7.05006C16.2698 6.91006 16.4398 6.84006 16.6398 6.84006C16.8398 6.84006 17.0098 6.91006 17.1198 7.05006C17.2498 7.19006 17.3098 7.42006 17.3098 7.74006V8.02006C17.2031 8.66673 17.2031 9.20006 17.3098 9.62006V11.5001C17.3098 11.8301 17.2498 12.0701 17.1198 12.2101C16.9998 12.3501 16.8398 12.4201 16.6398 12.4201C16.4598 12.4201 16.2998 12.3601 16.1698 12.2301C16.0498 12.1001 15.9798 11.8901 15.9598 11.6001C15.9398 11.2401 15.8498 10.8901 15.6898 10.5701C15.6498 10.4901 15.6098 10.4101 15.5598 10.3301C15.1598 8.00006 12.1598 10.0001 13.2998 8.45006C13.2798 8.45006 13.1998 8.41006 13.0998 8.37006C12.7098 8.19006 12.2998 8.06006 11.8798 7.96006C11.7798 7.94006 11.6698 7.91006 11.5598 7.86006C10.1498 6.00006 10.1498 7.00006 8.7198 7.95006C8.6198 7.97006 8.5198 8.00006 8.4298 8.03006C8.1398 8.11006 7.8498 8.22006 7.5698 8.34006C7.4798 8.38006 7.3798 8.43006 7.2898 8.47006C7.1498 9.01006 7.1498 11.0101 4.9298 10.7901C4.8198 10.8401 4.7498 10.9301 4.6898 11.0201C4.6298 11.1101 4.5898 11.2001 4.5698 11.2301C4.1398 12.0101 5.1398 14.0101 3.5598 14.0101C3.5498 14.1201 3.5298 14.2301 3.5198 14.3401C3.4998 14.5601 3.4898 14.7901 3.4898 15.0301V15.7801C3.4398 15.8401 3.4098 15.9101 3.3998 15.9901C2.1398 18.0101 5.1398 18.0101 3.6598 18.7601C3.6298 18.8201 3.6398 18.9201 3.6598 19.0201C3.8298 19.7901 4.1198 20.5201 4.5398 21.2001C4.5898 21.2901 4.6398 21.3701 4.6898 21.4501C6.1498 22.0001 3.1498 22.0001 4.1498 23.0001C5.1498 23.0001 6.1498 23.0001 7.2298 23.9001C7.3198 23.9501 7.4098 24.0101 7.4998 24.0601C7.5898 24.1101 7.6798 24.1601 7.7698 24.2001C9.1398 26.0001 11.1398 24.0001 12.0398 24.7801C12.1198 24.7601 12.1898 24.7501 12.2598 24.7301C12.4198 24.7001 12.5698 24.6601 12.7198 24.6101C12.8198 24.5801 12.9198 24.5501 13.0198 24.5101C13.0931 24.1701 13.4565 23.9967 14.1098 23.9901C14.1898 23.9401 14.2598 23.9001 14.3398 23.8501C15.0998 23.3601 15.8398 22.6901 16.5598 21.8401C16.7398 21.6101 16.9498 21.5001 17.1698 21.5001C17.3598 21.5001 17.5198 21.5601 17.6398 21.6801C17.7598 21.8001 17.8198 21.9501 17.8198 22.1301C17.8198 22.3801 17.5898 22.7501 17.1298 23.2601C16.6898 23.7501 16.2198 24.1901 15.7198 24.5601C15.6398 24.6201 15.5598 24.6801 15.4898 24.7501C15.1398 27.0001 14.1398 25.0001 12.7598 26.0001C12.6698 26.0201 12.5798 26.0401 12.4798 26.0601C12.2898 26.1001 12.1798 26.1101 12.2198 26.0901C11.1298 26.0101 10.1298 26.0101 9.1298 26.0101H10.1298C8.1298 27.0101 7.1298 25.0101 6.1298 25.0101H8.1298C6.1298 26.0101 4.1298 23.0101 2.1298 23.0101C2.1298 23.0101 2.1298 22.0101 3.1698 21.6301C3.1898 21.5601 3.1498 21.4701 3.0998 21.3901C2.8498 20.9701 2.6598 20.5601 2.5198 20.1701C2.4198 19.8801 2.3398 19.5701 2.2698 19.2601C2.2498 19.1501 2.2298 19.0501 2.2398 18.9401C2.1098 17.0101 4.1098 19.0101 4.1098 18.0101C5.1098 16.0101 1.1098 18.0101 2.1398 16.2101C2.1298 16.1401 2.1198 16.0801 2.1098 16.0101V14.8401C2.1098 14.1701 2.1998 13.5001 2.3798 12.8201C2.4098 12.7201 2.4298 12.6301 2.4598 12.5201C2.1098 11.0101 5.1098 12.0101 3.8898 9.72006C3.9398 9.60006 3.9898 9.49006 4.0498 9.40006C4.1098 9.31006 4.1798 9.23006 4.2498 9.15006C6.1198 9.01006 5.1198 6.01006 7.4898 6.90006C7.5798 6.87006 7.6798 6.83006 7.7698 6.80006C7.9598 6.74006 8.1498 6.68006 8.3498 6.64006C8.4498 6.62006 8.5498 6.60006 8.6398 6.58006C9.1198 7.02006 8.1198 7.02006 8.1198 7.02006C9.1198 7.02006 10.1198 7.02006 11.5698 6.56006C11.7198 6.56006 11.8398 6.59006 11.9498 6.61006C12.8698 6.80006 13.7198 7.14006 14.5098 7.63006C14.6098 7.69006 14.7098 7.75006 14.7798 7.82006C15.1198 8.02006 14.1198 8.02006 14.0898 8.36006C14.0098 8.43006 14.0398 8.52006 14.1798 8.63006L14.2098 8.61006ZM30.6298 24.3401H29.0798L27.5298 21.0001C27.4998 20.9301 27.4698 20.8601 27.4698 20.7801C29.1398 18.9801 26.1398 17.9801 25.7698 16.8901C25.6698 16.8101 25.5998 16.7301 25.5498 16.6601C25.4998 16.5901 25.4598 16.5101 25.3998 16.4401C24.1398 15.9801 23.1398 15.9801 22.1398 15.9801C22.1398 14.9801 23.1398 13.9801 24.1398 13.9401C24.1998 13.8501 24.1898 13.7601 24.1498 13.6901L23.8798 13.1001H23.8198V13.8401C23.8198 13.9301 23.7998 14.0301 23.7198 14.1501C21.1498 15.9801 27.1498 16.9801 24.1898 18.7201C24.1298 18.7801 24.0798 18.8401 23.8198 18.9001V24.3401C23.8198 24.3401 23.9298 24.3401 24.0898 24.3401C24.1498 25.9901 26.1498 23.9901 27.1498 24.9901C25.1498 26.9901 22.1498 24.9901 20.1498 25.9901C20.1498 24.9901 20.1498 23.9901 21.8998 24.3401C21.9898 24.3401 22.0898 24.3401 22.1698 24.3401H22.4698V21.2701C22.4698 21.1901 22.4698 21.1101 22.4898 21.0301C24.1498 19.9901 22.1498 17.9901 23.1498 16.9901C23.1498 16.9901 22.1498 16.9901 22.6298 16.6601C22.5898 16.5801 22.5598 16.5001 22.4698 16.4201V13.1101H21.6198C21.0198 13.1101 20.7198 12.8801 20.7198 12.4301C20.7198 11.9801 21.0198 11.7401 21.6198 11.7401H24.7498L26.7498 16.0601C26.8098 16.1401 26.8698 16.2201 26.9498 16.3101C26.1598 16.9901 29.1598 16.9901 27.9198 18.2601C27.8898 18.3301 27.8798 18.4101 27.8698 18.4801L28.2998 19.4101L28.3998 19.6401C28.8998 19.8667 29.1631 20.4034 29.1898 21.2501C29.2098 21.3701 29.2598 21.4801 29.3098 21.5901L29.8698 22.8001L30.4998 21.4201C30.5498 21.3601 30.5898 21.3101 30.6498 21.2501C30.9898 21.0701 31.2165 20.5334 31.3298 19.6401C31.3498 19.5701 31.3898 19.4901 31.4198 19.4101L34.9198 11.7301H38.0498C38.6598 11.7301 38.9698 11.9601 38.9698 12.4201C38.9698 12.8801 38.6598 13.1001 38.0498 13.1001H37.2098V13.8401C37.1698 13.9301 37.1298 14.0301 37.0598 14.1401C35.1698 14.9801 37.1698 15.9801 37.2098 16.6601V24.3401H37.7698C39.1598 23.9901 40.1598 25.9901 41.1598 24.9901C39.1598 24.9901 38.1598 26.9901 36.1598 25.9901C36.1598 25.9901 37.1598 25.9901 36.7598 25.7001H36.5398C36.4598 25.7001 36.3898 25.7001 36.3198 25.7001C35.1698 26.0001 33.1698 28.0001 32.1698 25.0001C33.1698 26.0001 33.1698 23.0001 34.1498 24.3501C34.2998 24.3501 34.4498 24.3501 34.6098 24.3501H35.8498V21.7501C35.8498 21.6701 35.8498 21.6001 35.8698 21.5201C37.1798 21.0001 38.1798 19.0001 36.1198 17.6901C36.0798 17.6001 36.0398 17.5201 35.8498 17.4301V16.9201C35.8498 16.8401 35.8498 16.7501 35.8498 16.6701C36.1798 15.0001 34.1798 17.0001 34.1798 16.0001C34.1798 15.0001 35.1798 14.0001 35.8298 13.8601C35.8498 13.7701 35.8498 13.6801 35.8498 13.6101V13.1301H35.7698L35.3498 14.0601C35.3098 14.1601 35.2598 14.2601 35.2098 14.3701C35.1798 14.0201 35.1798 15.0201 34.8898 15.0801L34.7998 15.2801L34.2098 16.5801C34.1798 16.6601 34.1598 16.7301 34.1398 16.8101C34.1665 17.6167 33.9631 18.1001 33.5298 18.2601C33.4598 18.3401 33.3998 18.4201 33.3298 18.5101L30.6598 24.3701L30.6298 24.3401ZM43.1798 25.7001C42.1398 25.9901 41.1398 25.9901 40.1398 25.9901C40.1398 24.9901 41.1398 23.9901 41.9698 24.3401H43.1898V19.7701C42.1398 18.9901 47.1398 17.9901 43.3798 16.6601C43.3298 16.5801 43.2998 16.5001 43.1898 16.4201V13.1101H41.5598C40.9598 13.1101 40.6598 12.8801 40.6598 12.4301C40.6598 11.9801 40.9598 11.7401 41.5598 11.7401H46.3598C46.9598 11.7401 47.2598 11.9701 47.2598 12.4301C47.2598 12.8901 46.9598 13.1101 46.3598 13.1101H44.5398V16.8501C46.1298 16.9901 44.1298 17.9901 44.7998 18.9501C44.7298 19.0401 44.6898 19.1301 44.5398 19.2101V23.7301L45.8198 22.1501L45.9398 22.0001C47.1298 21.9701 48.1298 20.9701 47.4898 20.1201C47.5198 20.0601 47.5698 19.9901 47.6198 19.9301L47.9398 19.5401L48.0998 19.3401C49.1298 17.9701 52.1298 20.9701 50.0798 16.9001L50.2398 16.7001L50.7298 16.1001C50.7798 16.0301 50.8398 15.9701 50.8498 15.9001C50.3698 15.9401 50.1298 15.6267 50.1298 14.9601C51.1298 13.9601 52.1298 13.9601 52.6398 13.7401L52.7698 13.5801L54.2898 11.7001H57.6898C58.2898 11.7001 58.5898 11.9301 58.5898 12.3901C58.5898 12.8501 58.2898 13.0701 57.6898 13.0701H55.8698V22.5501C55.1298 22.9501 53.1298 23.9501 54.1298 24.9501C55.1298 25.9501 56.1298 24.9501 57.0198 24.3301C57.4898 24.3001 57.6898 24.3001 57.6898 24.3001C58.2898 24.3001 58.5898 24.5301 58.5898 24.9801C58.5898 25.4301 58.2898 25.6601 57.6898 25.6601H56.3298C56.2398 25.6601 56.1598 25.6601 56.0798 25.6601C55.4465 25.8534 54.7131 25.8534 53.8798 25.6601C53.7998 25.6601 53.7198 25.6601 53.6598 25.6601H53.1598C51.1398 24.9501 49.1398 26.9501 48.1398 24.9501C50.1398 25.9501 51.1398 23.9501 53.1698 24.3001H54.3798C54.3798 24.3001 54.4598 24.3001 54.5098 23.7901C54.5098 23.7101 54.5098 23.6201 54.5098 23.5201V19.5301C56.1298 18.9601 55.1298 16.9601 54.5098 16.4401V13.6901L53.5598 14.8601C53.4998 14.9001 53.4398 14.9501 53.3698 14.9901C51.1298 14.9601 53.1298 15.9601 52.0398 16.7401L51.8898 16.9201L45.8298 24.3701C45.8298 24.3701 45.7598 24.4601 45.7198 24.5001C45.1298 25.9601 44.1298 24.9601 43.2498 25.5901C43.1898 25.6401 43.1698 25.6601 43.1698 25.6601L43.1798 25.7001ZM64.3598 11.7401V14.2101C64.4898 14.0501 64.6298 13.8901 64.7398 13.7501C65.1498 14.0001 65.1498 13.0001 65.5898 12.9301C65.7498 12.8001 65.8898 12.6901 66.0398 12.5801C66.3298 12.3601 66.6398 12.1701 66.9398 12.0101C67.8598 11.5201 68.9498 11.2701 70.2098 11.2701C71.5398 11.2701 72.7698 11.5801 73.8998 12.2001C74.1798 12.3601 74.4498 12.5301 74.6998 12.7101C74.7798 12.7701 74.8598 12.8401 74.9398 12.9001C75.0665 13.6267 75.3565 13.9167 75.8098 13.7701C75.8798 13.8501 75.9398 13.9301 75.9998 14.0101C76.1898 14.2601 76.3498 14.5201 76.5098 14.8001C76.5598 14.8901 76.6198 14.9801 76.7198 15.0801C77.1398 15.9901 77.1398 17.9901 77.4098 19.0101C77.3998 19.1301 77.3898 19.2401 77.3698 19.3601C77.3398 19.5901 77.2898 19.8201 77.2398 20.0401C77.2098 20.1501 77.1998 20.2601 77.2798 20.3701C76.1298 20.9901 79.1298 20.9901 78.1298 21.9901C76.1298 22.9901 74.1298 21.9901 73.1298 23.9901C73.1298 23.9901 76.1298 22.9901 75.1298 24.9901C74.1298 24.9901 73.1298 24.9901 72.4498 25.0501C72.3498 25.0801 72.2498 25.1101 72.1498 25.1301C71.8498 25.2101 71.5398 25.2601 71.2198 25.3001C71.1098 25.3101 71.0098 25.3201 70.8898 25.3301C70.3831 25.1034 69.9265 25.1034 69.5198 25.3301C69.3998 25.3301 69.2898 25.3101 69.1698 25.2901C69.0498 25.2701 68.9398 25.2601 68.8298 25.2401C68.7198 25.2201 68.6098 25.2001 68.5598 25.1701C67.1398 24.9901 66.1398 22.9901 64.1398 23.9901C64.8065 23.9901 65.0398 23.6467 64.8398 22.9601C64.7498 22.8701 64.6598 22.7801 64.5798 22.6901C64.4998 22.6001 64.4298 22.5001 64.3498 22.4001V23.3101C64.3498 23.4201 64.3498 23.5401 64.3098 23.6701C64.1398 23.9701 64.1398 24.9701 64.3298 25.4601C64.3498 25.6201 64.3498 25.7901 64.3498 25.9601V30.5501H67.6398C67.9598 30.5501 68.1898 30.6101 68.3298 30.7301C68.4698 30.8601 68.5398 31.0301 68.5398 31.2301C68.5398 31.4201 68.4698 31.5801 68.3298 31.7101C68.1898 31.8401 67.9598 31.9001 67.6398 31.9001H61.1798C60.8598 31.9001 60.6298 31.8401 60.4898 31.7101C60.3498 31.5901 60.2798 31.4301 60.2798 31.2301C60.2798 31.0301 60.3498 30.8601 60.4898 30.7301C60.6298 30.6101 60.8598 30.5501 61.1798 30.5501H62.9998V19.1401C62.9998 18.9701 63.0098 18.7901 63.0298 18.6201C63.1398 18.9801 63.1398 17.9801 62.9998 17.6201V16.2401C63.0931 15.3934 63.0831 14.7767 62.9698 14.3901C62.9998 14.2901 62.9998 14.1901 62.9998 14.1001V13.0901H61.1798C60.8598 13.0901 60.6298 13.0301 60.4898 12.9001C60.3498 12.7701 60.2798 12.6001 60.2798 12.4001C60.2798 12.2101 60.3498 12.0501 60.4898 11.9201C60.6298 11.7901 60.8598 11.7301 61.1798 11.7301H64.3498L64.3598 11.7401ZM78.6298 17.5801C77.1398 14.9901 74.1398 15.9901 72.1398 14.9901C71.1398 14.9901 72.1398 13.9901 73.1398 13.5201C73.1498 13.4401 73.1098 13.3801 73.0698 13.3201C72.2298 12.8601 71.2798 12.6301 70.2298 12.6301C69.1798 12.6301 68.2198 12.8601 67.3698 13.3201C67.2798 13.3701 67.1698 13.4301 66.9898 13.5101C66.1398 13.9901 65.1398 13.9901 64.1398 13.9901C63.1398 14.9901 64.1398 14.9901 65.1098 15.3401C65.1498 15.4101 65.1098 15.4901 65.0598 15.5801C64.8498 15.9401 64.6898 16.3201 64.5698 16.7201C64.5898 16.8201 64.6198 16.9101 64.7098 17.0101C67.1398 17.9901 65.1398 18.9901 64.7098 19.5601C64.6298 19.6701 64.5998 19.7701 64.5798 19.8801C64.6998 20.2801 64.8598 20.6601 65.0698 21.0301C65.1198 21.1201 65.1998 21.2101 65.3698 21.2701C66.1498 20.9901 68.1498 20.9901 68.1498 22.9901C68.1498 22.9901 67.1498 22.9901 67.3198 23.0901C67.2998 23.1701 67.3398 23.2301 67.3798 23.3001C67.7598 23.5101 68.1498 23.6601 68.5698 23.7801C68.6698 23.8101 68.7798 23.8301 68.7898 23.8701C69.1398 24.0001 68.1398 24.0001 68.1398 24.0001C69.1398 24.0001 70.1398 24.0001 71.4598 23.8701C71.5598 23.8501 71.6398 23.8401 71.7198 23.8201C72.5098 23.6301 73.2198 23.2801 73.8698 22.7701C73.9598 22.7001 74.0398 22.6301 74.1098 22.5601C74.1398 22.9901 74.1398 21.9901 74.5898 22.0901C74.6798 22.0101 74.7598 21.9201 74.8298 21.8401C75.3498 21.2101 75.7098 20.5101 75.9098 19.7501C75.9798 19.6801 76.0298 19.6201 76.0998 19.5501C75.1398 18.0001 78.1398 20.0001 78.5398 17.7701C78.5898 17.7001 78.6198 17.6401 78.6198 17.5801H78.6298ZM93.6698 19.0401H85.7398C85.6398 19.0401 85.5398 19.0401 84.8898 19.2701V22.8901C84.8398 22.9601 84.7998 23.0401 84.7398 23.1101C84.1498 21.9901 84.1498 24.9901 83.1498 23.9901C86.1498 24.9901 89.1498 22.9901 91.1498 24.9901C89.1498 24.9901 87.1498 25.9901 84.6598 25.7001H82.8798C82.7498 25.7001 82.6298 25.7001 82.5098 25.7001C83.1498 26.0001 84.1498 26.0001 84.1498 25.0001C82.1498 25.0001 81.1498 24.0001 79.1498 24.0001C80.1498 24.0001 82.1498 24.0001 83.5398 23.6201V22.8001C82.1498 22.0101 87.1498 22.0101 83.5798 20.8101C83.5498 20.7201 83.5398 20.6401 83.5398 20.5601V18.4801C83.5398 18.3901 83.5398 18.3001 83.5398 18.2101C83.1498 18.0101 83.1498 17.0101 83.5398 17.1701C83.5398 17.0901 83.5398 17.0101 83.5398 16.9301C83.5398 16.8501 83.5398 16.7701 83.5198 16.6801C84.1498 16.0101 79.1498 15.0101 83.4898 13.8601C83.5398 13.7701 83.5398 13.6801 83.5398 13.6101V13.1301H82.4898C81.8898 13.1301 81.5898 12.9001 81.5898 12.4501C81.5898 12.0001 81.8898 11.7601 82.4898 11.7601H85.9398C86.5398 11.7601 86.8398 11.9901 86.8398 12.4501C86.8398 12.9101 86.5398 13.1301 85.9398 13.1301H84.8898V13.6701C84.1498 14.0101 83.1498 15.0101 83.1498 16.0101C84.1498 16.0101 86.1498 16.0101 86.4698 17.6701C86.5298 17.6701 86.5898 17.6801 86.6598 17.6901H89.5298C89.6098 17.6901 89.6998 17.6901 89.7698 17.6901C90.6831 17.9034 91.4665 17.9034 92.1198 17.6901H93.6698V13.1301H92.6398C92.0298 13.1301 91.7198 12.9001 91.7198 12.4501C91.7198 12.0001 92.0298 11.7601 92.6398 11.7601H96.0698C96.6698 11.7601 96.9698 11.9901 96.9698 12.4501C96.9698 12.9101 96.6698 13.1301 96.0698 13.1301H95.0198V15.3001C95.0198 15.3701 95.0198 15.4401 94.9698 15.5101C95.1398 17.0101 93.1398 15.0101 93.1398 16.0101C93.1398 17.0101 94.1398 18.0101 94.9798 18.2201C95.0198 18.3101 95.0198 18.4001 95.0198 18.4901V20.8201C94.1398 24.0201 97.1398 22.0201 98.1398 23.0201C99.1398 24.0201 98.1398 24.0201 96.7798 24.2401C96.4598 24.3601 96.5398 24.3701 96.5398 24.3701C97.1398 24.3701 97.4398 24.6001 97.4398 25.0501C97.4398 25.5001 97.1398 25.7301 96.5398 25.7301H95.6598C95.4398 25.7301 95.1898 25.7101 94.8498 25.7201C94.5098 25.7301 94.1698 25.7301 93.8598 25.7301H92.1198C91.5198 25.7301 91.2198 25.5001 91.2198 25.0501C91.2198 24.6001 91.5198 24.3701 92.1198 24.3701H93.2498C93.4798 24.3701 93.7398 24.3501 93.7398 24.3501C92.1298 24.0201 94.1298 22.0201 93.6098 21.2301C93.6298 21.1501 93.6398 21.0601 93.6398 20.9801V19.0701L93.6698 19.0401ZM119.67 19.3801C119.14 19.9901 118.14 19.9901 116.67 20.1101C116.54 20.1901 116.51 20.2901 116.53 20.4001C116.54 20.4501 116.56 20.5101 116.6 20.5601C116.64 20.6101 116.69 20.6601 116.76 20.7201C118.14 21.0001 119.14 23.0001 120.14 23.0001C118.14 23.0001 117.14 23.0001 115.51 23.0301C115.43 23.0701 115.36 23.1201 115.29 23.1601C115.22 23.2001 115.18 23.2501 115.13 23.2901C115.04 23.3801 114.97 23.4601 114.89 23.5501C114.383 23.8501 114.06 24.1701 113.92 24.5101C113.83 24.5801 113.75 24.6501 113.66 24.7201C112.35 25.7301 110.82 26.2401 109.09 26.2401C107.51 26.2401 106.11 25.8301 104.89 25.0101C104.82 24.9701 104.75 24.9301 104.66 24.8801C103.13 24.0001 104.13 22.0001 101.95 21.3301C101.91 21.2301 101.88 21.1301 101.85 21.0301C101.63 20.3201 101.52 19.5701 101.52 18.7701C101.52 18.4301 101.54 18.0901 101.58 17.7601C101.59 17.6501 101.61 17.5401 101.63 17.4401C101.14 17.0101 102.14 17.0101 101.77 16.8101C101.8 16.7101 101.83 16.6001 101.86 16.5001C102.21 15.3801 102.83 14.3801 103.73 13.4801C105.2 12.0101 106.99 11.2701 109.1 11.2701C111.21 11.2701 112.96 12.0001 114.43 13.4601C114.84 13.8701 115.2 14.3001 115.49 14.7501C115.55 14.8401 115.61 14.9301 115.63 15.0301C116.13 16.0101 113.13 16.0101 114.13 17.0101C116.13 18.0101 118.13 18.0101 119.54 19.2001C119.61 19.2701 119.65 19.3401 119.65 19.3901L119.67 19.3801ZM112.74 17.8101C115.15 18.9901 114.15 15.9901 114.65 16.0901C114.65 15.9901 114.6 15.8901 114.54 15.7901C114.26 15.3001 113.91 14.8401 113.47 14.4201C112.27 13.2301 110.81 12.6301 109.09 12.6301C107.37 12.6301 105.91 13.2301 104.69 14.4301C103.49 15.6201 102.88 17.0601 102.88 18.7501C102.88 19.8301 103.13 20.8101 103.63 21.6901C103.7 21.7801 103.78 21.8801 103.86 21.9801C103.14 23.9901 107.14 21.9901 105.92 24.0201C105.99 24.0801 106.07 24.1301 106.16 24.1701C107.04 24.6401 108.01 24.8701 109.09 24.8701C110.17 24.8701 111.19 24.6201 112.09 24.1301C112.19 24.0801 112.29 24.0201 112.41 23.9301C114.16 22.9801 115.16 20.9801 117.16 21.9801C117.16 19.9801 113.16 19.9801 112.79 18.0101C112.73 17.9301 112.7 17.8601 112.75 17.8001L112.74 17.8101ZM123.72 23.6101V21.5101C123.72 21.4301 123.72 21.3501 123.75 21.2701C125.15 20.9901 125.15 19.9901 125.15 18.9901C124.15 19.9901 123.15 17.9901 122.15 17.9901C121.15 16.9901 122.15 16.9901 123.15 16.6601C123.24 16.6101 123.31 16.5501 123.72 16.5001V13.1101H121.9C121.3 13.1101 121 12.8801 121 12.4301C121 11.9801 121.3 11.7401 121.9 11.7401H129.25C130.63 11.7401 131.74 11.9001 132.6 12.2301C132.69 12.2601 132.77 12.3001 132.85 12.3301C132.15 13.9801 135.15 12.9801 134.93 14.9001C134.9 15.0101 134.86 15.1201 134.84 15.2301C134.76 15.5701 134.77 15.9501 135.03 16.3701C134.98 16.4101 134.92 16.4401 134.86 16.4801C134.68 16.5901 134.47 16.6901 134.23 16.7901C134.18 16.8501 134.13 16.9001 134.08 16.9601C133.61 17.4501 132.89 17.7901 131.91 18.0001C132.31 18.0501 132.67 18.1201 133.01 18.2101C133.09 18.2301 133.17 18.2401 133.22 18.2601C135.15 18.9901 137.15 20.9901 139.15 19.9901C139.15 21.9901 137.15 19.9901 136.41 21.3701C136.31 21.4301 136.25 21.4801 136.18 21.5401C136.18 21.6001 136.18 21.6501 136.18 21.7101C136.18 22.4301 136.05 23.0601 135.78 23.5801C135.74 23.6701 135.69 23.7501 135.29 24.3001C135.22 24.3701 135.15 24.4401 135.08 24.5101C135.01 24.5801 134.93 24.6401 134.85 24.7001C133.15 24.9901 131.15 24.9901 129.46 25.6801C129.4 25.6901 129.33 25.6901 129.26 25.6901H125.86C125.38 25.8834 124.883 25.8834 124.37 25.6901H122.47C121.14 23.9801 122.14 23.9801 123.39 24.3401C123.51 24.3401 123.79 24.3401 123.71 23.6001L123.72 23.6101ZM125.07 17.4001H127.11C127.22 17.3901 127.33 17.3701 127.47 17.3501C128.45 17.1401 129.21 17.0501 130.07 16.8101C130.18 16.7801 130.29 16.7501 130.4 16.7101C130.14 16.9901 131.14 16.9901 131.63 16.8501C131.55 16.8901 131.47 16.9201 131.39 16.9601C131.05 17.0901 130.62 17.1601 130.22 17.3001C130.28 17.3201 130.42 17.3001 130.56 17.2801C131.18 17.1901 131.7 17.0601 132.12 16.8801C132.19 16.8501 132.26 16.8201 132.32 16.7801C132.74 16.8801 133.2 16.9301 133.43 16.8301C133.54 16.7801 133.6 16.6901 133.57 16.5601C133.47 16.1701 133.39 15.8101 133.32 15.4901C133.3 15.3801 133.27 15.2801 133.25 15.1801C134.16 13.9901 131.16 13.9901 132.16 12.9901C132.04 12.9901 131.91 12.9901 131.79 12.9901C130.92 12.9901 130.1 13.0101 129.65 13.1101C129.53 13.1101 129.41 13.1101 129.28 13.1101H125.09V17.4001H125.07ZM127.91 24.3401C128.15 23.9901 127.15 23.9901 126.7 24.3401H129.06C129.15 24.3401 129.23 24.3401 129.34 24.3601C130.15 25.9901 132.15 24.9901 134.15 24.9901C133.15 25.9901 133.15 22.9901 132.2 24.2601C132.2 24.2401 132.27 24.2301 132.33 24.2201C133.98 23.9201 134.81 23.0901 134.81 21.7301C134.81 21.5201 134.79 21.3101 134.75 21.1201C134.73 21.0201 134.71 20.9301 134.7 20.8401C136.15 18.9901 138.15 20.9901 139.15 19.9901C137.15 19.9901 134.15 17.9901 132.31 19.0201C132.21 19.0001 132.11 18.9801 132.01 18.9601C131.54 18.8801 131 18.8201 130.37 18.7901C130.3 18.7901 130.23 18.7901 130.28 18.7901C130.86 18.9167 131.483 18.9801 132.15 18.9801H125.15C126.15 20.9801 126.15 15.9801 126.94 18.5601C127.13 18.6301 127.2 18.6701 127.39 18.7401H125.08V22.5601C126.15 22.9801 127.15 22.9801 127.66 24.0901C127.89 24.2401 127.92 24.3301 127.92 24.3301L127.91 24.3401ZM162.02 24.3401V20.0801C162.02 20.0001 162.02 19.9201 162.06 19.8401C164.14 18.9901 161.14 17.9901 161.98 17.0601C162 16.9701 162.01 16.8901 162.01 16.8001V14.8801C162.37 14.7801 162.45 14.7101 162.53 14.6401C159.13 13.0001 166.13 15.0001 162.79 12.6101C162.68 12.5701 162.58 12.5301 162 12.5501V8.20006H160.18C159.58 8.20006 159.28 7.97006 159.28 7.52006C159.28 7.07006 159.58 6.84006 160.18 6.84006H165.85C166.46 6.84006 166.77 7.07006 166.77 7.52006C166.77 7.97006 166.46 8.20006 165.85 8.20006H163.35V10.2401C163.196 10.7401 163.186 11.3001 163.32 11.9201C163.35 12.0201 163.36 12.1201 163.35 12.2301V12.7101C163.81 12.7101 163.88 12.7501 163.97 12.8001C163.13 14.0001 165.13 15.0001 163.35 14.9201V16.5101C163.35 16.6001 163.33 16.6901 163.24 16.7701C162.12 16.9901 162.12 17.9901 162.12 17.9901H169.12C168.12 19.9901 165.12 18.9901 163.4 20.6901C163.34 20.7601 163.34 20.8401 163.34 20.9101V23.7501L165.45 20.1801L165.57 19.9801C169.11 19.9901 166.11 17.9901 168.34 15.3001L168.48 15.0701L168.76 14.6001L168.9 14.3701C171.12 14.0001 170.12 12.0001 170.87 11.0301C170.91 10.9601 170.95 10.8901 170.99 10.8301L172.08 8.99006C172.14 8.88006 172.21 8.78006 172.25 8.68006C172.163 8.22673 172.37 7.88006 172.87 7.64006C172.92 7.57006 172.96 7.50006 172.99 7.44006L173.33 6.86006H175.96C176.22 6.86006 176.44 6.86006 176.59 6.86006C176.943 6.95339 177.453 7.00006 178.12 7.00006C177.12 8.00006 174.12 7.00006 175.06 9.50006V10.7301C175.18 10.7801 175.22 10.8401 175.27 10.9001C179.12 12.0001 174.12 12.0001 175.6 12.6301C175.53 12.6901 175.47 12.7601 175.06 12.8701V13.9401C175.06 14.0201 175.06 14.1101 175.04 14.2001C174.12 15.0001 173.12 15.0001 172.12 15.0001C172.12 17.0001 176.12 16.0001 175.05 18.8701C175.06 18.9501 175.06 19.0401 175.06 19.1201V23.6001C175.06 23.6801 175.06 23.7501 175.21 24.3501C175.27 24.3501 175.39 24.3501 175.53 24.3501C175.67 24.3501 175.82 24.3501 175.97 24.3501C176.12 24.3501 176.29 24.3501 176.45 24.3501C178.11 23.9901 178.11 25.9901 180.11 25.9901H171.11C172.11 24.9901 174.11 24.9901 175.11 24.9901C174.11 24.9901 173.11 24.9901 172.11 23.9901C174.11 23.9901 175.11 24.9901 177.11 23.9901C176.11 24.9901 175.11 22.9901 173.83 23.0001C173.77 22.9401 173.73 22.8901 173.7 22.8301V19.9201C173.11 18.9901 176.11 18.9901 173.75 17.8901C173.7 17.8101 173.7 17.7201 173.7 17.6301V13.4801C173.11 11.9801 178.11 11.9801 174.01 10.8101C173.93 10.7601 173.88 10.7101 173.83 10.6501C173.78 10.5901 173.76 10.5401 173.74 10.4901C173.7 10.3801 173.7 10.2701 173.62 10.2001C173.12 9.97006 172.12 9.97006 171.12 9.97006C171.786 9.97006 172.393 10.0034 172.94 10.0701C172.92 10.1401 172.86 10.2301 172.81 10.3301L169.28 16.3101L169.14 16.5401C168.46 16.8267 168.08 17.4501 168 18.4101C167.99 18.4901 167.94 18.5601 167.9 18.6401L163.74 25.6801H161.96C163.13 26.9701 164.13 24.9701 165.13 24.9701H161.13H162.13H157.13C159.13 25.9701 159.13 22.9701 160.72 24.3201C160.77 24.3201 160.82 24.3201 160.86 24.3201H162L162.02 24.3401ZM194.34 13.1101V24.3401H194.69C194.89 24.3401 195.14 24.3401 195.31 24.3401C196.14 23.9901 197.14 23.9901 197.14 24.9901H193.14C193.14 24.9901 194.14 25.9901 193.96 25.6101C194.12 25.6501 194.13 25.6701 194.17 25.7001H191.95C190.14 24.9901 188.14 26.9901 186.14 24.9901C188.14 24.9901 190.14 24.9901 191.99 24.3401H192.98V20.7901C192.98 20.4601 192.98 20.1201 193.34 19.7601C194.13 19.9901 196.13 19.9901 194.36 17.6101C193.34 17.3201 192.98 16.9901 192.98 16.6601V13.1101H192.29C192.08 13.1101 191.78 13.1101 191.43 13.1101C191.08 13.1101 190.83 13.1101 190.58 13.1101C190.33 13.1101 189.99 13.1101 189.66 13.1101H186.33V20.8901C186.33 22.7701 185.92 24.1301 185.11 24.9701C184.7 25.3901 184.23 25.7001 183.7 25.9101C183.61 25.9401 183.52 25.9801 183.43 26.0101C181.14 25.9901 180.14 25.9901 178.14 25.9901C178.806 25.9901 179.34 25.9401 179.74 25.8401C179.58 25.7701 179.48 25.7001 179.44 25.6301C179.39 25.5501 179.36 25.4401 179.34 25.2901C179.14 24.9901 179.14 23.9901 179.36 24.3801C179.32 24.1901 179.29 23.9501 179.29 23.7501V23.4001C179.29 22.7201 179.53 22.3801 180.02 22.3801C180.3 22.3801 180.49 22.5201 180.58 22.8001C180.63 22.9401 180.65 23.1101 180.82 23.2901C182.15 22.9801 183.15 24.9801 185.15 23.9801C184.15 22.9801 183.15 25.9801 182.19 24.7701C182.09 24.8101 182.19 24.8101 182.33 24.8001C184.09 24.6501 184.96 23.3401 184.96 20.8801V19.8601C184.96 19.7401 184.96 19.6001 185.06 19.4601C191.14 18.9801 191.14 17.9801 185.16 17.5201C184.97 17.3401 184.96 17.1701 184.96 16.9901V15.9401C184.96 15.7701 184.96 15.6001 184.92 14.5201C184.94 14.3801 184.95 14.2401 184.96 14.1201V13.1001H184.5C184.24 13.1001 183.91 13.1001 183.66 13.1001C182.14 9.99006 183.14 9.99006 184.76 11.7401H195.69C196.44 11.7401 196.82 11.9701 196.82 12.4301C196.82 12.8901 196.44 13.1101 195.69 13.1101H194.34ZM201.28 13.5601C202.14 14.9901 204.14 12.9901 204 14.9101V17.4201C204.13 16.9901 204.13 17.9901 204.63 17.6701H207.21C207.27 17.6701 207.34 17.6701 207.41 17.6701C207.13 17.9901 208.13 17.9901 208.55 17.6701C208.63 17.6701 208.72 17.6701 208.8 17.6701C212.46 17.8201 214.29 19.0901 214.29 21.4901C214.29 22.6001 213.94 23.5701 213.23 24.4201C212.88 24.8401 212.27 25.1501 211.41 25.3601C211.19 25.4101 210.96 25.4601 210.71 25.5001C210.46 25.5401 210.2 25.5701 209.92 25.6001C209.36 25.6501 208.73 25.6801 208.04 25.6801H204.95C204.78 25.6801 204.6 25.6801 204.37 25.6701C204.14 25.9801 203.14 25.9801 203.01 25.6701C202.89 25.6701 202.76 25.6701 202.65 25.6701H201.87C201.27 25.6701 200.97 25.4401 200.97 24.9901C200.97 24.5401 201.27 24.3101 201.87 24.3101H202.66V19.7401C203.15 19.9601 202.15 18.9601 202.61 18.6901C202.64 18.5201 202.66 18.3501 202.66 18.1701V13.8201C202.66 13.7301 202.65 13.6401 202.64 13.5701C202.15 13.9601 202.15 12.9601 202.59 13.1001C202.59 13.1001 202.48 13.0901 202.3 13.0901H201.94C201.33 13.0901 201.02 12.8601 201.02 12.4101C201.02 11.9601 201.33 11.7201 201.94 11.7201H202.95C203.24 11.7201 203.55 11.7201 203.86 11.7201C204.17 11.7201 204.53 11.7201 204.83 11.7201H205.84C206.44 11.7201 206.74 11.9501 206.74 12.4101C206.74 12.8701 206.44 13.0901 205.84 13.0901C205.84 13.0901 205.64 13.0901 205.11 13.1301C204.58 13.1701 203.38 13.3101 202.51 13.4101C201.64 13.5101 201.3 13.5301 201.3 13.5301L201.28 13.5601ZM204.01 24.3401H207.99C210.02 24.3401 211.35 24.1001 211.97 23.6101C212.59 23.1301 212.9 22.4401 212.9 21.5601C212.9 20.5401 212.49 19.8601 211.68 19.5301C211.2 19.3401 210.58 19.2001 209.81 19.1201C209.7 19.1101 209.59 19.1001 209.47 19.0901C211.15 18.9801 211.15 17.9801 213.15 17.9801C211.15 18.9801 208.15 18.9801 206.35 19.0301H205.72C205.62 19.0301 205.52 19.0301 205.41 19.0201C204.14 18.9801 202.14 18.9801 201.14 18.9801C203.14 19.9801 204.14 19.9801 206.14 20.9801C209.14 22.9801 203.14 21.9801 204.19 23.4801C204.14 23.5501 204.11 23.6101 204 23.6801V24.3301L204.01 24.3401ZM232.17 20.0901C232.15 19.9901 231.15 19.9901 231.45 20.1001C231.38 20.1001 231.32 20.1001 231.25 20.1001H229.39C229.15 19.9901 228.15 19.9901 228.16 20.1001C228.1 20.1301 228.03 20.1501 227.97 20.1801C225.75 21.1201 224.23 22.3801 223.43 23.9601C223.38 24.0501 223.34 24.1401 223.3 24.2301C224.16 25.9801 220.16 23.9801 221.23 25.7401C221.19 25.6901 220.99 25.6901 220.99 25.6901C220.49 25.6901 220.23 25.4601 220.23 25.0101C220.23 24.5601 220.48 24.3301 220.99 24.3301H221.81C222.51 22.3301 224.02 20.8201 226.34 19.8001C225.99 19.7301 225.67 19.6401 225.37 19.5301C225.31 19.5101 225.25 19.4901 225.19 19.4601C225.16 18.9701 224.16 18.9701 224.16 18.9701C225.16 17.9701 227.16 19.9701 227.16 17.9701C225.16 17.9701 222.16 17.9701 222.65 15.0001C222.67 14.8901 222.68 14.7901 222.71 14.6801C222.74 14.5701 222.76 14.4801 222.79 14.3801C222.82 14.2801 222.86 14.1801 222.93 14.0901C225.16 10.9701 228.16 11.9701 231.13 11.7301C231.23 11.7201 231.32 11.7201 231.4 11.7201H234.88C235.39 11.7201 235.64 11.9501 235.64 12.4101C235.64 12.8701 235.39 13.0901 234.88 13.0901H233.43V16.8901C233.43 16.9701 233.43 17.0601 233.43 17.1401C234.15 17.9601 234.15 18.9601 233.43 19.7501V24.3201H234.88C235.39 24.3201 235.64 24.5501 235.64 25.0001C235.64 25.4501 235.39 25.6801 234.88 25.6801H231.32C230.92 25.8001 230.72 25.8401 230.5 25.8901C229.606 25.9501 228.826 25.9801 228.16 25.9801C230.16 25.9801 228.16 22.9801 230.37 24.3401C230.57 24.3401 230.83 24.3401 231.07 24.3401H232.06V20.3401C232.08 20.1901 232.18 20.0901 232.18 20.0901H232.17ZM234.29 18.5101C234.19 18.1634 234.473 17.9901 235.14 17.9901C234.14 17.9901 233.14 17.9901 232.12 17.2801C232.09 17.2101 232.07 17.1501 232.04 17.0801V13.1201H231.17C227.13 12.0001 224.13 13.0001 222.13 16.0001C222.13 18.0001 226.13 16.0001 226.13 18.0001H223.13C224.13 18.0001 225.13 18.0001 226.13 19.0001C226.13 19.0001 225.13 13.0001 225.13 19.0001C227.13 19.0001 228.13 19.0001 230.21 18.7601C230.27 18.7601 230.33 18.7601 230.39 18.7601C230.45 18.7601 230.52 18.7601 230.6 18.7601C232.12 20.0101 235.12 17.0101 237.12 18.0101C236.12 18.0101 235.12 18.0101 234.62 18.5001C234.38 18.5201 234.27 18.5301 234.27 18.5301L234.29 18.5101ZM264.71 18.1401V19.9801C264.71 20.0501 264.71 20.1301 264.68 20.2101C263.14 21.9901 261.14 19.9901 259.14 21.9901C262.14 22.9901 264.14 22.9901 267.14 23.9901C267.14 23.9901 266.14 23.9901 266.57 24.3801C266.38 24.3701 266.29 24.3601 266.06 24.3501H268.43C270.15 24.0001 273.15 24.0001 275.15 24.0001C274.15 26.0001 272.15 24.0001 271.15 25.0001C270.15 26.0001 271.15 26.0001 272.15 26.0001C271.15 26.0001 269.15 26.0001 267.97 25.7001C267.86 25.7001 267.79 25.7001 267.71 25.7001H265.18C265.11 25.7001 265.03 25.7001 264.95 25.7001C265.15 25.9901 264.15 25.9901 263.89 25.7001H263.02C263.773 25.8934 264.483 25.9901 265.15 25.9901C263.15 26.9901 262.15 24.9901 261.15 24.9901C260.15 23.9901 261.15 23.9901 262.04 24.3401H263.23C263.37 24.3401 263.44 24.3401 263.37 23.8101C263.37 23.7401 263.37 23.6701 263.37 23.5901V17.3201C262.16 15.9901 265.16 13.9901 263.37 12.7001V8.20006H261.55C261.23 8.20006 261 8.14006 260.86 8.02006C260.72 7.89006 260.65 7.72006 260.65 7.52006C260.65 7.32006 260.72 7.15006 260.86 7.04006C261 6.91006 261.23 6.85006 261.55 6.85006H269.41C271.27 6.85006 272.78 7.40006 273.95 8.49006C274.75 9.23006 275.28 10.0601 275.54 10.9801C275.48 11.1001 275.47 11.1701 275.46 11.2501C274.16 12.0001 274.16 13.0001 275.47 13.6901C275.5 13.7401 275.5 13.8101 275.48 13.8901C275.46 13.9701 275.43 14.0601 275.4 14.1601C275.37 14.2601 275.32 14.3401 275.28 14.4301C275.15 15.0001 275.15 16.0001 274.52 15.6301C274.46 15.7001 274.4 15.7601 274.35 15.8301C274.17 16.0201 273.98 16.1901 273.78 16.3401C273.62 16.4601 273.46 16.5701 273.29 16.6801C273.21 16.7301 273.13 16.7901 273.05 16.8401C273.16 17.0001 272.16 17.0001 271.79 17.4801C271.71 17.5101 271.62 17.5501 271.53 17.5801C271.44 17.6101 271.36 17.6401 271.27 17.6701C270.65 17.8701 269.87 17.9801 268.95 17.9801H265.95C265.81 17.9801 265.68 17.9801 264.94 18.0001C264.78 18.0001 264.69 18.0101 264.72 18.1601L264.71 18.1401ZM268.27 16.2801C267.15 15.9901 266.15 15.9901 266.41 16.6101H269.03C269.43 16.6101 269.82 16.5701 270.2 16.5001C270.29 16.4801 270.39 16.4601 270.44 16.4501C270.15 15.9901 269.15 16.9901 269.15 16.9901C271.15 14.9901 274.15 15.9901 276.15 15.9901C274.15 15.9901 273.15 13.9901 271.15 14.9901C271.15 12.9901 273.15 12.9901 274.15 12.9901H272.15C272.15 11.9901 273.15 10.9901 274.02 10.8201C273.97 10.7201 273.92 10.6301 273.87 10.5401C273.65 10.1701 273.36 9.81006 272.99 9.47006C272.08 8.62006 270.92 8.20006 269.53 8.20006H264.71V11.1101C264.69 11.2001 264.68 11.2801 264.64 11.3701C264.14 11.9901 262.14 12.9901 263.14 13.9901C263.14 13.9901 264.14 13.9901 264.7 14.4301C264.7 14.5101 264.7 14.5801 264.7 14.6601C264.7 14.7401 264.72 14.8101 264.74 14.8801C264.76 14.9501 264.8 15.0201 264.85 15.0801C266.12 15.9901 267.12 15.9901 268.09 16.1301C268.24 16.2201 268.25 16.2801 268.25 16.2801H268.27ZM280.93 24.3401V22.2001C280.87 22.1401 280.82 22.0801 280.75 22.0201C279.14 21.9901 278.14 21.9901 279.14 19.9901C279.14 19.9901 280.14 19.9901 280.89 19.6001C280.93 19.5201 280.93 19.4401 280.93 19.3501V17.3101C280.93 17.2201 280.93 17.1401 280.94 17.0501C281.14 14.9801 281.14 13.9801 281.14 11.9801C280.14 10.9801 278.14 12.9801 278.14 10.9801C279.14 11.9801 280.14 9.98006 280.84 9.82006C280.93 9.69006 280.93 9.59006 280.93 9.49006V8.19006H279.11C278.51 8.19006 278.21 7.96006 278.21 7.51006C278.21 7.06006 278.51 6.83006 279.11 6.83006H284.78C285.39 6.83006 285.7 7.06006 285.7 7.51006C285.7 7.96006 285.39 8.19006 284.78 8.19006H282.28V10.6201C282.28 10.6901 282.28 10.7501 282.26 10.8201C282.14 12.9801 281.14 13.9801 282.24 15.9701C282.28 16.0501 282.28 16.1401 282.28 16.2301V23.7401L286.31 16.9201L286.45 16.6901C291.14 16.9801 288.14 11.9801 290.27 10.2101C290.31 10.1501 290.35 10.0801 290.39 10.0201L291.01 8.97006C291.07 8.86006 291.14 8.76006 291.18 8.66006C291.153 8.20673 291.36 7.86006 291.8 7.62006C291.85 7.55006 291.89 7.48006 291.93 7.42006L292.27 6.84006H295.81C296.41 6.84006 296.71 7.07006 296.71 7.52006C296.71 7.97006 296.41 8.20006 295.81 8.20006H294.46C294.19 8.20006 293.99 8.20006 293.99 8.20006C294.083 8.72673 294.083 9.16006 293.99 9.50006V11.3401C293.99 11.4101 293.99 11.4801 294.01 11.5501C295.14 12.9901 297.14 13.9901 295.17 15.5201C295.09 15.5601 295.01 15.6101 294 15.8301V18.6101C293.14 17.9901 292.14 19.9901 291.14 19.9901C293.14 20.9901 296.14 21.9901 298.14 21.9901C297.14 22.9901 295.14 22.9901 294.01 24.0001C294 24.1101 294 24.2001 294 24.2601V24.3501H295.82C296.42 24.3501 296.72 24.5801 296.72 25.0301C296.72 25.4801 296.42 25.7101 295.82 25.7101H292.41C293.15 26.0001 294.15 26.0001 295.15 25.0001H290.15C289.15 24.0001 290.15 24.0001 291.35 24.3501C291.58 24.3501 291.91 24.3501 292.18 24.3501H292.65V23.3001C292.65 23.2101 292.65 23.1101 292.66 23.0001C293.14 23.0001 293.14 22.0001 292.65 21.9301C292.65 21.8601 292.65 21.8001 292.65 21.7301V15.5401C292.15 14.0001 296.15 13.0001 292.67 11.4601C292.65 11.3901 292.65 11.3301 292.65 11.2601V10.5201C292.65 10.4101 292.65 10.3001 292.53 10.2301C291.14 11.0001 288.14 12.0001 289.1 14.7401C289.12 14.8101 289.07 14.8801 289.03 14.9601L283.57 24.1901C283.51 24.2801 283.46 24.3701 283.47 24.4601C283.14 27.0001 287.14 24.0001 287.14 26.0001C285.14 26.0001 283.14 26.0001 281.55 25.7101H279.67C279.59 25.7101 279.51 25.7101 279.44 25.7101C279.15 23.0101 282.15 25.0101 283.15 24.0101C282.483 24.0101 281.703 24.1101 280.81 24.3101C280.73 24.3601 280.94 24.3601 280.94 24.3601L280.93 24.3401ZM312.89 24.3601C315.14 23.9901 316.14 23.9901 318.14 23.9901C317.14 23.9901 316.14 23.9901 315.81 25.4701V28.4501C315.81 28.5101 315.81 28.5801 315.81 28.6301C316.13 29.9801 316.13 30.9801 315.13 29.9801C314.13 27.9801 318.13 29.9801 317.13 27.9801C316.13 27.9801 315.13 27.9801 314.45 27.7001V26.2501C314.45 26.1401 314.45 26.0401 314.08 25.6901H312.34C312.28 25.6901 312.21 25.6901 312.14 25.6901C312.13 25.9801 311.13 25.9801 310.86 25.6901H308.9C308.81 25.6901 308.72 25.6901 308.59 25.7001C307.61 25.8867 306.786 25.9801 306.12 25.9801C308.12 26.9801 309.12 24.9801 310.12 24.9801C307.12 25.9801 305.12 25.9801 302.41 25.6901H300.28C300.22 25.6901 300.17 25.6901 300.14 25.6901C301.13 25.9801 302.13 25.9801 302.13 25.9801C303.13 23.9801 300.13 25.9801 300.22 24.3401C300.33 24.3401 300.61 24.3401 300.84 24.3401H301.24V23.5901C305.13 21.9901 298.13 19.9901 301.24 18.3501V14.8701C301.49 14.8001 301.54 14.7401 301.6 14.6801C302.13 14.9901 303.13 13.9901 303.13 12.9901C303.13 12.9901 302.13 12.9901 301.79 12.6701C301.72 12.6301 301.67 12.6001 301.24 12.5801V11.5501C301.23 11.4801 301.21 11.4101 301.18 11.3301C299.13 9.98006 300.13 9.98006 301.22 8.54006C301.23 8.43006 301.23 8.34006 301.23 8.28006V8.19006H299.7C299.1 8.19006 298.8 7.96006 298.8 7.51006C298.8 7.06006 299.1 6.83006 299.7 6.83006H304.4C305 6.83006 305.3 7.06006 305.3 7.51006C305.3 7.96006 305 8.19006 304.4 8.19006H302.58V18.0901C302.54 18.1801 302.51 18.2701 302.43 18.3501C302.12 19.9801 300.12 17.9801 300.12 18.9801C300.12 20.9801 304.12 19.9801 302.74 23.0401C302.66 23.1401 302.62 23.2401 302.58 23.3301V24.3401H305.38C305.87 24.2901 305.99 24.2801 306.12 24.2701C306.78 24.0834 307.516 24.1067 308.33 24.3401C308.43 24.3401 308.51 24.3401 308.6 24.3401H309.96C310.06 24.7734 309.776 24.9901 309.11 24.9901C309.776 24.3234 310.553 23.6867 311.44 23.0801C311.54 22.9601 311.57 22.8401 311.57 22.7301V12.9401C311.57 12.8601 311.57 12.7801 311.57 12.7001C313.11 11.9901 311.11 10.9901 311.56 9.49006C311.56 9.39006 311.56 9.29006 311.56 9.20006V8.19006H309.74C309.14 8.19006 308.84 7.96006 308.84 7.51006C308.84 7.06006 309.14 6.83006 309.74 6.83006H314.43C315.04 6.83006 315.35 7.06006 315.35 7.51006C315.35 7.96006 315.04 8.19006 314.43 8.19006H312.92V8.72006C312.11 10.9801 317.11 11.9801 313.28 13.6401C313.22 13.7001 313.17 13.7601 312.92 13.8401V20.7601C312.92 20.8301 312.92 20.9101 312.92 20.9801C313.11 20.9801 313.11 21.9801 312.92 22.3801C312.91 22.5001 312.91 22.6201 312.91 22.7301V23.5901C312.91 23.6701 312.91 23.7401 312.86 24.2701C312.86 24.3301 312.86 24.3601 312.86 24.3601H312.89ZM331.58 8.20006H322.61V9.21006C322.61 9.30006 322.61 9.40006 322.6 9.50006C322.15 11.0001 324.15 12.0001 322.61 12.7101V23.6001C322.61 23.6801 322.61 23.7501 322.61 23.8201C322.14 24.0001 323.14 24.0001 322.71 24.3501H324.42C325.02 24.3501 325.32 24.5801 325.32 25.0301C325.32 25.4801 325.02 25.7101 324.42 25.7101H319.72C319.12 25.7101 318.82 25.4801 318.82 25.0301C318.82 24.5801 319.12 24.3501 319.72 24.3501H319.78C319.36 24.1167 318.816 24.0001 318.15 24.0001H325.15C323.15 25.0001 323.15 22.0001 321.29 22.9001C321.27 22.8501 321.26 22.7901 321.26 22.7401V22.3901C321.26 22.2701 321.26 22.1501 321.28 22.0201C320.16 21.0001 325.16 21.0001 321.32 19.8501C321.28 19.7701 321.27 19.6901 321.27 19.6101V12.8701C321.58 12.7601 321.64 12.7001 321.72 12.6301C321.17 12.0001 324.17 12.0001 323.17 11.0001C322.17 11.0001 321.17 9.00006 319.17 10.0001C320.17 11.0001 320.17 8.00006 321.25 8.55006C321.28 8.44006 321.28 8.35006 321.28 8.29006V8.20006H319.75C319.15 8.20006 318.85 7.97006 318.85 7.52006C318.85 7.07006 319.15 6.84006 319.75 6.84006H334.51C335.11 6.84006 335.41 7.07006 335.41 7.52006C335.41 7.97006 335.11 8.20006 334.51 8.20006H332.98V15.2201C332.98 15.3101 332.98 15.3901 332.94 15.4801C332.18 17.9901 334.18 20.9901 330.18 22.9901C331.18 21.9901 332.18 23.9901 332.98 24.0001V24.3501H333.38C333.61 24.3501 333.89 24.3501 334.25 24.3301C336.18 25.0001 338.18 23.0001 339.18 25.0001C336.18 25.0001 334.18 27.0001 331.68 25.7001C331.58 25.7001 331.5 25.7001 331.42 25.7001H330.37C330.28 25.7001 330.19 25.7001 330.12 25.7001C329.18 25.9901 328.18 25.9901 329.18 24.9901H332.18C332.18 24.9901 331.18 23.9901 331.43 24.3801C331.42 24.3501 331.62 24.3501 331.62 24.3501V22.0201C331.62 21.9601 331.62 21.8901 331.65 21.8201C334.19 20.9901 330.19 19.9901 331.62 18.8601V18.3501C331.62 18.2601 331.62 18.1801 331.62 18.0901C336.18 16.9801 328.18 16.9801 331.61 16.0001C331.61 15.9101 331.61 15.8201 331.61 15.7401V12.6901C332.18 11.9801 334.18 11.9801 332.11 10.1001C332.01 10.0501 331.93 10.0001 331.61 9.97006V8.19006L331.58 8.20006ZM361.93 24.4601C364.14 23.9901 367.14 23.9901 369.14 23.9901H367.14C370.14 24.9901 373.14 22.9901 376.14 23.9901C375.14 21.9901 373.14 23.9901 372.14 22.9901C375.14 22.9901 374.14 23.9901 372.77 25.3601C372.68 25.5801 372.68 25.7001 372.68 25.7001H370.64C370.57 25.7001 370.5 25.7001 370.44 25.7001C370.15 25.9901 369.15 25.9901 369.3 25.7001C369.22 25.7001 369.13 25.7001 369.05 25.7001H367.23C367.14 25.7001 367.05 25.7001 366.96 25.7001C367.15 25.9901 366.15 25.9901 365.87 25.7001C365.78 25.7001 365.68 25.7001 365.59 25.7001H364.25C364.16 25.7001 364.08 25.7001 363.99 25.7001C364.13 25.9901 363.13 25.9901 362.74 25.7001H361.24C359.13 23.9901 363.13 24.9901 361.78 22.8701C361.79 22.7601 361.84 22.6601 361.9 22.5601C362.72 21.0201 363.52 19.2801 365.4 18.3101C365.49 18.2301 365.57 18.1501 365.65 18.0701C365.9 17.8301 366.14 17.5901 366.39 17.3601C366.47 17.2801 366.55 17.2001 366.54 17.1301C365.6 17.0367 365.13 16.6567 365.13 15.9901C367.13 16.9901 368.13 14.9901 368.7 15.0701C368.78 14.9901 368.86 14.9101 368.93 14.8301C369 14.7501 369.08 14.6801 369.11 14.6001C369.13 12.9901 367.13 14.9901 367.13 13.9901C368.13 11.9901 371.13 12.9901 371.24 10.2101C371.23 10.1201 371.21 10.0301 371.19 9.93006C371.01 9.11006 370.58 8.37006 369.88 7.70006C369.34 7.18006 368.72 6.81006 368.05 6.59006C367.88 6.58006 367.71 6.57006 367.48 6.59006C366.14 7.00006 365.14 7.00006 364.14 7.00006C364.14 7.00006 365.14 7.00006 364.96 6.58006C364.95 6.58006 364.89 6.60006 364.83 6.62006C364.31 6.79006 363.82 7.04006 363.36 7.38006C363.18 7.52006 363.01 7.66006 362.85 7.81006C362.69 7.96006 362.55 8.11006 362.38 8.26006C362.21 8.41006 362.07 8.57006 362.01 8.76006C361.95 8.95006 361.87 9.14006 361.79 9.32006C361.71 9.51006 361.64 9.70006 361.59 9.90006C361.53 10.1601 361.45 10.3201 361.35 10.4001C361.22 10.5101 361.07 10.5601 360.9 10.5601C360.72 10.5601 360.56 10.5001 360.43 10.3801C360.31 10.2501 360.25 10.1001 360.25 9.93006C360.25 9.74006 360.29 9.52006 360.37 9.27006C360.35 9.17006 360.34 9.07006 360.29 8.95006C361.14 8.99006 362.14 8.99006 363.14 7.99006C361.14 7.99006 361.14 6.99006 359.14 6.99006C359.806 6.99006 360.62 6.91006 361.58 6.75006C361.8 6.73006 361.95 6.69006 362.1 6.65006C362.49 6.30006 362.93 6.00006 363.43 5.75006C364.03 5.45006 364.64 5.24006 365.25 5.11006C365.46 5.07006 365.66 5.04006 365.86 5.02006C366.14 4.99006 367.14 4.99006 367.2 5.02006C367.43 5.04006 367.66 5.08006 367.88 5.13006C368.99 5.37006 369.98 5.91006 370.84 6.74006C371.53 7.41006 372.03 8.13006 372.33 8.90006C372.4 9.09006 372.45 9.28006 372.16 9.24006C371.48 9.07339 370.806 8.99006 370.14 8.99006C371.14 9.99006 372.14 10.9901 371.94 13.2601C371.9 13.3301 371.85 13.4001 371.8 13.4801C371.75 13.5601 371.7 13.6301 371.65 13.7001C371.31 13.8934 370.99 14.2867 370.69 14.8801C370.63 14.9501 370.56 15.0201 370.49 15.0901C370.42 15.1601 370.35 15.2401 370.28 15.3201C370.21 15.4001 370.13 15.4801 370.05 15.5601C370.77 15.8534 371.463 16.0001 372.13 16.0001C370.13 17.0001 369.13 18.0001 367.58 18.0301C367.53 18.0801 367.48 18.1301 367.43 18.1801C367.33 18.2801 367.23 18.3801 367.13 18.4701C367.08 18.5201 367.03 18.5701 366.95 18.6101C363.3 17.0701 364.04 21.5601 362.43 22.9501C362.35 23.0201 362.27 23.0801 362.19 23.1301C362.13 23.0001 362.13 24.0001 362.02 24.3701L361.91 24.4601H361.93ZM382.83 6.84006V7.87006C382.83 7.93006 382.83 8.00006 382.84 8.06006C384.14 8.98006 385.14 8.98006 386.14 8.98006C385.14 10.9801 383.14 10.9801 381.14 10.9801C382.14 9.98006 382.14 12.9801 382.78 12.0301C382.82 12.1001 382.83 12.1601 382.83 12.2301V13.2701C382.83 13.3901 382.84 13.4601 382.84 13.4601C382.93 13.4201 383.03 13.3801 383.13 13.3401C383.23 13.3001 383.33 13.2601 383.42 13.2301C383.51 13.2001 383.61 13.1601 383.67 13.1201C383.14 12.9901 382.14 12.9901 382.14 11.9901C383.14 11.9901 385.14 11.9901 386.09 12.4101C386.29 12.4501 386.42 12.4601 386.57 12.4901C386.78 12.4701 386.99 12.4601 387.2 12.4601C387.32 12.4601 387.44 12.4601 387.56 12.4601C387.68 12.4601 387.8 12.4801 387.91 12.4901C388.14 12.9801 387.14 12.9801 387.14 12.9801H390.14H388.14C388.14 14.9801 392.14 11.9801 392.36 15.4701C392.41 15.5601 392.46 15.6501 392.5 15.7401C392.81 16.3901 393.02 17.1001 393.11 17.8901C393.12 18.0001 393.13 18.1201 393.14 18.2301C393.14 17.9701 393.14 18.9701 393.14 19.3001C393.15 19.4201 393.15 19.5301 393.14 19.6501C393.13 19.7701 393.12 19.8801 393.11 19.9901C393.1 20.1001 393.08 20.2101 393.14 20.3201C393.13 21.9801 395.13 19.9801 395.13 20.9801C395.13 22.9801 393.13 22.9801 392.23 22.9601C392.11 23.0501 392.05 23.1401 392 23.2201C391.78 23.5601 391.52 23.8701 391.24 24.1701C389.95 25.5001 388.34 26.1701 386.41 26.1701C385.13 26.1701 383.9 25.8901 382.72 25.3201C382.22 25.0801 381.74 24.8101 381.29 24.5001C381.14 24.4001 380.99 24.2901 380.85 24.1801C381.14 23.9801 387.14 22.9801 381.2 22.5401C381.22 22.6301 381.27 22.7101 381.31 22.8001C382.86 24.1501 384.53 24.8301 386.34 24.8301C387.92 24.8301 389.22 24.2901 390.26 23.2201C390.63 22.8301 390.93 22.4001 391.17 21.9201C391.22 21.8201 391.27 21.7301 391.33 21.6301C391.14 20.0001 388.14 19.0001 391.6 17.4801C391.63 17.3701 391.6 17.2601 391.58 17.1601C391.56 17.0601 391.51 16.9501 391.48 16.8501C391.45 16.7501 391.4 16.6501 391.37 16.5401C390.15 16.0001 393.15 16.0001 392.15 15.0001C391.15 15.0001 390.15 15.0001 389.24 14.3101C389.15 14.2601 389.06 14.2201 388.96 14.1801C388.39 13.9501 387.77 13.8301 387.08 13.8301C386.88 13.8301 386.68 13.8301 386.48 13.8501C386.38 13.8501 386.28 13.8701 386.18 13.8801C386.16 14.0001 385.16 14.0001 384.67 14.1901C384.57 14.2201 384.47 14.2501 384.37 14.2901C384.27 14.3301 384.21 14.3601 384.28 14.3801C385.15 15.0001 387.15 13.0001 387.15 15.0001H384.15H386.15C384.15 14.0001 382.15 16.0001 381.49 14.3101V13.2501C381.263 12.4167 381.263 11.8334 381.49 11.5001V5.47006H390.93C391.25 5.47006 391.48 5.53006 391.62 5.66006C391.76 5.79006 391.83 5.96006 391.83 6.16006C391.83 6.35006 391.76 6.51006 391.62 6.64006C391.48 6.77006 391.25 6.83006 390.93 6.83006H382.84L382.83 6.84006ZM407.05 5.20006V7.99006C407.05 8.05006 407.05 8.12006 407.07 8.19006C408.14 11.9901 404.14 14.9901 407.02 18.9001C407.05 18.9801 407.05 19.0601 407.05 19.1401V24.3401H411.69C412.01 24.3401 412.24 24.4001 412.38 24.5301C412.52 24.6501 412.59 24.8101 412.59 25.0101C412.59 25.2001 412.52 25.3601 412.38 25.4901C412.24 25.6201 412.01 25.6801 411.69 25.6801H401.06C400.74 25.6801 400.51 25.6201 400.37 25.4901C400.23 25.3601 400.16 25.2001 400.16 25.0101C400.16 24.8101 400.23 24.6401 400.37 24.5301C400.51 24.4001 400.74 24.3401 401.06 24.3401H405.7V19.1301C405.7 19.0501 405.7 18.9601 405.69 18.8801C406.15 14.9901 405.15 11.9901 405.71 8.07006C405.71 7.98006 405.71 7.90006 405.71 7.82006V7.08006L401.82 8.30006C401.8 8.37006 401.75 8.42006 401.75 8.47006C398.16 11.0001 403.16 5.00006 401.07 7.11006C401.16 7.07006 401.32 7.02006 401.52 6.95006L407.06 5.20006H407.05ZM24.3798 49.2401C23.3198 49.2401 22.4898 49.4601 21.8898 49.9101C21.4498 50.2401 20.8098 51.0701 19.9698 52.4001C19.9298 52.4601 19.8998 52.5101 19.8598 52.5701C18.7198 52.8501 18.2131 53.6834 18.3398 55.0701C18.3198 55.1601 18.2798 55.2301 18.2298 55.3001C18.0598 55.5901 17.8898 55.8601 17.7198 56.1201C17.6798 56.1801 17.6398 56.2501 17.5998 56.3101C18.0998 56.9301 18.1398 57.8301 16.4298 58.5001C16.2798 58.5601 16.1098 58.6201 15.9198 58.6801C16.1398 60.9901 18.1398 60.9901 18.6498 62.4601C18.7198 62.5601 18.7798 62.6601 18.7898 62.7601C18.8298 62.9101 18.8698 63.0501 18.9098 63.1701C18.9498 63.2901 18.9798 63.3901 19.0098 63.4801C19.1498 64.9901 21.1498 63.9901 20.7698 66.1501L20.9198 66.4501L21.8498 68.2801C21.8898 68.3501 21.9298 68.4301 21.9798 68.5001C22.1498 68.9801 22.1498 69.9801 22.5398 69.6101C22.5598 69.6801 22.5998 69.7501 22.6298 69.8201L22.8298 70.2201L22.9298 70.4101C23.1398 73.9801 26.1398 70.9801 27.8898 72.3301C27.9198 72.3901 27.9498 72.4501 27.9598 72.5201C27.9798 72.5901 27.9798 72.6601 27.9798 72.7401C27.9798 73.3701 27.4598 73.6801 26.4098 73.6801H23.6898C23.0898 73.6801 22.7198 73.6401 22.5698 73.5501C22.4198 73.4601 22.1998 73.1501 21.9198 72.6101L20.2398 69.3101C20.1998 69.2301 20.1598 69.1601 20.1498 69.0901C20.1498 67.9901 20.1498 66.9901 19.0998 67.0501C19.0598 66.9901 19.0298 66.9401 18.9998 66.8901L18.5598 66.0201C18.4198 65.7401 18.2698 65.4701 18.1298 65.2101C18.0798 65.1201 18.0198 65.0301 17.9698 64.9501C16.7198 64.3001 15.8498 63.6201 15.2098 62.6901C15.1498 62.6101 15.0998 62.5201 15.0598 62.4101C14.1498 61.0001 13.1498 61.0001 10.9998 60.5701H9.5598V61.4901C9.5298 61.6001 9.5098 61.7201 9.4598 61.8401C10.1498 63.0101 7.1498 63.0101 8.1498 64.0101C9.1498 64.0101 10.1498 65.0101 11.1498 65.0101C10.1498 64.0101 10.1498 67.0101 9.5598 66.2001V66.7301C9.5598 66.9101 9.5598 67.0801 9.6298 67.2501C11.1498 67.0101 10.1498 69.0101 9.6598 69.6601C9.5598 69.8001 9.5598 69.9401 9.5598 70.0701V71.8301H12.0098C13.0698 71.8301 13.5998 72.1401 13.5998 72.7701C13.5998 73.4001 13.0698 73.7101 12.0098 73.7101H5.2398C4.1898 73.7101 3.6698 73.4001 3.6698 72.7701C3.6698 72.1401 4.1898 71.8301 5.2398 71.8301H7.6398V68.7101C8.1398 69.0101 8.1398 68.0101 7.6398 68.3101V65.3401C7.6398 65.2601 7.6298 65.1701 7.5698 65.0901C7.7398 64.7701 7.5898 64.5401 7.3598 64.3401C7.2798 64.2801 7.1998 64.2101 7.1098 64.1601C5.1298 62.0101 8.1298 62.0101 7.6398 61.2301V57.8701C12.1398 56.0001 5.1398 54.0001 7.6398 52.4301V49.3101H5.2398C4.1898 49.3101 3.6698 49.0001 3.6698 48.3701C3.6698 47.7401 4.1898 47.4301 5.2398 47.4301H11.9998C13.0598 47.4301 13.5898 47.7401 13.5898 48.3701C13.5898 49.0001 13.0598 49.3101 11.9998 49.3101H9.5498V52.3901C9.5498 52.4701 9.5498 52.5601 9.5398 52.6501C7.1398 55.0001 13.1398 56.0001 9.5698 58.0501C9.5498 58.1401 9.5498 58.2201 9.5498 58.3001V58.6401H10.9898C11.5398 58.6401 12.0298 58.5901 12.4598 58.5001C12.5698 58.4801 12.6798 58.4501 12.7998 58.4201C14.1398 57.0101 15.1398 59.0101 15.0698 56.5901C15.1298 56.5101 15.1798 56.4401 15.2398 56.3501C15.4498 56.0601 15.6698 55.7401 15.8998 55.3801C15.9498 55.3201 15.9898 55.2601 16.0398 55.2001C17.1398 53.0101 18.1398 53.0101 20.1398 53.0101C20.1398 52.0101 19.1398 52.0101 18.1698 51.7601C18.1798 51.7001 18.2098 51.6401 18.2298 51.5801C19.2098 50.0301 20.0098 48.9801 20.6198 48.4401C21.4098 47.7501 22.6898 47.4101 24.4598 47.4101C25.3098 47.4101 25.8298 47.5101 26.0098 47.7001C26.1898 47.8901 26.2798 48.3301 26.2798 49.0001V49.7901C26.3398 49.9201 26.3998 50.0601 26.5198 50.1801C28.1298 50.0001 26.1298 51.0001 27.1298 52.0001C27.0498 52.0001 26.9598 52.0101 26.8798 52.0401C26.7998 52.0701 26.7098 52.1001 26.6298 52.1401C26.1298 52.0001 26.1298 53.0001 25.6298 52.8701C25.5498 52.9301 25.4598 52.9901 25.3798 53.0401C24.9598 53.3001 24.5498 53.4101 24.1298 52.9901C24.1298 52.9901 24.1298 51.9901 24.3698 51.9101C24.3698 51.8101 24.3698 51.6901 24.3698 51.5701V49.2301L24.3798 49.2401ZM54.2798 59.7001C54.1498 60.9901 56.1498 62.9901 53.6998 63.9501C53.6298 64.0601 53.6098 64.1601 53.5898 64.2701C53.4498 64.9101 53.2698 65.5301 53.0598 66.1401C53.0398 66.1901 53.0198 66.2401 52.9998 66.3101C53.3598 66.5901 53.5498 66.8001 53.6198 66.9601C53.6498 67.0401 53.6598 67.1101 53.6398 67.1701C54.1598 69.0101 49.1598 67.0101 50.6998 70.4301C50.6298 70.5101 50.5698 70.5901 50.4998 70.6601C49.8298 71.4301 49.0698 72.0901 48.2298 72.6601C46.4498 73.8601 44.5298 74.4601 42.4798 74.4601C40.1398 74.4601 38.0198 73.7001 36.0998 72.1701C35.9998 72.0901 35.9098 72.0201 35.8098 71.9401C35.1598 73.0101 35.1598 70.0101 34.4198 70.6001C34.3598 70.5101 34.2798 70.4301 34.2098 70.3401C34.1398 70.2501 34.0598 70.1601 33.9898 70.0701C32.1598 70.0101 35.1598 66.0101 32.3098 67.1401C32.2398 67.0901 32.1998 67.0301 32.1498 66.9801C31.9098 66.4201 31.7098 65.8401 31.5498 65.2401C31.5398 65.1501 31.5198 65.0701 31.5198 64.9801C31.1498 64.0201 31.1498 63.0201 29.6698 63.1501C29.4398 62.9901 29.3398 62.8001 29.2598 62.6101C29.1898 62.4201 29.1498 62.2201 29.1498 62.0201C29.3998 62.0201 29.6498 62.0201 29.8798 62.0001C29.9998 62.0001 30.1098 61.9801 30.2098 61.9601C31.1498 60.0101 30.1498 60.0101 29.1498 60.0101C30.1498 59.0101 32.1498 61.0101 32.5498 59.4801C32.6098 59.4001 32.6498 59.3201 32.6598 59.2401C32.7898 58.4501 30.4698 57.7701 31.2698 57.1901C31.2898 57.0701 31.3198 56.9501 31.3398 56.8301C31.4398 56.3801 31.5498 55.9501 31.6798 55.5301C31.7098 55.4201 31.7498 55.3201 31.7798 55.2201C32.1398 54.0101 34.1398 53.0101 33.1798 52.3101C33.2398 52.2201 33.2998 52.1301 33.3598 52.0401C33.4198 51.9501 33.4898 51.8501 33.5098 51.7701C34.1398 50.0001 37.1398 50.0001 38.1398 49.0001C37.4731 49.0001 36.9398 48.9501 36.5398 48.8501C36.5398 48.8501 36.5598 48.7401 36.6598 48.6701C38.4198 47.4401 40.3498 46.8201 42.4598 46.8201C42.5698 46.8201 42.6898 46.8201 42.7998 46.8201C44.2698 46.5401 45.3598 46.8201 46.2598 47.3401C46.3298 47.3701 46.3998 47.3901 46.4798 47.4201C47.1398 47.9901 48.1398 47.9901 49.1398 47.9901C50.1398 48.9901 49.1398 48.9901 48.4198 49.1301C48.4398 49.2101 48.5098 49.2901 48.5798 49.3601C48.6498 49.4301 48.7298 49.5101 48.8098 49.5901C49.1498 51.9901 50.1498 49.9901 50.7898 51.0101C50.8698 51.1001 50.9398 51.1901 51.0098 51.2701C51.2198 51.5501 51.4198 51.8501 51.6198 52.1501C51.6698 52.2301 51.7198 52.3001 51.7998 52.3901C52.1598 52.9901 54.1598 53.9901 53.0298 55.0401C53.0598 55.1201 53.0898 55.2001 53.1198 55.2801C53.1498 55.3601 53.1798 55.4401 53.1998 55.5301C53.2298 55.6201 53.2598 55.7201 53.2898 55.8101C56.1598 55.9801 53.1598 57.9801 54.0298 58.6901C54.1198 58.7701 54.1998 58.8401 54.2798 58.9201C54.4998 59.1401 54.5998 59.3401 54.3598 59.5001C54.3598 59.5501 54.3498 59.6101 54.2898 59.6801L54.2798 59.7001ZM52.0498 60.6201C52.0498 60.5001 52.0498 60.3801 52.0498 60.2701C52.0498 60.1601 52.0498 60.0401 52.0398 59.9201C51.9498 59.8301 51.8698 59.7301 51.7998 59.6401C51.7298 59.5501 51.6698 59.4501 51.6498 59.3401C52.1498 57.9901 49.1498 57.9901 51.1998 55.7001C51.1598 55.6001 51.1298 55.5001 51.0898 55.4101C50.9798 55.1401 50.8698 54.8801 50.7398 54.6201C50.7198 54.5301 50.6998 54.4401 50.6898 54.3501C50.3298 54.1101 50.0231 53.6067 49.7698 52.8401C49.6898 52.7601 49.6298 52.6801 49.5598 52.6001C49.4998 52.5201 49.4498 52.4401 49.3898 52.3601C49.1498 52.0301 48.9098 51.7301 48.6498 51.4501C48.5898 51.3801 48.5198 51.3101 48.4498 51.2401C46.1598 50.9901 45.1598 47.9901 43.2498 48.5201C43.1598 48.5201 43.0898 48.5201 43.0298 48.5201C42.9698 48.5201 42.9098 48.5201 42.8498 48.5201C42.7398 48.5201 42.6298 48.5201 42.5198 48.5201C42.1598 49.0101 43.1598 49.0101 43.1598 49.0101C41.1598 49.0101 39.1598 48.0101 38.3798 49.8201C38.2798 49.8801 38.1898 49.9401 38.0898 50.0001C37.9498 50.0901 37.7998 50.1901 37.6598 50.2901C37.5898 50.3201 37.5298 50.3501 37.4498 50.3901C40.1598 52.0101 33.1598 50.0101 35.6598 52.2201C35.5898 52.3101 35.5198 52.4001 35.4498 52.4901C35.3898 52.5701 35.3198 52.6601 35.2598 52.7401C35.1998 52.8301 35.1498 52.9101 35.1398 53.0001C34.1498 54.0001 36.1498 55.0001 33.8698 55.1901C33.8298 55.2901 33.7898 55.3801 33.7498 55.4801C33.6398 55.7701 33.5298 56.0701 33.4398 56.3801C33.4098 56.4901 33.3698 56.6001 33.3498 56.7101C33.2998 57.2101 33.3198 57.6501 33.3498 58.0501C33.2098 58.1601 33.1798 58.2301 33.1398 58.3001C32.1398 58.9901 37.1398 60.9901 32.9198 62.1901C32.9198 62.2501 32.9298 62.3201 32.9398 62.3801C32.9698 62.6301 32.9998 62.8701 33.0298 63.1101C32.1498 63.9801 35.1498 63.9801 33.6898 65.1401C33.6098 65.3801 33.6498 65.6001 33.7398 65.8101C34.1398 66.8601 34.6898 67.8301 35.3698 68.7001C35.4398 68.7901 35.5098 68.8701 35.5498 68.9601C35.1598 70.9801 38.1598 69.9801 38.6398 71.5501C38.7398 71.6001 38.8398 71.6601 38.9498 71.7101C40.0598 72.2601 41.2398 72.5401 42.4698 72.5401C44.0898 72.5401 45.5298 72.1401 46.8098 71.3501C46.9098 71.2901 47.0098 71.2301 47.0598 71.1501C47.1498 70.9801 46.1498 69.9801 46.1498 69.9801C48.1498 69.9801 50.1498 68.9801 50.9098 66.2501C50.9498 66.1501 50.9998 66.0401 51.0398 65.9401C51.2498 65.4201 51.4298 64.8901 51.5698 64.3501C51.5998 64.2401 51.6298 64.1301 51.6898 64.0201C52.0298 63.2301 52.1198 63.0401 52.0998 62.4301C52.0998 62.2301 52.0798 61.9801 52.0598 61.6501C52.0298 61.5301 52.0298 61.4201 52.0398 61.3001C52.0498 61.1801 52.0398 61.0701 52.0398 60.9501C52.0398 60.8301 52.0398 60.7101 52.0398 60.6001L52.0498 60.6201ZM76.4398 60.9801H63.9298V61.2801C63.9498 61.3401 63.9598 61.4201 63.9898 61.5001C69.1398 62.9801 61.1398 62.9801 64.1398 63.7801C64.0898 63.8601 64.0498 63.9401 63.9298 64.0201V66.9201C61.1398 67.9701 66.1398 68.9701 63.9298 69.8901V71.7901H66.4698C66.9198 71.7901 67.2398 71.8801 67.4398 72.0601C67.6298 72.2201 67.7298 72.4501 67.7298 72.7301C67.7298 73.0001 67.6298 73.2201 67.4398 73.4001C67.2498 73.5801 66.9198 73.6701 66.4698 73.6701H59.9098C59.4598 73.6701 59.1398 73.5801 58.9398 73.4001C58.7498 73.2201 58.6498 73.0001 58.6498 72.7301C58.6498 72.4501 58.7498 72.2201 58.9398 72.0601C59.1298 71.8801 59.4598 71.7901 59.9098 71.7901H62.0398V70.5001C62.0398 70.4101 62.0398 70.3201 62.0798 70.2201C66.1398 68.9701 61.1398 67.9701 62.0998 67.4201C62.0498 67.3401 62.0498 67.2701 62.0498 67.1901V64.0101C59.1498 62.9601 66.1498 62.9601 62.0898 61.6101C62.0498 61.5201 62.0498 61.4301 62.0498 61.3401V59.7101C62.0498 59.6201 62.0498 59.5301 62.0298 59.4401C59.1498 57.9601 64.1498 57.9601 62.3398 56.9501C62.2998 56.8701 62.2698 56.7901 62.0598 56.6101V55.9901C62.1598 54.9601 62.1598 53.9601 62.4598 53.1001C62.4598 53.0201 62.4798 52.9301 62.4998 52.8401C62.7298 52.3301 62.8898 51.7801 62.7398 51.1301C62.7398 51.0201 62.7298 50.9101 62.7298 50.8001C62.7298 50.0401 62.9898 49.3501 64.1598 48.9601C63.1598 47.9601 61.1598 49.9601 59.9298 47.6601C60.0098 47.5701 60.1398 47.5001 60.2998 47.4601C60.4598 47.4201 60.6598 47.3901 60.8998 47.3901H66.4898C66.9398 47.3901 67.2598 47.4801 67.4598 47.6601C67.6098 47.7801 67.6998 47.9401 67.7298 48.1301C67.7398 48.1901 67.7498 48.2601 67.7498 48.3301C68.1698 49.9601 66.1698 47.9601 65.3898 49.3001C65.1498 49.2901 64.9498 49.2801 64.7498 49.2801H63.9498V49.7401C63.9498 49.8101 63.9498 49.8901 63.9298 49.9801C63.2198 50.1701 62.8198 50.3901 62.6398 50.6301C62.5798 50.7101 62.5398 50.7901 62.5198 50.8801C62.1598 50.9801 63.1598 51.9801 63.2798 52.1901C63.3698 52.2801 63.4698 52.3601 63.6398 52.4601C61.1598 53.9801 70.1598 51.9801 64.0298 54.9601C63.9398 55.1201 63.9398 55.3101 63.9398 55.4901C63.9398 55.5701 63.9498 55.6601 63.9698 55.7401C64.1498 56.9801 64.1498 57.9801 65.5198 59.0901H67.4198C67.4998 59.0901 67.5798 59.0901 67.6498 59.0901C67.9831 59.0167 68.5698 59.0167 69.4098 59.0901C69.4998 59.0901 69.5898 59.0901 69.6698 59.0901H74.8698C74.1498 56.9801 78.1498 57.9801 76.6598 56.2101C76.6298 56.1301 76.5998 56.0601 76.5698 55.9801C76.5398 55.9001 76.4998 55.8201 76.4498 55.7501C78.1498 54.9901 76.1498 53.9901 75.7798 52.9001C75.7498 52.8401 75.7198 52.7801 75.6998 52.7201C75.0898 50.9401 77.3098 50.6601 78.1398 48.9901C77.1398 48.9901 76.1398 48.9901 75.3198 49.3001C75.0398 49.3001 74.8598 49.3001 74.7298 49.3001C74.5998 49.3001 74.4898 49.3001 74.4298 49.3001C74.1298 48.9801 73.1298 47.9801 72.9698 47.6801C73.0298 47.5901 73.1598 47.5201 73.3298 47.4801C73.4998 47.4401 73.6898 47.4101 73.9298 47.4101H79.5198C79.9798 47.4101 80.3098 47.5001 80.5098 47.6801C80.6998 47.8401 80.7998 48.0701 80.7998 48.3501C80.7998 48.4901 80.7898 48.6201 80.7998 48.7401C80.1498 49.9801 78.1498 47.9801 78.3698 50.1601C78.3698 50.2501 78.3698 50.3501 78.3698 50.4501V50.7801C77.7698 51.3801 77.9598 51.9201 78.3098 52.4501C78.3698 52.5401 78.4298 52.6201 78.4898 52.7101C80.1498 52.9701 78.1498 53.9701 79.3098 55.3701C79.3698 55.4701 79.3998 55.5601 79.4098 55.6501C79.4798 56.4701 77.4498 57.2001 78.3098 57.8801C78.3298 57.9501 78.3498 58.0301 78.3598 58.1101V63.2401C78.2198 63.7334 78.2198 64.4234 78.3598 65.3101C78.3598 65.3901 78.3598 65.4701 78.3598 65.5601V66.2901C78.3598 66.3701 78.3598 66.4501 78.3598 66.5301C76.3398 67.8701 77.0098 67.9801 77.9798 68.9601C78.0598 69.0501 78.1498 69.1501 78.2298 69.2501C78.1598 69.9801 78.1598 70.9801 78.1598 71.9801C79.1598 72.9801 81.1598 71.9801 83.1598 71.9801C82.4931 71.9801 82.0265 72.1667 81.7598 72.5401C81.7598 72.6001 81.7598 72.6701 81.7598 72.7401C81.7598 72.9401 81.7098 73.1201 81.5998 73.2701C81.5598 73.3201 81.5198 73.3701 81.4698 73.4101C81.4198 73.4501 81.3598 73.4901 81.2998 73.5301C81.2398 73.5601 81.1598 73.5901 81.0798 73.6101C80.9198 73.6501 80.7298 73.6801 80.4998 73.6801H73.9398C73.4898 73.6801 73.1698 73.5901 72.9698 73.4101C72.7798 73.2301 72.6798 73.0101 72.6798 72.7401C72.6798 72.6701 72.6798 72.6001 72.6998 72.5301C74.1498 69.9701 76.1498 72.9701 78.1498 71.9701C77.1498 70.9701 79.1498 69.9701 77.2698 69.5001C77.2698 69.4001 77.2698 69.3201 77.2298 69.2301C76.8898 68.3901 74.8098 67.6701 76.4498 66.9201C76.4498 66.8301 76.4498 66.7401 76.4498 66.6501V65.0401C76.6598 64.9901 76.7098 64.9101 76.7798 64.8301C76.1498 63.9701 78.1498 62.9701 76.6198 62.8901C76.5798 62.8101 76.5498 62.7401 76.4498 62.6501V60.9601L76.4398 60.9801ZM91.5398 61.0101V69.9201C91.5398 70.2001 91.6398 70.4601 92.2898 70.6901C93.1398 70.9901 94.1398 70.9901 95.1398 71.9901C94.4731 71.9901 93.7798 71.9301 93.0598 71.8101C93.1198 71.8101 93.2598 71.8101 93.3998 71.8101H95.1198C95.1398 71.9901 96.1398 71.9901 96.3598 71.8101H97.7498C100.13 71.9901 101.13 71.9901 103.13 71.9901C102.463 71.9901 101.736 71.9601 100.95 71.9001C100.95 71.9001 100.99 71.8901 101.07 71.8701C101.21 71.8501 101.36 71.8401 101.53 71.8201C101.57 71.8201 101.63 71.8101 101.69 71.8001H102.37C102.876 71.9201 103.593 71.9201 104.52 71.8001C104.57 71.8201 104.63 71.8301 104.7 71.8401C104.77 71.8501 104.85 71.8601 104.97 71.8801C106.13 71.9801 108.13 71.9801 109.13 71.9801C109.13 71.9801 108.13 71.9801 107.71 71.9801C107.67 71.9801 107.76 71.9801 107.86 71.9801C107.96 71.9801 108.05 71.9801 108.13 71.9801C107.93 71.7801 107.78 71.6201 107.89 71.5001C108.13 69.9801 107.13 69.9801 106.07 70.0401C106.04 69.9601 106.04 69.8701 106.04 69.7901V66.2301C105.14 66.9801 105.14 63.9801 104.14 64.9801C106.14 64.9801 109.14 64.9801 111.14 65.9801C112.14 67.9801 108.14 64.9801 107.93 67.8001V73.6901H105.01C104.66 73.7101 104.55 73.7101 104.43 73.7201C103.14 73.9901 102.14 73.9901 101.14 73.9901C101.14 73.9901 102.14 73.9901 102.21 73.7001H94.5898C94.4198 73.7001 94.2598 73.7101 94.0198 73.7301C92.1398 74.0001 90.1398 74.0001 88.1398 74.0001C89.1398 74.0001 90.1398 74.0001 91.4298 73.7101H87.1098C86.8898 73.7101 86.6898 73.6901 86.5298 73.6401C86.3698 73.5901 86.2498 73.5301 86.2198 73.4301C87.1398 74.0001 88.1398 71.0001 89.1398 72.0001C88.4731 72.0001 87.9565 71.9367 87.5898 71.8101C87.5898 71.8101 87.7398 71.8101 87.8598 71.8101H88.1598C89.1398 71.9901 90.1398 71.9901 89.8098 70.5201C89.9698 70.4501 90.0998 70.4001 90.2298 70.3501C90.7398 70.0001 91.4398 70.0001 92.1398 70.0001C91.2098 69.0701 89.4198 69.0101 88.3698 68.2001C88.2898 68.1401 88.2098 68.0701 88.1398 68.0001C89.1398 66.0001 92.1398 68.0001 92.1398 65.0001C92.1398 64.0001 90.1398 66.0001 89.6498 63.7401V61.6501C89.1398 62.0001 89.1398 61.0001 89.4798 59.6001C89.5098 59.5301 89.5398 59.4601 89.6498 59.3601V58.1401C89.6498 58.0501 89.6498 57.9601 89.6298 57.8701C88.1498 57.0001 90.1498 56.0001 89.6498 54.8301V51.5801C89.6498 51.3001 89.6498 51.0401 89.7098 50.8101C89.5398 50.5701 89.6898 50.4001 89.9598 50.2501C90.0498 50.2001 90.1498 50.1601 90.2598 50.1101C96.1498 50.0001 101.15 49.0001 90.2798 48.9901C90.1598 49.0001 90.0598 49.0101 89.9698 49.0101C89.4098 49.0401 88.8998 49.1201 88.5298 49.3201C88.2398 49.3101 88.0698 49.3101 87.9298 49.3101C87.7898 49.3101 87.6898 49.3101 87.6298 49.3101C87.3098 48.4301 86.8265 47.8901 86.1798 47.6901C86.2398 47.6001 86.3698 47.5301 86.5298 47.4901C86.6898 47.4501 86.8798 47.4201 87.1098 47.4201H91.7698C91.8498 47.4201 91.9298 47.4201 92.0098 47.4201C92.7631 47.1334 93.5265 47.1334 94.2998 47.4201H95.3698C95.1398 46.9901 96.1398 46.9901 96.4698 47.4201H106.94V48.4301C106.91 48.5501 106.89 48.6801 106.83 48.8101C105.14 49.9901 108.14 49.9901 106.88 50.6601C106.91 50.8301 106.92 50.9901 106.93 51.1501V53.9101C106.93 54.1301 106.91 54.3301 106.75 54.5101C106.336 54.8301 105.953 55.0234 105.6 55.0901C105.48 55.0401 105.38 54.9701 105.29 54.8701C105.12 54.6801 105.04 54.3501 105.04 53.9001V51.1101C100.13 47.9801 96.1298 47.9801 91.5398 50.6501C91.5398 50.7101 91.5298 50.7801 91.5198 50.8401V54.7301C91.5598 54.8201 91.5798 54.9001 91.5998 54.9901C91.2198 55.7801 91.1398 56.5801 91.3298 57.3701C91.3798 57.5701 91.4398 57.7601 91.4998 57.9601C91.1198 58.9901 91.1198 59.9901 90.1198 59.9901C92.1198 60.9901 93.1198 58.9901 93.8898 59.1201H95.8898C96.1198 58.9901 97.1198 58.9901 97.5298 59.1201C97.6498 59.1201 97.7598 59.1201 97.8598 59.1201H98.2698V58.2501C98.1198 57.9901 98.1198 56.9901 97.6298 56.8001C97.5798 56.5801 97.4898 56.3801 97.4398 56.2101C97.2798 55.6901 97.4598 55.3901 98.7998 55.7801C98.9498 55.7501 99.0898 55.7201 99.2298 55.7201C99.4998 55.7201 99.7198 55.8201 99.8998 56.0101C99.9898 56.1101 100.06 56.2401 100.1 56.4001C100.14 56.5601 100.17 56.7501 100.17 57.1901C100.17 57.2601 100.17 57.3401 100.17 57.4301V63.1301C100.17 63.5801 100.08 63.9001 99.8998 64.1001C99.7198 64.2901 99.4998 64.3901 99.2298 64.3901C98.9498 64.3901 98.7098 64.2901 98.5298 64.1001C98.3498 63.9101 98.2598 63.5801 98.2598 63.1301V61.0001H91.4998L91.5398 61.0101ZM133.2 71.8101H134.18C134.27 71.8601 134.35 71.8801 134.43 71.9001C134.5 72.0101 134.58 72.1101 134.65 72.1901C135.14 71.9901 135.14 72.9901 135.4 72.6801C135.5 72.7101 135.59 72.7201 135.67 72.7301C135.75 72.7401 135.83 72.7401 135.89 72.7401C136.723 72.9001 137.143 73.1501 137.15 73.4901C137.15 73.6001 137.15 73.7101 137.15 73.8201C137.15 74.7901 137.17 75.6001 137.2 76.7201V78.6101C137.2 79.6101 136.89 80.1101 136.28 80.1101C135.64 80.1101 135.31 79.6301 135.31 78.6701V75.2601C135.14 73.9801 135.14 70.9801 132.71 73.6801H130.5C130.43 73.6801 130.36 73.6801 130.3 73.6801C129.14 70.9801 128.14 74.9801 127.23 73.8601C127.11 73.8601 127 73.8801 126.88 73.8801C125.82 73.9301 124.72 73.8701 123.95 73.6801C123.84 73.6801 123.75 73.6801 123.66 73.6801C123.57 73.6801 123.48 73.6801 123.4 73.6801C122.14 73.9701 121.14 73.9701 120.53 73.6801C120.42 73.6801 120.33 73.6801 120.25 73.6801H116.18C116.21 73.6201 116.2 73.5801 116.24 73.5201C116.18 73.1534 116.483 72.9701 117.15 72.9701C116.9 72.9701 116.59 72.9701 116.25 72.9701C116.14 72.9701 116.02 72.9701 115.9 72.9701C115.15 71.9801 113.15 73.9801 113.15 71.9801C114.15 70.9801 116.15 71.9801 117.15 71.9801C122.15 69.9801 117.15 71.9801 116.82 71.6601C116.24 71.7801 116.37 71.8001 116.57 71.8001H116.9V64.8101C116.9 64.7301 116.9 64.6401 116.9 64.5501C117.15 64.9801 117.15 63.9801 116.89 63.5101C116.9 63.4201 116.9 63.3301 116.9 63.2401V55.2901C115.15 53.9801 116.15 53.9801 116.9 52.8101C116.9 52.7401 116.9 52.6701 116.9 52.6101V50.8601C117.15 48.9801 113.15 49.9801 113.43 48.3501C113.43 48.2501 113.48 48.1501 113.54 48.0601C113.66 47.6201 114.06 47.4001 114.76 47.4001H121.32C122.16 47.4001 122.58 47.7101 122.58 48.3401C122.58 48.4401 122.58 48.5401 122.57 48.6301C122.15 48.9701 123.15 48.9701 123.15 48.9701H118.15C121.15 48.9701 117.15 50.9701 118.7 50.5501C118.74 50.6301 118.76 50.7101 118.78 50.8001V52.3201C118.78 52.4301 118.78 52.5501 118.76 52.6801C119.14 52.9801 119.14 53.9801 118.78 54.0201V62.3801C118.78 62.4601 118.78 62.5401 118.82 62.6201C121.14 63.9901 120.14 63.9901 118.79 65.4001C118.78 65.4701 118.78 65.5501 118.78 65.6201V68.6101C118.78 68.7301 118.72 68.8401 118.51 68.9601C117.15 68.9801 115.15 69.9801 115.15 70.9801C116.15 71.9801 118.15 69.9801 119.41 71.5801C119.5 71.6401 119.57 71.7001 119.66 71.7401C119.84 71.8201 120.07 71.8501 120.37 71.8001H120.75C120.87 71.8001 120.99 71.8001 121.02 71.8001C120.16 71.9801 118.16 71.9801 117.16 71.9801C119.16 71.9801 122.16 71.9801 124.13 71.8001H129.33C129.43 71.8001 129.53 71.8001 129.49 71.9801C129.4 71.9801 129.29 71.9801 129.16 71.9801C129.26 71.8801 129.36 71.7901 129.46 71.7101C130.16 71.9801 131.16 69.9801 132.07 71.0601C132.21 71.0201 132.33 71.0101 132.46 70.9801C133.36 70.9801 134.26 70.8801 135.16 69.9801C134.16 69.9801 133.16 67.9801 131.33 68.6801V66.5801C131.33 66.4801 131.33 66.3801 131.33 66.2801C132.15 63.9801 130.15 63.9801 130.45 63.4501C130.45 63.3701 130.45 63.2901 130.47 63.2001C130.55 62.7901 130.84 62.3501 131.32 61.9001V57.5901C131.32 57.5301 131.32 57.4701 131.32 57.4001C133.14 55.9701 132.14 55.9701 131.31 54.5501C131.31 54.4401 131.31 54.3301 131.31 54.2201V52.4001C131.31 52.3301 131.31 52.2701 131.29 52.2101C131.13 47.9701 130.13 49.9701 127.51 48.3401C127.51 48.2401 127.51 48.1401 127.54 48.0501C127.66 47.6101 128.06 47.3901 128.76 47.3901H135.3C136.15 47.3901 136.58 47.7001 136.58 48.3301C136.58 48.9601 136.15 49.2701 135.3 49.2701H134.97C134.87 49.2701 134.76 49.2701 134.63 49.2701C134.13 49.9501 132.13 49.9501 131.13 49.9501C130.13 51.9501 134.13 49.9501 133.18 51.8101C133.18 51.9301 133.18 52.0601 133.18 52.1801V54.5001C136.12 55.9401 132.12 56.9401 133.18 57.5601V61.5901C133.18 61.6801 133.18 61.7701 133.16 61.8601C132.85 62.1801 132.63 62.5001 132.5 62.8001C132.46 62.9001 132.43 63.0001 132.41 63.0901C133.11 63.9301 134.11 64.9301 133.17 66.0501V67.8201C133.17 67.8901 133.16 67.9601 133.1 68.0401C132.12 67.9401 131.12 68.9401 131.12 69.9401H135.12C133.5 69.9401 131.87 69.2801 130.78 70.1101C130.7 70.1701 130.62 70.2501 130.54 70.3301C130.12 72.9501 131.12 71.9501 131.92 70.8801C132.01 70.8201 132.1 70.7701 132.18 70.7301C132.71 70.5101 133.15 70.5401 133.16 71.5001C133.17 71.5901 133.17 71.6501 133.17 71.7001V71.7701L133.2 71.8101ZM190.79 73.7001H184.82C184.53 73.7001 184.22 73.6901 183.83 73.7001C183.44 73.7101 183.09 73.7001 182.73 73.7001H174.98C174.91 73.7001 174.84 73.7001 174.78 73.7001C174.36 73.8934 173.966 73.8934 173.6 73.7001H171.96C171.89 73.7001 171.82 73.7201 171.79 73.7301C171.15 75.9901 169.15 74.9901 168.15 75.9901C167.15 77.9901 171.15 75.9901 170.31 77.8801V78.6601C170.31 79.6301 169.99 80.1201 169.34 80.1201C168.69 80.1201 168.42 79.6101 168.42 78.5901V75.0101C170.14 74.9901 169.14 72.9901 168.95 71.8701C169.02 71.8401 169.1 71.8201 169.19 71.8001C169.28 71.7801 169.37 71.7701 169.48 71.7601C170.5 71.7001 171.55 71.2001 172.65 70.2601C173.76 69.3201 174.54 68.1701 174.99 66.8201C175.14 66.3701 175.27 65.8501 175.38 65.2501C175.41 65.0501 175.45 64.8401 175.47 64.6301C174.15 63.9801 179.15 63.9801 175.68 61.6601C175.68 61.3801 175.68 61.0901 175.68 60.8001V53.9801C175.68 53.8001 175.68 53.6301 175.7 53.4501C176.15 52.9901 176.15 51.9901 175.73 51.9601C175.68 51.8101 175.68 51.6601 175.68 51.5201V49.8001C176.15 49.9901 175.15 48.9901 175.19 49.3401C175.11 49.3301 174.99 49.3201 174.85 49.3101C174.71 49.3001 174.54 49.3101 174.11 49.3401C173.15 49.9901 171.15 49.9901 169.15 49.9901C170.15 49.9901 171.15 49.9901 171.62 48.7701C171.55 48.6501 171.52 48.5101 171.52 48.3601C171.52 47.7301 172.04 47.4201 173.09 47.4201H174.32C174.42 47.4201 174.52 47.4201 174.62 47.4201C178.14 48.9901 183.14 46.9901 187.64 47.4201H191.08C192.14 47.4201 192.68 47.7301 192.68 48.3601C192.68 48.6701 192.55 48.9101 192.28 49.0701C192.15 49.1501 191.98 49.2101 191.78 49.2501C190.14 49.0001 187.14 49.0001 186.14 51.0001C185.14 53.0001 187.14 52.0001 188.44 51.7101C189.03 51.7701 189.12 51.9901 189.12 52.2401V60.0201C189.12 60.2601 189.14 60.4501 189.21 60.5801C189.14 60.9901 189.14 61.9901 188.98 61.9501C189.05 62.1101 189.08 62.2701 189.1 62.4301C189.12 62.5901 189.12 62.7501 189.12 62.9101V71.8201H191.07C191.74 71.8201 192.18 71.8901 192.37 72.0401C192.56 72.1701 192.66 72.6201 192.66 73.3701V76.9501C194.13 78.0001 194.13 79.0001 192.14 80.0401C192.08 80.0701 192.02 80.1001 191.95 80.1101C191.88 80.1301 191.81 80.1301 191.73 80.1301C191.65 80.1301 191.57 80.1301 191.5 80.1101C191.43 80.0901 191.37 80.0701 191.3 80.0401C191.11 79.0001 191.11 78.0001 190.76 77.1001V73.7101L190.79 73.7001ZM177.56 49.3001V51.1001C177.14 51.9901 181.14 51.9901 177.73 53.9501C177.56 54.3301 177.56 54.6901 177.56 55.0501V60.4101C177.56 60.5401 177.56 60.6301 177.53 60.7001C176.14 60.9901 175.14 61.9901 175.14 62.9901H179.14C178.14 62.9901 177.14 62.9901 177.38 63.9401C177.38 64.0801 177.36 64.2101 177.34 64.3501C176.88 67.8801 175.67 70.3601 173.71 71.8001H187.21V64.2901C187.21 64.1201 187.21 63.9401 187.29 63.7701C187.13 61.9801 190.13 63.9801 190.13 61.9801C189.13 61.9801 188.13 61.9801 187.23 60.8101C187.21 60.7201 187.21 60.6301 187.21 60.5401V60.0001C188.13 59.9801 188.13 58.9801 187.97 57.7501C187.41 57.4701 187.21 57.1401 187.21 56.8001V49.2901H177.55L177.56 49.3001ZM218.99 60.6801C219.24 60.7801 219.41 60.8801 219.62 60.9801C221.14 61.0001 219.14 62.0001 219.92 62.6401C219.63 62.8701 219.54 63.0901 219.51 63.3101C219.27 64.8301 218.83 66.2701 218.18 67.6401C217.16 69.7801 215.75 71.4501 213.96 72.6501C212.18 73.8501 210.26 74.4501 208.21 74.4501C205.17 74.4501 202.49 73.1601 200.17 70.5901C197.9 68.0401 196.75 64.7901 196.71 60.8401C196.71 60.7701 196.72 60.7001 196.73 60.6401C197.13 61.0101 197.13 60.0101 196.73 59.8401C196.73 59.7701 196.73 59.7101 196.73 59.6401C196.91 56.0301 198.05 53.0501 200.16 50.6901C200.87 49.9001 201.62 49.2301 202.4 48.6801C202.5 48.6101 202.59 48.5501 202.6 48.5001C204.12 48.0101 207.12 46.0101 209.19 46.8801C209.32 46.8801 209.43 46.9001 209.54 46.9101C211.09 47.1201 212.56 47.6901 213.94 48.6201C215.72 49.8201 217.12 51.4901 218.14 53.6301C218.23 53.8201 218.32 54.0201 218.41 54.2201C218.45 54.3201 218.49 54.4201 218.53 54.5201C218.96 54.8901 219.07 54.9801 219.12 55.5701C219.13 55.7701 219.24 56.0101 219.55 56.3101C222.11 58.0001 215.11 57.0001 218.15 59.0501C218.07 59.1101 217.96 59.1601 217.88 59.2201C216.6 60.0301 219.88 60.1101 218.71 60.6001C218.79 60.6301 218.87 60.6701 218.96 60.7001L218.99 60.6801ZM217.81 60.6201C217.81 59.7901 217.75 58.9901 217.62 58.2101C217.73 58.0801 217.8 57.9601 217.93 57.8401C218.15 56.9901 218.15 55.9901 217.42 56.2301C216.95 56.0101 216.87 55.7601 216.85 55.5401C216.78 54.6301 217.74 53.9601 216.09 53.8101C216.01 53.7101 215.96 53.6101 215.9 53.5201C215.67 53.1301 215.41 52.7501 215.14 52.3701C213.36 49.9301 211.05 48.7101 208.22 48.7101C208 48.7101 207.78 48.7101 207.57 48.7301C207.46 48.7301 207.36 48.7501 207.29 48.7501C207.15 49.0001 206.15 49.0001 206.02 49.0001C205.91 49.0301 205.81 49.0601 205.71 49.0901C204.11 49.6101 202.68 50.6501 201.43 52.2001C200.64 53.1801 200.01 54.2501 199.56 55.4101C199.52 55.5201 199.48 55.6201 199.55 55.7101C200.17 55.9901 201.17 55.9901 201.17 55.9901C201.17 56.9901 201.17 57.9901 198.78 58.4201C198.76 58.5401 198.75 58.6601 198.73 58.7801C198.72 58.8801 198.71 58.9801 198.7 59.0801C198.16 58.9901 196.16 59.9901 195.16 60.9901C197.16 60.9901 198.16 61.9901 198.8 62.9501C198.8 63.0701 198.82 63.2001 198.84 63.3201C199.23 65.6301 200.14 67.6001 201.57 69.2301C201.93 69.6301 202.3 70.0001 202.67 70.3301C202.86 70.4901 203.05 70.6501 203.61 70.7401C205.16 70.9901 207.16 70.9901 209.16 70.9901C208.16 71.9901 207.16 71.9901 205.96 72.0601C205.85 72.1801 206.06 72.2401 206.27 72.3001C206.91 72.4601 207.56 72.5501 208.24 72.5501C209.89 72.5501 211.36 72.1401 212.66 71.3101C212.75 71.2501 212.84 71.1901 212.93 71.1301C215.16 70.9901 216.16 68.9901 218.16 68.9901C217.16 68.9901 216.16 68.9901 215.23 69.1301C215.06 69.1001 215.09 69.0201 215.16 68.9201C216.94 66.4801 217.83 63.7201 217.83 60.6301L217.81 60.6201ZM245.39 49.2401C244.33 49.2401 243.5 49.4601 242.9 49.9101C242.37 50.3001 241.55 51.4401 240.43 53.3001C240.39 53.3601 240.35 53.4301 240.31 53.5001C239.14 54.9901 241.14 55.9901 238.9 56.0801C238.81 56.1401 238.73 56.1901 238.66 56.2401C237.98 56.7001 237.18 56.8101 237.24 58.2701C237.19 58.3401 237.13 58.4201 237.07 58.4801C236.67 58.9601 236.35 59.2501 236.11 59.3601C236.58 59.5501 237.04 59.8101 237.49 60.1501C237.57 60.2101 237.64 60.2601 237.71 60.3201C238.13 59.9801 238.13 60.9801 238.59 61.1401C238.66 61.2201 238.73 61.3001 238.81 61.3801C239.37 62.0101 239.91 62.7601 240.43 63.6301C240.49 63.7301 240.55 63.8301 240.62 63.9401C242.34 63.9701 241.94 65.4001 242.08 66.7101C242.09 66.8301 242.11 66.9501 242.13 67.0601C241.12 67.9801 243.12 68.9801 243.51 69.6901C243.57 69.7701 243.62 69.8301 243.67 69.9001L244.63 71.8001H247.42C248.47 71.8001 248.99 72.1101 248.99 72.7401C248.99 73.3701 248.47 73.6801 247.42 73.6801H244.7C244.1 73.6801 243.73 73.6401 243.58 73.5501C243.43 73.4601 243.21 73.1501 242.93 72.6101L241.09 69.0101C241.06 68.9501 241.02 68.8901 240.96 68.8401C239.733 68.9334 239.213 68.3034 239.4 66.9501C239.49 66.7501 239.52 66.5901 239.59 66.4001C239.07 65.4701 238.93 64.7101 238.35 63.9301C238.29 63.9001 238.24 63.8701 238.19 63.8301C237.83 63.6701 237.58 63.4901 237.86 63.1901C237.79 63.1001 237.74 63.0101 237.81 62.9301C238.13 62.9801 239.13 61.9801 239.13 61.9801C238.13 61.9801 237.13 61.9801 235.75 61.3001C235.65 61.2601 235.57 61.2201 235.48 61.1801C234.79 60.8701 233.98 60.6701 233.07 60.5901C232.96 60.5801 232.84 60.5701 232.72 60.5601C232.326 60.8334 231.75 60.8267 230.99 60.5401H230.56V60.6701C230.56 60.7501 230.57 60.8701 230.65 61.0301C231.14 60.9801 231.14 61.9801 230.71 62.3001C230.58 62.5601 230.56 62.8501 230.56 63.1501V71.7901H231.58C232.13 71.9701 233.13 71.9701 234.5 72.3201C234.57 72.4401 234.6 72.5801 234.6 72.7301C234.6 73.3601 234.07 73.6701 233 73.6701H226.24C225.19 73.6701 224.67 73.3601 224.67 72.7301C224.67 72.1001 225.19 71.7901 226.24 71.7901H228.64V68.0701C230.12 66.9701 230.12 65.9701 228.93 65.2501C228.64 64.9701 228.64 64.6301 228.64 64.2801V60.1601C228.62 60.0801 228.61 60.0001 228.58 59.9201C228.18 59.0901 228.13 58.9801 228.44 58.3001C228.48 58.2001 228.54 58.0901 228.6 57.9701C227.12 56.9701 233.12 57.9701 229.06 54.8501C229.03 54.7501 229.02 54.6501 229 54.5601C229 54.0601 228.88 53.6501 228.64 53.3201V49.2801H226.24C225.19 49.2801 224.67 48.9701 224.67 48.3401C224.67 47.7101 225.19 47.4001 226.24 47.4001H233C234.06 47.4001 234.6 47.7101 234.6 48.3401C234.6 48.9701 234.07 49.2801 233 49.2801H230.55V53.4001C230.55 53.4901 230.55 53.5801 230.55 53.6701C231.69 54.6901 231.53 55.4501 231.01 56.1601C230.94 56.2501 230.87 56.3401 230.75 56.4301C230.12 56.9601 229.12 56.9601 228.12 56.9601C227.12 57.9601 230.12 57.9601 229.07 58.6401C229.12 58.7401 229.12 58.8501 229.12 58.9601C229.19 58.8901 229.25 58.8301 229.27 58.8001C229.836 58.9067 230.333 58.9134 230.76 58.8201C230.93 58.8401 231.05 58.8701 231.16 58.9001C231.95 59.0901 232.78 59.2101 233.43 58.4501C233.55 58.4301 233.66 58.4001 233.77 58.3701C233.336 58.0967 232.786 57.9601 232.12 57.9601C233.12 55.9601 235.12 56.9601 236.06 56.5401C236.12 56.4601 236.17 56.3901 236.23 56.3001C236.38 56.1001 236.53 55.8701 236.69 55.6301C236.74 55.5801 236.79 55.5301 236.86 55.4701C236.96 55.2601 237.34 54.9801 237.7 54.6701C237.88 54.5201 238.05 54.3601 238.41 53.7501C238.41 53.6101 238.34 53.4701 238.15 53.3501C238.17 53.2801 238.2 53.2201 238.24 53.1501C238.28 53.0801 238.32 53.0101 238.36 52.9401C239.75 50.5901 240.84 49.0701 241.62 48.3801C242.41 47.6901 243.69 47.3501 245.46 47.3501C246.31 47.3501 246.83 47.4501 247.01 47.6401C247.19 47.8301 247.28 48.2701 247.28 48.9401V51.4301C247.28 51.8201 247.24 52.1301 247.15 52.3701C247.12 52.4501 247.09 52.5201 247.05 52.5901C247.09 52.7601 246.86 52.8501 246.64 52.9001C246.42 52.9501 246.23 52.9601 246.11 52.9601C245.95 52.9201 245.81 52.8501 245.7 52.7301C245.48 52.4901 245.37 52.0901 245.37 51.5201V49.1801L245.39 49.2401ZM255.7 49.3001L257.02 51.7301C257.04 51.8501 257.06 51.9601 257.05 52.0901C254.14 56.9901 263.14 53.9901 260.66 58.4001C260.74 58.4701 260.83 58.5401 260.92 58.6101C261.73 59.2001 262.67 59.5701 261.83 60.6101L261.94 60.8101L262.91 62.6001C262.98 62.7301 263.05 62.8501 263.08 62.9701C265.13 63.9801 265.13 62.9801 264.92 62.2501L265.13 61.8701L265.82 60.6001C265.87 60.5301 265.91 60.4601 265.96 60.3901C265.13 58.9801 268.13 58.9801 267.26 57.9501L267.39 57.7201L268.1 56.4201L268.22 56.2001C268.84 56.0534 269.11 55.5534 269.03 54.7001L269.14 54.4901L269.25 54.2801C269.29 54.2101 269.32 54.1401 269.34 54.0801C270.13 52.9801 268.13 51.9801 270.44 51.8301C270.53 51.7701 270.58 51.7101 270.67 51.6601L271.95 49.2901H270.22C269.16 49.2901 268.62 48.9801 268.62 48.3501C268.62 47.7201 269.15 47.4101 270.22 47.4101H275.25C276.3 47.4101 276.82 47.7201 276.82 48.3501C276.82 48.9801 276.3 49.2901 275.25 49.2901H274.13L272.36 52.5301C272.1 52.5901 272.01 52.6601 271.85 52.7201C271.12 53.9701 269.12 51.9701 269.12 53.9701C269.12 54.9701 271.12 52.9701 271.19 54.8001C271.12 54.8801 271.05 54.9601 270.99 55.0301L269.29 58.1401L269.16 58.3801C270.13 58.9601 268.13 59.9601 267.84 60.7901L267.71 61.0301L267.31 61.7701L267.18 62.0101C267.13 63.9601 265.13 62.9601 265.37 65.2501C265.35 65.3201 265.33 65.3901 265.3 65.4501L264.96 66.0601L264.85 66.2601C265.12 66.9501 265.12 67.9501 266.12 67.9501C265.12 66.9501 264.12 68.9501 263.59 68.7101C263.48 68.7901 263.42 68.8601 263.38 68.9401L262.86 69.8901C262.1 71.3101 261.27 72.4301 260.39 73.2401C259.51 74.0301 258.38 74.4301 257.02 74.4301C256.27 74.4301 255.55 74.3401 254.84 74.1601C254.14 73.9801 253.72 73.7801 253.58 73.5501C253.45 73.3301 253.38 72.9101 253.38 72.3101V69.5901C253.38 69.4601 253.38 69.3401 253.39 69.2301C253.42 69.1401 253.44 69.0601 253.49 68.9901C254.11 69.9501 255.11 67.9501 256.11 67.9501C257.11 68.9501 255.11 69.9501 255.31 70.8101C255.29 70.8901 255.28 70.9701 255.27 71.0401V72.2001C256.03 72.4101 256.68 72.5101 257.2 72.5101C258.04 72.5101 258.73 72.2601 259.27 71.7701C259.82 71.2601 260.46 70.3401 261.18 69.0101L261.22 68.9301C261.3 68.8901 261.39 68.8201 261.51 68.7401C262.11 68.9501 263.11 67.9501 263.11 66.9501C263.11 66.9501 262.11 66.9501 262.6 66.6001C262.57 66.4201 262.63 66.3101 262.63 66.3101L262.38 65.8601C262.34 65.8001 262.31 65.7401 262.26 65.6701C263.1 64.9501 260.1 64.9501 261.15 63.5901C261.12 63.5301 261.08 63.4601 261.05 63.4001L259.52 60.5801L259.4 60.3501C260.11 58.9401 257.11 58.9401 258.26 58.2501C258.22 58.1701 258.17 58.0901 258.13 58.0101C258.09 57.9301 258.05 57.8501 258.02 57.7801C259.1 55.9301 256.1 55.9301 255.69 53.5301C255.66 53.4601 255.62 53.3901 255.58 53.3301L253.36 49.2501H252.15C251.1 49.2501 250.58 48.9401 250.58 48.3101C250.58 47.6801 251.1 47.3701 252.15 47.3701H257.38C258.43 47.3701 258.95 47.6801 258.95 48.3101C258.95 48.9401 258.43 49.2501 257.38 49.2501H255.65L255.7 49.3001ZM292.32 65.8101H290.16L289.16 63.5301C289.13 63.4601 289.1 63.4001 289.06 63.3301C287.14 62.9801 286.14 62.9801 287.91 60.6901L287.83 60.5201L287.6 60.0001C287.46 59.6801 287.32 59.3601 287.43 59.0101C287.903 58.3301 287.766 57.6567 287.02 56.9901C286.23 56.7301 286.02 56.4101 285.88 56.0801L285.05 54.1801C285.02 54.1001 284.98 54.0301 284.95 53.9501C284.14 52.9901 283.14 52.9901 282.14 52.9901C281.14 51.9901 284.14 50.9901 283.36 50.4401C283.36 50.3501 283.32 50.2601 283.29 50.1801L282.9 49.3001H282.54V50.7401C282.54 50.8301 282.54 50.9201 282.51 51.0301C281.14 52.9901 284.14 52.9901 282.65 54.3901C282.61 54.4701 282.58 54.5501 282.54 54.6301V61.3801C282.49 61.4801 282.45 61.5701 282.4 61.6601C282.226 62.5467 282.273 63.4301 282.54 64.3101V68.0901C282.54 68.1601 282.54 68.2301 282.57 68.3001C281.14 69.0001 286.14 69.0001 282.55 70.2501C282.54 70.3501 282.54 70.4401 282.54 70.5301V71.8201H286.02C286.47 71.8201 286.79 71.9101 286.99 72.0901C287.18 72.2501 287.28 72.4801 287.28 72.7601C287.28 73.0301 287.18 73.2501 286.99 73.4301C286.8 73.6101 286.47 73.7001 286.02 73.7001H279.06C278.61 73.7001 278.29 73.6101 278.09 73.4301C277.89 73.2501 277.8 73.0301 277.8 72.7601C277.8 72.4801 277.9 72.2501 278.09 72.0901C278.29 71.9101 278.61 71.8201 279.06 71.8201H280.66V70.5301C281.15 70.0001 281.15 69.0001 280.7 68.0901C280.67 68.0201 280.66 67.9501 280.66 67.8801V64.3101C279.15 63.0001 280.15 63.0001 280.66 61.6501V61.1101C280.66 60.7501 280.66 60.3801 281.03 59.9801C282.14 60.0001 284.14 60.0001 281.71 57.7501C280.9 57.4901 280.65 57.1701 280.65 56.8201V54.6601C282.14 54.0001 280.14 53.0001 280.62 51.5201C280.65 51.3901 280.65 51.2701 280.65 51.1601V49.3101H279.46C279.01 49.3101 278.69 49.2301 278.49 49.0601C278.3 48.8801 278.2 48.6501 278.2 48.3601C278.2 48.0701 278.3 47.8501 278.49 47.6901C278.69 47.5101 279.01 47.4201 279.46 47.4201H284.09L285.77 51.2401C285.8 51.3001 285.83 51.3601 285.87 51.4201C287.14 51.9901 285.14 52.9901 287.13 54.4501C287.19 54.5201 287.23 54.5901 287.28 54.6601L289.7 60.1601C289.73 60.2301 289.76 60.3001 289.78 60.3701C289.15 60.9901 289.15 62.9901 290.96 63.0301L291.04 63.2201L291.24 63.6801L291.52 63.0301C291.55 62.9601 291.58 62.8901 291.61 62.8101C292.14 61.9901 291.14 59.9901 292.89 59.7601C292.93 59.6901 292.97 59.6101 293.03 59.5301L294.82 55.3901L294.91 55.1801C294.14 52.9901 297.14 51.9901 297.18 49.9001C297.23 49.7901 297.28 49.6901 297.32 49.5901L298.26 47.4201H302.89C302.14 47.9901 307.14 47.9901 302.89 49.3101H301.72V53.9001C301.72 54.2001 301.72 54.5101 301.83 54.8101C302.036 55.6034 302.163 56.2467 302.21 56.7401C301.8 57.1501 301.72 57.5201 301.72 57.8701V67.6301C301.6 67.7601 301.51 67.8901 301.38 68.0201C301.13 69.0101 301.13 70.0101 301.72 70.5401V71.8301H303.29C303.75 71.8301 304.08 71.9201 304.28 72.1001C304.47 72.2601 304.57 72.4901 304.57 72.7701C304.57 73.0401 304.47 73.2601 304.28 73.4401C304.08 73.6201 303.76 73.7101 303.29 73.7101H296.35C295.9 73.7101 295.57 73.6201 295.36 73.4401C295.16 73.2601 295.07 73.0401 295.07 72.7701C295.07 72.4901 295.17 72.2601 295.36 72.1001C295.55 71.9201 295.88 71.8301 296.35 71.8301H299.83V71.0301C299.85 70.9601 299.88 70.8801 299.92 70.8001C301.13 70.0101 301.13 69.0101 299.84 67.6801C299.84 67.6101 299.83 67.5301 299.82 67.4601V56.3901C299.12 56.0101 298.12 55.0101 298.12 54.0101C298.12 54.0101 299.12 54.0101 299.44 53.7201C299.6 53.6301 299.69 53.5301 299.81 53.4301V49.3201H299.41L297.87 52.8901C297.83 52.9701 297.79 53.0401 297.75 53.1201C296.12 53.0101 298.12 55.0101 296.78 55.6001C296.7 55.6501 296.63 55.7101 296.56 55.7801C296.12 56.2501 296.09 57.0801 295.85 57.5801L295.64 58.0701L294.9 59.7801L294.8 60.0201C293.12 60.0101 295.12 61.0101 293.94 61.8601C293.92 61.9301 293.9 62.0001 293.92 62.0601L292.29 65.8401L292.32 65.8101ZM312.55 61.0101V67.2201C312.55 67.3101 312.55 67.4001 312.55 67.4901C311.14 68.0001 313.14 70.0001 312.6 70.6901C312.57 70.8101 312.56 70.9101 312.54 71.0101V71.8101H327.05V70.6401C327.07 70.5801 327.08 70.5101 327.11 70.4501C329.13 68.9901 326.13 67.9901 327.05 67.1101V66.7501C327.13 65.9901 328.13 64.9901 329.13 64.9901C329.13 64.9901 329.13 65.9901 328.87 65.6601C328.89 65.7401 328.91 65.8301 328.92 65.9301C328.93 66.0301 328.94 66.1301 328.94 66.2401V66.6201C328.92 66.7001 328.89 66.8001 328.84 66.9101C326.13 68.0001 330.13 69.0001 328.98 70.4701C328.94 70.5601 328.94 70.6401 328.94 70.7301V73.7001H308.12C307.67 73.7001 307.35 73.6101 307.16 73.4301C306.96 73.2501 306.87 73.0301 306.87 72.7601C306.87 72.4801 306.97 72.2501 307.16 72.0901C307.35 71.9101 307.68 71.8201 308.12 71.8201H310.66V70.9701C313.14 70.0001 308.14 69.0001 310.66 67.7801C310.66 67.7201 310.66 67.6501 310.66 67.5801V56.8101C310.66 56.4701 310.66 56.1301 310.94 55.7401C313.13 54.9901 310.13 53.9901 310.66 53.0301V50.8201C310.58 50.6801 310.52 50.5601 310.42 50.4401C308.14 49.0001 307.14 49.0001 305.14 49.0001C305.14 47.0001 307.14 48.0001 308.12 47.4301H327.95V48.5601C327.91 48.7001 327.87 48.8501 327.78 49.0101C324.13 51.0001 330.13 50.0001 328.81 51.7901C328.79 51.8801 328.75 51.9801 328.71 52.0701C328.58 52.3501 328.34 52.6301 328 52.9001C327.96 53.0201 327.95 53.1401 327.95 53.2401V53.9201C327.95 54.3701 327.86 54.6901 327.68 54.8901C327.51 55.0801 327.29 55.1801 327.01 55.1801C326.73 55.1801 326.49 55.0801 326.31 54.8901C326.14 54.7001 326.06 54.3701 326.06 53.9201V53.6601C326.06 53.5801 326.06 53.4801 326.08 53.3701C325.54 52.5801 326.93 52.2501 327.48 51.8501C327.55 51.8001 327.6 51.7501 327.64 51.7001C329.13 48.9901 323.13 52.9901 325.12 49.3001C325.04 49.3001 324.95 49.3001 324.85 49.3001H323.74C320.13 48.9901 315.13 47.9901 311.13 48.9901C311.13 48.9901 311.13 49.9901 312.38 50.4601C312.45 50.5801 312.5 50.7001 312.54 50.8301V53.1601C312.54 53.5001 312.54 53.8501 312.54 54.2001C312.54 54.5501 312.54 54.9001 312.54 55.2401V59.1001H319.3V56.9701C319.3 56.5201 319.39 56.2001 319.57 56.0001C319.75 55.8101 319.98 55.7101 320.27 55.7101C320.54 55.7101 320.76 55.8101 320.94 56.0001C321.12 56.1901 321.21 56.5201 321.21 56.9701V63.1201C321.21 63.5701 321.12 63.8901 320.94 64.0901C320.76 64.2801 320.54 64.3801 320.27 64.3801C319.98 64.3801 319.75 64.2801 319.57 64.0901C319.39 63.9001 319.3 63.5701 319.3 63.1201V60.9901H312.54L312.55 61.0101ZM352.71 60.9801H345.42C345.15 60.9801 344.15 60.9801 344.41 60.9801H341.78C341.14 61.9901 339.14 59.9901 338.14 61.9901C338.806 61.9901 339.33 62.0601 339.71 62.2001C339.81 62.2401 339.9 62.2801 340.19 62.2901V63.7901C340.13 63.9901 340.13 64.9901 340.19 64.7901C340.19 64.8801 340.19 64.9601 340.19 65.0501V65.9901C340.19 66.3001 340.19 66.6201 340.26 66.9301C340.173 67.6367 340.15 68.2467 340.19 68.7601V71.8101H342.73C343.18 71.8101 343.5 71.9001 343.7 72.0801C343.89 72.2401 343.99 72.4701 343.99 72.7501C343.99 73.0201 343.89 73.2401 343.7 73.4201C343.5 73.6001 343.18 73.6901 342.73 73.6901H336.17C335.72 73.6901 335.4 73.6001 335.2 73.4201C335.01 73.2401 334.91 73.0201 334.91 72.7501C334.91 72.4701 335.01 72.2401 335.2 72.0801C335.39 71.9001 335.72 71.8101 336.17 71.8101H338.3V71.1201C338.3 70.9001 338.3 70.6301 338.43 70.2601C338.896 69.4134 339.463 68.6567 340.13 67.9901H336.13C337.13 67.9901 337.13 65.9901 338.3 65.8101V56.0401C338.49 55.9601 338.54 55.8701 338.6 55.7901C340.13 54.9901 339.13 54.9901 338.57 53.8901C338.51 53.8201 338.47 53.7401 338.29 53.6701V49.3001H337.12C336.66 49.3001 336.33 49.2201 336.13 49.0501C335.93 48.8701 335.84 48.6401 335.84 48.3501C335.84 48.0601 335.94 47.8401 336.13 47.6801C336.32 47.5001 336.65 47.4101 337.12 47.4101H342.71C343.16 47.4101 343.48 47.5001 343.68 47.6801C343.87 47.8401 343.97 48.0701 343.97 48.3501C343.97 48.6301 343.87 48.8701 343.68 49.0501C343.48 49.2101 343.16 49.3001 342.71 49.3001H340.17V53.1501C340.11 53.9801 342.11 54.9801 341.11 55.9801C341.11 55.9801 340.11 55.9801 340.27 56.2301C340.22 56.3901 340.19 56.5501 340.16 56.7001V59.0801H343.17C343.23 59.0801 343.3 59.0801 343.35 59.0901C344.1 61.9701 345.1 56.9701 346.41 59.0801H348.95C348.86 59.1401 348.86 59.1701 348.81 59.2201C349.663 59.0534 350.35 59.0234 350.87 59.1301C350.98 59.1201 351.08 59.1101 351.26 59.0801H352.66V49.2901H350.15C349.7 49.2901 349.38 49.2101 349.18 49.0401C348.98 48.8601 348.89 48.6301 348.89 48.3401C348.89 48.0501 348.98 47.8301 349.16 47.6701C349.36 47.4901 349.68 47.4001 350.15 47.4001H355.74C356.2 47.4001 356.53 47.4901 356.73 47.6701C356.92 47.8301 357.02 48.0601 357.02 48.3401C357.02 48.6201 356.92 48.8601 356.73 49.0401C356.53 49.2001 356.21 49.2901 355.74 49.2901H354.57V52.8101C354.68 52.8701 354.71 52.9301 354.76 53.0001C355.29 53.0001 355.77 53.1501 356.16 53.4001C356.26 53.4601 356.35 53.5301 356.43 53.6101C360.1 56.9801 354.1 54.9801 355.12 55.5201C355.04 55.5801 354.97 55.6401 354.91 55.7101C354.47 56.1901 354.34 56.9101 354.58 57.8401V61.9001C354.58 61.9901 354.58 62.0801 354.58 62.1701C356.1 62.9801 355.1 62.9801 354.58 63.7701V64.8001C354.58 64.8801 354.58 64.9701 354.53 65.0601C354.31 65.5201 354.21 65.7501 354.21 65.9901C354.21 66.1101 354.24 66.2301 354.33 66.3901C354.1 65.9801 355.1 66.9801 354.71 67.2001C354.57 67.5901 354.57 67.9601 354.57 68.3101V71.8001H356.7C357.15 71.8001 357.47 71.8901 357.67 72.0701C357.87 72.2301 357.96 72.4601 357.96 72.7401C357.96 73.0101 357.86 73.2301 357.67 73.4101C357.47 73.5901 357.15 73.6801 356.7 73.6801H350.14C349.69 73.6801 349.37 73.5901 349.17 73.4101C348.97 73.2301 348.88 73.0101 348.88 72.7401C348.88 72.4601 348.97 72.2301 349.15 72.0701C349.35 71.8901 349.67 71.8001 350.14 71.8001H352.65V67.4601C352.65 67.2801 352.61 67.1101 352.38 66.9501C352.35 66.8501 352.31 66.7601 352.27 66.6601C352.23 66.5601 352.18 66.4701 352.14 66.3701C346.08 65.9801 346.08 64.9801 351.96 64.9901C352.02 64.9401 352.11 64.9001 352.21 64.8701C352.31 64.8401 352.44 64.8101 352.59 64.7901C352.65 64.6701 352.66 64.5501 352.7 64.4401C352.74 64.3301 352.8 64.2101 352.91 64.0901C353.02 63.9701 353.16 63.8501 353.36 63.7301C352.08 62.9801 357.08 62.9801 352.65 61.5001V60.9701L352.71 60.9801ZM374.88 49.3001V50.1701C374.88 50.4501 374.88 50.7901 374.7 51.2301C375.15 51.9901 371.15 51.9901 373.15 53.9901H377.15C378.15 55.9901 375.15 54.9901 374.89 56.6001V62.8001C374.65 62.8801 374.59 62.9401 374.07 63.3101C374.27 63.3101 374.45 63.3301 375.08 63.3101C376.15 63.5801 375.8 63.7401 375.19 63.9101C374.69 63.9501 374.58 63.9701 374.45 63.9801C373.15 64.9901 371.15 62.9901 372.15 64.9901C373.15 64.9901 374.15 64.9901 374.86 65.0701C374.89 65.1501 374.89 65.2301 374.89 65.3201V71.8101H379.79C380.24 71.8101 380.56 71.9001 380.76 72.0801C380.95 72.2401 381.05 72.4701 381.05 72.7501C381.05 73.0201 380.95 73.2401 380.76 73.4201C380.56 73.6001 380.24 73.6901 379.79 73.6901H368.09C367.64 73.6901 367.32 73.6001 367.12 73.4201C366.92 73.2401 366.83 73.0201 366.83 72.7501C366.83 72.4701 366.93 72.2401 367.12 72.0801C367.31 71.9001 367.64 71.8101 368.09 71.8101H372.99V67.1401C373.04 67.0601 373.08 66.9701 373.18 66.8801C374.16 66.9801 375.16 64.9801 376.16 64.9801C373.16 65.9801 372.16 63.9801 371.16 61.9801C372.16 61.9801 374.16 61.9801 374.16 59.9801C374.16 59.3134 373.77 58.9667 372.99 58.9401V53.0101C373.16 52.9701 373.16 51.9701 372.99 52.2101C372.99 52.0801 372.99 51.9601 372.99 51.8401V49.2901H365.26V51.5901C366.16 50.9801 367.16 52.9801 368.16 52.9801C367.62 53.5201 366.8 53.7601 366 54.0301C365.83 54.0401 365.75 54.0601 365.65 54.0801C360.16 52.9801 367.16 56.9801 364.53 57.0901C364.46 57.1001 364.39 57.1101 364.32 57.1101C364.05 57.1101 363.83 57.0101 363.65 56.8201C363.47 56.6301 363.38 56.3001 363.38 55.8301V47.4101H384.52V48.0301C384.52 48.2201 384.52 48.4601 384.4 48.7501C383.66 49.1601 383.49 49.5501 383.58 49.9001C383.63 50.0801 383.73 50.2501 383.72 50.4301C383.353 50.8034 382.836 51.3234 382.17 51.9901C383.17 50.9901 383.17 53.9901 384.52 53.1701V55.8401C384.52 56.3001 384.43 56.6301 384.25 56.8301C384.08 57.0201 383.86 57.1201 383.58 57.1201C383.3 57.1201 383.06 57.0201 382.88 56.8301C382.71 56.6401 382.63 56.3101 382.63 55.8401V55.6601C382.63 55.5401 382.63 55.3701 382.68 55.1601C383.17 54.0001 383.17 53.0001 382.64 53.3101C382.64 53.2301 382.64 53.1501 382.64 53.0701V52.5801C382.75 52.4601 382.83 52.3301 382.9 52.1801C382.97 52.0301 383.01 51.8701 383.03 51.7001C383.05 51.5301 383.05 51.3501 383.03 51.1601C382.99 50.7901 382.86 50.3801 382.64 49.9801V49.3001H374.91H374.88ZM407.79 64.9101H404.11C403.95 64.8801 403.79 64.8601 403.63 64.8301C403.15 64.9901 402.15 64.9901 402.63 64.8301C402.46 64.8601 402.29 64.8801 402.12 64.9101H395.4L394.72 66.7701C394.7 66.8401 394.69 66.9101 394.68 66.9801C395.16 67.9801 395.16 69.9801 393.63 69.7301L393.55 69.9401L392.87 71.8001H396.49C396.94 71.8001 397.26 71.8901 397.46 72.0701C397.66 72.2301 397.75 72.4601 397.75 72.7401C397.75 73.0101 397.65 73.2301 397.46 73.4101C397.26 73.5901 396.94 73.6801 396.49 73.6801H389.44C388.99 73.6801 388.67 73.5901 388.47 73.4101C388.28 73.2301 388.18 73.0101 388.18 72.7401C388.18 72.4601 388.28 72.2301 388.47 72.0701C388.66 71.8901 388.99 71.8001 389.44 71.8001H390.9L391.8 69.3601C391.82 69.3001 391.85 69.2301 391.88 69.1701C394.17 68.9801 393.17 67.9801 392.88 66.5001C392.89 66.4101 392.92 66.3301 392.95 66.2501L393.53 64.6801L393.62 64.4501C392.17 59.9901 394.17 60.9901 395.83 58.8801C395.81 58.7901 395.79 58.6901 395.79 58.6001C395.79 58.4101 395.84 58.2101 396.01 58.0201L396.1 57.7701L397.23 54.7301C397.27 54.6601 397.32 54.5901 397.37 54.5201C399.18 52.9901 397.18 50.9901 398.03 48.8501C397.94 48.8001 397.84 48.7601 397.75 48.7301C396.51 48.2801 395 48.9401 393.42 49.1501C393.3 49.1701 393.18 49.1801 393.04 49.1901C392.473 49.0634 391.976 49.0334 391.55 49.1001C391.49 49.0901 391.43 49.0701 391.37 49.0501C391.31 49.0301 391.25 49.0101 391.18 48.9901C391.18 47.9901 392.18 47.9901 392.87 47.5701C392.94 47.5401 393.01 47.5101 393.09 47.4901C393.25 47.4501 393.44 47.4201 393.67 47.4201H395.55C397.17 48.9901 399.17 45.9901 401.67 47.4201H403.17C403.17 47.4201 405.05 52.3901 407.11 57.8401C407.14 57.9201 407.17 58.0101 407.2 58.1001C407.1 58.1901 407.03 58.2801 406.98 58.3701C406.18 59.9901 409.18 59.9901 408.93 62.0901C408.93 62.1601 408.92 62.2301 408.81 62.3401L410.86 67.7801C410.89 67.8501 410.91 67.9201 410.94 67.9901C411.18 68.9901 413.18 69.9901 412.01 70.8201C412.03 70.9001 412.06 70.9701 412.08 71.0401L412.37 71.8101H413.83C414.28 71.8101 414.6 71.9001 414.8 72.0801C415 72.2401 415.09 72.4701 415.09 72.7501C415.09 73.0201 414.99 73.2401 414.8 73.4201C414.61 73.6001 414.28 73.6901 413.83 73.6901H406.8C406.34 73.6901 406.01 73.6001 405.81 73.4201C405.61 73.2401 405.52 73.0201 405.52 72.7501C405.52 72.4701 405.62 72.2401 405.81 72.0801C406 71.9001 406.33 71.8101 406.8 71.8101H410.39L410.16 71.2101L410.05 70.9001C411.16 69.9901 409.16 68.9901 409.02 68.1201C408.99 68.0401 408.96 67.9601 408.93 67.8901L407.81 64.9101H407.79ZM407.08 63.0201C409.14 59.9901 403.14 61.9901 405.46 58.5501C405.45 58.4701 405.42 58.4001 405.38 58.3201C405.34 58.2401 405.28 58.1701 405.2 58.1001C405.16 58.0201 405.13 57.9401 405.1 57.8601L402.99 52.3101C402.97 52.2401 402.94 52.1801 402.92 52.1201C402.13 49.9901 401.13 48.9901 399.13 49.9901C400.13 51.9901 402.13 50.9901 403.13 50.9901C402.13 51.9901 400.13 52.9901 399.43 53.9701L399.36 54.1701L397.78 58.4501L397.69 58.6901C398.13 59.0001 397.13 60.0001 397.62 59.7901C397.62 59.9001 397.44 60.0001 397.25 60.1101C396.88 60.3201 396.58 60.5401 396.88 60.8901C396.85 60.9501 396.82 61.0201 396.8 61.0801L396.73 61.2601L396.6 61.6001C396.15 61.7201 395.75 61.8001 395.41 61.8801C395.35 61.8901 395.3 61.9101 395.24 61.9201C394.12 60.9801 393.12 62.9801 392.12 62.9801H397.12H396.12H400.12H399.12C402.12 62.9801 404.12 62.9801 406.95 63.0101C407.02 63.0101 407.06 63.0101 407.06 63.0101L407.08 63.0201Z" fill="white"/>
</g>
<defs>
<clipPath id="clip0_753_628">
<rect width="413.06" height="75.12" fill="white" transform="translate(2 5)"/>
</clipPath>
</defs>
</svg>
