<svg width="979" height="125" viewBox="0 0 979 125" fill="none" xmlns="http://www.w3.org/2000/svg">
<path d="M0 81H979V0H0V81ZM218.247 78.9847H205.304V55.0617H218.247V78.9847ZM276.419 78.9847H252.555V55.0617H276.419V78.9847ZM296.23 52.3692H260.201V28.4463H296.23V52.3692ZM319.786 78.9847H306.684V55.0617H319.786V78.9847ZM324.072 52.3692H304.653V28.4463H324.072V52.3692ZM337.567 78.9847H324.465V55.0617H337.567V78.9847ZM385.444 78.9847H357.837V55.0617H385.444V78.9847ZM361.271 52.3692V28.4463H384.667V52.3692H361.271ZM483.398 78.9847H464.682V55.0617H483.398V78.9847ZM506.794 78.9847H488.078V55.0617H506.794V78.9847ZM516.78 52.3692H494.32V28.4463H516.78V52.3692ZM557.33 78.9847H525.511V55.0617H557.33V78.9847ZM600.846 78.9847H587.276V55.0617H600.846V78.9847ZM623.774 78.9847H610.205V55.0617H623.774V78.9847ZM665.887 78.9847H654.189V55.0617H665.887V78.9847ZM785.834 78.9847H750.272V55.0617H785.834V78.9847ZM800.957 52.3692H782.633V28.4463H800.957V52.3692ZM956.531 2.1217H964.476V25.7538H956.531V2.1217ZM956.531 28.4463H964.476V52.3692H956.531V28.4463ZM956.531 55.0617H964.476V78.9847H956.531V55.0617ZM942.296 2.1217H949.512V25.7538H942.296V2.1217ZM942.296 28.4463H949.512V52.3692H942.296V28.4463ZM942.296 55.0617H949.512V78.9847H942.296V55.0617ZM888.505 2.1217H935.278V25.7538H888.505V2.1217ZM888.505 28.4463H935.278V52.3692H888.505V28.4463ZM888.505 55.0617H935.278V78.9847H888.505V55.0617ZM830.988 2.1217H879.155V25.7538H830.988V2.1217ZM830.988 28.4463H879.155V52.3692H830.988V28.4463ZM830.988 55.0617H879.155V78.9847H830.988V55.0617ZM795.697 2.1217H802.913V25.7538H795.697V2.1217ZM775.305 2.1217H791.018V25.7538H775.305V2.1217ZM772.966 52.3692H754.642V28.4463H772.966V52.3692ZM741.147 2.1217H770.626V25.7538H741.147V2.1217ZM730.853 28.4463H744.657V52.3692H730.853V28.4463ZM705.585 2.1217H722.43V25.7538H705.585V2.1217ZM720.868 28.4463V52.3692H707.064V28.4463H720.868ZM703.321 55.0617H731.237V78.9847H703.321V55.0617ZM684.061 2.1217H700.906V25.7538H684.061V2.1217ZM683.284 28.4463H697.088V52.3692H683.284V28.4463ZM673.299 52.3692H647.638V28.4463H673.299V52.3692ZM652.551 2.1217H667.216V25.7538H652.551V2.1217ZM633.208 2.1217H647.872V25.7538H633.208V2.1217ZM633.133 55.0617H644.831V78.9847H633.133V55.0617ZM627.05 52.3692H593.051V28.4463H627.05V52.3692ZM582.055 2.1217H605.759V25.7538H582.055V2.1217ZM569.336 52.3692H533.307V28.4463H569.336V52.3692ZM516.546 2.1217H544.621V25.7538H516.546V2.1217ZM483.249 2.1217H497.829V25.7538H483.249V2.1217ZM460.236 2.1217H474.817V25.7538H460.236V2.1217ZM426.546 2.1217H441.828V25.7538H426.546V2.1217ZM425.769 28.4463H443.475V52.3692H425.769V28.4463ZM422.26 55.0617H455.323V78.9847H422.26V55.0617ZM421.09 52.3692H403.384V28.4463H421.09V52.3692ZM402.841 2.1217H418.124V25.7538H402.841V2.1217ZM369.853 2.1217H386.932V25.7538H369.853V2.1217ZM352.774 2.1217H361.43V25.7538H352.774V2.1217ZM332.494 28.4463H351.913V52.3692H332.494V28.4463ZM291.944 2.1217H324.699V25.7538H291.944V2.1217ZM245.152 2.1217H273.228V25.7538H245.152V2.1217ZM228.382 52.3692H204.359V28.4463H228.382V52.3692ZM184.323 2.1217H226.436V25.7538H184.323V2.1217ZM183.93 55.0617H196.872V78.9847H183.93V55.0617ZM162.667 2.1217H174.965V25.7538H162.667V2.1217ZM162.667 28.4463H171.923V52.3692H162.667V28.4463ZM162.667 55.0617H174.571V78.9847H162.667V55.0617ZM128.884 2.1217H143.941V25.7538H128.884V2.1217ZM128.884 28.4463H143.941V52.3692H128.884V28.4463ZM128.884 55.0617H143.941V78.9847H128.884V55.0617ZM104.973 2.1217H119.525V25.7538H104.973V2.1217ZM104.973 28.4463H119.525V52.3692H104.973V28.4463ZM104.973 55.0617H119.525V78.9847H104.973V55.0617ZM61.1757 2.1217H86.2563V25.7538H61.1757V2.1217ZM61.1757 28.4463H86.2563V52.3692H61.1757V28.4463ZM61.1757 55.0617H86.2563V78.9847H61.1757V55.0617ZM46.951 2.1217H54.1569V25.7538H46.951V2.1217ZM46.951 28.4463H54.1569V52.3692H46.951V28.4463ZM46.951 55.0617H54.1569V78.9847H46.951V55.0617ZM23.8919 2.1217H39.9322V25.7538H23.8919V2.1217ZM23.8919 28.4463H39.9322V52.3692H23.8919V28.4463ZM23.8919 55.0617H39.9322V78.9847H23.8919V55.0617Z" fill="white"/>
</svg>
