<svg width="979" height="125" viewBox="0 0 979 125" fill="none" xmlns="http://www.w3.org/2000/svg">
<path d="M0 125H979V44H0V125ZM218.247 122.985H205.304V99.0617H218.247V122.985ZM276.419 122.985H252.555V99.0617H276.419V122.985ZM296.23 96.3692H260.201V72.4463H296.23V96.3692ZM319.786 122.985H306.684V99.0617H319.786V122.985ZM324.072 96.3692H304.653V72.4463H324.072V96.3692ZM337.567 122.985H324.465V99.0617H337.567V122.985ZM385.444 122.985H357.837V99.0617H385.444V122.985ZM361.271 96.3692V72.4463H384.667V96.3692H361.271ZM483.398 122.985H464.682V99.0617H483.398V122.985ZM506.794 122.985H488.078V99.0617H506.794V122.985ZM516.78 96.3692H494.32V72.4463H516.78V96.3692ZM557.33 122.985H525.511V99.0617H557.33V122.985ZM600.846 122.985H587.276V99.0617H600.846V122.985ZM623.774 122.985H610.205V99.0617H623.774V122.985ZM665.887 122.985H654.189V99.0617H665.887V122.985ZM785.834 122.985H750.272V99.0617H785.834V122.985ZM800.957 96.3692H782.633V72.4463H800.957V96.3692ZM956.531 46.1217H964.476V69.7538H956.531V46.1217ZM956.531 72.4463H964.476V96.3692H956.531V72.4463ZM956.531 99.0617H964.476V122.985H956.531V99.0617ZM942.296 46.1217H949.512V69.7538H942.296V46.1217ZM942.296 72.4463H949.512V96.3692H942.296V72.4463ZM942.296 99.0617H949.512V122.985H942.296V99.0617ZM888.505 46.1217H935.278V69.7538H888.505V46.1217ZM888.505 72.4463H935.278V96.3692H888.505V72.4463ZM888.505 99.0617H935.278V122.985H888.505V99.0617ZM830.988 46.1217H879.155V69.7538H830.988V46.1217ZM830.988 72.4463H879.155V96.3692H830.988V72.4463ZM830.988 99.0617H879.155V122.985H830.988V99.0617ZM795.697 46.1217H802.913V69.7538H795.697V46.1217ZM775.305 46.1217H791.018V69.7538H775.305V46.1217ZM772.966 96.3692H754.642V72.4463H772.966V96.3692ZM741.147 46.1217H770.626V69.7538H741.147V46.1217ZM730.853 72.4463H744.657V96.3692H730.853V72.4463ZM705.585 46.1217H722.43V69.7538H705.585V46.1217ZM720.868 72.4463V96.3692H707.064V72.4463H720.868ZM703.321 99.0617H731.237V122.985H703.321V99.0617ZM684.061 46.1217H700.906V69.7538H684.061V46.1217ZM683.284 72.4463H697.088V96.3692H683.284V72.4463ZM673.299 96.3692H647.638V72.4463H673.299V96.3692ZM652.551 46.1217H667.216V69.7538H652.551V46.1217ZM633.208 46.1217H647.872V69.7538H633.208V46.1217ZM633.133 99.0617H644.831V122.985H633.133V99.0617ZM627.05 96.3692H593.051V72.4463H627.05V96.3692ZM582.055 46.1217H605.759V69.7538H582.055V46.1217ZM569.336 96.3692H533.307V72.4463H569.336V96.3692ZM516.546 46.1217H544.621V69.7538H516.546V46.1217ZM483.249 46.1217H497.829V69.7538H483.249V46.1217ZM460.236 46.1217H474.817V69.7538H460.236V46.1217ZM426.546 46.1217H441.828V69.7538H426.546V46.1217ZM425.769 72.4463H443.475V96.3692H425.769V72.4463ZM422.26 99.0617H455.323V122.985H422.26V99.0617ZM421.09 96.3692H403.384V72.4463H421.09V96.3692ZM402.841 46.1217H418.124V69.7538H402.841V46.1217ZM369.853 46.1217H386.932V69.7538H369.853V46.1217ZM352.774 46.1217H361.43V69.7538H352.774V46.1217ZM332.494 72.4463H351.913V96.3692H332.494V72.4463ZM291.944 46.1217H324.699V69.7538H291.944V46.1217ZM245.152 46.1217H273.228V69.7538H245.152V46.1217ZM228.382 96.3692H204.359V72.4463H228.382V96.3692ZM184.323 46.1217H226.436V69.7538H184.323V46.1217ZM183.93 99.0617H196.872V122.985H183.93V99.0617ZM162.667 46.1217H174.965V69.7538H162.667V46.1217ZM162.667 72.4463H171.923V96.3692H162.667V72.4463ZM162.667 99.0617H174.571V122.985H162.667V99.0617ZM128.884 46.1217H143.941V69.7538H128.884V46.1217ZM128.884 72.4463H143.941V96.3692H128.884V72.4463ZM128.884 99.0617H143.941V122.985H128.884V99.0617ZM104.973 46.1217H119.525V69.7538H104.973V46.1217ZM104.973 72.4463H119.525V96.3692H104.973V72.4463ZM104.973 99.0617H119.525V122.985H104.973V99.0617ZM61.1757 46.1217H86.2563V69.7538H61.1757V46.1217ZM61.1757 72.4463H86.2563V96.3692H61.1757V72.4463ZM61.1757 99.0617H86.2563V122.985H61.1757V99.0617ZM46.951 46.1217H54.1569V69.7538H46.951V46.1217ZM46.951 72.4463H54.1569V96.3692H46.951V72.4463ZM46.951 99.0617H54.1569V122.985H46.951V99.0617ZM23.8919 46.1217H39.9322V69.7538H23.8919V46.1217ZM23.8919 72.4463H39.9322V96.3692H23.8919V72.4463ZM23.8919 99.0617H39.9322V122.985H23.8919V99.0617Z" fill="white"/>
</svg>
