<svg width="178" height="14" viewBox="0 0 178 14" fill="none" xmlns="http://www.w3.org/2000/svg">
<path d="M8.89453 7.08643H2.63916V12.4995H3.9082C4.13281 12.4995 4.29378 12.5444 4.39111 12.6343C4.48844 12.7166 4.53711 12.8289 4.53711 12.9712C4.53711 13.106 4.48844 13.2183 4.39111 13.3081C4.29378 13.3979 4.13281 13.4429 3.9082 13.4429H0.628906C0.404297 13.4429 0.243327 13.3979 0.145996 13.3081C0.0486654 13.2183 0 13.106 0 12.9712C0 12.8289 0.0486654 12.7166 0.145996 12.6343C0.243327 12.5444 0.404297 12.4995 0.628906 12.4995H1.6958V1.24658H1.11182C0.87972 1.24658 0.715007 1.2054 0.617676 1.12305C0.520345 1.0332 0.47168 0.917155 0.47168 0.774902C0.47168 0.63265 0.520345 0.520345 0.617676 0.437988C0.715007 0.348145 0.87972 0.303223 1.11182 0.303223H3.9082C4.13281 0.303223 4.29378 0.348145 4.39111 0.437988C4.48844 0.520345 4.53711 0.63265 4.53711 0.774902C4.53711 0.917155 4.48844 1.0332 4.39111 1.12305C4.29378 1.2054 4.13281 1.24658 3.9082 1.24658H2.63916V6.14307H8.89453V1.24658H7.63672C7.41211 1.24658 7.25114 1.2054 7.15381 1.12305C7.05648 1.0332 7.00781 0.917155 7.00781 0.774902C7.00781 0.63265 7.05273 0.520345 7.14258 0.437988C7.23991 0.348145 7.40462 0.303223 7.63672 0.303223H10.4331C10.6652 0.303223 10.8299 0.348145 10.9272 0.437988C11.0246 0.520345 11.0732 0.63265 11.0732 0.774902C11.0732 0.917155 11.0246 1.0332 10.9272 1.12305C10.8299 1.2054 10.6652 1.24658 10.4331 1.24658H9.84912V12.4995H10.916C11.1406 12.4995 11.3016 12.5444 11.3989 12.6343C11.4963 12.7166 11.5449 12.8289 11.5449 12.9712C11.5449 13.106 11.4963 13.2183 11.3989 13.3081C11.3016 13.3979 11.1406 13.4429 10.916 13.4429H7.63672C7.41211 13.4429 7.25114 13.3979 7.15381 13.3081C7.05648 13.2183 7.00781 13.106 7.00781 12.9712C7.00781 12.8289 7.05273 12.7166 7.14258 12.6343C7.23991 12.5444 7.40462 12.4995 7.63672 12.4995H8.89453V7.08643Z" fill="white"/>
<path d="M16.4414 7.09766V12.4995H23.6963V9.71436C23.6963 9.48975 23.7375 9.32878 23.8198 9.23145C23.9097 9.13411 24.0257 9.08545 24.168 9.08545C24.3102 9.08545 24.4225 9.13411 24.5049 9.23145C24.5947 9.32878 24.6396 9.48975 24.6396 9.71436V13.4429H14.229C14.0044 13.4429 13.8434 13.3979 13.7461 13.3081C13.6488 13.2183 13.6001 13.106 13.6001 12.9712C13.6001 12.8289 13.6488 12.7166 13.7461 12.6343C13.8434 12.5444 14.0044 12.4995 14.229 12.4995H15.498V1.24658H14.229C14.0044 1.24658 13.8434 1.2054 13.7461 1.12305C13.6488 1.0332 13.6001 0.917155 13.6001 0.774902C13.6001 0.63265 13.6488 0.520345 13.7461 0.437988C13.8434 0.348145 14.0044 0.303223 14.229 0.303223H24.1455V3.54883C24.1455 3.77344 24.1006 3.93441 24.0107 4.03174C23.9284 4.12907 23.8161 4.17773 23.6738 4.17773C23.5316 4.17773 23.4155 4.12907 23.3257 4.03174C23.2433 3.93441 23.2021 3.77344 23.2021 3.54883V1.24658H16.4414V6.1543H19.8218V5.0874C19.8218 4.86279 19.8667 4.70182 19.9565 4.60449C20.0464 4.50716 20.1624 4.4585 20.3047 4.4585C20.4395 4.4585 20.5518 4.50716 20.6416 4.60449C20.7314 4.70182 20.7764 4.86279 20.7764 5.0874V8.16455C20.7764 8.38916 20.7314 8.55013 20.6416 8.64746C20.5518 8.74479 20.4395 8.79346 20.3047 8.79346C20.1624 8.79346 20.0464 8.74479 19.9565 8.64746C19.8667 8.55013 19.8218 8.38916 19.8218 8.16455V7.09766H16.4414Z" fill="white"/>
<path d="M51.9297 1.21289C51.3981 1.21289 50.9826 1.3252 50.6831 1.5498C50.3911 1.76693 49.9194 2.43327 49.2681 3.54883C48.3022 5.21094 47.6434 6.12061 47.2915 6.27783C48.2274 6.65218 49.0921 7.62549 49.8857 9.19775L51.5591 12.4995H52.9517C53.4757 12.4995 53.7378 12.6567 53.7378 12.9712C53.7378 13.2856 53.4757 13.4429 52.9517 13.4429H51.5928C51.2933 13.4429 51.1061 13.4204 51.0312 13.3755C50.9564 13.3306 50.8478 13.1733 50.7056 12.9038L49.021 9.60205C48.4445 8.47152 47.8867 7.73405 47.3477 7.38965C46.8161 7.04525 46.1123 6.87305 45.2363 6.87305H44.5176V12.4995H45.7417C46.2733 12.4995 46.5391 12.6567 46.5391 12.9712C46.5391 13.2856 46.2733 13.4429 45.7417 13.4429H42.3613C41.8372 13.4429 41.5752 13.2856 41.5752 12.9712C41.5752 12.6567 41.8372 12.4995 42.3613 12.4995H43.563V1.24658H42.3613C41.8372 1.24658 41.5752 1.08936 41.5752 0.774902C41.5752 0.460449 41.8372 0.303223 42.3613 0.303223H45.7417C46.2733 0.303223 46.5391 0.460449 46.5391 0.774902C46.5391 1.08936 46.2733 1.24658 45.7417 1.24658H44.5176V5.90723H45.2363C45.9176 5.90723 46.4305 5.75749 46.7749 5.45801C47.1268 5.15104 47.6771 4.36117 48.4258 3.08838C49.1221 1.91292 49.6649 1.15299 50.0542 0.808594C50.451 0.464193 51.0911 0.291992 51.9746 0.291992C52.4014 0.291992 52.6597 0.340658 52.7495 0.437988C52.8394 0.535319 52.8843 0.752441 52.8843 1.08936V2.33594C52.8843 2.85254 52.7271 3.11084 52.4126 3.11084C52.0907 3.11084 51.9297 2.86751 51.9297 2.38086V1.21289Z" fill="white"/>
<path d="M66.7202 6.90674C66.7202 8.16455 66.4657 9.33252 65.9565 10.4106C65.4474 11.4813 64.7437 12.3161 63.8452 12.915C62.9543 13.514 61.9959 13.8135 60.9702 13.8135C59.4504 13.8135 58.1102 13.1696 56.9497 11.8818C55.7967 10.5866 55.2202 8.92822 55.2202 6.90674C55.2202 4.87777 55.7967 3.2194 56.9497 1.93164C58.1102 0.64388 59.4504 0 60.9702 0C61.9959 0 62.9543 0.299479 63.8452 0.898438C64.7362 1.4974 65.4362 2.33219 65.9453 3.40283C66.4619 4.47347 66.7202 5.64144 66.7202 6.90674ZM65.7656 6.90674C65.7656 5.37191 65.3201 3.9943 64.4292 2.77393C63.5382 1.55355 62.3853 0.943359 60.9702 0.943359C59.645 0.943359 58.5107 1.52734 57.5674 2.69531C56.6315 3.85579 56.1636 5.2596 56.1636 6.90674C56.1636 8.65869 56.654 10.0924 57.6348 11.208C58.623 12.3161 59.7349 12.8701 60.9702 12.8701C62.3853 12.8701 63.5382 12.2637 64.4292 11.0508C65.3201 9.8304 65.7656 8.44906 65.7656 6.90674Z" fill="white"/>
<path d="M77.8833 1.24658H71.6279V12.4995H72.897C73.3162 12.4995 73.5259 12.6567 73.5259 12.9712C73.5259 13.2856 73.3162 13.4429 72.897 13.4429H69.6177C69.1984 13.4429 68.9888 13.2856 68.9888 12.9712C68.9888 12.6567 69.1984 12.4995 69.6177 12.4995H70.6846V1.24658H69.6177C69.1984 1.24658 68.9888 1.08936 68.9888 0.774902C68.9888 0.460449 69.1984 0.303223 69.6177 0.303223H79.9048C80.3241 0.303223 80.5337 0.460449 80.5337 0.774902C80.5337 1.08936 80.3241 1.24658 79.9048 1.24658H78.8379V12.4995H79.9048C80.3241 12.4995 80.5337 12.6567 80.5337 12.9712C80.5337 13.2856 80.3241 13.4429 79.9048 13.4429H76.6255C76.2062 13.4429 75.9966 13.2856 75.9966 12.9712C75.9966 12.6567 76.2062 12.4995 76.6255 12.4995H77.8833V1.24658Z" fill="white"/>
<path d="M84.0264 12.4995V1.24658H82.7573C82.3381 1.24658 82.1284 1.08936 82.1284 0.774902C82.1284 0.460449 82.3381 0.303223 82.7573 0.303223H86.7104C87.1372 0.303223 87.3506 0.460449 87.3506 0.774902C87.3506 1.08936 87.1372 1.24658 86.7104 1.24658H84.9697V12.084L91.9326 0.303223H94.4033C94.8226 0.303223 95.0322 0.460449 95.0322 0.774902C95.0322 1.08936 94.8226 1.24658 94.4033 1.24658H93.1343V12.4995H94.4033C94.8226 12.4995 95.0322 12.6567 95.0322 12.9712C95.0322 13.2856 94.8226 13.4429 94.4033 13.4429H90.9219C90.5026 13.4429 90.293 13.2856 90.293 12.9712C90.293 12.6567 90.5026 12.4995 90.9219 12.4995H92.1909V1.68457L85.2393 13.4429H82.7573C82.3381 13.4429 82.1284 13.2856 82.1284 12.9712C82.1284 12.6567 82.3381 12.4995 82.7573 12.4995H84.0264Z" fill="white"/>
<path d="M100.344 8.05225V12.4995H103.579C103.803 12.4995 103.964 12.5444 104.062 12.6343C104.159 12.7166 104.208 12.8289 104.208 12.9712C104.208 13.106 104.159 13.2183 104.062 13.3081C103.964 13.3979 103.803 13.4429 103.579 13.4429H98.1318C97.9072 13.4429 97.7463 13.3979 97.6489 13.3081C97.5516 13.2183 97.5029 13.106 97.5029 12.9712C97.5029 12.8289 97.5516 12.7166 97.6489 12.6343C97.7463 12.5444 97.9072 12.4995 98.1318 12.4995H99.4009V1.24658H98.1318C97.9072 1.24658 97.7463 1.2054 97.6489 1.12305C97.5516 1.0332 97.5029 0.917155 97.5029 0.774902C97.5029 0.63265 97.5516 0.520345 97.6489 0.437988C97.7463 0.348145 97.9072 0.303223 98.1318 0.303223H103.612C104.908 0.303223 105.963 0.685059 106.779 1.44873C107.603 2.2124 108.015 3.1071 108.015 4.13281C108.015 4.73926 107.88 5.28581 107.61 5.77246C107.348 6.25911 107.03 6.64095 106.656 6.91797C106.094 7.33724 105.514 7.64421 104.915 7.83887C104.481 7.98112 103.942 8.05225 103.298 8.05225H100.344ZM100.344 7.10889H103.354C104.05 7.10889 104.702 6.9554 105.308 6.64844C105.922 6.33398 106.368 5.95215 106.645 5.50293C106.929 5.05371 107.071 4.59701 107.071 4.13281C107.071 3.3916 106.753 2.72526 106.117 2.13379C105.48 1.54232 104.675 1.24658 103.702 1.24658H100.344V7.10889Z" fill="white"/>
<path d="M121.974 6.90674C121.974 8.16455 121.72 9.33252 121.21 10.4106C120.701 11.4813 119.998 12.3161 119.099 12.915C118.208 13.514 117.25 13.8135 116.224 13.8135C114.704 13.8135 113.364 13.1696 112.204 11.8818C111.051 10.5866 110.474 8.92822 110.474 6.90674C110.474 4.87777 111.051 3.2194 112.204 1.93164C113.364 0.64388 114.704 0 116.224 0C117.25 0 118.208 0.299479 119.099 0.898438C119.99 1.4974 120.69 2.33219 121.199 3.40283C121.716 4.47347 121.974 5.64144 121.974 6.90674ZM121.02 6.90674C121.02 5.37191 120.574 3.9943 119.683 2.77393C118.792 1.55355 117.639 0.943359 116.224 0.943359C114.899 0.943359 113.765 1.52734 112.821 2.69531C111.885 3.85579 111.417 5.2596 111.417 6.90674C111.417 8.65869 111.908 10.0924 112.889 11.208C113.877 12.3161 114.989 12.8701 116.224 12.8701C117.639 12.8701 118.792 12.2637 119.683 11.0508C120.574 9.8304 121.02 8.44906 121.02 6.90674Z" fill="white"/>
<path d="M125.995 12.4995V1.24658H124.726C124.501 1.24658 124.34 1.2054 124.243 1.12305C124.145 1.0332 124.097 0.917155 124.097 0.774902C124.097 0.63265 124.145 0.520345 124.243 0.437988C124.34 0.348145 124.501 0.303223 124.726 0.303223H130.655C131.831 0.303223 132.785 0.64388 133.519 1.3252C134.26 1.99902 134.631 2.79264 134.631 3.70605C134.631 4.85905 134.013 5.79118 132.778 6.50244C133.759 6.85433 134.477 7.32227 134.934 7.90625C135.391 8.49023 135.619 9.13411 135.619 9.83789C135.619 10.4668 135.469 11.0433 135.17 11.5674C134.87 12.084 134.41 12.5257 133.789 12.8926C133.175 13.2594 132.505 13.4429 131.778 13.4429H124.726C124.501 13.4429 124.34 13.3979 124.243 13.3081C124.145 13.2183 124.097 13.106 124.097 12.9712C124.097 12.8289 124.145 12.7166 124.243 12.6343C124.34 12.5444 124.501 12.4995 124.726 12.4995H125.995ZM126.938 6.14307H130.273C130.985 6.14307 131.636 6.01204 132.228 5.75C132.684 5.54036 133.04 5.23714 133.294 4.84033C133.549 4.44352 133.676 4.03923 133.676 3.62744C133.676 3.03597 133.399 2.49316 132.845 1.99902C132.291 1.4974 131.569 1.24658 130.678 1.24658H126.938V6.14307ZM126.938 12.4995H131.711C132.317 12.4995 132.845 12.3647 133.294 12.0952C133.744 11.8257 134.084 11.4925 134.316 11.0957C134.549 10.6989 134.665 10.2871 134.665 9.86035C134.665 9.38118 134.496 8.91699 134.159 8.46777C133.83 8.01855 133.369 7.6779 132.778 7.4458C132.186 7.2137 131.37 7.09766 130.33 7.09766H126.938V12.4995Z" fill="white"/>
<path d="M146.939 9.05176H140.74L139.471 12.4995H141.279C141.504 12.4995 141.665 12.5444 141.762 12.6343C141.86 12.7166 141.908 12.8289 141.908 12.9712C141.908 13.106 141.86 13.2183 141.762 13.3081C141.665 13.3979 141.504 13.4429 141.279 13.4429H137.753C137.528 13.4429 137.367 13.3979 137.27 13.3081C137.173 13.2183 137.124 13.106 137.124 12.9712C137.124 12.8289 137.173 12.7166 137.27 12.6343C137.367 12.5444 137.528 12.4995 137.753 12.4995H138.483L142.649 1.24658H139.864C139.64 1.24658 139.479 1.2054 139.381 1.12305C139.284 1.0332 139.235 0.917155 139.235 0.774902C139.235 0.63265 139.284 0.520345 139.381 0.437988C139.479 0.348145 139.64 0.303223 139.864 0.303223H144.615L149.219 12.4995H149.949C150.174 12.4995 150.335 12.5444 150.432 12.6343C150.529 12.7166 150.578 12.8289 150.578 12.9712C150.578 13.106 150.529 13.2183 150.432 13.3081C150.335 13.3979 150.174 13.4429 149.949 13.4429H146.434C146.202 13.4429 146.037 13.3979 145.94 13.3081C145.843 13.2183 145.794 13.106 145.794 12.9712C145.794 12.8289 145.843 12.7166 145.94 12.6343C146.037 12.5444 146.202 12.4995 146.434 12.4995H148.231L146.939 9.05176ZM146.58 8.1084L143.975 1.24658H143.626L141.1 8.1084H146.58Z" fill="white"/>
<path d="M158.114 1.24658V12.4995H160.562C160.787 12.4995 160.948 12.5444 161.045 12.6343C161.142 12.7166 161.191 12.8289 161.191 12.9712C161.191 13.106 161.142 13.2183 161.045 13.3081C160.948 13.3979 160.787 13.4429 160.562 13.4429H154.711C154.486 13.4429 154.325 13.3979 154.228 13.3081C154.131 13.2183 154.082 13.106 154.082 12.9712C154.082 12.8289 154.131 12.7166 154.228 12.6343C154.325 12.5444 154.486 12.4995 154.711 12.4995H157.159V1.24658H153.296V4.51465C153.296 4.74674 153.251 4.91146 153.161 5.00879C153.079 5.10612 152.966 5.15479 152.824 5.15479C152.689 5.15479 152.577 5.10612 152.487 5.00879C152.397 4.91146 152.353 4.74674 152.353 4.51465V0.303223H162.92V4.51465C162.92 4.74674 162.875 4.91146 162.786 5.00879C162.703 5.10612 162.591 5.15479 162.449 5.15479C162.306 5.15479 162.19 5.10612 162.101 5.00879C162.018 4.91146 161.977 4.74674 161.977 4.51465V1.24658H158.114Z" fill="white"/>
<path d="M168.378 1.24658V6.14307H171.849C173.488 6.14307 174.765 6.46126 175.678 7.09766C176.599 7.72656 177.06 8.625 177.06 9.79297C177.06 10.8561 176.678 11.7321 175.914 12.4209C175.15 13.1022 174.252 13.4429 173.219 13.4429H166.166C165.747 13.4429 165.537 13.2856 165.537 12.9712C165.537 12.6567 165.747 12.4995 166.166 12.4995H167.435V1.24658H166.166C165.747 1.24658 165.537 1.08936 165.537 0.774902C165.537 0.460449 165.747 0.303223 166.166 0.303223H169.647C170.067 0.303223 170.276 0.460449 170.276 0.774902C170.276 1.08936 170.067 1.24658 169.647 1.24658H168.378ZM168.378 12.4995H173.151C174.027 12.4995 174.739 12.23 175.285 11.6909C175.832 11.1519 176.105 10.5267 176.105 9.81543C176.105 9.13411 175.783 8.5127 175.139 7.95117C174.495 7.38216 173.372 7.09766 171.77 7.09766H168.378V12.4995Z" fill="white"/>
</svg>
