<svg width="178" height="14" viewBox="0 0 178 14" fill="none" xmlns="http://www.w3.org/2000/svg">
<g clip-path="url(#clip0_612_604)">
<path d="M8.89 7.08999H2.64V12.5H3.91C4.13 12.5 4.3 12.54 4.39 12.63C4.49 12.71 4.54 12.82 4.54 12.97C4.54 13.1 4.49 13.22 4.39 13.31C4.29 13.4 4.13 13.44 3.91 13.44H0.63C0.41 13.44 0.24 13.39 0.15 13.31C0.05 13.22 0 13.11 0 12.97C0 12.83 0.05 12.72 0.15 12.63C0.25 12.54 0.41 12.5 0.63 12.5H1.7V6.86999C1.72 6.55999 1.74 6.23999 1.78 5.93999C1.93333 5.31332 1.94667 4.71999 1.82 4.15999C1.76 3.87999 1.73 3.61999 1.7 3.36999V1.24999H1.12C0.89 1.24999 0.72 1.20999 0.63 1.12999C0.53 1.03999 0.48 0.91999 0.48 0.77999C0.48 0.63999 0.53 0.52999 0.63 0.43999C0.73 0.34999 0.89 0.30999 1.12 0.30999H3.92C4.14 0.30999 4.31 0.34999 4.4 0.43999C4.5 0.51999 4.55 0.62999 4.55 0.77999C4.55 0.92999 4.5 1.03999 4.4 1.12999C4.3 1.20999 4.14 1.24999 3.92 1.24999H2.65V3.23999C2.82 3.38999 2.88 3.53999 3.06 3.69999C5.02 3.00999 5.02 6.00999 7.02 5.00999C6.02 5.00999 4.02 4.00999 3.02 6.00999C6.02 6.00999 10.02 6.00999 13.02 5.00999C12.02 4.00999 11.02 4.00999 8.94 3.69999C8.92 3.54999 8.92 3.38999 8.91 3.23999V1.24999H7.65C7.43 1.24999 7.26 1.20999 7.17 1.12999C7.07 1.03999 7.02 0.91999 7.02 0.77999C7.02 0.63999 7.06 0.52999 7.15 0.43999C7.25 0.34999 7.41 0.30999 7.64 0.30999H10.44C10.67 0.30999 10.84 0.34999 10.93 0.43999C11.03 0.51999 11.08 0.62999 11.08 0.77999C11.08 0.92999 11.03 1.03999 10.93 1.12999C10.83 1.20999 10.67 1.24999 10.44 1.24999H9.86V2.66999C9.86 2.88999 9.86 3.11999 9.86 3.36999C10 4.99999 12 2.99999 12 3.99999C12.38 4.74999 12.33 5.21999 12.07 5.52999C11.98 5.62999 11.87 5.71999 11.74 5.79999C11 5.99999 10 5.99999 10 5.99999C10 5.99999 10 6.99999 9.79 7.68999C9.81 7.83999 9.82 7.97999 9.83 8.11999C9.84 8.25999 9.85 8.39999 9.85 8.53999C12 8.99999 13 11 15 9.99999C13 11 12 11 9.98 11.33C9.85 11.51 9.85 11.67 9.85 11.82V12.5H10.92C11.14 12.5 11.31 12.54 11.4 12.63C11.5 12.71 11.55 12.82 11.55 12.97C11.55 13.1 11.5 13.22 11.4 13.31C11.3 13.4 11.14 13.44 10.92 13.44H7.64C7.42 13.44 7.25 13.39 7.16 13.31C7.07 13.23 7.01 13.11 7.01 12.97C7.01 12.83 7.05 12.72 7.14 12.63C7.24 12.54 7.4 12.5 7.63 12.5H8.89V11.94C8.89 11.77 8.89 11.56 8.91 11.33C11 11 13 11 15 9.99999C13 9.99999 11 9.99999 8.89 8.25999V7.08999ZM15.75 7.26999C15.75 7.26999 16.24 7.36999 16.45 7.65999V12.5H23.7V9.70999C23.7 9.48999 23.74 9.31999 23.82 9.22999C23.91 9.12999 24.03 9.07999 24.17 9.07999C24.31 9.07999 24.42 9.12999 24.51 9.22999C24.6 9.32999 24.64 9.48999 24.64 9.70999V13.44H14.23C14.01 13.44 13.84 13.39 13.75 13.31C13.65 13.22 13.6 13.11 13.6 12.97C13.6 12.83 13.65 12.72 13.75 12.63C13.85 12.54 14.01 12.5 14.23 12.5H15.5V8.26999C15.49 8.11999 15.47 7.96999 15.44 7.81999C15 5.99999 14 7.99999 13 6.99999C14 6.99999 15 5.99999 15.43 5.04999C15.45 4.88999 15.47 4.73999 15.5 4.58999V1.24999H14.23C14.01 1.24999 13.84 1.20999 13.75 1.12999C13.65 1.03999 13.6 0.91999 13.6 0.77999C13.6 0.63999 13.65 0.52999 13.75 0.43999C13.85 0.34999 14.01 0.30999 14.23 0.30999H24.15V3.55999C24.15 3.77999 24.11 3.94999 24.02 4.03999C23.94 4.13999 23.83 4.18999 23.68 4.18999C23.53 4.18999 23.42 4.13999 23.33 4.03999C23.25 3.93999 23.21 3.77999 23.21 3.55999V1.24999H16.45V4.15999C16.45 4.30999 16.45 4.45999 16.44 4.59999C14.01 5.99999 12.01 6.99999 10.01 6.99999C14.01 6.99999 17.01 5.99999 19.97 4.59999C20.06 4.49999 20.18 4.44999 20.32 4.44999C20.45 4.44999 20.57 4.49999 20.66 4.59999C20.75 4.69999 20.79 4.85999 20.76 5.08999C20.02 4.99999 20.02 5.99999 20.02 6.99999C20.02 6.99999 21.02 6.99999 20.79 7.36999V8.16999C20.79 8.38999 20.75 8.55999 20.66 8.64999C20.57 8.74999 20.46 8.79999 20.32 8.79999C20.18 8.79999 20.06 8.74999 19.97 8.64999C19.88 8.54999 19.84 8.38999 19.84 8.16999C19.84 8.16999 19.84 7.89999 19.8 7.63999C19.02 6.00999 17.02 7.00999 16 7.24999C15.86 7.25999 15.77 7.26999 15.77 7.26999H15.75ZM51.93 1.20999C51.4 1.20999 50.98 1.31999 50.68 1.54999C50.44 1.72999 50.07 2.21999 49.58 3.02999C49.48 3.18999 49.38 3.35999 49.2 3.53999C47.01 4.99999 44.01 1.99999 42.01 4.99999C44.01 4.99999 46.01 3.99999 47.71 5.86999C47.57 6.08999 47.42 6.22999 47.3 6.27999C48.12 6.60999 48.88 7.38999 49.59 8.63999C49.69 8.81999 49.79 8.99999 49.89 9.19999C54.01 11 58.01 11 62.01 11C59.01 12 55.01 8.99999 51.76 11.64C51.55 11.76 51.45 11.88 51.31 11.98L51.57 12.5H52.96C53.48 12.5 53.75 12.66 53.75 12.97C53.75 13.28 53.49 13.44 52.96 13.44H51.6C51.3 13.44 51.11 13.42 51.04 13.37C50.97 13.33 50.86 13.17 50.71 12.9L50.59 12.66C50.51 12.51 50.4 12.29 50.32 12.05C54.01 9.99999 58.01 11 62.01 11C58.01 11 53.01 11 48.74 9.06999C48.64 8.89999 48.55 8.74999 48.46 8.59999C48.08 8.01999 47.72 7.61999 47.36 7.38999C46.83 7.04999 46.12 6.86999 45.25 6.86999H44.53V12.5H45.75C46.28 12.5 46.55 12.66 46.55 12.97C46.55 13.28 46.28 13.44 45.75 13.44H42.37C41.85 13.44 41.58 13.28 41.58 12.97C41.58 12.66 41.84 12.5 42.37 12.5H43.57V5.93999C44.01 4.99999 43.01 4.99999 42.01 4.99999C42.01 3.99999 43.01 2.99999 43.57 2.66999V1.24999H42.37C41.85 1.24999 41.58 1.08999 41.58 0.77999C41.58 0.46999 41.84 0.30999 42.37 0.30999H45.75C46.28 0.30999 46.55 0.46999 46.55 0.77999C46.55 1.08999 46.28 1.24999 45.75 1.24999H44.53V2.71999C44.53 2.85999 44.53 2.99999 44.44 3.13999C44.01 4.99999 43.01 2.99999 42.01 3.99999C42.01 4.99999 43.01 4.99999 43.83 5.17999C44.01 5.28999 44.14 5.38999 44.53 5.47999V5.90999H45.24C45.7533 5.96999 46.01 5.66666 46.01 4.99999H42.01C43.01 1.99999 47.01 5.99999 48.43 3.08999C48.55 2.88999 48.66 2.70999 48.77 2.53999C49.31 1.67999 49.74 1.09999 50.06 0.80999C50.46 0.46999 51.1 0.28999 51.98 0.28999C52.41 0.28999 52.67 0.33999 52.75 0.43999C52.84 0.53999 52.88 0.74999 52.88 1.08999V2.33999C52.88 2.85999 52.72 3.10999 52.41 3.10999C52.1 3.10999 51.93 2.86999 51.93 2.37999V1.20999ZM67.77 6.82999C67.2633 6.94332 66.8867 7.37666 66.64 8.12999C66.61 8.32999 66.58 8.52999 66.53 8.71999C66.4 9.29999 66.21 9.86999 65.96 10.4C65.45 11.47 64.75 12.31 63.85 12.9C62.96 13.5 62 13.8 60.97 13.8C60.02 13.8 59.14 13.55 58.33 13.05C58.17 12.95 58.01 12.84 57.85 12.72C59 11.99 56 11.99 57 10.99H59C57 10.99 56 9.98999 55.5 9.14999C55.45 8.97999 55.41 8.79999 55.38 8.61999C55.35 8.43999 55.32 8.25999 55.29 8.06999C55.27 7.87999 55.25 7.68999 55.23 7.48999C55 6.98999 55 5.98999 54 5.98999C50 4.98999 46 5.98999 42 3.98999C46 3.98999 51 5.98999 55.43 4.62999C55.53 4.45999 55.59 4.28999 55.65 4.12999C55.94 3.29999 56.37 2.55999 56.95 1.91999C58.11 0.62999 59.45 -0.0100098 60.97 -0.0100098C62 -0.0100098 62.95 0.28999 63.85 0.88999C64.74 1.48999 65.44 2.31999 65.95 3.38999C66.21 3.92999 66.4 4.47999 66.53 5.06999C66.57 5.25999 66.61 5.45999 67.27 6.21999C67.61 6.41999 67.92 6.61999 67.77 6.81999V6.82999ZM77.66 7.15999C74 6.99999 70 6.99999 65.58 5.24999C65.54 5.06999 65.49 4.89999 65.43 4.72999C65.21 4.03999 64.87 3.38999 64.43 2.77999C63.54 1.55999 62.39 0.94999 60.97 0.94999C59.64 0.94999 58.51 1.52999 57.57 2.69999C57.22 3.13999 56.93 3.59999 56.71 4.10999C56.61 4.26999 56.52 4.43999 56.4 4.60999C54 5.00999 52 5.00999 50 5.00999C52 5.00999 54 6.00999 55.62 6.82999C55.81 6.96999 55.9 7.08999 56.17 7.23999C56.2 8.03999 56.34 8.77999 56.58 9.43999C56.64 9.60999 56.71 9.76999 56.78 9.91999C58 12.01 60 11.01 62 11.01C61 12.01 60 12.01 59.25 12.46C59.35 12.53 59.49 12.59 59.63 12.64C60.06 12.8 60.5 12.87 60.97 12.87C62.39 12.87 63.54 12.26 64.43 11.05C64.88 10.44 65.21 9.78999 65.43 9.09999C65.49 8.92999 65.53 8.74999 65.58 8.56999C65 7.99999 68 7.99999 67 6.99999C70 6.99999 73 6.99999 75.88 7.10999C76.99 7.15999 77.57 7.16999 77.66 7.15999ZM77.88 1.24999H71.62V1.61999C72.99 3.99999 74.99 2.99999 75.99 2.99999C74.99 2.99999 72.99 3.99999 72.24 4.05999C72.01 4.18999 71.89 4.32999 71.62 4.46999V5.77999C73.26 5.96999 73.47 6.04999 73.71 6.11999C75 5.98999 76 7.98999 78 6.98999C76 6.98999 75 6.98999 72.51 7.85999C72.34 7.91999 72.2 7.98999 71.63 8.02999V12.49H72.9C73.32 12.49 73.53 12.65 73.53 12.96C73.53 13.27 73.32 13.43 72.9 13.43H69.62C69.2 13.43 68.99 13.27 68.99 12.96C68.99 12.65 69.2 12.49 69.62 12.49H70.69V8.25999C70.72 8.10999 70.74 7.94999 70.79 7.79999C71 6.98999 71 5.98999 70.69 5.01999V4.57999C70.78 3.94999 70.97 3.37999 70.87 2.87999C70.77 2.37999 70.69 1.96999 70.69 1.68999V1.23999H69.62C69.2 1.23999 68.99 1.07999 68.99 0.76999C68.99 0.45999 69.2 0.29999 69.62 0.29999H79.91C80.33 0.29999 80.54 0.45999 80.54 0.76999C80.54 1.07999 80.33 1.23999 79.91 1.23999H78.84V5.01999C78.96 5.32999 79.09 5.63999 79.34 5.97999C80 5.99999 80 6.99999 79.81 7.88999C79.4 8.15999 79.16 8.43999 78.84 8.70999V12.49H79.91C79.9767 12.8233 80.1933 12.98 80.56 12.96C80.54 13.12 80.48 13.24 80.38 13.31C80.28 13.38 80.12 13.43 79.91 13.43H76.63C76.21 13.43 76 13.27 76 12.96C76 12.65 76.21 12.49 76.63 12.49H77.89V9.56999C77.89 9.00999 77.89 8.40999 77.91 7.79999C77.93 7.18999 77.89 6.54999 77.89 5.92999V1.24999H77.88ZM96.08 13.3C92 12 87 15 84.19 11.36C84.11 11.17 84.07 11 84.03 10.83V9.57999C84.01 7.99999 88.01 9.99999 86.01 6.99999C85.18 6.99999 84.34 6.99999 84.1 6.38999C84.05 6.26999 84.03 6.11999 84.03 5.93999C84.0167 5.31332 83.9967 4.52666 83.97 3.57999C84.03 3.09999 84.03 2.69999 84.03 2.34999V1.23999H82.76C82.34 1.23999 82.13 1.07999 82.13 0.76999C82.13 0.45999 82.34 0.29999 82.76 0.29999H86.71C87.14 0.29999 87.35 0.45999 87.35 0.76999C87.35 1.07999 87.14 1.23999 86.71 1.23999H84.97V2.92999C85 3.98999 85 4.98999 84 4.98999C84 4.98999 85 5.98999 85.23 6.14999C85.36 6.33999 85.5 6.50999 85.67 6.68999C86.37 7.39999 86.26 8.06999 85.62 8.67999C84.98 9.28999 84.98 9.87999 84.98 10.38V11.07C85.01 11.3 85.03 11.5 85.28 11.75C85.31 11.6 85.38 11.43 85.47 11.24L86.71 9.14999L86.94 8.74999C88.01 7.98999 89.01 7.98999 90.01 7.98999C90.34 7.31999 90.23 7.09999 89.95 7.02999C89.81 6.99999 89.63 6.99999 89.43 6.99999C87.01 5.97999 86.01 4.97999 84.01 4.97999C86.01 4.97999 88.01 4.97999 89.91 3.70999C90 3.57999 90.07 3.44999 90.15 3.32999L91.95 0.28999H94.42C94.84 0.28999 95.05 0.44999 95.05 0.75999C95.05 1.06999 94.84 1.22999 94.42 1.22999H93.15V4.14999C93.15 4.70999 93.15 5.29999 92.99 5.72999C92.91 5.93999 93.21 6.40999 93.45 6.79999C93.69 7.18999 93.89 7.51999 93.93 7.82999C94.01 8.44999 93.14 9.01999 93.14 9.56999V10.36C93.2 10.63 93.27 10.88 93.4 11.13C93.01 12.99 96.01 11.99 96.01 13.99H93.01C93.01 9.98999 95.01 14.99 96.01 12.99C94.01 12.99 93.01 12.99 92.2 11.12V9.67999C92.9 9.50999 93.25 9.31999 93.78 9.12999C95.02 8.98999 96.02 8.98999 96.02 7.98999C96.02 7.98999 95.02 6.98999 94.63 7.17999C94.23 7.04999 93.9 6.91999 93.53 6.79999C93.32 6.63999 93.13 6.51999 92.89 6.35999C90.02 5.98999 87.02 3.98999 84.02 4.98999C87.02 4.98999 89.02 4.98999 92.11 4.62999C92.15 4.48999 92.17 4.34999 92.21 4.21999V1.67999L90.91 3.87999C90.79 3.98999 90.66 4.09999 90.48 4.22999C88.02 5.99999 86.02 3.99999 84.02 4.99999C87.02 3.99999 88.02 5.99999 89.79 6.82999C89.97 6.88999 90.15 6.95999 90.34 7.03999C90.53 7.11999 90.71 7.20999 90.9 7.29999C91.09 7.38999 91.28 7.47999 91.46 7.56999C91.64 7.65999 91.84 7.74999 92.05 7.83999C93.02 8.24999 94.02 8.49999 95.02 7.99999C93.02 7.99999 90.02 8.99999 87.7 9.29999L87.45 9.71999L86.22 11.81C86.1 12.01 86 12.19 86.17 12.32C89.01 14 93.01 13 96.01 13C93.01 14 89.01 11 86.01 14C85.01 13 83.01 15 83.01 13C87.01 13 92.01 13 96.09 13.29L96.08 13.3ZM100.45 8.05999C100.45 8.05999 100.41 8.33999 100.35 8.74999V12.5H103.58C103.8 12.5 103.97 12.54 104.06 12.63C104.16 12.71 104.21 12.82 104.21 12.97C104.21 13.1 104.16 13.22 104.06 13.31C103.96 13.4 103.8 13.44 103.58 13.44H98.13C97.91 13.44 97.74 13.39 97.65 13.31C97.55 13.22 97.5 13.11 97.5 12.97C97.5 12.83 97.55 12.72 97.65 12.63C97.75 12.54 97.91 12.5 98.13 12.5H99.4V1.24999H98.13C97.91 1.24999 97.74 1.20999 97.65 1.12999C97.55 1.03999 97.5 0.91999 97.5 0.77999C97.5 0.63999 97.55 0.52999 97.65 0.43999C97.75 0.34999 97.91 0.30999 98.13 0.30999H103.61C104.9 0.30999 105.96 0.68999 106.78 1.45999C107.05 1.70999 107.28 1.97999 107.47 2.26999C107.56 2.40999 107.64 2.55999 107.71 2.70999C110 5.01999 112 4.01999 114 4.01999C112 6.01999 110 4.01999 107.95 5.43999C107.75 5.54999 107.67 5.66999 107.6 5.79999C107.47 6.03999 107.32 6.25999 107.16 6.44999C107 6.63999 106.83 6.80999 106.71 6.93999C107.63 7.14999 108.84 7.32999 108.71 7.47999C108.58 7.62999 106.96 7.75999 105.3 7.85999C104.69 7.92999 104.44 7.97999 104.17 8.01999C103.9 8.05999 103.6 8.06999 103.28 8.06999H103.06C103.58 8.09999 103.89 8.11999 104.53 8.15999C106.99 8.01999 107.99 8.01999 109.99 8.01999C106.99 8.01999 103.99 8.01999 100.83 8.08999C100.57 8.08999 100.43 8.07999 100.43 8.07999L100.45 8.05999ZM100.34 7.10999C100.34 7.10999 100.74 7.10999 101.83 7.13999C102.92 7.16999 103.17 7.15999 103.09 7.13999C103.01 7.11999 103.35 7.11999 103.35 7.11999C104.05 7.11999 104.7 6.96999 105.3 6.65999C105.76 6.41999 106.13 6.14999 106.4 5.83999C106.49 5.73999 106.57 5.62999 106.66 5.50999C109 4.00999 112 6.00999 114 5.00999C112 3.00999 109 5.00999 106.68 2.75999C106.58 2.64999 106.5 2.54999 106.41 2.44999C106.32 2.34999 106.22 2.24999 106.12 2.14999C105.48 1.55999 104.68 1.25999 103.71 1.25999H100.35V7.11999L100.34 7.10999ZM121.88 6.83999C122.14 7.08999 122.32 7.23999 122.49 7.36999C123.34 7.99999 124.17 7.99999 125.01 7.99999C124.01 8.99999 123.01 8.99999 122.37 9.29999C121.97 9.48999 121.72 9.67999 121.45 9.85999C121.38 10.04 121.3 10.23 121.22 10.41C120.71 11.48 120.01 12.32 119.11 12.91C118.22 13.51 117.26 13.81 116.23 13.81C115.66 13.81 115.12 13.72 114.6 13.54C114.42 13.48 114.25 13.41 114.08 13.32C112.02 11 108.02 13 106.02 11C108.02 11 109.02 11 111.27 10.6C111.25 10.46 111.18 10.31 111.11 10.15C110.7 9.19999 110.49 8.11999 110.49 6.89999C110.49 6.69999 110.49 6.49999 110.51 6.29999C110.54 6.09999 110.58 5.90999 110.71 5.71999C111.02 3.98999 113.02 5.98999 114.02 4.98999C114.02 2.98999 112.02 3.98999 111.49 3.18999C111.43 3.02999 111.5 2.88999 111.6 2.73999C111.78 2.44999 111.99 2.17999 112.22 1.91999C113.38 0.62999 114.72 -0.0100098 116.24 -0.0100098C117.27 -0.0100098 118.22 0.28999 119.12 0.88999C119.86 1.38999 120.47 2.04999 120.95 2.87999C121.05 3.04999 121.14 3.21999 121.22 3.39999C121.02 4.99999 118.02 2.99999 118.02 4.99999C120.02 3.99999 121.02 5.99999 121.59 6.29999C121.7 6.47999 121.81 6.65999 121.9 6.83999H121.88ZM121.02 6.90999C121 4.99999 119 4.99999 118 4.99999C117 2.99999 121 4.99999 120 3.23999C119.9 3.07999 119.8 2.92999 119.69 2.76999C118.8 1.54999 117.65 0.93999 116.23 0.93999C114.9 0.93999 113.77 1.51999 112.83 2.68999C112.71 2.83999 112.6 2.97999 112.58 3.14999C112.01 3.98999 115.01 3.98999 114.01 4.98999C113.01 5.98999 112.01 3.98999 111.6 5.70999C111.49 5.88999 111.47 6.08999 111.45 6.28999C111.44 6.48999 111.43 6.68999 111.43 6.89999C111.43 7.77999 111.55 8.56999 111.8 9.28999C111.86 9.46999 111.93 9.63999 112.01 9.80999C110.02 11.99 108.02 9.98999 106.02 10.99C109.02 13.99 112.02 9.98999 115.23 12.7C115.43 12.76 115.61 12.8 115.78 12.83C115.93 12.85 116.08 12.86 116.24 12.86C117.66 12.86 118.81 12.25 119.7 11.04C120.03 10.58 120.31 10.1 120.51 9.59999C120.58 9.42999 120.64 9.25999 120.7 9.08999C120.913 8.35666 121.023 7.81666 121.03 7.46999C121.03 7.27999 121.03 7.08999 121.03 6.89999L121.02 6.90999ZM125.99 12.5V9.57999C126.11 9.02999 126.33 8.43999 126.16 7.81999C125.99 7.19999 125.99 6.55999 125.99 5.93999V1.24999H124.72C124.5 1.24999 124.33 1.20999 124.24 1.12999C124.14 1.03999 124.09 0.91999 124.09 0.77999C124.09 0.63999 124.14 0.52999 124.24 0.43999C124.34 0.34999 124.5 0.30999 124.72 0.30999H130.65C131.82 0.30999 132.78 0.64999 133.51 1.32999C133.76 1.54999 133.96 1.78999 134.13 2.03999C134.21 2.16999 134.29 2.28999 134.37 2.42999C134.99 1.99999 134.99 2.99999 134.99 3.99999C134.99 3.99999 133.99 4.99999 134.44 4.78999C134.34 4.95999 134.26 5.11999 134.16 5.26999C133.85 5.73999 133.39 6.14999 132.77 6.49999C132.93 6.55999 133.09 6.61999 133.24 6.68999C133.39 6.75999 133.53 6.81999 133.66 6.88999C134.99 5.99999 134.99 8.99999 135.99 7.99999C135.99 8.49999 135.99 8.74999 135.94 9.03999C135.96 9.17999 135.97 9.31999 136 9.49999C134.99 11 132.99 11 130.99 12H133.99C133.99 12.6667 133.573 13.0933 132.74 13.28C132.63 13.34 132.47 13.38 132.3 13.41C132.13 13.44 131.95 13.44 131.77 13.44H124.72C124.5 13.44 124.33 13.39 124.24 13.31C124.14 13.22 124.09 13.11 124.09 12.97C124.09 12.83 124.14 12.72 124.24 12.63C124.34 12.54 124.5 12.5 124.72 12.5H125.99ZM126.94 6.13999H130.28C130.99 6.13999 131.64 6.00999 132.23 5.74999C132.46 5.64999 132.66 5.51999 132.84 5.36999C133.02 5.21999 133.17 5.03999 133.4 4.84999C133 3.99999 134 3.99999 135 3.99999C135 1.99999 133 1.99999 132.25 1.58999C132.12 1.52999 132.01 1.47999 131.89 1.42999C131.53 1.29999 131.13 1.23999 130.68 1.23999H126.94V2.00999C126.98 2.66999 126.98 3.22999 126.94 3.68999C126.94 3.99999 126.94 4.29999 126.94 4.58999V6.13999ZM126.94 12.5H128.45C129 12 130 12 131 12H129H132C131 11 129 13 128 11C131 9.99999 134 12 136.24 9.58999C136.33 9.36999 136.48 9.22999 136.64 9.09999C139.46 8.33999 142.56 8.99999 145 8.99999C142.33 8.99999 139.67 9.43999 136.93 8.97999C136.47 8.89999 136.02 8.79999 135.57 8.67999C135.12 8.55999 134.64 8.36999 134.17 8.16999C133.71 7.96999 133.24 7.72999 132.77 7.43999C132.57 7.35999 132.35 7.29999 132.1 7.24999C131.61 7.14999 131.01 7.09999 130.32 7.09999H129.44C128.94 7.09999 128.31 7.09999 127.85 7.09999C127.99 9.99999 129.99 6.99999 129.99 7.99999C129.99 8.99999 129.99 8.99999 128.71 9.10999C128.31 9.25999 127.98 9.40999 126.93 9.52999V12.5H126.94ZM146.94 9.04999H145.64C144 7.99999 143 9.99999 141.01 9.94999C140.74 10.08 140.54 10.21 140.26 10.35L139.47 12.5H141.28C141.5 12.5 141.66 12.54 141.76 12.63C141.86 12.71 141.91 12.82 141.91 12.97C141.91 13.1 141.86 13.22 141.76 13.31C141.66 13.4 141.5 13.44 141.28 13.44H137.75C137.53 13.44 137.36 13.39 137.27 13.31C137.17 13.22 137.12 13.11 137.12 12.97C137 13 138 12 137.75 12.5H138.48L139.13 10.74C139.2 10.62 139.28 10.5 139.39 10.38C141 11 142 7.99999 144 8.99999C142 8.99999 141 8.99999 140.3 7.80999C140.28 7.65999 140.34 7.49999 140.4 7.33999L141.37 4.71999C141.49 4.44999 141.61 4.18999 141.74 3.93999C143.01 2.99999 141.01 1.99999 142.52 1.59999L142.65 1.24999H139.87C139.64 1.24999 139.48 1.20999 139.39 1.12999C139.29 1.03999 139.24 0.91999 139.24 0.77999C139.24 0.63999 139.29 0.52999 139.39 0.43999C139.49 0.34999 139.65 0.30999 139.87 0.30999H144.62L145.21 1.87999C145.29 1.98999 145.37 2.09999 145.51 2.20999C146.01 3.99999 149.01 1.99999 149.01 3.99999C148.01 3.99999 147.01 3.99999 146.41 5.03999L146.58 5.48999L147.97 9.16999C148 9.29999 148.02 9.42999 148.03 9.56999C148.017 10.5233 148.273 11.1433 148.8 11.43C148.88 11.59 148.94 11.74 148.99 11.88L149.23 12.51H149.96C150.18 12.51 150.34 12.55 150.44 12.64C150.54 12.72 150.59 12.83 150.59 12.98C150.59 13.11 150.54 13.23 150.44 13.32C150.34 13.41 150.18 13.45 149.96 13.45H146.45C146.22 13.45 146.05 13.4 145.96 13.32C145.86 13.23 145.81 13.12 145.81 12.98C145.81 12.84 145.86 12.73 145.96 12.64C146 12.22 146.463 12.1767 147.35 12.51H148.25L148.15 12.25C147.02 12.01 146.02 10.01 144.02 11.01C145.02 11.01 147.02 11.01 147.03 9.31999C146.99 9.14999 146.96 9.05999 146.96 9.05999L146.94 9.04999ZM146.58 8.10999L145.44 5.10999C145.39 4.96999 145.34 4.82999 145.36 4.67999C146 2.99999 148 3.99999 149 3.99999C148 2.99999 146 2.99999 144.17 1.74999L143.98 1.23999H143.63L143.48 1.65999C144.01 2.99999 145.01 2.99999 147.01 2.99999C146.01 4.99999 144.01 2.99999 142.93 4.24999C142.77 4.35999 142.65 4.46999 142.42 4.54999L141.5 7.03999L141.29 7.59999C142 7.99999 144 7.99999 145.4 8.10999H146.58ZM158.11 1.24999V2.66999C160 3.99999 161 4.99999 163 4.99999C161 4.99999 159 3.99999 158.11 5.93999V7.73999C157 8.99999 156 8.99999 154 8.99999C154 11 158 7.99999 158.01 10.56C158.11 10.79 158.11 11.01 158.11 11.2V12.49H160.56C160.78 12.49 160.94 12.53 161.04 12.62C161.14 12.7 161.19 12.81 161.19 12.96C161.19 13.09 161.14 13.21 161.04 13.3C160.94 13.39 160.78 13.43 160.56 13.43H154.71C154.49 13.43 154.33 13.38 154.23 13.3C154.13 13.21 154.08 13.1 154.08 12.96C154.08 12.82 154.13 12.71 154.23 12.62C154.33 12.53 154.49 12.49 154.71 12.49H157.16V10.73C157.08 10.61 157.01 10.49 156.88 10.37C156.01 8.98999 154.01 10.99 154.01 8.98999C155.01 9.98999 156.01 7.98999 157.17 7.79999C157.17 7.64999 157.17 7.48999 157.17 7.32999V5.92999C157.17 5.77999 157.17 5.61999 157.25 5.48999C159.01 4.98999 161.01 4.98999 163.01 4.98999C161.01 3.98999 159.01 3.98999 157.17 2.65999C157.17 2.43999 157.17 2.24999 157.17 2.06999V1.23999H153.31V2.08999C153.31 2.32999 153.32 2.59999 153.4 2.82999C156.02 3.99999 160.02 3.99999 163.02 4.99999C161.02 3.99999 159.02 5.99999 157.02 3.99999C155.02 3.99999 154.02 3.99999 153.02 4.99999C153.02 4.99999 153.02 3.99999 152.54 3.74999C152.38 3.44999 152.37 2.92999 152.37 2.40999V0.29999H162.94V2.40999C162.94 2.93999 162.94 3.46999 163.06 3.92999C163.02 9.99999 162.02 3.99999 162.36 3.88999C162.03 3.19999 162 2.57999 162 2.09999V1.24999H158.14H158.11ZM168.38 1.24999V1.45999C168.38 1.58999 168.38 1.78999 168.53 2.03999C170 3.00999 171 3.00999 172 3.00999C172 6.00999 168 3.00999 168.4 4.60999C168.39 4.74999 168.38 4.88999 168.38 5.01999V6.15999H169.28C169.79 6.15999 170.44 6.15999 170.81 6.25999C171.603 6.09999 172.337 6.08666 173.01 6.21999C173.19 6.23999 173.37 6.25999 173.54 6.28999C173.71 6.31999 173.88 6.34999 174.04 6.38999C174.2 6.42999 174.35 6.46999 174.5 6.51999C174 6.99999 175 6.99999 175 6.99999C173 5.99999 172 7.99999 171 7.99999C173 7.99999 175 7.99999 177.06 9.78999C177.06 9.96999 177.05 10.14 177.03 10.31C176.92 11.14 176.55 11.85 175.92 12.42C175.54 12.76 175.12 13.02 174.67 13.19C174.52 13.25 174.37 13.29 174.29 13.3C174 13 173 13 173.11 13.29C172.55 13.38 171.91 13.45 171.39 13.45H166.17C165.75 13.45 165.54 13.29 165.54 12.98C165.54 12.82 165.59 12.7 165.7 12.63C169.01 11.01 172.01 12.01 175.01 12.01C172.01 12.01 170.01 11.01 167.46 9.62999C167.44 9.49999 167.44 9.36999 167.44 9.23999V5.03999C167.47 4.88999 167.49 4.73999 167.53 4.59999C169 3.00999 171 5.00999 172 4.00999C171 2.00999 168 4.00999 167.43 1.63999V1.24999H166.16C165.74 1.24999 165.53 1.08999 165.53 0.77999C165.53 0.46999 165.74 0.30999 166.16 0.30999H169.64C170.06 0.30999 170.27 0.46999 170.27 0.77999C170.27 1.08999 170.06 1.24999 169.64 1.24999H168.37H168.38ZM168.49 12.52C170 13 173 13 174.68 12.14C174.79 12.08 174.89 12.01 174.99 11.94C175.09 11.87 175.19 11.78 175.28 11.69C175.69 11.29 175.95 10.83 176.05 10.33C176.08 10.16 176.1 9.98999 176.1 9.80999C175 7.98999 173 7.98999 171 7.98999C171 6.98999 172 6.98999 173 6.98999C172 5.98999 171 7.98999 170.41 7.14999C170.35 7.09999 170.22 7.08999 170.08 7.08999H168.38V9.38999C168.41 9.52999 168.43 9.66999 168.47 9.80999C170 11 172 13 175 12C173 12 171 12 168.7 12.4C168.54 12.47 168.49 12.52 168.49 12.52Z" fill="white"/>
</g>
<defs>
<clipPath id="clip0_612_604">
<rect width="177.06" height="14" fill="white"/>
</clipPath>
</defs>
</svg>
