<svg width="979" height="30" viewBox="0 0 979 30" fill="none" xmlns="http://www.w3.org/2000/svg">
<path d="M0 30H979V0H0V30ZM218.247 29.2536H205.304V20.3932H218.247V29.2536ZM276.419 29.2536H252.555V20.3932H276.419V29.2536ZM296.23 19.396H260.201V10.5357H296.23V19.396ZM319.786 29.2536H306.684V20.3932H319.786V29.2536ZM324.072 19.396H304.653V10.5357H324.072V19.396ZM337.567 29.2536H324.465V20.3932H337.567V29.2536ZM385.444 29.2536H357.837V20.3932H385.444V29.2536ZM361.271 19.396V10.5357H384.667V19.396H361.271ZM483.398 29.2536H464.682V20.3932H483.398V29.2536ZM506.794 29.2536H488.078V20.3932H506.794V29.2536ZM516.78 19.396H494.32V10.5357H516.78V19.396ZM557.33 29.2536H525.511V20.3932H557.33V29.2536ZM600.846 29.2536H587.276V20.3932H600.846V29.2536ZM623.774 29.2536H610.205V20.3932H623.774V29.2536ZM665.887 29.2536H654.189V20.3932H665.887V29.2536ZM785.834 29.2536H750.272V20.3932H785.834V29.2536ZM800.957 19.396H782.633V10.5357H800.957V19.396ZM956.531 0.785815H964.476V9.53845H956.531V0.785815ZM956.531 10.5357H964.476V19.396H956.531V10.5357ZM956.531 20.3932H964.476V29.2536H956.531V20.3932ZM942.296 0.785815H949.512V9.53845H942.296V0.785815ZM942.296 10.5357H949.512V19.396H942.296V10.5357ZM942.296 20.3932H949.512V29.2536H942.296V20.3932ZM888.505 0.785815H935.278V9.53845H888.505V0.785815ZM888.505 10.5357H935.278V19.396H888.505V10.5357ZM888.505 20.3932H935.278V29.2536H888.505V20.3932ZM830.988 0.785815H879.155V9.53845H830.988V0.785815ZM830.988 10.5357H879.155V19.396H830.988V10.5357ZM830.988 20.3932H879.155V29.2536H830.988V20.3932ZM795.697 0.785815H802.913V9.53845H795.697V0.785815ZM775.305 0.785815H791.018V9.53845H775.305V0.785815ZM772.966 19.396H754.642V10.5357H772.966V19.396ZM741.147 0.785815H770.626V9.53845H741.147V0.785815ZM730.853 10.5357H744.657V19.396H730.853V10.5357ZM705.585 0.785815H722.43V9.53845H705.585V0.785815ZM720.868 10.5357V19.396H707.064V10.5357H720.868ZM703.321 20.3932H731.237V29.2536H703.321V20.3932ZM684.061 0.785815H700.906V9.53845H684.061V0.785815ZM683.284 10.5357H697.088V19.396H683.284V10.5357ZM673.299 19.396H647.638V10.5357H673.299V19.396ZM652.551 0.785815H667.216V9.53845H652.551V0.785815ZM633.208 0.785815H647.872V9.53845H633.208V0.785815ZM633.133 20.3932H644.831V29.2536H633.133V20.3932ZM627.05 19.396H593.051V10.5357H627.05V19.396ZM582.055 0.785815H605.759V9.53845H582.055V0.785815ZM569.336 19.396H533.307V10.5357H569.336V19.396ZM516.546 0.785815H544.621V9.53845H516.546V0.785815ZM483.249 0.785815H497.829V9.53845H483.249V0.785815ZM460.236 0.785815H474.817V9.53845H460.236V0.785815ZM426.546 0.785815H441.828V9.53845H426.546V0.785815ZM425.769 10.5357H443.475V19.396H425.769V10.5357ZM422.26 20.3932H455.323V29.2536H422.26V20.3932ZM421.09 19.396H403.384V10.5357H421.09V19.396ZM402.841 0.785815H418.124V9.53845H402.841V0.785815ZM369.853 0.785815H386.932V9.53845H369.853V0.785815ZM352.774 0.785815H361.43V9.53845H352.774V0.785815ZM332.494 10.5357H351.913V19.396H332.494V10.5357ZM291.944 0.785815H324.699V9.53845H291.944V0.785815ZM245.152 0.785815H273.228V9.53845H245.152V0.785815ZM228.382 19.396H204.359V10.5357H228.382V19.396ZM184.323 0.785815H226.436V9.53845H184.323V0.785815ZM183.93 20.3932H196.872V29.2536H183.93V20.3932ZM162.667 0.785815H174.965V9.53845H162.667V0.785815ZM162.667 10.5357H171.923V19.396H162.667V10.5357ZM162.667 20.3932H174.571V29.2536H162.667V20.3932ZM128.884 0.785815H143.941V9.53845H128.884V0.785815ZM128.884 10.5357H143.941V19.396H128.884V10.5357ZM128.884 20.3932H143.941V29.2536H128.884V20.3932ZM104.973 0.785815H119.525V9.53845H104.973V0.785815ZM104.973 10.5357H119.525V19.396H104.973V10.5357ZM104.973 20.3932H119.525V29.2536H104.973V20.3932ZM61.1757 0.785815H86.2563V9.53845H61.1757V0.785815ZM61.1757 10.5357H86.2563V19.396H61.1757V10.5357ZM61.1757 20.3932H86.2563V29.2536H61.1757V20.3932ZM46.951 0.785815H54.1569V9.53845H46.951V0.785815ZM46.951 10.5357H54.1569V19.396H46.951V10.5357ZM46.951 20.3932H54.1569V29.2536H46.951V20.3932ZM23.8919 0.785815H39.9322V9.53845H23.8919V0.785815ZM23.8919 10.5357H39.9322V19.396H23.8919V10.5357ZM23.8919 20.3932H39.9322V29.2536H23.8919V20.3932Z" fill="white"/>
</svg>
