<svg width="1308" height="30" viewBox="0 0 1308 30" fill="none" xmlns="http://www.w3.org/2000/svg">
<path d="M329 30H1308V0H329V30ZM547.247 29.2536H534.304V20.3932H547.247V29.2536ZM605.419 29.2536H581.555V20.3932H605.419V29.2536ZM625.23 19.396H589.201V10.5357H625.23V19.396ZM648.786 29.2536H635.684V20.3932H648.786V29.2536ZM653.072 19.396H633.653V10.5357H653.072V19.396ZM666.567 29.2536H653.465V20.3932H666.567V29.2536ZM714.444 29.2536H686.837V20.3932H714.444V29.2536ZM690.271 19.396V10.5357H713.667V19.396H690.271ZM812.398 29.2536H793.682V20.3932H812.398V29.2536ZM835.794 29.2536H817.078V20.3932H835.794V29.2536ZM845.78 19.396H823.32V10.5357H845.78V19.396ZM886.33 29.2536H854.511V20.3932H886.33V29.2536ZM929.846 29.2536H916.276V20.3932H929.846V29.2536ZM952.774 29.2536H939.205V20.3932H952.774V29.2536ZM994.887 29.2536H983.189V20.3932H994.887V29.2536ZM1114.83 29.2536H1079.27V20.3932H1114.83V29.2536ZM1129.96 19.396H1111.63V10.5357H1129.96V19.396ZM1285.53 0.785815H1293.48V9.53845H1285.53V0.785815ZM1285.53 10.5357H1293.48V19.396H1285.53V10.5357ZM1285.53 20.3932H1293.48V29.2536H1285.53V20.3932ZM1271.3 0.785815H1278.51V9.53845H1271.3V0.785815ZM1271.3 10.5357H1278.51V19.396H1271.3V10.5357ZM1271.3 20.3932H1278.51V29.2536H1271.3V20.3932ZM1217.5 0.785815H1264.28V9.53845H1217.5V0.785815ZM1217.5 10.5357H1264.28V19.396H1217.5V10.5357ZM1217.5 20.3932H1264.28V29.2536H1217.5V20.3932ZM1159.99 0.785815H1208.16V9.53845H1159.99V0.785815ZM1159.99 10.5357H1208.16V19.396H1159.99V10.5357ZM1159.99 20.3932H1208.16V29.2536H1159.99V20.3932ZM1124.7 0.785815H1131.91V9.53845H1124.7V0.785815ZM1104.31 0.785815H1120.02V9.53845H1104.31V0.785815ZM1101.97 19.396H1083.64V10.5357H1101.97V19.396ZM1070.15 0.785815H1099.63V9.53845H1070.15V0.785815ZM1059.85 10.5357H1073.66V19.396H1059.85V10.5357ZM1034.59 0.785815H1051.43V9.53845H1034.59V0.785815ZM1049.87 10.5357V19.396H1036.06V10.5357H1049.87ZM1032.32 20.3932H1060.24V29.2536H1032.32V20.3932ZM1013.06 0.785815H1029.91V9.53845H1013.06V0.785815ZM1012.28 10.5357H1026.09V19.396H1012.28V10.5357ZM1002.3 19.396H976.638V10.5357H1002.3V19.396ZM981.551 0.785815H996.216V9.53845H981.551V0.785815ZM962.208 0.785815H976.872V9.53845H962.208V0.785815ZM962.133 20.3932H973.831V29.2536H962.133V20.3932ZM956.05 19.396H922.051V10.5357H956.05V19.396ZM911.055 0.785815H934.759V9.53845H911.055V0.785815ZM898.336 19.396H862.307V10.5357H898.336V19.396ZM845.546 0.785815H873.621V9.53845H845.546V0.785815ZM812.249 0.785815H826.829V9.53845H812.249V0.785815ZM789.236 0.785815H803.817V9.53845H789.236V0.785815ZM755.546 0.785815H770.828V9.53845H755.546V0.785815ZM754.769 10.5357H772.475V19.396H754.769V10.5357ZM751.26 20.3932H784.323V29.2536H751.26V20.3932ZM750.09 19.396H732.384V10.5357H750.09V19.396ZM731.841 0.785815H747.124V9.53845H731.841V0.785815ZM698.853 0.785815H715.932V9.53845H698.853V0.785815ZM681.774 0.785815H690.43V9.53845H681.774V0.785815ZM661.494 10.5357H680.913V19.396H661.494V10.5357ZM620.944 0.785815H653.699V9.53845H620.944V0.785815ZM574.152 0.785815H602.228V9.53845H574.152V0.785815ZM557.382 19.396H533.359V10.5357H557.382V19.396ZM513.323 0.785815H555.436V9.53845H513.323V0.785815ZM512.93 20.3932H525.872V29.2536H512.93V20.3932ZM491.667 0.785815H503.965V9.53845H491.667V0.785815ZM491.667 10.5357H500.923V19.396H491.667V10.5357ZM491.667 20.3932H503.571V29.2536H491.667V20.3932ZM457.884 0.785815H472.941V9.53845H457.884V0.785815ZM457.884 10.5357H472.941V19.396H457.884V10.5357ZM457.884 20.3932H472.941V29.2536H457.884V20.3932ZM433.973 0.785815H448.525V9.53845H433.973V0.785815ZM433.973 10.5357H448.525V19.396H433.973V10.5357ZM433.973 20.3932H448.525V29.2536H433.973V20.3932ZM390.176 0.785815H415.256V9.53845H390.176V0.785815ZM390.176 10.5357H415.256V19.396H390.176V10.5357ZM390.176 20.3932H415.256V29.2536H390.176V20.3932ZM375.951 0.785815H383.157V9.53845H375.951V0.785815ZM375.951 10.5357H383.157V19.396H375.951V10.5357ZM375.951 20.3932H383.157V29.2536H375.951V20.3932ZM352.892 0.785815H368.932V9.53845H352.892V0.785815ZM352.892 10.5357H368.932V19.396H352.892V10.5357ZM352.892 20.3932H368.932V29.2536H352.892V20.3932Z" fill="white"/>
</svg>
