<svg width="796" height="277" viewBox="0 0 796 277" fill="none" xmlns="http://www.w3.org/2000/svg">
<path d="M117.585 105.786C189.696 103.868 289.162 105.418 398.879 110.896C508.595 116.375 607.722 124.741 679.283 133.833C715.079 138.381 743.903 143.101 763.686 147.715C773.599 150.027 781.105 152.282 786.052 154.421C788.542 155.498 790.208 156.473 791.191 157.295C791.618 157.651 791.829 157.906 791.934 158.057C791.815 158.197 791.579 158.428 791.119 158.74C790.059 159.46 788.305 160.264 785.72 161.088C780.585 162.724 772.891 164.22 762.796 165.533C742.652 168.153 713.501 169.978 677.431 170.938C605.319 172.856 505.853 171.306 396.137 165.828C286.42 160.35 187.294 151.983 115.732 142.891C79.9371 138.343 51.1131 133.623 31.3301 129.009C21.4157 126.697 13.9094 124.442 8.96289 122.303C6.47314 121.226 4.80752 120.252 3.82422 119.43C3.39731 119.073 3.18501 118.818 3.08105 118.667C3.19969 118.527 3.43678 118.296 3.89648 117.983C4.95676 117.263 6.71116 116.46 9.2959 115.637C14.4309 114.001 22.1243 112.505 32.2197 111.191C52.364 108.571 81.5146 106.746 117.585 105.786Z" stroke="#6B6B6B" stroke-width="6"/>
<path d="M762.071 4.50293C764.113 4.52693 765.618 4.6834 766.67 4.89746C765.998 5.73409 764.94 6.81555 763.385 8.13867C759.383 11.5426 752.957 15.8402 744.175 20.9365C726.671 31.0938 700.542 44.0095 667.655 58.8164C601.923 88.4122 509.611 125.379 406.313 162.685C303.016 199.991 208.386 230.538 138.911 249.772C104.153 259.395 75.801 266.157 55.8467 269.527C45.8349 271.219 38.1456 272.019 32.8926 271.957C30.8494 271.933 29.3438 271.777 28.292 271.562C28.9642 270.726 30.0233 269.645 31.5791 268.321C35.5804 264.917 42.0071 260.621 50.7891 255.524C68.2924 245.367 94.4223 232.451 127.309 217.645C193.041 188.049 285.353 151.082 388.65 113.776C491.948 76.4704 586.577 45.9219 656.052 26.6875C690.81 17.0644 719.163 10.3042 739.117 6.93359C749.129 5.24241 756.818 4.44119 762.071 4.50293Z" stroke="#6B6B6B" stroke-width="9"/>
<path d="M222.847 54.5676H243.451L280.178 132.95H276.595L263.494 104.956H219.04L205.603 132.95H185L222.847 54.5676ZM241.547 58.3748L220.608 101.709H261.926L241.547 58.3748Z" fill="white"/>
<path d="M292.974 58.3748C299.095 54.7916 306.747 53 315.929 53C326.604 53 335.599 55.6874 342.915 61.0622C350.305 66.4369 355.344 74.2005 358.031 84.3528L353.328 85.2486C349.073 80.5457 344.034 77.2984 338.212 75.5069C332.389 73.6406 325.857 72.7075 318.616 72.7075H312.569C307.941 72.7075 303.014 73.1554 297.789 74.0512C292.638 74.8723 288.234 76.216 284.576 78.0823C280.918 79.9485 279.089 82.3 279.089 85.1367C279.089 86.7789 279.873 88.0853 281.441 89.0558C283.008 90.0262 285.658 90.7727 289.391 91.2952C293.198 91.7431 298.461 91.9671 305.179 91.9671H335.524C340.974 91.9671 345.714 92.7509 349.745 94.3186C353.851 95.8115 355.904 98.9468 355.904 103.724C355.904 108.95 354.299 113.951 351.089 118.729C347.879 123.507 343.325 127.351 337.428 130.262C331.605 133.174 324.924 134.629 317.384 134.629C294.467 134.629 280.022 124.178 274.05 103.277L278.641 102.381C283.419 107.084 288.458 110.406 293.758 112.346C299.133 114.213 305.702 115.146 313.465 115.146H319.512C324.289 115.146 329.216 114.661 334.292 113.69C339.443 112.72 343.773 111.301 347.281 109.435C350.79 107.494 352.544 105.18 352.544 102.493C352.544 100.179 351.238 98.4989 348.625 97.4538C346.087 96.3341 342.84 95.6622 338.883 95.4383C334.927 95.1397 329.403 94.9904 322.311 94.9904H297.341C290.772 94.9904 285.472 94.2812 281.441 92.8629C277.484 91.3699 275.506 88.3839 275.506 83.9049C275.506 80.0978 276.887 75.8055 279.649 71.0279C282.486 66.1757 286.927 61.958 292.974 58.3748Z" fill="white"/>
<path d="M396.607 132.95V74.1632H359.208V54.5676H437.366V74.1632H399.854V132.95H396.607Z" fill="white"/>
<path d="M524.456 126.343C524.456 128.583 523.598 130.524 521.881 132.166C520.239 133.808 518.335 134.629 516.17 134.629C512.363 134.629 509.191 133.883 506.653 132.39C504.114 130.822 502.062 128.807 500.494 126.343C498.926 123.88 497.209 120.595 495.343 116.489C493.477 112.533 491.947 109.51 490.752 107.42L487.281 100.029H446.186V132.95H442.939V54.5676H446.186V54.6796H483.138C492.021 54.6796 498.553 55.6127 502.733 57.479C506.988 59.3452 509.788 62.3312 511.132 66.4369C512.475 70.5427 513.147 76.7012 513.147 84.9127C512.774 89.6903 510.945 93.4228 507.66 96.1101C504.45 98.7229 500.419 100.029 495.567 100.029H490.864L498.926 116.713C500.494 119.998 502.062 122.835 503.629 125.223C505.272 127.538 507.063 129.18 509.004 130.15C508.407 128.956 508.108 127.724 508.108 126.455C508.108 124.141 508.892 122.2 510.46 120.633C512.102 119.065 514.043 118.281 516.282 118.281C518.522 118.281 520.425 119.065 521.993 120.633C523.635 122.2 524.456 124.104 524.456 126.343ZM495.567 96.782C499.449 96.782 502.808 95.7369 505.645 93.6467C508.481 91.5565 509.9 88.6825 509.9 85.0247C509.9 81.2922 508.295 78.5675 505.085 76.8505C501.95 75.059 497.919 74.1632 492.992 74.1632H446.186V96.782H495.567Z" fill="white"/>
<path d="M567.973 53C575.737 53 582.791 54.8289 589.137 58.4867C595.556 62.1446 600.595 67.1088 604.253 73.3793C607.986 79.5753 609.852 86.3684 609.852 93.7587C609.852 101.224 607.986 108.091 604.253 114.362C600.595 120.558 595.556 125.485 589.137 129.143C582.791 132.8 575.737 134.629 567.973 134.629H563.718C555.88 134.629 548.751 132.8 542.331 129.143C535.911 125.485 530.873 120.558 527.215 114.362C523.557 108.091 521.728 101.224 521.728 93.7587C521.728 86.2937 523.557 79.4633 527.215 73.2674C530.873 67.0714 535.911 62.1446 542.331 58.4867C548.751 54.8289 555.88 53 563.718 53H567.973ZM568.869 115.034C575.737 115.034 582.082 114.101 587.905 112.234C593.727 110.294 598.356 107.718 601.79 104.508C605.224 101.224 606.94 97.6405 606.94 93.7587C606.94 89.9515 605.224 86.443 601.79 83.2331C598.356 79.9485 593.727 77.3731 587.905 75.5069C582.082 73.566 575.737 72.5955 568.869 72.5955H562.823C555.955 72.5955 549.572 73.566 543.675 75.5069C537.852 77.3731 533.224 79.9485 529.79 83.2331C526.356 86.443 524.639 89.9515 524.639 93.7587C524.639 97.6405 526.356 101.224 529.79 104.508C533.224 107.718 537.852 110.294 543.675 112.234C549.572 114.101 555.955 115.034 562.823 115.034H568.869Z" fill="white"/>
<path d="M186.68 182.871C186.68 175.406 188.471 168.575 192.054 162.379C195.712 156.109 200.751 151.145 207.171 147.487C213.591 143.829 220.757 142 228.67 142H232.925C239.569 142 245.727 143.344 251.401 146.031C257.074 148.644 261.852 152.302 265.734 157.005C269.615 161.707 272.265 167.082 273.684 173.129L268.533 174.137C265.472 170.404 260.807 167.381 254.536 165.067C248.266 162.753 241.36 161.596 233.821 161.596H227.774C220.906 161.596 214.561 162.566 208.739 164.507C202.916 166.373 198.25 168.949 194.742 172.233C191.308 175.443 189.591 178.989 189.591 182.871C189.591 186.678 191.308 190.224 194.742 193.508C198.25 196.718 202.916 199.294 208.739 201.234C214.561 203.101 220.906 204.034 227.774 204.034H233.821C241.36 204.034 248.266 202.877 254.536 200.563C260.807 198.248 265.472 195.225 268.533 191.493L273.684 192.5C272.191 198.472 269.541 203.81 265.734 208.513C261.926 213.216 257.186 216.911 251.513 219.598C245.839 222.286 239.643 223.629 232.925 223.629H228.67C220.757 223.629 213.591 221.8 207.171 218.143C200.826 214.485 195.824 209.558 192.166 203.362C188.509 197.091 186.68 190.261 186.68 182.871Z" fill="white"/>
<path d="M355.468 221.95H352.221V192.5H283.692V221.95H280.445V143.568H283.692V173.017H352.221V143.568H355.468V221.95Z" fill="white"/>
<path d="M431.051 202.354V221.95H364.426V143.568H431.051V163.163H367.449V181.191H421.869V184.438H367.449V202.354H431.051Z" fill="white"/>
<path d="M498.008 154.093L456.577 221.95H434.742L482.779 143.568H501.255V211.088L542.686 143.568H561.161V221.95H557.914V154.093L516.484 221.95H498.008V154.093Z" fill="white"/>
<path d="M574.928 223.741C572.689 223.741 570.748 222.957 569.105 221.39C567.538 219.748 566.754 217.807 566.754 215.567C566.754 213.253 567.538 211.312 569.105 209.745C570.748 208.177 572.689 207.393 574.928 207.393C577.168 207.393 579.071 208.177 580.639 209.745C582.281 211.312 583.102 213.253 583.102 215.567C583.102 217.807 582.281 219.748 580.639 221.39C579.071 222.957 577.168 223.741 574.928 223.741Z" fill="white"/>
</svg>
