<svg width="301" height="29" viewBox="0 0 301 29" fill="none" xmlns="http://www.w3.org/2000/svg">
<path d="M8.40039 18.5752V23.3145H13.0498C14.1579 23.3145 14.944 23.5316 15.4082 23.9658C15.8874 24.3851 16.127 24.9391 16.127 25.6279C16.127 26.3018 15.8874 26.8558 15.4082 27.29C14.944 27.7093 14.1579 27.9189 13.0498 27.9189H3.07715C1.96908 27.9189 1.17546 27.7093 0.696289 27.29C0.232096 26.8558 0 26.2943 0 25.6055C0 24.9316 0.239583 24.3851 0.71875 23.9658C1.19792 23.5316 1.98405 23.3145 3.07715 23.3145H3.7959V5.30078H3.07715C1.96908 5.30078 1.17546 5.09115 0.696289 4.67188C0.232096 4.23763 0 3.67611 0 2.9873C0 2.2985 0.232096 1.74447 0.696289 1.3252C1.17546 0.890951 1.96908 0.673828 3.07715 0.673828L13.6787 0.696289C16.7933 0.696289 19.2565 1.5498 21.0684 3.25684C22.8952 4.94889 23.8086 7.0153 23.8086 9.45605C23.8086 10.8037 23.5016 12.0765 22.8877 13.2744C22.4235 14.1729 21.6449 15.0638 20.5518 15.9473C19.4736 16.8158 18.3656 17.4746 17.2275 17.9238C16.1045 18.3581 14.6146 18.5752 12.7578 18.5752H8.40039ZM8.40039 13.9707H12.668C14.6745 13.9707 16.2617 13.5215 17.4297 12.623C18.6126 11.7096 19.2041 10.6165 19.2041 9.34375C19.2041 8.26562 18.7249 7.32227 17.7666 6.51367C16.8232 5.70508 15.4681 5.30078 13.7012 5.30078H8.40039V13.9707Z" fill="#4EF7AB"/>
<path d="M44.3154 20.5068H33.1299L32.0068 23.3145H33.1299C34.238 23.3145 35.0241 23.5316 35.4883 23.9658C35.9674 24.3851 36.207 24.9391 36.207 25.6279C36.207 26.3018 35.9674 26.8558 35.4883 27.29C35.0241 27.7093 34.238 27.9189 33.1299 27.9189H26.9307C25.8226 27.9189 25.0365 27.7093 24.5723 27.29C24.0931 26.8558 23.8535 26.2943 23.8535 25.6055C23.8535 24.9167 24.1006 24.3551 24.5947 23.9209C25.0889 23.4867 25.9049 23.2845 27.043 23.3145L34.2754 5.30078H31.2656C30.1576 5.30078 29.3639 5.09115 28.8848 4.67188C28.4206 4.23763 28.1885 3.67611 28.1885 2.9873C28.1885 2.2985 28.4206 1.74447 28.8848 1.3252C29.3639 0.890951 30.1576 0.673828 31.2656 0.673828L41.2158 0.696289L50.3799 23.3145C51.458 23.3145 52.1693 23.4342 52.5137 23.6738C53.2025 24.168 53.5469 24.8193 53.5469 25.6279C53.5469 26.3018 53.3148 26.8558 52.8506 27.29C52.3864 27.7093 51.6003 27.9189 50.4922 27.9189H44.293C43.1849 27.9189 42.3913 27.7093 41.9121 27.29C41.4479 26.8558 41.2158 26.2943 41.2158 25.6055C41.2158 24.9316 41.4479 24.3851 41.9121 23.9658C42.3913 23.5316 43.1849 23.3145 44.293 23.3145H45.416L44.3154 20.5068ZM42.4062 15.9023L38.7002 6.7832L34.9717 15.9023H42.4062Z" fill="#4EF7AB"/>
<path d="M73.5371 1.86426C73.8216 1.47493 74.1286 1.18294 74.458 0.988281C74.8024 0.79362 75.1693 0.696289 75.5586 0.696289C76.2324 0.696289 76.779 0.928385 77.1982 1.39258C77.6325 1.85677 77.8496 2.6429 77.8496 3.75098V7.65918C77.8496 8.76725 77.6325 9.56087 77.1982 10.04C76.779 10.5042 76.2324 10.7363 75.5586 10.7363C74.9447 10.7363 74.4505 10.5641 74.0762 10.2197C73.7018 9.87533 73.4248 9.23145 73.2451 8.28809C73.1403 7.65918 72.9307 7.17253 72.6162 6.82812C72.0023 6.1543 71.1413 5.61523 70.0332 5.21094C68.9401 4.80664 67.8395 4.60449 66.7314 4.60449C65.3538 4.60449 64.0885 4.90397 62.9355 5.50293C61.7826 6.10189 60.7643 7.0752 59.8809 8.42285C58.9974 9.77051 58.5557 11.3727 58.5557 13.2295V16.2168C58.5557 18.4329 59.3568 20.2822 60.959 21.7646C62.5762 23.2471 64.8148 23.9883 67.6748 23.9883C69.3818 23.9883 70.8268 23.7562 72.0098 23.292C72.6986 23.0225 73.4323 22.4909 74.2109 21.6973C74.6901 21.2181 75.0645 20.9111 75.334 20.7764C75.6035 20.6266 75.9105 20.5518 76.2549 20.5518C76.8688 20.5518 77.4079 20.7839 77.8721 21.248C78.3363 21.7122 78.5684 22.2588 78.5684 22.8877C78.5684 23.5166 78.2539 24.1904 77.625 24.9092C76.7116 25.9574 75.5361 26.7809 74.0986 27.3799C72.167 28.1885 70.0332 28.5928 67.6973 28.5928C64.972 28.5928 62.5163 28.0312 60.3301 26.9082C58.5632 26.0098 57.0583 24.5947 55.8154 22.6631C54.5726 20.7165 53.9512 18.5977 53.9512 16.3066V13.1846C53.9512 10.7887 54.5052 8.55762 55.6133 6.49121C56.7363 4.40983 58.2861 2.80762 60.2627 1.68457C62.2393 0.561523 64.3356 0 66.5518 0C67.8844 0 69.1273 0.157227 70.2803 0.47168C71.4482 0.771159 72.5339 1.23535 73.5371 1.86426Z" fill="#4EF7AB"/>
<path d="M101.164 1.86426C101.449 1.47493 101.756 1.18294 102.085 0.988281C102.429 0.79362 102.796 0.696289 103.186 0.696289C103.859 0.696289 104.406 0.928385 104.825 1.39258C105.259 1.85677 105.477 2.6429 105.477 3.75098V7.65918C105.477 8.76725 105.259 9.56087 104.825 10.04C104.406 10.5042 103.859 10.7363 103.186 10.7363C102.572 10.7363 102.077 10.5641 101.703 10.2197C101.329 9.87533 101.052 9.23145 100.872 8.28809C100.767 7.65918 100.558 7.17253 100.243 6.82812C99.6292 6.1543 98.7682 5.61523 97.6602 5.21094C96.5671 4.80664 95.4665 4.60449 94.3584 4.60449C92.9808 4.60449 91.7155 4.90397 90.5625 5.50293C89.4095 6.10189 88.3913 7.0752 87.5078 8.42285C86.6243 9.77051 86.1826 11.3727 86.1826 13.2295V16.2168C86.1826 18.4329 86.9837 20.2822 88.5859 21.7646C90.2031 23.2471 92.4417 23.9883 95.3018 23.9883C97.0088 23.9883 98.4538 23.7562 99.6367 23.292C100.326 23.0225 101.059 22.4909 101.838 21.6973C102.317 21.2181 102.691 20.9111 102.961 20.7764C103.23 20.6266 103.537 20.5518 103.882 20.5518C104.496 20.5518 105.035 20.7839 105.499 21.248C105.963 21.7122 106.195 22.2588 106.195 22.8877C106.195 23.5166 105.881 24.1904 105.252 24.9092C104.339 25.9574 103.163 26.7809 101.726 27.3799C99.7939 28.1885 97.6602 28.5928 95.3242 28.5928C92.599 28.5928 90.1432 28.0312 87.957 26.9082C86.1901 26.0098 84.6852 24.5947 83.4424 22.6631C82.1995 20.7165 81.5781 18.5977 81.5781 16.3066V13.1846C81.5781 10.7887 82.1322 8.55762 83.2402 6.49121C84.3633 4.40983 85.9131 2.80762 87.8896 1.68457C89.8662 0.561523 91.9626 0 94.1787 0C95.5114 0 96.7542 0.157227 97.9072 0.47168C99.0752 0.771159 100.161 1.23535 101.164 1.86426Z" fill="#4EF7AB"/>
<path d="M116.842 16.5537V23.3145H128.589V20.8213C128.589 19.7132 128.799 18.9271 129.218 18.4629C129.652 17.9837 130.214 17.7441 130.902 17.7441C131.576 17.7441 132.123 17.9837 132.542 18.4629C132.976 18.9271 133.193 19.7132 133.193 20.8213V27.9189H111.519C110.41 27.9189 109.617 27.7093 109.138 27.29C108.674 26.8558 108.441 26.2943 108.441 25.6055C108.441 24.9316 108.681 24.3851 109.16 23.9658C109.639 23.5316 110.425 23.3145 111.519 23.3145H112.237V5.30078H111.519C110.41 5.30078 109.617 5.09115 109.138 4.67188C108.674 4.23763 108.441 3.67611 108.441 2.9873C108.441 2.2985 108.674 1.74447 109.138 1.3252C109.617 0.890951 110.41 0.673828 111.519 0.673828L132.183 0.696289V7.7041C132.183 8.7972 131.973 9.58333 131.554 10.0625C131.134 10.5267 130.58 10.7588 129.892 10.7588C129.203 10.7588 128.641 10.5267 128.207 10.0625C127.788 9.59831 127.578 8.81217 127.578 7.7041V5.30078H116.842V11.9492H120.885C120.885 10.7513 120.997 9.98014 121.222 9.63574C121.686 8.90202 122.345 8.53516 123.198 8.53516C123.872 8.53516 124.419 8.77474 124.838 9.25391C125.272 9.7181 125.489 10.5042 125.489 11.6123V16.9131C125.489 17.9163 125.369 18.5902 125.13 18.9346C124.651 19.6383 124.007 19.9902 123.198 19.9902C122.345 19.9902 121.686 19.6234 121.222 18.8896C120.997 18.5452 120.885 17.7666 120.885 16.5537H116.842Z" fill="#4EF7AB"/>
<path d="M156.912 5.39062C156.762 5.43555 155.901 6.6709 154.329 9.09668C153.206 10.8187 152.457 11.9417 152.083 12.4658L151.813 13.0049C153.281 14.2178 154.546 15.8799 155.609 17.9912L158.327 23.3145H159.181C160.678 23.3145 161.689 23.4867 162.213 23.8311C162.752 24.1755 163.021 24.7669 163.021 25.6055C163.021 26.444 162.759 27.043 162.235 27.4023C161.711 27.7467 160.693 27.9189 159.181 27.9189H158.664C157.077 27.9189 156.133 27.8066 155.834 27.582C155.535 27.3424 155.055 26.5863 154.396 25.3135L151.679 20.0127C150.196 17.1527 148.624 15.7227 146.962 15.7227H145.659V23.3145C145.869 23.2995 146.078 23.292 146.288 23.292C148.399 23.292 149.455 24.0632 149.455 25.6055C149.455 26.444 149.193 27.043 148.669 27.4023C148.16 27.7467 147.157 27.9189 145.659 27.9189H141.055C139.572 27.9189 138.562 27.7467 138.022 27.4023C137.498 27.0579 137.236 26.4665 137.236 25.6279C137.236 24.7894 137.498 24.1979 138.022 23.8535C138.562 23.4941 139.572 23.3145 141.055 23.3145V5.30078C140.845 5.31576 140.635 5.32324 140.426 5.32324C138.299 5.32324 137.236 4.5446 137.236 2.9873C137.236 2.14876 137.498 1.55729 138.022 1.21289C138.547 0.86849 139.557 0.696289 141.055 0.696289H145.659C147.142 0.696289 148.145 0.86849 148.669 1.21289C149.193 1.55729 149.455 2.14876 149.455 2.9873C149.455 3.82585 149.193 4.4248 148.669 4.78418C148.145 5.12858 147.142 5.30078 145.659 5.30078V11.0957H146.288C146.797 11.0957 147.216 10.9909 147.546 10.7812C147.875 10.5716 148.347 10.0026 148.961 9.07422L152.285 4.02051C152.989 2.95736 153.783 2.13379 154.666 1.5498C155.549 0.96582 156.792 0.673828 158.395 0.673828C159.398 0.673828 160.109 0.823568 160.528 1.12305C160.948 1.42253 161.21 1.76693 161.314 2.15625C161.419 2.54557 161.472 3.33919 161.472 4.53711V4.98633C161.472 6.4388 161.307 7.42708 160.978 7.95117C160.648 8.46029 160.072 8.71484 159.248 8.71484C157.736 8.71484 156.957 7.60677 156.912 5.39062Z" fill="#4EF7AB"/>
<path d="M174.162 18.5752V23.3145H178.812C179.92 23.3145 180.706 23.5316 181.17 23.9658C181.649 24.3851 181.889 24.9391 181.889 25.6279C181.889 26.3018 181.649 26.8558 181.17 27.29C180.706 27.7093 179.92 27.9189 178.812 27.9189H168.839C167.731 27.9189 166.937 27.7093 166.458 27.29C165.994 26.8558 165.762 26.2943 165.762 25.6055C165.762 24.9316 166.001 24.3851 166.48 23.9658C166.96 23.5316 167.746 23.3145 168.839 23.3145H169.558V5.30078H168.839C167.731 5.30078 166.937 5.09115 166.458 4.67188C165.994 4.23763 165.762 3.67611 165.762 2.9873C165.762 2.2985 165.994 1.74447 166.458 1.3252C166.937 0.890951 167.731 0.673828 168.839 0.673828L179.44 0.696289C182.555 0.696289 185.018 1.5498 186.83 3.25684C188.657 4.94889 189.57 7.0153 189.57 9.45605C189.57 10.8037 189.263 12.0765 188.649 13.2744C188.185 14.1729 187.407 15.0638 186.313 15.9473C185.235 16.8158 184.127 17.4746 182.989 17.9238C181.866 18.3581 180.376 18.5752 178.52 18.5752H174.162ZM174.162 13.9707H178.43C180.436 13.9707 182.023 13.5215 183.191 12.623C184.374 11.7096 184.966 10.6165 184.966 9.34375C184.966 8.26562 184.487 7.32227 183.528 6.51367C182.585 5.70508 181.23 5.30078 179.463 5.30078H174.162V13.9707Z" fill="#4EF7AB"/>
<path d="M199.723 16.5537V23.3145H211.47V20.8213C211.47 19.7132 211.679 18.9271 212.099 18.4629C212.533 17.9837 213.094 17.7441 213.783 17.7441C214.457 17.7441 215.004 17.9837 215.423 18.4629C215.857 18.9271 216.074 19.7132 216.074 20.8213V27.9189H194.399C193.291 27.9189 192.498 27.7093 192.019 27.29C191.554 26.8558 191.322 26.2943 191.322 25.6055C191.322 24.9316 191.562 24.3851 192.041 23.9658C192.52 23.5316 193.306 23.3145 194.399 23.3145H195.118V5.30078H194.399C193.291 5.30078 192.498 5.09115 192.019 4.67188C191.554 4.23763 191.322 3.67611 191.322 2.9873C191.322 2.2985 191.554 1.74447 192.019 1.3252C192.498 0.890951 193.291 0.673828 194.399 0.673828L215.063 0.696289V7.7041C215.063 8.7972 214.854 9.58333 214.435 10.0625C214.015 10.5267 213.461 10.7588 212.772 10.7588C212.084 10.7588 211.522 10.5267 211.088 10.0625C210.669 9.59831 210.459 8.81217 210.459 7.7041V5.30078H199.723V11.9492H203.766C203.766 10.7513 203.878 9.98014 204.103 9.63574C204.567 8.90202 205.226 8.53516 206.079 8.53516C206.753 8.53516 207.299 8.77474 207.719 9.25391C208.153 9.7181 208.37 10.5042 208.37 11.6123V16.9131C208.37 17.9163 208.25 18.5902 208.011 18.9346C207.532 19.6383 206.888 19.9902 206.079 19.9902C205.226 19.9902 204.567 19.6234 204.103 18.8896C203.878 18.5452 203.766 17.7666 203.766 16.5537H199.723Z" fill="#4EF7AB"/>
<path d="M236.783 23.3145V17.542C234.582 18.9945 232.276 19.7207 229.865 19.7207C224.924 19.7207 222.453 16.8906 222.453 11.2305V5.30078C221.165 5.30078 220.274 5.11361 219.78 4.73926C219.286 4.34993 219.039 3.76595 219.039 2.9873C219.039 2.16374 219.301 1.57975 219.825 1.23535C220.349 0.875977 221.368 0.696289 222.88 0.696289H227.058C228.57 0.696289 229.596 0.86849 230.135 1.21289C230.674 1.55729 230.943 2.14876 230.943 2.9873C230.943 3.82585 230.674 4.4248 230.135 4.78418C229.596 5.12858 228.57 5.30078 227.058 5.30078V11.0283C227.058 12.6455 227.282 13.7161 227.731 14.2402C228.181 14.7643 228.959 15.0264 230.067 15.0264C231.969 15.0264 234.208 14.0605 236.783 12.1289V5.30078H236.356C234.26 5.30078 233.212 4.52962 233.212 2.9873C233.212 2.16374 233.474 1.57975 233.998 1.23535C234.537 0.875977 235.555 0.696289 237.053 0.696289H241.028C242.511 0.696289 243.521 0.86849 244.061 1.21289C244.6 1.55729 244.869 2.14876 244.869 2.9873C244.869 3.7959 244.607 4.38737 244.083 4.76172C243.574 5.12109 242.675 5.30078 241.388 5.30078V23.3145C242.69 23.3145 243.596 23.5016 244.105 23.876C244.615 24.2503 244.869 24.8268 244.869 25.6055C244.869 26.444 244.6 27.043 244.061 27.4023C243.536 27.7467 242.526 27.9189 241.028 27.9189H234.021C232.538 27.9189 231.527 27.7467 230.988 27.4023C230.449 27.0579 230.18 26.459 230.18 25.6055C230.18 24.7819 230.442 24.1979 230.966 23.8535C231.505 23.4941 232.523 23.3145 234.021 23.3145H236.783Z" fill="#4EF7AB"/>
<path d="M254.977 16.5537V23.3145H266.724V20.8213C266.724 19.7132 266.933 18.9271 267.353 18.4629C267.787 17.9837 268.348 17.7441 269.037 17.7441C269.711 17.7441 270.257 17.9837 270.677 18.4629C271.111 18.9271 271.328 19.7132 271.328 20.8213V27.9189H249.653C248.545 27.9189 247.752 27.7093 247.272 27.29C246.808 26.8558 246.576 26.2943 246.576 25.6055C246.576 24.9316 246.816 24.3851 247.295 23.9658C247.774 23.5316 248.56 23.3145 249.653 23.3145H250.372V5.30078H249.653C248.545 5.30078 247.752 5.09115 247.272 4.67188C246.808 4.23763 246.576 3.67611 246.576 2.9873C246.576 2.2985 246.808 1.74447 247.272 1.3252C247.752 0.890951 248.545 0.673828 249.653 0.673828L270.317 0.696289V7.7041C270.317 8.7972 270.108 9.58333 269.688 10.0625C269.269 10.5267 268.715 10.7588 268.026 10.7588C267.338 10.7588 266.776 10.5267 266.342 10.0625C265.923 9.59831 265.713 8.81217 265.713 7.7041V5.30078H254.977V11.9492H259.02C259.02 10.7513 259.132 9.98014 259.356 9.63574C259.821 8.90202 260.479 8.53516 261.333 8.53516C262.007 8.53516 262.553 8.77474 262.973 9.25391C263.407 9.7181 263.624 10.5042 263.624 11.6123V16.9131C263.624 17.9163 263.504 18.5902 263.265 18.9346C262.785 19.6383 262.142 19.9902 261.333 19.9902C260.479 19.9902 259.821 19.6234 259.356 18.8896C259.132 18.5452 259.02 17.7666 259.02 16.5537H254.977Z" fill="#4EF7AB"/>
<path d="M292.374 16.6436H282.536V23.3145H283.255C284.363 23.3145 285.149 23.5316 285.613 23.9658C286.092 24.3851 286.332 24.9391 286.332 25.6279C286.332 26.3018 286.092 26.8558 285.613 27.29C285.149 27.7093 284.363 27.9189 283.255 27.9189H277.617C276.509 27.9189 275.715 27.7093 275.236 27.29C274.772 26.8558 274.54 26.2943 274.54 25.6055C274.54 24.7669 274.907 24.1156 275.641 23.6514C276 23.4118 276.764 23.2995 277.932 23.3145V5.30078C277.123 5.22591 276.509 4.97884 276.09 4.55957C275.686 4.1403 275.483 3.61621 275.483 2.9873C275.483 2.2985 275.715 1.74447 276.18 1.3252C276.659 0.890951 277.452 0.673828 278.561 0.673828L283.255 0.696289C284.363 0.696289 285.149 0.905924 285.613 1.3252C286.092 1.74447 286.332 2.2985 286.332 2.9873C286.332 3.67611 286.092 4.23763 285.613 4.67188C285.149 5.09115 284.363 5.30078 283.255 5.30078H282.536V12.0391H292.374V5.30078H291.655C290.547 5.30078 289.754 5.09115 289.274 4.67188C288.81 4.23763 288.578 3.67611 288.578 2.9873C288.578 2.2985 288.81 1.74447 289.274 1.3252C289.754 0.890951 290.547 0.673828 291.655 0.673828L296.35 0.696289C297.458 0.696289 298.244 0.905924 298.708 1.3252C299.187 1.74447 299.427 2.2985 299.427 2.9873C299.427 3.61621 299.217 4.1403 298.798 4.55957C298.394 4.97884 297.787 5.22591 296.979 5.30078V23.3145C298.161 23.3145 298.925 23.4268 299.27 23.6514C300.003 24.1156 300.37 24.7744 300.37 25.6279C300.37 26.3018 300.131 26.8558 299.651 27.29C299.187 27.7093 298.401 27.9189 297.293 27.9189H291.655C290.547 27.9189 289.754 27.7093 289.274 27.29C288.81 26.8558 288.578 26.2943 288.578 25.6055C288.578 24.9316 288.818 24.3851 289.297 23.9658C289.776 23.5316 290.562 23.3145 291.655 23.3145H292.374V16.6436Z" fill="#4EF7AB"/>
</svg>
