<svg width="303" height="141" viewBox="0 0 303 141" fill="none" xmlns="http://www.w3.org/2000/svg">
<path d="M54.3521 12.7733V27.0209H63.0495V12.7733H58.702V0H36.9597V27.0209H41.3073V12.7733H54.3521Z" fill="white"/>
<path d="M76.0904 0H67.3931V27.0209H76.0904V0Z" fill="white"/>
<path d="M141.318 0H136.97V12.7733H141.318V0Z" fill="white"/>
<path d="M150.015 0H145.668V12.7733H150.015V0Z" fill="white"/>
<path d="M210.886 0H206.539V12.7733H210.886V0Z" fill="white"/>
<path d="M106.53 27.0206V12.773H97.8354V27.0206H106.53Z" fill="white"/>
<path d="M223.938 12.7733H219.588V0H215.24V12.7733H219.588V27.0209H223.938V12.7733Z" fill="white"/>
<path d="M236.981 12.7733H241.329V0H228.284V12.7733H232.632V27.0209H236.981V12.7733Z" fill="white"/>
<path d="M136.97 27.0206V41.2682H141.318V55.5136H158.713V41.2682H154.363V27.0206H150.015V41.2682H145.668L145.668 12.7733H141.318V27.0206H136.97Z" fill="white"/>
<path d="M189.147 0H180.45V12.7733H176.102V0H171.755V27.0209H184.799V41.2685H189.147V0Z" fill="white"/>
<path d="M202.193 27.0209H197.845V0H193.495V69.7615H197.845V55.5139H202.193V27.0209Z" fill="white"/>
<path d="M106.53 55.5146V41.2691H97.8354V69.7621H102.183V55.5146H106.53Z" fill="white"/>
<path d="M171.755 41.2685L171.755 27.0209H163.058V12.7733H167.405V0H158.71V12.7733H154.36V27.0209H158.71V41.2685H167.405V69.7615H163.058V84.0091H176.102V112.504H180.45V126.752H184.8V84.0091H180.45V69.7615H176.102V55.5139H184.8L184.799 41.2685H171.755Z" fill="white"/>
<path d="M202.192 55.5146V98.2574H206.54V69.7622H210.89V55.5146H202.192Z" fill="white"/>
<path d="M250.023 0H245.673V27.0209H241.326V55.5139H245.673V69.7615H241.326V55.5139H236.978V69.7615H232.629V98.2567H223.934V84.0091H219.584V69.7615H210.889V112.504H206.539V126.752H210.889V140.999H228.281V126.752H215.236V112.504H228.281V126.752H236.978V112.504H241.326V98.2567H236.978V84.0091H241.326V98.2567H245.673V112.504H241.326V126.752H245.673V140.999H254.371V98.2567H250.023V84.0091H254.371V55.5139H250.023V0Z" fill="white"/>
<path d="M93.4841 69.7615V41.2685H97.834V27.0209H93.4841V12.7733H97.834V0H89.1366V55.5139H84.7891V0H80.4393V27.0209H76.0918V55.5139H80.4393V69.7615H76.0918V84.0091H67.3944V112.504H71.7442V126.752H67.3944V112.504H63.0469V126.752H54.3495V140.999H76.0918V98.2567H84.7891V69.7615H89.1366V84.0091H97.834V69.7615H93.4841Z" fill="white"/>
<path d="M228.281 55.5141L236.978 55.5139V41.2687H232.629V27.0211H223.934V41.2687H219.584V27.0211H206.539V41.2687H215.236V55.5141H223.934L223.934 84.0091L228.281 84.0092V55.5141Z" fill="white"/>
<path d="M189.149 84.0095V98.2571H197.846V84.0095H189.149Z" fill="white"/>
<path d="M63.0494 112.504V98.2564H54.3543V84.0088H58.7019V69.7612H54.3543V55.5136H58.7019V69.7612L76.0918 69.7615V55.5139L71.7444 55.5136V41.266H50.0068V55.5136H45.6593V41.266H50.0068V27.0184H41.3118V69.7612H36.9642V84.0088H41.3118V98.2564H45.6593V112.504H41.3118V98.2564H36.9642V140.964C37.2599 140.977 37.5578 140.984 37.8534 140.999H45.6593V126.752H54.3543V112.504H63.0494ZM50.0045 84.0088H45.657V69.7612H50.0045V84.0088Z" fill="white"/>
<path d="M89.1349 98.2562H84.7874V112.504H89.1349V98.2562Z" fill="white"/>
<path d="M197.846 140.999H202.194V98.2562H197.846V140.999Z" fill="white"/>
<path d="M80.441 141H89.1384V126.752H84.7908V112.504H80.441V141Z" fill="white"/>
<path d="M110.879 112.504V69.7614H102.182V84.009L97.834 84.0091L97.8344 112.504H93.4846V140.999H102.182V112.504H106.529V126.752H110.879V140.999H123.924V126.752H119.577V112.504H110.879Z" fill="white"/>
<path d="M136.967 112.504H132.62V126.752H136.967V112.504Z" fill="white"/>
<path d="M158.71 112.504H163.057V98.2567H154.36V69.7615H145.665V84.0091H132.62V69.7615H123.923V55.5139H132.62V69.7615H136.968V41.2685H132.62V27.0209H136.968V12.7733H132.62V0H123.923V27.0209H128.27V41.2685H119.575V0H106.528V12.7733H110.878V41.2685H115.225V55.5139H110.878V69.7615H115.225V84.0091H123.923V98.2567H119.575V112.504L132.62 112.504L132.62 98.2567H141.315V126.752L136.967 126.752L136.968 140.999H145.665V98.2567H150.013V112.504H154.36V140.999H163.057V126.752H158.71V112.504Z" fill="white"/>
<path d="M167.405 112.504L163.057 112.504V126.752L167.405 126.752V112.504Z" fill="white"/>
<path d="M171.758 126.752H167.408V141H176.106V112.504H171.758V126.752Z" fill="white"/>
<path d="M193.497 112.504H189.149V126.752H193.497V112.504Z" fill="white"/>
<path d="M132.621 126.752H128.273V141H132.621V126.752Z" fill="white"/>
<path d="M241.329 126.752H236.981V141H241.329V126.752Z" fill="white"/>
<path d="M11.459 0H0V140.999H11.459V0Z" fill="white"/>
<path d="M16.1858 0H13.894V140.999H16.1858V0Z" fill="white"/>
<path d="M22.0004 0H19.7086V140.999H22.0004V0Z" fill="white"/>
<path d="M32.3985 0H30.1067V140.999H32.3985V0Z" fill="white"/>
<path d="M272.844 0H261.385V140.999H272.844V0Z" fill="white"/>
<path d="M277.571 0H275.279V140.999H277.571V0Z" fill="white"/>
<path d="M303 0H300.708V140.999H303V0Z" fill="white"/>
<path d="M285.677 0H283.386V140.999H285.677V0Z" fill="white"/>
<path d="M291.492 0H289.2V140.999H291.492V0Z" fill="white"/>
</svg>
