<svg width="471" height="665" viewBox="0 0 471 665" fill="none" xmlns="http://www.w3.org/2000/svg">
<rect x="247.834" y="289.208" width="20.1069" height="344.33" transform="rotate(22 247.834 289.208)" fill="#464646"/>
<rect x="355.088" y="51.9795" width="194.925" height="196.233" rx="8" transform="rotate(67 355.088 51.9795)" fill="#1DC148"/>
<rect x="351.497" y="61.6816" width="180.771" height="182.011" rx="6" transform="rotate(67 351.497 61.6816)" fill="#1DC148" stroke="#464646" stroke-width="4"/>
<path d="M304.196 119.516C274.755 110.965 266.329 110.687 261.038 115.633C266.726 128.605 276.479 134.891 300.607 145.173C301.37 151.45 304.117 153.867 312.235 156.648C321.333 159.895 323.901 159.032 326.823 155.765C350.455 164.312 361.129 165.448 376.39 162.238C371.902 151.051 363.626 145.167 342.647 135.051C347.009 124.991 329.183 114.702 329.183 114.702C329.183 114.702 307.66 108.947 304.196 119.516Z" fill="black"/>
<path d="M303.721 155.919L235.207 229.89C265.316 245.568 283.052 252.619 315.604 262.372L318.286 161.803L303.721 155.919Z" fill="black"/>
<circle cx="262.335" cy="280.157" r="3.77004" transform="rotate(22 262.335 280.157)" fill="#464646"/>
<circle cx="343.308" cy="79.7467" r="3.77004" transform="rotate(22 343.308 79.7467)" fill="#464646"/>
<circle cx="319.894" cy="136.023" r="4.39838" transform="rotate(22 319.894 136.023)" fill="#1DC148"/>
<ellipse cx="329.212" cy="139.789" rx="4.39838" ry="3.1417" transform="rotate(22 329.212 139.789)" fill="#1DC148"/>
<ellipse cx="310.567" cy="132.256" rx="4.39838" ry="3.1417" transform="rotate(22 310.567 132.256)" fill="#1DC148"/>
<ellipse cx="338.534" cy="143.555" rx="4.39838" ry="1.88502" transform="rotate(22 338.534 143.555)" fill="#1DC148"/>
<ellipse cx="301.245" cy="128.49" rx="4.39838" ry="1.88502" transform="rotate(22 301.245 128.49)" fill="#1DC148"/>
<ellipse cx="347.859" cy="147.321" rx="4.39838" ry="1.88502" transform="rotate(22 347.859 147.321)" fill="#1DC148"/>
<ellipse cx="291.929" cy="124.725" rx="4.39838" ry="1.88502" transform="rotate(22 291.929 124.725)" fill="#1DC148"/>
<ellipse cx="357.179" cy="151.087" rx="4.39838" ry="1.88502" transform="rotate(22 357.179 151.087)" fill="#1DC148"/>
<ellipse cx="282.609" cy="120.958" rx="4.39838" ry="1.88502" transform="rotate(22 282.609 120.958)" fill="#1DC148"/>
<ellipse cx="366.501" cy="154.853" rx="4.39838" ry="0.62834" transform="rotate(22 366.501 154.853)" fill="#1DC148"/>
<ellipse cx="273.286" cy="117.192" rx="4.39838" ry="0.62834" transform="rotate(22 273.286 117.192)" fill="#1DC148"/>
<path d="M258.115 213.847C258.115 213.847 256.269 216.818 257.048 218.16C257.91 219.646 261.946 219.461 261.946 219.461L269.89 216.572L277.575 221.032L271.602 227.429L274.48 238.757C276.452 242.264 280.306 241.111 280.553 237.144L279.411 229.906L283.513 224.786L293.688 218.054L293.664 224.822L306.952 228.835C309.177 228.968 310.996 224.332 308.723 222.774L300.331 220.061L300.826 212.128C313.682 208.023 301.605 195.718 296.647 205.696L289.074 202.636L291.092 192.609C290.777 190.507 285.991 189.134 285.143 192.238L283.348 205.067L289.05 209.404L280.747 214.859L269.095 210.151L258.115 213.847Z" fill="#1DC148"/>
</svg>
